<svg xmlns="http://www.w3.org/2000/svg" width="109.877" height="98.89" viewBox="0 0 109.877 98.89">
  <g id="malware" transform="translate(0 -24)">
    <path id="Path_2150" data-name="Path 2150" d="M109.869,152.22l-.255-5.226a1.831,1.831,0,0,0-1.829-1.742h-5.232V123.276H98.89v21.975H66.96a4.925,4.925,0,0,0-3.506,1.452,1.286,1.286,0,0,1-.916.379H47.077a1.287,1.287,0,0,1-.916-.379,4.924,4.924,0,0,0-3.506-1.452H10.988V95.807a5.5,5.5,0,0,1,5.494-5.494v51.276h3.663V81.156c0-3.183,2.6-5.494,6.181-5.494h10.3V72h-10.3c-5.612,0-9.843,3.937-9.843,9.156V86.65a9.167,9.167,0,0,0-9.156,9.156v49.445H1.831A1.831,1.831,0,0,0,0,147.083v5.494A7.333,7.333,0,0,0,7.325,159.9h95.227a7.325,7.325,0,0,0,7.325-7.325Q109.877,152.4,109.869,152.22ZM105.2,155.1a3.63,3.63,0,0,1-2.652,1.137H7.325a3.667,3.667,0,0,1-3.663-3.663v-3.663H42.656a1.287,1.287,0,0,1,.916.379,4.924,4.924,0,0,0,3.506,1.452H62.539a4.925,4.925,0,0,0,3.506-1.452,1.286,1.286,0,0,1,.916-.379h39.08l.17,3.484A3.629,3.629,0,0,1,105.2,155.1Z" transform="translate(0 -37.012)" fill="#b900ad"/>
    <path id="Path_2151" data-name="Path 2151" d="M392,296h3.663v18.313H392Z" transform="translate(-302.267 -209.736)" fill="#b900ad"/>
    <path id="Path_2152" data-name="Path 2152" d="M112,104h3.663v3.663H112Z" transform="translate(-86.362 -61.687)" fill="#b900ad"/>
    <path id="Path_2153" data-name="Path 2153" d="M144,104h3.663v3.663H144Z" transform="translate(-111.037 -61.687)" fill="#b900ad"/>
    <path id="Path_2154" data-name="Path 2154" d="M112,136h10.988v3.663H112Z" transform="translate(-86.362 -86.362)" fill="#b900ad"/>
    <path id="Path_2155" data-name="Path 2155" d="M185.156,82.6h6.729l-3,10.484a1.831,1.831,0,0,0,2.811,2L209.541,82.6h26.892a9.167,9.167,0,0,0,9.156-9.156V33.156A9.167,9.167,0,0,0,236.433,24H185.156A9.167,9.167,0,0,0,176,33.156V73.445A9.167,9.167,0,0,0,185.156,82.6Zm-5.494-49.445a5.5,5.5,0,0,1,5.494-5.494h51.276a5.5,5.5,0,0,1,5.494,5.494V73.445a5.5,5.5,0,0,1-5.494,5.494H208.963a1.832,1.832,0,0,0-1.05.331l-14.084,9.859,2.243-7.855a1.831,1.831,0,0,0-1.76-2.334h-9.156a5.5,5.5,0,0,1-5.494-5.494Z" transform="translate(-135.712)" fill="#b900ad"/>
    <path id="Path_2156" data-name="Path 2156" d="M112,168h3.663v3.663H112Z" transform="translate(-86.362 -111.037)" fill="#b900ad"/>
    <path id="Path_2157" data-name="Path 2157" d="M112,200h10.988v3.663H112Z" transform="translate(-86.362 -135.712)" fill="#b900ad"/>
    <path id="Path_2158" data-name="Path 2158" d="M112,232h10.988v3.663H112Z" transform="translate(-86.362 -160.386)" fill="#b900ad"/>
    <path id="Path_2159" data-name="Path 2159" d="M112,264h12.819v3.663H112Z" transform="translate(-86.362 -185.061)" fill="#b900ad"/>
    <path id="Path_2160" data-name="Path 2160" d="M112,296h7.325v3.663H112Z" transform="translate(-86.362 -209.736)" fill="#b900ad"/>
    <path id="Path_2161" data-name="Path 2161" d="M112,328h23.807v3.663H112Z" transform="translate(-86.362 -234.411)" fill="#b900ad"/>
    <path id="Path_2162" data-name="Path 2162" d="M312,296h12.819v3.663H312Z" transform="translate(-240.58 -209.736)" fill="#b900ad"/>
    <path id="Path_2163" data-name="Path 2163" d="M272,328h21.975v3.663H272Z" transform="translate(-209.736 -234.411)" fill="#b900ad"/>
    <path id="Path_2164" data-name="Path 2164" d="M112,360h45.782v3.663H112Z" transform="translate(-86.362 -259.086)" fill="#b900ad"/>
    <path id="Path_2165" data-name="Path 2165" d="M144,168h3.663v3.663H144Z" transform="translate(-111.037 -111.037)" fill="#b900ad"/>
    <path id="Path_2166" data-name="Path 2166" d="M160,296h12.819v3.663H160Z" transform="translate(-123.374 -209.736)" fill="#b900ad"/>
    <path id="Path_2167" data-name="Path 2167" d="M328,360h9.156v3.663H328Z" transform="translate(-252.917 -259.086)" fill="#b900ad"/>
    <path id="Path_2168" data-name="Path 2168" d="M238.649,91l-10.74,3.026a4.3,4.3,0,0,0-1.083-1.012,1.831,1.831,0,1,0-1.993,3.073.817.817,0,0,1,.222,1.089,1.831,1.831,0,0,0,3.136,1.891l0-.008a4.416,4.416,0,0,0,.551-1.465l11.317-3.189a1.838,1.838,0,0,0,.417.05h14.65a1.84,1.84,0,0,0,.417-.049L266.864,97.6a4.416,4.416,0,0,0,.551,1.465,1.831,1.831,0,0,0,3.141-1.884.817.817,0,0,1,.222-1.089,1.831,1.831,0,1,0-1.993-3.073,4.311,4.311,0,0,0-1.083,1.012L256.962,91V89.672L267.7,86.647a4.3,4.3,0,0,0,1.085,1.016,1.831,1.831,0,0,0,1.993-3.073.818.818,0,0,1-.222-1.09,1.831,1.831,0,0,0-3.125-1.91l-.016.026a4.425,4.425,0,0,0-.549,1.46l-3.089.87a5.464,5.464,0,0,0,.51-2.309V72.481a16.482,16.482,0,1,0-32.963,0v9.156a5.461,5.461,0,0,0,.51,2.309l-3.088-.87a4.425,4.425,0,0,0-.549-1.46,1.831,1.831,0,0,0-3.141,1.884.818.818,0,0,1-.222,1.09,1.831,1.831,0,0,0,1.993,3.073,4.3,4.3,0,0,0,1.085-1.016l10.737,3.026Zm-3.663-18.519a12.819,12.819,0,1,1,25.638,0v9.156a1.833,1.833,0,0,1-1.831,1.831h-3.663A1.831,1.831,0,0,0,253.3,85.3v5.494H242.312V85.3a1.831,1.831,0,0,0-1.831-1.831h-3.663a1.833,1.833,0,0,1-1.831-1.831Z" transform="translate(-172.723 -24.674)" fill="#b900ad"/>
    <ellipse id="Ellipse_7575" data-name="Ellipse 7575" cx="4" cy="3.5" rx="4" ry="3.5" transform="translate(66 46)" fill="#b900ad"/>
    <ellipse id="Ellipse_7576" data-name="Ellipse 7576" cx="4" cy="3.5" rx="4" ry="3.5" transform="translate(77 46)" fill="#b900ad"/>
    <path id="Path_2169" data-name="Path 2169" d="M320,160h3.663v5.494H320Z" transform="translate(-246.748 -104.868)" fill="#b900ad"/>
  </g>
</svg>
