<svg id="view" xmlns="http://www.w3.org/2000/svg" width="112.578" height="112.578" viewBox="0 0 112.578 112.578">
  <g id="Group_732" data-name="Group 732">
    <path id="Path_2170" data-name="Path 2170" d="M379.913,52.638H379.9a2.2,2.2,0,1,0,.013,0Z" transform="translate(-294.658 -41.064)" fill="#b900ad"/>
    <path id="Path_2171" data-name="Path 2171" d="M433.884,52.638h-.013a2.2,2.2,0,1,0,.013,0Z" transform="translate(-336.762 -41.064)" fill="#b900ad"/>
    <path id="Path_2172" data-name="Path 2172" d="M325.943,52.638h-.013a2.2,2.2,0,1,0,.013,0Z" transform="translate(-252.555 -41.064)" fill="#b900ad"/>
    <path id="Path_2173" data-name="Path 2173" d="M95.5,52.638H62.462a2.2,2.2,0,1,0,0,4.4H95.5a2.2,2.2,0,1,0,0-4.4Z" transform="translate(-47.013 -41.064)" fill="#b900ad"/>
    <path id="Path_2174" data-name="Path 2174" d="M105.524,0H7.054A7.062,7.062,0,0,0,0,7.054V88.471a7.062,7.062,0,0,0,7.054,7.054H18.829v8.858a8.2,8.2,0,0,0,8.195,8.195H85.554a8.2,8.2,0,0,0,8.195-8.195V95.525h11.775a7.062,7.062,0,0,0,7.054-7.054V7.054A7.062,7.062,0,0,0,105.524,0Zm2.656,88.471a2.66,2.66,0,0,1-2.656,2.657H93.749V45.852a8.2,8.2,0,0,0-8.195-8.195h-19.4a2.2,2.2,0,1,0,0,4.4h19.4a3.8,3.8,0,0,1,3.8,3.8v58.531a3.8,3.8,0,0,1-3.8,3.8H27.023a3.8,3.8,0,0,1-3.8-3.8V45.852a3.8,3.8,0,0,1,3.8-3.8H46.4a2.2,2.2,0,0,0,0-4.4H27.023a8.2,8.2,0,0,0-8.195,8.195V91.127H7.054A2.66,2.66,0,0,1,4.4,88.471V27.552H108.18Zm0-65.317H4.4V7.054A2.66,2.66,0,0,1,7.054,4.4h98.469a2.66,2.66,0,0,1,2.656,2.657Z" fill="#b900ad"/>
    <path id="Path_2175" data-name="Path 2175" d="M131.23,228.847a2.2,2.2,0,0,0,2.2-2.2v-7.586h7.586a2.2,2.2,0,0,0,0-4.4H131.23a2.2,2.2,0,0,0-2.2,2.2v9.785A2.2,2.2,0,0,0,131.23,228.847Z" transform="translate(-100.66 -167.464)" fill="#b900ad"/>
    <path id="Path_2176" data-name="Path 2176" d="M320.637,219.062h7.593v7.586a2.2,2.2,0,1,0,4.4,0v-9.785a2.2,2.2,0,0,0-2.2-2.2h-9.792a2.2,2.2,0,1,0,0,4.4Z" transform="translate(-248.421 -167.464)" fill="#b900ad"/>
    <path id="Path_2177" data-name="Path 2177" d="M141.015,413.863h-7.586V406.27a2.2,2.2,0,0,0-4.4,0v9.792a2.2,2.2,0,0,0,2.2,2.2h9.785a2.2,2.2,0,1,0,0-4.4Z" transform="translate(-100.66 -315.225)" fill="#b900ad"/>
    <path id="Path_2178" data-name="Path 2178" d="M330.428,404.071a2.2,2.2,0,0,0-2.2,2.2v7.593h-7.593a2.2,2.2,0,1,0,0,4.4h9.792a2.2,2.2,0,0,0,2.2-2.2V406.27A2.2,2.2,0,0,0,330.428,404.071Z" transform="translate(-248.421 -315.225)" fill="#b900ad"/>
    <path id="Path_2179" data-name="Path 2179" d="M220.418,313.872a7.824,7.824,0,1,0,7.821-7.821A7.833,7.833,0,0,0,220.418,313.872Zm11.25,0a3.426,3.426,0,1,1-3.429-3.423A3.433,3.433,0,0,1,231.668,313.872Z" transform="translate(-171.953 -238.757)" fill="#b900ad"/>
    <path id="Path_2180" data-name="Path 2180" d="M137.513,271.3c-3.913,2.7-8.482,7.069-8.482,10.5s4.569,7.809,8.482,10.507a32.911,32.911,0,0,0,38.868,0c3.914-2.7,8.485-7.069,8.485-10.507S180.3,274,176.381,271.3a32.9,32.9,0,0,0-38.869,0Zm-4.082,10.5c.108-.678,1.7-3.336,5.823-6.348a18.79,18.79,0,0,0,0,12.7C135.131,285.145,133.538,282.486,133.431,281.807Zm41.206-6.351c4.125,3.013,5.721,5.672,5.829,6.351-.108.679-1.7,3.34-5.831,6.354a18.8,18.8,0,0,0,0-12.7Zm-3.293,6.351a14.418,14.418,0,0,1-4.716,10.658,26.9,26.9,0,0,1-19.356,0,14.382,14.382,0,0,1,.009-21.324,26.884,26.884,0,0,1,19.338,0A14.393,14.393,0,0,1,171.344,281.807Z" transform="translate(-100.66 -206.693)" fill="#b900ad"/>
    <path id="Path_2181" data-name="Path 2181" d="M248.157,175.664h.006a2.2,2.2,0,1,0-.006,0Z" transform="translate(-191.877 -133.608)" fill="#b900ad"/>
  </g>
</svg>
