<svg xmlns="http://www.w3.org/2000/svg" width="113.578" height="113.578" viewBox="0 0 113.578 113.578">
  <g id="research" transform="translate(-1 -1)">
    <rect id="Rectangle_1008" data-name="Rectangle 1008" width="3" height="4" transform="translate(23 92.105)" fill="#b900ad"/>
    <rect id="Rectangle_1009" data-name="Rectangle 1009" width="5" height="4" transform="translate(15 92.105)" fill="#b900ad"/>
    <rect id="Rectangle_1010" data-name="Rectangle 1010" width="3" height="4" transform="translate(9 92.105)" fill="#b900ad"/>
    <path id="Path_2182" data-name="Path 2182" d="M105.532,26.658a36.722,36.722,0,0,1-3.777-16.188V6.5H99.922c-4.193,0-7.328-1.934-7.328-3.664V1H63.285V2.832c0,1.729-3.134,3.664-7.328,3.664H54.125v3.973a36.72,36.72,0,0,1-3.772,16.177H10.159A9.17,9.17,0,0,0,1,35.806V94.427a9.17,9.17,0,0,0,9.159,9.159H33.974v7.328H26.647v3.664H88.931v-3.664H81.6v-7.328h23.815a9.17,9.17,0,0,0,9.159-9.159V35.806A9.164,9.164,0,0,0,105.532,26.658ZM57.789,10.469v-.407c4.358-.469,7.778-2.588,8.826-5.4H89.263c1.05,2.81,4.47,4.93,8.828,5.4v.407a40.422,40.422,0,0,0,5.492,20.338,37.79,37.79,0,0,1-20.039,32.91L77.94,66.7l-5.6-2.99a37.884,37.884,0,0,1-10.083-7.8l2.587-2.587a34.373,34.373,0,0,0,9.22,7.154l3.88,2.074,3.88-2.07a33.93,33.93,0,0,0,18.048-28.23l.031-.515-.244-.454A43.828,43.828,0,0,1,94.6,14.316l-.1-1.174-1.108-.394a13.619,13.619,0,0,1-5.776-3.787l-.548-.634H68.821l-.548.634A13.6,13.6,0,0,1,62.5,12.748l-1.108.394-.1,1.174a43.828,43.828,0,0,1-5.06,16.969l-.244.454.031.515A34.007,34.007,0,0,0,62.5,50.489l-2.585,2.585A37.78,37.78,0,0,1,52.3,30.8,40.427,40.427,0,0,0,57.789,10.469Zm9.649,40.261,8.148-8.148a5.406,5.406,0,0,0,2.354.551,5.5,5.5,0,1,0-5.5-5.5A5.406,5.406,0,0,0,73,39.992l-7.857,7.857a30.339,30.339,0,0,1-5.435-15.3,47.448,47.448,0,0,0,5.12-16.775,17.178,17.178,0,0,0,5.637-3.781H85.419a17.167,17.167,0,0,0,5.639,3.781,47.449,47.449,0,0,0,5.12,16.775A30.283,30.283,0,0,1,80.1,57.248L77.94,58.4,75.785,57.25v0A30.653,30.653,0,0,1,67.437,50.731Zm8.67-13.093A1.832,1.832,0,1,1,77.94,39.47,1.833,1.833,0,0,1,76.108,37.638Zm34.806,56.789a5.5,5.5,0,0,1-5.5,5.5H41.3v3.664H77.94v7.328h-40.3V99.922H10.159a5.5,5.5,0,0,1-5.5-5.5v-5.5H26.091l5.5,3.664h79.327Zm0-5.5H32.7l-5.5-3.664H4.664V35.806a5.5,5.5,0,0,1,5.5-5.5h38.47A41.446,41.446,0,0,0,57.3,55.691l-4.481,4.481a5.348,5.348,0,0,0-5.754.659l-5.9-3.686A5.492,5.492,0,1,0,30.31,55.957a5.447,5.447,0,0,0,.4,2.026l-6.886,6.025a5.419,5.419,0,0,0-2.671-.724,5.5,5.5,0,1,0,5.5,5.5,5.447,5.447,0,0,0-.4-2.026l6.884-6.025a5.341,5.341,0,0,0,6.071-.487l5.9,3.686a5.492,5.492,0,1,0,10.854,1.189,5.406,5.406,0,0,0-.551-2.354l4.257-4.257A41.532,41.532,0,0,0,70.61,66.948l7.328,3.911,7.329-3.911a41.445,41.445,0,0,0,21.972-36.3,5.49,5.49,0,0,1,3.675,5.162ZM52.293,65.116a1.832,1.832,0,1,1-1.832-1.832A1.833,1.833,0,0,1,52.293,65.116ZM37.638,55.957a1.832,1.832,0,1,1-1.832-1.832A1.833,1.833,0,0,1,37.638,55.957ZM22.983,68.78a1.832,1.832,0,1,1-1.832-1.832A1.833,1.833,0,0,1,22.983,68.78Z" fill="#b900ad"/>
    <path id="Path_2183" data-name="Path 2183" d="M8.664,21H5V64.966H56.293V61.3H8.664Z" transform="translate(3.328 16.638)" fill="#b900ad"/>
    <rect id="Rectangle_1011" data-name="Rectangle 1011" width="29" height="4" transform="translate(78 81.105)" fill="#b900ad"/>
    <rect id="Rectangle_1012" data-name="Rectangle 1012" width="29" height="4" transform="translate(78 74.105)" fill="#b900ad"/>
    <rect id="Rectangle_1013" data-name="Rectangle 1013" width="5" height="4" transform="translate(70 74.105)" fill="#b900ad"/>
    <rect id="Rectangle_1014" data-name="Rectangle 1014" width="5" height="4" transform="translate(70 81.105)" fill="#b900ad"/>
  </g>
</svg>
