<svg id="bomb" xmlns="http://www.w3.org/2000/svg" width="117.07" height="117.07" viewBox="0 0 117.07 117.07">
  <path id="Path_2184" data-name="Path 2184" d="M128,67.9h66.34V64H128Z" transform="translate(-96.781 -48.391)" fill="#b900ad"/>
  <path id="Path_2185" data-name="Path 2185" d="M145.559,15.609h-3.9V7.8a7.813,7.813,0,0,0-7.8-7.8H67.512a7.813,7.813,0,0,0-7.8,7.8v7.8H55.8a7.813,7.813,0,0,0-7.8,7.8V52.682h3.9V23.414a3.907,3.907,0,0,1,3.9-3.9h3.9V46.828h3.9V7.8a3.907,3.907,0,0,1,3.9-3.9h66.34a3.907,3.907,0,0,1,3.9,3.9V66.34h3.9V19.512h3.9a3.907,3.907,0,0,1,3.9,3.9V70.242H104.584v3.9h44.877v3.9a3.907,3.907,0,0,1-3.9,3.9H106.535v3.9h.5l4.683,15.609H100.682v3.9h19.512v-3.9h-4.4l-4.683-15.609h34.45a7.813,7.813,0,0,0,7.8-7.8V23.414A7.813,7.813,0,0,0,145.559,15.609Z" transform="translate(-36.293)" fill="#b900ad"/>
  <path id="Path_2186" data-name="Path 2186" d="M128,32h3.9v3.9H128Z" transform="translate(-96.781 -24.195)" fill="#b900ad"/>
  <path id="Path_2187" data-name="Path 2187" d="M160,32h3.9v3.9H160Z" transform="translate(-120.977 -24.195)" fill="#b900ad"/>
  <path id="Path_2188" data-name="Path 2188" d="M192,32h3.9v3.9H192Z" transform="translate(-145.172 -24.195)" fill="#b900ad"/>
  <path id="Path_2189" data-name="Path 2189" d="M0,210.926A33.17,33.17,0,1,0,62.013,194.6l3.756-3.756a1.951,1.951,0,0,0,0-2.759l-3.5-3.5,1.313-1.313a15.973,15.973,0,0,0,4.708-11.37V168h-3.9v3.9a12.1,12.1,0,0,1-3.565,8.61l-1.313,1.314-3.5-3.5a1.951,1.951,0,0,0-2.759,0L49.5,182.083A33.127,33.127,0,0,0,0,210.926Zm33.17-29.268a29.163,29.163,0,0,1,15.589,4.53,1.951,1.951,0,0,0,2.422-.27l3.452-3.452,7,7-3.452,3.452a1.951,1.951,0,0,0-.27,2.422A29.247,29.247,0,1,1,33.17,181.658Z" transform="translate(0 -127.025)" fill="#b900ad"/>
  <path id="Path_2190" data-name="Path 2190" d="M264,112h3.9v7.8H264Z" transform="translate(-199.611 -84.684)" fill="#b900ad"/>
  <path id="Path_2191" data-name="Path 2191" d="M0,0H3.9V8.278H0Z" transform="translate(53.244 32.604) rotate(-45)" fill="#b900ad"/>
  <path id="Path_2192" data-name="Path 2192" d="M0,0H8.278V3.9H0Z" transform="translate(70.802 35.693) rotate(-45)" fill="#b900ad"/>
  <path id="Path_2193" data-name="Path 2193" d="M216,168h7.8v3.9H216Z" transform="translate(-163.318 -127.025)" fill="#b900ad"/>
  <path id="Path_2194" data-name="Path 2194" d="M296,168h7.8v3.9H296Z" transform="translate(-223.807 -127.025)" fill="#b900ad"/>
  <path id="Path_2195" data-name="Path 2195" d="M97.865,247.056l-.973-3.779a25.267,25.267,0,0,0-4.23,1.5l1.628,3.547A21.348,21.348,0,0,1,97.865,247.056Z" transform="translate(-70.062 -183.943)" fill="#b900ad"/>
  <path id="Path_2196" data-name="Path 2196" d="M37.286,274.893a21.536,21.536,0,0,1,9.3-14.307l-2.16-3.25a25.452,25.452,0,0,0-10.988,16.912Z" transform="translate(-25.283 -194.573)" fill="#b900ad"/>
</svg>
