<svg xmlns="http://www.w3.org/2000/svg" width="112.752" height="112.752" viewBox="0 0 112.752 112.752">
  <path id="Path_2198" data-name="Path 2198" d="M108.3,1H28.279a5.462,5.462,0,0,0-5.456,5.456v17.9A18.207,18.207,0,0,0,11.911,41.009a3.641,3.641,0,0,0,3.637,3.637,18.421,18.421,0,0,1,2.53.2c-1.2,2.788-2.53,6.414-2.53,8.9v1.124l3.637,1.819v4.332a9.1,9.1,0,0,0,9.093,9.093h5.456V81.369a37.224,37.224,0,0,0-9.524,16.249L19.284,82.834l1.384-4.155a6.486,6.486,0,0,0-5.119-8.465V64.65a5.456,5.456,0,0,0-10.911,0v8.338A7.361,7.361,0,0,0,2.244,83.433l2.541,3.812L9.809,104.83A12.334,12.334,0,0,0,21,113.7v.053H62.832V91.4a21.949,21.949,0,0,0-.222-3.106H73.743v16.367a9.1,9.1,0,0,0,9.093,9.093h21.823a9.1,9.1,0,0,0,9.093-9.093V6.456A5.462,5.462,0,0,0,108.3,1ZM28.279,4.637H108.3a1.819,1.819,0,0,1,1.819,1.819v9.093H26.46V6.456A1.819,1.819,0,0,1,28.279,4.637ZM30.1,26.46A21.847,21.847,0,0,1,51.92,48.283V58.336a32.808,32.808,0,0,1-3.137,13.929A36.559,36.559,0,0,0,37.372,78.19V62.832A21.847,21.847,0,0,0,15.549,41.009,14.566,14.566,0,0,1,30.1,26.46ZM28.279,66.469a5.462,5.462,0,0,1-5.456-5.456v-6.58l-3.534-1.768a33.557,33.557,0,0,1,2.375-6.94,18.2,18.2,0,0,1,12.07,17.106v3.637ZM10.093,62.832a1.819,1.819,0,0,1,1.819,1.819v5.456a5.421,5.421,0,0,0-3.637,1.418V64.65A1.819,1.819,0,0,1,10.093,62.832ZM6.508,76.091a5.445,5.445,0,0,0,5.4,4.927H13.73V77.38H11.911a1.819,1.819,0,1,1,0-3.637h2.581a2.876,2.876,0,0,1,2.728,3.784L15.931,81.4,7.2,84.309,5.27,81.416a3.744,3.744,0,0,1,1.238-5.325Zm6.8,27.742L8.684,87.648l7.534-2.511,6.7,20.1c-.049.751-.1,1.5-.1,2.26v2.535a8.923,8.923,0,0,1-1.188.082,8.7,8.7,0,0,1-8.327-6.281Zm45.886,6.281H48.283V92.185a5.444,5.444,0,0,1,2.43-4.539l2.217-1.479-2.017-3.026L48.7,84.62a9.069,9.069,0,0,0-4.05,7.565v17.929H26.46V107.5A33.431,33.431,0,0,1,49.913,75.7a17.814,17.814,0,0,1,9.282,15.7ZM73.743,82.836v1.819H61.751A21.392,21.392,0,0,0,52.46,72.976a36.473,36.473,0,0,0,3.1-14.64V48.283A25.488,25.488,0,0,0,30.1,22.823a18.155,18.155,0,0,0-3.637.367v-4h83.655V75.609a9.006,9.006,0,0,0-3.637-1.68V61.013a12.73,12.73,0,0,0-25.46,0V73.927a9.11,9.11,0,0,0-7.274,8.909Zm21.823-9.093H91.929V61.013a1.819,1.819,0,0,1,3.637,0ZM93.748,55.557a5.462,5.462,0,0,0-5.456,5.456v12.73H84.655V61.013a9.093,9.093,0,1,1,18.186,0v12.73H99.2V61.013A5.462,5.462,0,0,0,93.748,55.557Zm16.367,49.1a5.462,5.462,0,0,1-5.456,5.456H82.836a5.462,5.462,0,0,1-5.456-5.456V82.836a5.462,5.462,0,0,1,5.456-5.456h21.823a5.462,5.462,0,0,1,5.456,5.456Z" transform="translate(-1 -1)" fill="#b900ad"/>
</svg>
