<svg id="Group_534" data-name="Group 534" xmlns="http://www.w3.org/2000/svg" width="110.5" height="104.984" viewBox="0 0 110.5 104.984">
  <g id="Group_477" data-name="Group 477" transform="translate(26.937 34.386)">
    <g id="Group_476" data-name="Group 476">
      <path id="Path_1863" data-name="Path 1863" d="M112.835,94.175H68.6a6.138,6.138,0,0,1-6.2-5.932v-.126a2.089,2.089,0,0,1,2.1-2.065h52.437a2.09,2.09,0,0,1,2.1,2.066v.121A6.141,6.141,0,0,1,112.835,94.175ZM64.564,88.211A3.973,3.973,0,0,0,68.6,92.017h44.233a3.972,3.972,0,0,0,4.038-3.805Zm52.373,0h0Z" transform="translate(-62.406 -86.053)" fill="#f8ff35"/>
    </g>
  </g>
  <g id="Group_479" data-name="Group 479" transform="translate(22.877 54.883)">
    <g id="Group_478" data-name="Group 478">
      <path id="Path_1864" data-name="Path 1864" d="M116.667,145.754a1.079,1.079,0,0,1-1.079-1.079V135.7H55.158v8.978a1.079,1.079,0,0,1-2.158,0V134.618a1.079,1.079,0,0,1,1.079-1.079h62.588a1.079,1.079,0,0,1,1.079,1.079v10.057A1.079,1.079,0,0,1,116.667,145.754Z" transform="translate(-53 -133.539)" fill="#f8ff35"/>
    </g>
  </g>
  <g id="Group_481" data-name="Group 481" transform="translate(54.171 40.575)">
    <g id="Group_480" data-name="Group 480">
      <path id="Path_1865" data-name="Path 1865" d="M126.579,116.857a1.079,1.079,0,0,1-1.079-1.079V101.469a1.079,1.079,0,1,1,2.158,0v14.308A1.079,1.079,0,0,1,126.579,116.857Z" transform="translate(-125.5 -100.39)" fill="#f8ff35"/>
    </g>
  </g>
  <g id="Group_483" data-name="Group 483" transform="translate(43.498 12.234)">
    <g id="Group_482" data-name="Group 482">
      <path id="Path_1866" data-name="Path 1866" d="M106.566,46.319A1.076,1.076,0,0,1,105.8,46l-4.714-4.715a1.079,1.079,0,0,1,0-1.526l4.714-4.714a1.079,1.079,0,0,1,1.526,1.526l-3.951,3.951,3.951,3.952a1.079,1.079,0,0,1-.763,1.842Z" transform="translate(-100.773 -34.731)" fill="#f8ff35"/>
    </g>
  </g>
  <g id="Group_485" data-name="Group 485" transform="translate(60.129 12.234)">
    <g id="Group_484" data-name="Group 484">
      <path id="Path_1867" data-name="Path 1867" d="M140.384,46.319a1.079,1.079,0,0,1-.763-1.842l3.952-3.952-3.952-3.951a1.079,1.079,0,0,1,1.526-1.526l4.715,4.714a1.08,1.08,0,0,1,0,1.526L141.146,46a1.078,1.078,0,0,1-.763.315Z" transform="translate(-139.304 -34.733)" fill="#f8ff35"/>
    </g>
  </g>
  <g id="Group_487" data-name="Group 487" transform="translate(51.277 9.407)">
    <g id="Group_486" data-name="Group 486">
      <path id="Path_1868" data-name="Path 1868" d="M119.875,45.424a1.08,1.08,0,0,1-1.007-1.466l5.787-15.082a1.079,1.079,0,0,1,2.014.773l-5.787,15.082A1.079,1.079,0,0,1,119.875,45.424Z" transform="translate(-118.796 -28.183)" fill="#f8ff35"/>
    </g>
  </g>
  <g id="Group_489" data-name="Group 489" transform="translate(10.41 78.997)">
    <g id="Group_488" data-name="Group 488">
      <path id="Path_1869" data-name="Path 1869" d="M50.282,191.562H25.2a1.079,1.079,0,1,1,0-2.158H50.283a1.079,1.079,0,1,1,0,2.158Z" transform="translate(-24.118 -189.404)" fill="#f8ff35"/>
    </g>
  </g>
  <g id="Group_491" data-name="Group 491" transform="translate(10.41 83.573)">
    <g id="Group_490" data-name="Group 490">
      <path id="Path_1870" data-name="Path 1870" d="M50.282,202.163H25.2a1.079,1.079,0,1,1,0-2.158H50.283a1.079,1.079,0,1,1,0,2.158Z" transform="translate(-24.118 -200.005)" fill="#f8ff35"/>
    </g>
  </g>
  <g id="Group_493" data-name="Group 493" transform="translate(10.41 88.148)">
    <g id="Group_492" data-name="Group 492">
      <path id="Path_1871" data-name="Path 1871" d="M50.282,212.763H25.2a1.079,1.079,0,1,1,0-2.158H50.283a1.079,1.079,0,1,1,0,2.158Z" transform="translate(-24.118 -210.605)" fill="#f8ff35"/>
    </g>
  </g>
  <g id="Group_495" data-name="Group 495" transform="translate(72.998 78.997)">
    <g id="Group_494" data-name="Group 494">
      <path id="Path_1872" data-name="Path 1872" d="M195.282,191.562H170.2a1.079,1.079,0,0,1,0-2.158h25.085a1.079,1.079,0,0,1,0,2.158Z" transform="translate(-169.118 -189.404)" fill="#f8ff35"/>
    </g>
  </g>
  <g id="Group_497" data-name="Group 497" transform="translate(72.998 83.573)">
    <g id="Group_496" data-name="Group 496">
      <path id="Path_1873" data-name="Path 1873" d="M195.282,202.163H170.2a1.079,1.079,0,0,1,0-2.158h25.085a1.079,1.079,0,0,1,0,2.158Z" transform="translate(-169.118 -200.005)" fill="#f8ff35"/>
    </g>
  </g>
  <g id="Group_499" data-name="Group 499" transform="translate(72.998 88.148)">
    <g id="Group_498" data-name="Group 498">
      <path id="Path_1874" data-name="Path 1874" d="M195.282,212.763H170.2a1.079,1.079,0,0,1,0-2.158h25.085a1.079,1.079,0,0,1,0,2.158Z" transform="translate(-169.118 -210.605)" fill="#f8ff35"/>
    </g>
  </g>
  <g id="Group_513" data-name="Group 513" transform="translate(31.468)">
    <g id="Group_512" data-name="Group 512">
      <path id="Path_1878" data-name="Path 1878" d="M116.558,42.933a1.079,1.079,0,0,1,0-2.158,1.753,1.753,0,0,0,1.751-1.751V10.3a1.753,1.753,0,0,0-1.751-1.751H76.812A1.753,1.753,0,0,0,75.061,10.3V39.024a1.753,1.753,0,0,0,1.751,1.751,1.079,1.079,0,0,1,0,2.158A3.914,3.914,0,0,1,72.9,39.024V10.3a3.914,3.914,0,0,1,3.909-3.909h39.745a3.914,3.914,0,0,1,3.909,3.909V39.024A3.914,3.914,0,0,1,116.558,42.933Z" transform="translate(-72.903 -6.389)" fill="#f8ff35"/>
    </g>
  </g>
  <g id="Group_515" data-name="Group 515" transform="translate(31.468 28.078)">
    <g id="Group_514" data-name="Group 514">
      <path id="Path_1879" data-name="Path 1879" d="M117.4,75.582H75.967A3.068,3.068,0,0,1,72.9,72.518a1.079,1.079,0,0,1,2.158,0,.907.907,0,0,0,.906.906H117.4a.907.907,0,0,0,.906-.906,1.079,1.079,0,0,1,2.158,0A3.067,3.067,0,0,1,117.4,75.582Z" transform="translate(-72.903 -71.439)" fill="#f8ff35"/>
    </g>
  </g>
  <g id="Group_517" data-name="Group 517" transform="translate(31.468 4.086)">
    <g id="Group_516" data-name="Group 516">
      <path id="Path_1880" data-name="Path 1880" d="M119.388,20a1.079,1.079,0,0,1-1.079-1.079.907.907,0,0,0-.906-.906H75.967a.907.907,0,0,0-.906.906,1.079,1.079,0,0,1-2.158,0,3.068,3.068,0,0,1,3.064-3.064H117.4a3.068,3.068,0,0,1,3.064,3.064A1.079,1.079,0,0,1,119.388,20Z" transform="translate(-72.903 -15.855)" fill="#f8ff35"/>
    </g>
  </g>
  <g id="Group_519" data-name="Group 519" transform="translate(4.097 69.984)">
    <g id="Group_518" data-name="Group 518">
      <path id="Path_1881" data-name="Path 1881" d="M45.88,198.132a1.079,1.079,0,0,1,0-2.158,1.481,1.481,0,0,0,1.48-1.48V172.162a1.482,1.482,0,0,0-1.48-1.48H13.13a1.482,1.482,0,0,0-1.48,1.48v22.332a1.481,1.481,0,0,0,1.48,1.48,1.079,1.079,0,1,1,0,2.158,3.642,3.642,0,0,1-3.638-3.638V172.162a3.642,3.642,0,0,1,3.638-3.638H45.88a3.642,3.642,0,0,1,3.638,3.638v22.332A3.642,3.642,0,0,1,45.88,198.132Z" transform="translate(-9.492 -168.524)" fill="#f8ff35"/>
    </g>
  </g>
  <g id="Group_521" data-name="Group 521" transform="translate(0 97.434)">
    <g id="Group_520" data-name="Group 520">
      <path id="Path_1882" data-name="Path 1882" d="M42.514,239.668H5.706A5.655,5.655,0,0,1,0,234.2v-.109a2,2,0,0,1,2-1.976H46.223a1.994,1.994,0,0,1,2,1.971v.12a5.652,5.652,0,0,1-5.7,5.459ZM2.162,234.276a3.5,3.5,0,0,0,3.544,3.234H42.514a3.5,3.5,0,0,0,3.544-3.234Zm44.061,0h0Z" transform="translate(0 -232.118)" fill="#f8ff35"/>
    </g>
  </g>
  <g id="Group_523" data-name="Group 523" transform="translate(66.377 69.984)">
    <g id="Group_522" data-name="Group 522">
      <path id="Path_1883" data-name="Path 1883" d="M190.166,198.132a1.079,1.079,0,0,1,0-2.158,1.481,1.481,0,0,0,1.48-1.48V172.162a1.482,1.482,0,0,0-1.48-1.48h-32.75a1.482,1.482,0,0,0-1.48,1.48v22.332a1.481,1.481,0,0,0,1.48,1.48,1.079,1.079,0,0,1,0,2.158,3.642,3.642,0,0,1-3.638-3.638V172.162a3.642,3.642,0,0,1,3.638-3.638h32.75a3.642,3.642,0,0,1,3.638,3.638v22.332A3.642,3.642,0,0,1,190.166,198.132Z" transform="translate(-153.778 -168.524)" fill="#f8ff35"/>
    </g>
  </g>
  <g id="Group_525" data-name="Group 525" transform="translate(62.28 97.434)">
    <g id="Group_524" data-name="Group 524">
      <path id="Path_1884" data-name="Path 1884" d="M186.8,239.668H149.992a5.655,5.655,0,0,1-5.706-5.465v-.123a1.991,1.991,0,0,1,2-1.962h44.225a1.994,1.994,0,0,1,2,1.971v.113A5.655,5.655,0,0,1,186.8,239.668Zm-40.352-5.392a3.5,3.5,0,0,0,3.545,3.234H186.8a3.5,3.5,0,0,0,3.544-3.234Zm44.061,0h0Z" transform="translate(-144.286 -232.118)" fill="#f8ff35"/>
    </g>
  </g>
  <g id="Group_527" data-name="Group 527" transform="translate(4.097 91.731)">
    <g id="Group_526" data-name="Group 526">
      <path id="Path_1885" data-name="Path 1885" d="M46.644,222.859H12.366a2.877,2.877,0,0,1-2.874-2.874,1.079,1.079,0,0,1,2.158,0,.725.725,0,0,0,.716.716H46.645a.726.726,0,0,0,.716-.716,1.079,1.079,0,0,1,2.158,0A2.878,2.878,0,0,1,46.644,222.859Z" transform="translate(-9.492 -218.906)" fill="#f8ff35"/>
    </g>
  </g>
  <g id="Group_529" data-name="Group 529" transform="translate(4.097 73.678)">
    <g id="Group_528" data-name="Group 528">
      <path id="Path_1886" data-name="Path 1886" d="M48.439,181.036a1.079,1.079,0,0,1-1.079-1.079.725.725,0,0,0-.716-.715H12.366a.725.725,0,0,0-.716.715,1.079,1.079,0,0,1-2.158,0,2.877,2.877,0,0,1,2.874-2.873H46.645a2.877,2.877,0,0,1,2.874,2.873A1.08,1.08,0,0,1,48.439,181.036Z" transform="translate(-9.492 -177.083)" fill="#f8ff35"/>
    </g>
  </g>
  <g id="Group_531" data-name="Group 531" transform="translate(66.377 91.731)">
    <g id="Group_530" data-name="Group 530">
      <path id="Path_1887" data-name="Path 1887" d="M190.931,222.859H156.652a2.877,2.877,0,0,1-2.873-2.874,1.079,1.079,0,0,1,2.158,0,.716.716,0,0,0,.715.716h34.278a.726.726,0,0,0,.716-.716,1.079,1.079,0,0,1,2.158,0A2.877,2.877,0,0,1,190.931,222.859Z" transform="translate(-153.779 -218.906)" fill="#f8ff35"/>
    </g>
  </g>
  <g id="Group_533" data-name="Group 533" transform="translate(66.377 73.678)">
    <g id="Group_532" data-name="Group 532">
      <path id="Path_1888" data-name="Path 1888" d="M192.725,181.036a1.079,1.079,0,0,1-1.079-1.079.725.725,0,0,0-.716-.715H156.652a.725.725,0,0,0-.715.715,1.079,1.079,0,0,1-2.158,0,2.877,2.877,0,0,1,2.873-2.873h34.278a2.877,2.877,0,0,1,2.874,2.873A1.079,1.079,0,0,1,192.725,181.036Z" transform="translate(-153.779 -177.083)" fill="#f8ff35"/>
    </g>
  </g>
</svg>
