<svg id="technology_1_" data-name="technology (1)" xmlns="http://www.w3.org/2000/svg" width="99.5" height="99.5" viewBox="0 0 99.5 99.5">
  <g id="Group_535" data-name="Group 535" transform="translate(0 0)">
    <path id="Path_1889" data-name="Path 1889" d="M96.585,46.835H93.57a43.886,43.886,0,0,0-40.9-40.712V2.915a2.915,2.915,0,0,0-5.83,0V6.123A43.886,43.886,0,0,0,5.93,46.835H2.915a2.915,2.915,0,1,0,0,5.83H5.932a43.421,43.421,0,0,0,7.48,21.417,8.742,8.742,0,0,0,12.009,12,43.242,43.242,0,0,0,21.414,7.293v3.206a2.915,2.915,0,0,0,5.83,0V93.377A43.886,43.886,0,0,0,93.57,52.665h3.015a2.915,2.915,0,1,0,0-5.83ZM20.893,81.522a2.915,2.915,0,1,1,2.915-2.915A2.918,2.918,0,0,1,20.893,81.522Zm25.942,6.013a37.452,37.452,0,0,1-17.707-5.987A8.743,8.743,0,0,0,17.946,70.374a37.617,37.617,0,0,1-6.169-17.709h11.9A26.284,26.284,0,0,0,46.835,75.822Zm0-17.589A20.45,20.45,0,0,1,29.554,52.665H46.835Zm0-23.111H29.556A20.343,20.343,0,0,1,31,41.7,8.743,8.743,0,0,0,41.71,31a20.344,20.344,0,0,1,5.126-1.443V46.835ZM31.2,31.2a2.915,2.915,0,1,1,0,4.122A2.918,2.918,0,0,1,31.2,31.2ZM46.835,23.68a26.175,26.175,0,0,0-8.5,2.457,8.744,8.744,0,0,0-12.195,12.2,26.173,26.173,0,0,0-2.456,8.5H11.772a38.055,38.055,0,0,1,35.063-34.87Zm5.83-11.716A38.028,38.028,0,0,1,74.45,20.927L52.665,42.713Zm17.271,34.87H56.788l9.6-9.6A25.261,25.261,0,0,1,69.936,46.835Zm-17.271,5.83,17.282,0A19.915,19.915,0,0,1,68.5,57.8,8.743,8.743,0,0,0,57.79,68.5a20.343,20.343,0,0,1-5.126,1.443V52.665ZM68.3,68.3a2.915,2.915,0,1,1,0-4.122A2.918,2.918,0,0,1,68.3,68.3ZM52.665,87.536V75.82a26.168,26.168,0,0,0,8.5-2.457,8.744,8.744,0,0,0,12.2-12.194,26.007,26.007,0,0,0,2.457-8.506l11.907,0a38.055,38.055,0,0,1-35.063,34.87Zm23.16-40.7a30.638,30.638,0,0,0-5.214-13.824l7.984-7.984a37.638,37.638,0,0,1,9.134,21.807Z" transform="translate(0 0)" fill="#f8ff35"/>
  </g>
</svg>
