<svg xmlns="http://www.w3.org/2000/svg" width="105.557" height="125.932" viewBox="0 0 105.557 125.932">
  <g id="analysis" transform="translate(-41.42)">
    <g id="Group_536" data-name="Group 536" transform="translate(41.42)">
      <path id="Path_1890" data-name="Path 1890" d="M145.132,75.532H141.76V23.8a1.845,1.845,0,0,0-3.689,0V75.532H125.858V3.689H138.07v11.5a1.845,1.845,0,0,0,3.689,0V1.845A1.845,1.845,0,0,0,139.915,0h-15.9a1.845,1.845,0,0,0-1.845,1.845V62.558a31.835,31.835,0,0,0-5.586-7.55V17.249a1.845,1.845,0,0,0-1.845-1.845h-15.9a1.845,1.845,0,0,0-1.845,1.845V45.841c-.921-.081-1.853-.125-2.794-.125s-1.873.044-2.794.125V27.934a1.845,1.845,0,0,0-1.845-1.845h-15.9a1.845,1.845,0,0,0-1.845,1.845V55.009a31.84,31.84,0,0,0-5.586,7.55v-22.2a1.845,1.845,0,0,0-1.845-1.845h-15.9a1.845,1.845,0,0,0-1.845,1.845v9.064a1.845,1.845,0,1,0,3.689,0V42.2H62.538v33.33H50.326V58.03a1.845,1.845,0,1,0-3.689,0v17.5H43.265a1.845,1.845,0,0,0-1.845,1.845v7.949a1.845,1.845,0,0,0,1.845,1.845H64.091A31.8,31.8,0,0,0,84.9,107.642v7.5a1.845,1.845,0,0,0,1.845,1.845h1.137v7.1a1.845,1.845,0,0,0,3.689,0v-7.1h5.255v7.1a1.845,1.845,0,1,0,3.689,0v-7.1h1.137a1.845,1.845,0,0,0,1.845-1.845v-7.5a31.8,31.8,0,0,0,20.809-20.471h20.826a1.845,1.845,0,0,0,1.845-1.845V77.377a1.845,1.845,0,0,0-1.845-1.845Zm-44.45-56.438h12.212V51.843a31.523,31.523,0,0,0-12.212-5.458ZM87.715,29.778V46.386A31.519,31.519,0,0,0,75.5,51.843V29.778Zm-42.605,53.7v-4.26H62.594a31.564,31.564,0,0,0,.538,4.26Zm54.7,29.816H88.589v-4.759a31.864,31.864,0,0,0,11.218,0V113.3ZM94.2,105.347a27.971,27.971,0,1,1,27.971-27.971A28,28,0,0,1,94.2,105.347Zm49.089-21.866H125.265a31.569,31.569,0,0,0,.538-4.26h17.484Z" transform="translate(-41.42)" fill="#f8ff35"/>
      <path id="Path_1891" data-name="Path 1891" d="M183.318,218.2a23.708,23.708,0,0,0,0,47.416,23.451,23.451,0,0,0,14.711-5.117,1.845,1.845,0,0,0-2.292-2.891,19.8,19.8,0,0,1-12.419,4.319,20.014,20.014,0,1,1,17.5-10.3,1.845,1.845,0,0,0,3.222,1.8A23.711,23.711,0,0,0,183.318,218.2Z" transform="translate(-130.54 -164.531)" fill="#f8ff35"/>
      <path id="Path_1892" data-name="Path 1892" d="M64.475,3.689h4.969a1.845,1.845,0,1,0,0-3.689H64.475a1.845,1.845,0,0,0,0,3.689Z" transform="translate(-57.413)" fill="#f8ff35"/>
      <path id="Path_1893" data-name="Path 1893" d="M117,3.689H134.4A1.845,1.845,0,1,0,134.4,0H117a1.845,1.845,0,0,0,0,3.689Z" transform="translate(-97.022)" fill="#f8ff35"/>
      <path id="Path_1894" data-name="Path 1894" d="M64.475,36.014h4.969a1.845,1.845,0,0,0,0-3.689H64.475a1.845,1.845,0,0,0,0,3.689Z" transform="translate(-57.413 -24.374)" fill="#f8ff35"/>
      <path id="Path_1895" data-name="Path 1895" d="M117,36.014H134.4a1.845,1.845,0,1,0,0-3.689H117a1.845,1.845,0,0,0,0,3.689Z" transform="translate(-97.022 -24.374)" fill="#f8ff35"/>
      <path id="Path_1896" data-name="Path 1896" d="M64.475,68.339h4.969a1.845,1.845,0,0,0,0-3.689H64.475a1.845,1.845,0,0,0,0,3.689Z" transform="translate(-57.413 -48.749)" fill="#f8ff35"/>
      <path id="Path_1897" data-name="Path 1897" d="M117,68.339H134.4a1.845,1.845,0,1,0,0-3.689H117a1.845,1.845,0,0,0,0,3.689Z" transform="translate(-97.022 -48.749)" fill="#f8ff35"/>
    </g>
  </g>
</svg>
