<svg xmlns="http://www.w3.org/2000/svg" width="82.407" height="96.511" viewBox="0 0 82.407 96.511">
  <g id="checklist" transform="translate(-44.001)">
    <g id="Group_538" data-name="Group 538" transform="translate(83.261 28.615)">
      <g id="Group_537" data-name="Group 537">
        <path id="Path_1898" data-name="Path 1898" d="M275.932,152H247.945a1.944,1.944,0,0,0,0,3.887h27.988a1.944,1.944,0,1,0,0-3.887Z" transform="translate(-246.001 -152)" fill="#f8ff35"/>
      </g>
    </g>
    <g id="Group_540" data-name="Group 540" transform="translate(103.074 37.652)">
      <g id="Group_539" data-name="Group 539">
        <path id="Path_1899" data-name="Path 1899" d="M351.259,200.57a1.943,1.943,0,1,0,.569,1.374A1.958,1.958,0,0,0,351.259,200.57Z" transform="translate(-347.941 -200.001)" fill="#f8ff35"/>
      </g>
    </g>
    <g id="Group_542" data-name="Group 542" transform="translate(83.259 8.358)">
      <g id="Group_541" data-name="Group 541" transform="translate(0)">
        <path id="Path_1900" data-name="Path 1900" d="M249.309,43.57a1.943,1.943,0,1,0,.569,1.374A1.958,1.958,0,0,0,249.309,43.57Z" transform="translate(-245.991 -43.001)" fill="#f8ff35"/>
      </g>
    </g>
    <g id="Group_544" data-name="Group 544" transform="translate(83.261 37.652)">
      <g id="Group_543" data-name="Group 543">
        <path id="Path_1901" data-name="Path 1901" d="M259.582,200H247.945a1.944,1.944,0,0,0,0,3.887h11.638a1.944,1.944,0,0,0,0-3.887Z" transform="translate(-246.001 -200)" fill="#f8ff35"/>
      </g>
    </g>
    <g id="Group_546" data-name="Group 546" transform="translate(83.261 48.947)">
      <g id="Group_545" data-name="Group 545">
        <path id="Path_1902" data-name="Path 1902" d="M275.932,260H247.945a1.944,1.944,0,1,0,0,3.887h27.988a1.944,1.944,0,1,0,0-3.887Z" transform="translate(-246.001 -260)" fill="#f8ff35"/>
      </g>
    </g>
    <g id="Group_548" data-name="Group 548" transform="translate(103.074 57.984)">
      <g id="Group_547" data-name="Group 547">
        <path id="Path_1903" data-name="Path 1903" d="M351.259,308.57a1.943,1.943,0,1,0,.569,1.374A1.958,1.958,0,0,0,351.259,308.57Z" transform="translate(-347.941 -308.001)" fill="#f8ff35"/>
      </g>
    </g>
    <g id="Group_550" data-name="Group 550" transform="translate(83.261 57.984)">
      <g id="Group_549" data-name="Group 549">
        <path id="Path_1904" data-name="Path 1904" d="M259.582,308H247.945a1.944,1.944,0,1,0,0,3.887h11.638a1.944,1.944,0,0,0,0-3.887Z" transform="translate(-246.001 -308)" fill="#f8ff35"/>
      </g>
    </g>
    <g id="Group_552" data-name="Group 552" transform="translate(83.261 69.28)">
      <g id="Group_551" data-name="Group 551">
        <path id="Path_1905" data-name="Path 1905" d="M275.932,368H247.945a1.944,1.944,0,1,0,0,3.887h27.988a1.944,1.944,0,1,0,0-3.887Z" transform="translate(-246.001 -368)" fill="#f8ff35"/>
      </g>
    </g>
    <g id="Group_554" data-name="Group 554" transform="translate(103.074 77.853)">
      <g id="Group_553" data-name="Group 553">
        <path id="Path_1906" data-name="Path 1906" d="M351.259,416.57a1.943,1.943,0,1,0,.569,1.374A1.958,1.958,0,0,0,351.259,416.57Z" transform="translate(-347.941 -416.001)" fill="#f8ff35"/>
      </g>
    </g>
    <g id="Group_556" data-name="Group 556" transform="translate(83.261 77.853)">
      <g id="Group_555" data-name="Group 555">
        <path id="Path_1907" data-name="Path 1907" d="M259.582,416H247.945a1.944,1.944,0,1,0,0,3.887h11.638a1.944,1.944,0,0,0,0-3.887Z" transform="translate(-246.001 -416)" fill="#f8ff35"/>
      </g>
    </g>
    <g id="Group_558" data-name="Group 558" transform="translate(44.001)">
      <g id="Group_557" data-name="Group 557" transform="translate(0)">
        <path id="Path_1908" data-name="Path 1908" d="M116.932,7.352H102.087a12.106,12.106,0,0,0-8.238-3.2h-1.7a7.884,7.884,0,0,0-13.884,0H76.556a12.105,12.105,0,0,0-8.238,3.2H53.477A9.348,9.348,0,0,0,44,16.542V87.32a9.348,9.348,0,0,0,9.476,9.191h63.454a9.348,9.348,0,0,0,9.476-9.191V16.542A9.347,9.347,0,0,0,116.932,7.352Zm-40.376.565h3.029a1.935,1.935,0,0,0,1.873-1.383,3.921,3.921,0,0,1,7.492,0,1.935,1.935,0,0,0,1.873,1.383h3.025a7.983,7.983,0,0,1,8.037,7.163H68.518A7.983,7.983,0,0,1,76.556,7.917Zm45.965,79.4a5.513,5.513,0,0,1-5.589,5.421H53.477a5.513,5.513,0,0,1-5.589-5.421V16.542a5.513,5.513,0,0,1,5.589-5.421H65.6A11.228,11.228,0,0,0,64.6,15.74v1.225a1.915,1.915,0,0,0,1.944,1.885h37.312a1.915,1.915,0,0,0,1.944-1.885V15.74a11.228,11.228,0,0,0-.992-4.618h12.122a5.513,5.513,0,0,1,5.589,5.421Z" transform="translate(-44.001 0)" fill="#f8ff35"/>
      </g>
    </g>
    <g id="Group_560" data-name="Group 560" transform="translate(55.907 27.511)">
      <g id="Group_559" data-name="Group 559">
        <path id="Path_1909" data-name="Path 1909" d="M122.2,147.236a1.944,1.944,0,0,0-2.749,0l-8.311,8.311-2.56-2.56a1.944,1.944,0,0,0-2.749,2.749l3.935,3.935a1.943,1.943,0,0,0,2.749,0l9.685-9.685A1.944,1.944,0,0,0,122.2,147.236Z" transform="translate(-105.261 -146.667)" fill="#f8ff35"/>
      </g>
    </g>
    <g id="Group_562" data-name="Group 562" transform="translate(56.829 68.699)">
      <g id="Group_561" data-name="Group 561">
        <path id="Path_1910" data-name="Path 1910" d="M121.274,368h-9.329A1.944,1.944,0,0,0,110,369.944v9.329a1.944,1.944,0,0,0,1.944,1.944h9.329a1.944,1.944,0,0,0,1.944-1.944v-9.329A1.944,1.944,0,0,0,121.274,368Zm-1.944,9.329h-5.442v-5.442h5.442Z" transform="translate(-110.001 -368)" fill="#f8ff35"/>
      </g>
    </g>
    <g id="Group_564" data-name="Group 564" transform="translate(56.829 48.776)">
      <g id="Group_563" data-name="Group 563">
        <path id="Path_1911" data-name="Path 1911" d="M121.274,260h-9.329A1.944,1.944,0,0,0,110,261.944v9.329a1.944,1.944,0,0,0,1.944,1.944h9.329a1.944,1.944,0,0,0,1.944-1.944v-9.329A1.944,1.944,0,0,0,121.274,260Zm-1.944,9.329h-5.442v-5.442h5.442Z" transform="translate(-110.001 -260)" fill="#f8ff35"/>
      </g>
    </g>
  </g>
</svg>
