<svg id="security" xmlns="http://www.w3.org/2000/svg" width="163.344" height="205.515" viewBox="0 0 163.344 205.515">
  <g id="Group_662" data-name="Group 662" transform="translate(0 0)">
    <path id="Path_1979" data-name="Path 1979" d="M212.864,63.369a3.01,3.01,0,0,0,3.01-3.01V39.476a11.135,11.135,0,0,0-10.552-11.144c-35.705-1.818-54.894-16.42-63.155-24.961a11.094,11.094,0,0,0-15.929,0c-8.261,8.542-27.45,23.143-63.155,24.962A11.134,11.134,0,0,0,52.53,39.476v83.932A68.08,68.08,0,0,0,86.474,182.2l34.06,19.661a27.4,27.4,0,0,0,27.336,0L181.931,182.2a68.08,68.08,0,0,0,33.944-58.793v-49a3.01,3.01,0,1,0-6.021,0v49a62.042,62.042,0,0,1-30.932,53.578L144.86,196.648a21.365,21.365,0,0,1-21.315,0l-34.06-19.661a62.042,62.042,0,0,1-30.933-53.579V39.476a5.116,5.116,0,0,1,4.838-5.13c37.767-1.923,58.3-17.61,67.177-26.789a5.073,5.073,0,0,1,7.272,0c8.877,9.179,29.409,24.866,67.177,26.789a5.116,5.116,0,0,1,4.838,5.13V60.357a3.01,3.01,0,0,0,3.01,3.011Z" transform="translate(-52.53 0)" fill="#f8ff35"/>
    <path id="Path_1980" data-name="Path 1980" d="M95.953,132.7a3.01,3.01,0,0,0-3.01,3.01V153.8a51.821,51.821,0,0,0,25.831,44.748l34.062,19.662a11.109,11.109,0,0,0,11.117,0l34.061-19.662A51.822,51.822,0,0,0,223.845,153.8V80.964a7.063,7.063,0,0,0-6.167-7.005c-27-3.4-44.766-13.655-54.913-21.662a7.029,7.029,0,0,0-8.74,0C143.877,60.3,126.113,70.563,99.114,73.959a7.064,7.064,0,0,0-6.17,7.005v40.7a3.01,3.01,0,1,0,6.021,0v-40.7a1.033,1.033,0,0,1,.9-1.031c28.378-3.57,47.145-14.429,57.893-22.911a1.029,1.029,0,0,1,1.279,0c10.747,8.482,29.515,19.341,57.895,22.911a1.033,1.033,0,0,1,.9,1.031V153.8A45.782,45.782,0,0,1,195,193.334l-34.06,19.661a5.172,5.172,0,0,1-5.1,0l-34.06-19.661A45.783,45.783,0,0,1,98.965,153.8V135.713a3.012,3.012,0,0,0-3.011-3.01Z" transform="translate(-76.721 -30.393)" fill="#f8ff35"/>
    <path id="Path_1981" data-name="Path 1981" d="M164.651,157.98a7.072,7.072,0,0,0-7.065,7.065v44.6a7.073,7.073,0,0,0,7.065,7.065h64.877a7.073,7.073,0,0,0,7.065-7.065V187.881a3.01,3.01,0,0,0-6.021,0v21.765a1.045,1.045,0,0,1-1.044,1.044H164.651a1.045,1.045,0,0,1-1.044-1.044v-44.6A1.045,1.045,0,0,1,164.651,164h64.877a1.045,1.045,0,0,1,1.044,1.044v8.787a3.01,3.01,0,1,0,6.021,0v-8.787a7.075,7.075,0,0,0-5.677-6.926V135.852a33.826,33.826,0,0,0-67.652,0v8.109a3.011,3.011,0,0,0,3.01,3.01h12.975a3.01,3.01,0,0,0,3.01-3.01v-8.109a14.83,14.83,0,1,1,29.659,0V157.98H164.651ZM197.089,115a20.875,20.875,0,0,0-20.851,20.851v5.1h-6.954v-5.1a27.8,27.8,0,0,1,55.61,0V157.98H217.94V135.851A20.875,20.875,0,0,0,197.089,115Z" transform="translate(-115.417 -61.073)" fill="#f8ff35"/>
    <path id="Path_1982" data-name="Path 1982" d="M241.231,306.53a3.01,3.01,0,0,0,3.01-3.01V293.086a9.9,9.9,0,1,0-6.021,0v10.434A3.01,3.01,0,0,0,241.231,306.53Zm0-26.761a3.882,3.882,0,1,1-3.882,3.882A3.887,3.887,0,0,1,241.231,279.769Z" transform="translate(-159.558 -163.866)" fill="#f8ff35"/>
  </g>
</svg>
