<svg xmlns="http://www.w3.org/2000/svg" width="170.296" height="170.292" viewBox="0 0 170.296 170.292">
  <g id="bug" transform="translate(0)">
    <g id="Group_664" data-name="Group 664" transform="translate(0 0)">
      <g id="Group_663" data-name="Group 663">
        <path id="Path_1983" data-name="Path 1983" d="M166.97,136.373a3.326,3.326,0,0,0,3.326-3.326V16.637A16.649,16.649,0,0,0,153.666.007H16.63A16.649,16.649,0,0,0,0,16.637V140.37A16.649,16.649,0,0,0,16.63,157h119.9l9.068,9.068a14.469,14.469,0,1,0,20.461-20.462L133.253,112.8a3.326,3.326,0,0,0-4.7,0l-5.526,5.526-3.418-3.418a46.719,46.719,0,0,0,2.164-58.575A47.155,47.155,0,0,0,98.234,39.652,3.326,3.326,0,0,0,96.252,46a40.106,40.106,0,1,1-24.243.1,3.326,3.326,0,1,0-2.034-6.334A46.76,46.76,0,1,0,114.9,119.612l3.418,3.418-5.528,5.528a3.327,3.327,0,0,0,0,4.7l17.086,17.086H16.63a9.99,9.99,0,0,1-9.978-9.978V30.59c.11.011.221.017.334.017H163.644v102.44A3.326,3.326,0,0,0,166.97,136.373Zm-37.85,3.809,5.528-5.528a3.326,3.326,0,1,0-4.7-4.7l-5.528,5.528-4.568-4.568,5.526-5.526,0,0,0,0,5.525-5.525,30.454,30.454A7.816,7.816,0,1,1,150.3,161.364ZM6.986,23.955c-.113,0-.224.006-.334.017V16.637A9.99,9.99,0,0,1,16.63,6.659H153.666a9.99,9.99,0,0,1,9.978,9.978v7.317Z" transform="translate(0 -0.007)" fill="#f8ff35"/>
      </g>
    </g>
    <g id="Group_666" data-name="Group 666" transform="translate(70.535 11.974)">
      <g id="Group_665" data-name="Group 665">
        <path id="Path_1984" data-name="Path 1984" d="M290.539,36.007H215.391a3.326,3.326,0,0,0,0,6.652h75.148a3.326,3.326,0,1,0,0-6.652Z" transform="translate(-212.065 -36.007)" fill="#f8ff35"/>
      </g>
    </g>
    <g id="Group_668" data-name="Group 668" transform="translate(31.265 11.974)">
      <g id="Group_667" data-name="Group 667">
        <path id="Path_1985" data-name="Path 1985" d="M99.678,36.982a3.324,3.324,0,1,0,.975,2.352A3.351,3.351,0,0,0,99.678,36.982Z" transform="translate(-94 -36.007)" fill="#f8ff35"/>
      </g>
    </g>
    <g id="Group_670" data-name="Group 670" transform="translate(17.961 11.974)">
      <g id="Group_669" data-name="Group 669">
        <path id="Path_1986" data-name="Path 1986" d="M59.678,36.982a3.324,3.324,0,1,0,.975,2.352A3.351,3.351,0,0,0,59.678,36.982Z" transform="translate(-54 -36.007)" fill="#f8ff35"/>
      </g>
    </g>
    <g id="Group_672" data-name="Group 672" transform="translate(44.569 11.974)">
      <g id="Group_671" data-name="Group 671">
        <path id="Path_1987" data-name="Path 1987" d="M139.678,36.982a3.324,3.324,0,1,0,.975,2.352A3.351,3.351,0,0,0,139.678,36.982Z" transform="translate(-134 -36.007)" fill="#f8ff35"/>
      </g>
    </g>
    <g id="Group_674" data-name="Group 674" transform="translate(80.963 37.529)">
      <g id="Group_673" data-name="Group 673">
        <path id="Path_1988" data-name="Path 1988" d="M246.868,112.84h-.125a3.326,3.326,0,0,0,0,6.652h.111a3.326,3.326,0,0,0,.014-6.652Z" transform="translate(-243.417 -112.84)" fill="#f8ff35"/>
      </g>
    </g>
    <g id="Group_676" data-name="Group 676" transform="translate(17.961 131.048)">
      <g id="Group_675" data-name="Group 675">
        <path id="Path_1989" data-name="Path 1989" d="M80.054,394.007H57.326a3.326,3.326,0,1,0,0,6.652H80.054a3.326,3.326,0,1,0,0-6.652Z" transform="translate(-54 -394.007)" fill="#f8ff35"/>
      </g>
    </g>
    <g id="Group_678" data-name="Group 678" transform="translate(17.961 117.744)">
      <g id="Group_677" data-name="Group 677">
        <path id="Path_1990" data-name="Path 1990" d="M71.984,354.007H57.326a3.326,3.326,0,0,0,0,6.652H71.984a3.326,3.326,0,1,0,0-6.652Z" transform="translate(-54 -354.007)" fill="#f8ff35"/>
      </g>
    </g>
    <g id="Group_680" data-name="Group 680" transform="translate(53.327 131.048)">
      <g id="Group_679" data-name="Group 679">
        <path id="Path_1991" data-name="Path 1991" d="M166.011,394.982a3.332,3.332,0,1,0,.971,2.352A3.359,3.359,0,0,0,166.011,394.982Z" transform="translate(-160.33 -394.007)" fill="#f8ff35"/>
      </g>
    </g>
    <g id="Group_682" data-name="Group 682" transform="translate(119.697 39.248)">
      <g id="Group_681" data-name="Group 681">
        <path id="Path_1992" data-name="Path 1992" d="M389.185,118.007H363.2a3.326,3.326,0,0,0,0,6.652h25.986a3.326,3.326,0,0,0,0-6.652Z" transform="translate(-359.873 -118.007)" fill="#f8ff35"/>
      </g>
    </g>
    <g id="Group_684" data-name="Group 684" transform="translate(132.794 52.552)">
      <g id="Group_683" data-name="Group 683">
        <path id="Path_1993" data-name="Path 1993" d="M415.465,158.007H402.576a3.326,3.326,0,1,0,0,6.652h12.889a3.326,3.326,0,1,0,0-6.652Z" transform="translate(-399.25 -158.007)" fill="#f8ff35"/>
      </g>
    </g>
    <g id="Group_686" data-name="Group 686" transform="translate(55.696 57.905)">
      <g id="Group_685" data-name="Group 685">
        <path id="Path_1994" data-name="Path 1994" d="M221.312,208.658a3.326,3.326,0,0,0,0-6.652h-5.04a19.738,19.738,0,0,0-.344-2.754l5.092-5.125a3.326,3.326,0,0,0-4.719-4.689l-3.06,3.08a19.934,19.934,0,0,0-7.53-6.962v-2.332a9.138,9.138,0,0,0-9.127-9.126h-.962a9.137,9.137,0,0,0-9.126,9.126v2.332a19.933,19.933,0,0,0-7.575,7.031l-3.129-3.149a3.326,3.326,0,1,0-4.719,4.689l5.187,5.221a19.779,19.779,0,0,0-.325,2.634h-5.155a3.326,3.326,0,0,0,0,6.652h5.152a19.67,19.67,0,0,0,.325,2.661l-5.184,5.218a3.326,3.326,0,1,0,4.719,4.688l3.121-3.141a19.8,19.8,0,0,0,16.786,9.322h.809a19.794,19.794,0,0,0,16.742-9.253L216.3,221.2a3.326,3.326,0,1,0,4.719-4.688l-5.088-5.121a19.767,19.767,0,0,0,.341-2.734Zm-28.166-25.432a2.477,2.477,0,0,1,2.474-2.474h.962a2.477,2.477,0,0,1,2.474,2.474v.055h-5.91v-.055Zm16.5,24.363a13.158,13.158,0,0,1-13.143,13.143H195.7a13.158,13.158,0,0,1-13.143-13.143v-4.513A13.158,13.158,0,0,1,195.7,189.933h.809a13.158,13.158,0,0,1,13.143,13.143Z" transform="translate(-167.452 -174.099)" fill="#f8ff35"/>
      </g>
    </g>
  </g>
</svg>
