<svg id="software-development" xmlns="http://www.w3.org/2000/svg" width="174.589" height="174.588" viewBox="0 0 174.589 174.588">
  <path id="Path_1998" data-name="Path 1998" d="M65.975,7A30.975,30.975,0,1,0,96.951,37.975,31.012,31.012,0,0,0,65.975,7Zm0,56.319A25.343,25.343,0,1,1,91.319,37.975,25.374,25.374,0,0,1,65.975,63.319Z" transform="translate(60.742 9.896)" fill="#f8ff35"/>
  <path id="Path_1999" data-name="Path 1999" d="M167.89,35.9a42.061,42.061,0,0,0-2.588-6.277L169,22.446,154.145,7.595l-7.178,3.695A42.056,42.056,0,0,0,140.691,8.7L138.218,1h-21l-2.467,7.7a42.056,42.056,0,0,0-6.277,2.588l-7.178-3.695L86.441,22.443l3.452,6.716H9.448A8.458,8.458,0,0,0,1,37.607v118.27a8.458,8.458,0,0,0,8.448,8.448H109.935a19.7,19.7,0,1,0,20.6-27.934V102.374H124.9v34.017a19.519,19.519,0,0,0-16.67,22.3H9.448a2.821,2.821,0,0,1-2.816-2.816V68.583H89.9L86.441,75.3l14.851,14.851,7.178-3.695a42.055,42.055,0,0,0,6.277,2.588l2.47,7.7h21l2.467-7.7a42.054,42.054,0,0,0,6.277-2.588l7.178,3.695L168.994,75.3,165.3,68.124a42.109,42.109,0,0,0,2.588-6.277l7.7-2.475v-21ZM127.717,141.8a14.08,14.08,0,1,1-14.08,14.08A14.1,14.1,0,0,1,127.717,141.8ZM6.632,37.607a2.821,2.821,0,0,1,2.816-2.816H87.954c-.132.372-.284.732-.405,1.109l-7.7,2.47v21l7.7,2.467c.121.377.276.738.406,1.109H6.632ZM169.957,55.266l-6.634,2.126-.411,1.456a36.252,36.252,0,0,1-3.247,7.871l-.741,1.321,3.182,6.181-9.042,9.042-6.181-3.179-1.318.738a36.366,36.366,0,0,1-7.873,3.247l-1.456.411-2.123,6.632H121.325L119.2,84.476l-1.456-.411a36.508,36.508,0,0,1-7.873-3.247l-1.318-.738-6.181,3.179-9.042-9.042,3.182-6.181-.741-1.321a36.309,36.309,0,0,1-3.247-7.871l-.411-1.456-6.634-2.123V42.479l6.634-2.126.411-1.456a36.507,36.507,0,0,1,3.247-7.873l.738-1.318-3.179-6.181,9.042-9.042,6.181,3.179,1.318-.738a36.366,36.366,0,0,1,7.873-3.247l1.456-.411,2.123-6.634H134.11l2.126,6.634,1.456.411a36.508,36.508,0,0,1,7.873,3.247l1.318.738,6.181-3.179,9.042,9.042-3.179,6.181.738,1.318a36.366,36.366,0,0,1,3.247,7.873l.411,1.456,6.634,2.123Z" transform="translate(-1 -1)" fill="#f8ff35"/>
  <path id="Path_2000" data-name="Path 2000" d="M48.2,16.779l7.181,9.574L48.2,35.928l4.506,3.379,9.715-12.953L52.705,13.4Z" transform="translate(84.713 21.518)" fill="#f8ff35"/>
  <path id="Path_2001" data-name="Path 2001" d="M48.465,13.4,38.75,26.353l9.715,12.953,4.506-3.379L45.79,26.353l7.181-9.574Z" transform="translate(67.552 21.518)" fill="#f8ff35"/>
  <path id="Path_2002" data-name="Path 2002" d="M0,0H39.823V5.632H0Z" transform="translate(121.156 67.192) rotate(-81.837)" fill="#f8ff35"/>
  <path id="Path_2003" data-name="Path 2003" d="M38.791,15H10.632A5.638,5.638,0,0,0,5,20.632v5.632A5.638,5.638,0,0,0,10.632,31.9H38.791a5.638,5.638,0,0,0,5.632-5.632V20.632A5.638,5.638,0,0,0,38.791,15ZM27.528,20.632v5.632H21.9V20.632Zm-16.9,0h5.632v5.632H10.632Zm22.528,5.632V20.632h5.632l0,5.632Z" transform="translate(6.264 24.423)" fill="#f8ff35"/>
  <path id="Path_2004" data-name="Path 2004" d="M51.448,69.9A8.448,8.448,0,1,0,43,61.448,8.458,8.458,0,0,0,51.448,69.9Zm0-11.264a2.816,2.816,0,1,1-2.816,2.816A2.821,2.821,0,0,1,51.448,58.632Z" transform="translate(75.27 93.429)" fill="#f8ff35"/>
  <path id="Path_2005" data-name="Path 2005" d="M69.9,76.757V66.626L58.632,55.362V34H53V57.693L64.264,68.957v7.8a8.448,8.448,0,1,0,5.632,0ZM67.08,87.5A2.816,2.816,0,1,1,69.9,84.687,2.821,2.821,0,0,1,67.08,87.5Z" transform="translate(93.429 58.926)" fill="#f8ff35"/>
  <path id="Path_2006" data-name="Path 2006" d="M53.528,57.693V34H47.9V55.362L36.632,66.626V76.757a8.448,8.448,0,1,0,5.632,0v-7.8ZM39.448,87.5a2.816,2.816,0,1,1,2.816-2.816A2.821,2.821,0,0,1,39.448,87.5Z" transform="translate(53.478 58.926)" fill="#f8ff35"/>
  <path id="Path_2007" data-name="Path 2007" d="M19.08,32.632H21.9V27H19.08a8.458,8.458,0,0,0-8.448,8.448,2.821,2.821,0,0,1-2.816,2.816H5V43.9H7.816a2.821,2.821,0,0,1,2.816,2.816,8.458,8.458,0,0,0,8.448,8.448H21.9V49.528H19.08a2.821,2.821,0,0,1-2.816-2.816,8.393,8.393,0,0,0-2.2-5.632,8.393,8.393,0,0,0,2.2-5.632A2.821,2.821,0,0,1,19.08,32.632Z" transform="translate(6.264 46.215)" fill="#f8ff35"/>
  <path id="Path_2008" data-name="Path 2008" d="M13,27H46.791v5.632H13Z" transform="translate(20.791 46.215)" fill="#f8ff35"/>
  <path id="Path_2009" data-name="Path 2009" d="M13,31H46.791v5.632H13Z" transform="translate(20.791 53.478)" fill="#f8ff35"/>
  <path id="Path_2010" data-name="Path 2010" d="M23,35h5.632v5.632H23Z" transform="translate(38.951 60.742)" fill="#f8ff35"/>
  <path id="Path_2011" data-name="Path 2011" d="M13,35H35.528v5.632H13Z" transform="translate(20.791 60.742)" fill="#f8ff35"/>
  <path id="Path_2012" data-name="Path 2012" d="M34.264,62.712A2.821,2.821,0,0,1,37.08,59.9H39.9V54.264H37.08a2.821,2.821,0,0,1-2.816-2.816A8.458,8.458,0,0,0,25.816,43H23v5.632h2.816a2.821,2.821,0,0,1,2.816,2.816,8.393,8.393,0,0,0,2.2,5.632,8.38,8.38,0,0,0-2.2,5.632,2.821,2.821,0,0,1-2.816,2.816H23v5.632h2.816A8.458,8.458,0,0,0,34.264,62.712Z" transform="translate(38.951 75.27)" fill="#f8ff35"/>
  <path id="Path_2013" data-name="Path 2013" d="M9,51H42.791v5.632H9Z" transform="translate(13.528 89.797)" fill="#f8ff35"/>
  <path id="Path_2014" data-name="Path 2014" d="M13,47H35.528v5.632H13Z" transform="translate(20.791 82.533)" fill="#f8ff35"/>
  <path id="Path_2015" data-name="Path 2015" d="M9,47h5.632v5.632H9Z" transform="translate(13.528 82.533)" fill="#f8ff35"/>
  <path id="Path_2016" data-name="Path 2016" d="M9,43H42.791v5.632H9Z" transform="translate(13.528 75.27)" fill="#f8ff35"/>
  <path id="Path_2017" data-name="Path 2017" d="M5,39H61.319v5.632H5Z" transform="translate(6.264 68.006)" fill="#f8ff35"/>
</svg>
