<svg xmlns="http://www.w3.org/2000/svg" width="175.184" height="165.714" viewBox="0 0 175.184 165.714">
  <g id="cyber-security" transform="translate(0)">
    <path id="Path_1995" data-name="Path 1995" d="M251.34,348.858a2.563,2.563,0,0,0-2.563,2.563v2.144a2.563,2.563,0,1,0,5.127,0v-2.144A2.563,2.563,0,0,0,251.34,348.858Z" transform="translate(-163.748 -234.359)" fill="#f8ff35"/>
    <path id="Path_1996" data-name="Path 1996" d="M227.125,198.3a4.979,4.979,0,0,0,4,2.031h10.366a4.963,4.963,0,0,0,4.731-6.46l-1.962-6.2a10.086,10.086,0,1,0-15.905,0l-1.962,6.2a4.979,4.979,0,0,0,.728,4.43Zm5.356-13.68a4.959,4.959,0,0,1,4.152-8.1,5.01,5.01,0,0,1,4.629,4.645,4.956,4.956,0,0,1-1.122,3.457,4.589,4.589,0,0,0-.851,4.318l1.983,6.262h-9.919l1.983-6.262A4.6,4.6,0,0,0,232.481,184.621Z" transform="translate(-148.866 -117.544)" fill="#f8ff35"/>
    <path id="Path_1997" data-name="Path 1997" d="M175.154,72.5v0l.029-20.687a16.555,16.555,0,0,0-16.536-16.536H123.813a2.563,2.563,0,1,0,0,5.127h34.835a11.421,11.421,0,0,1,11.409,11.405l-.026,18.13H167.8a9.329,9.329,0,0,0-8.953,6.751h-8.28a9.329,9.329,0,0,0-8.953-6.751h-5.136a9.329,9.329,0,0,0-8.953,6.751H121V61.552a7.192,7.192,0,0,0-6.837-7.171V40.427a26.731,26.731,0,0,0-.592-5.579,2.563,2.563,0,1,0-5.013,1.072,21.6,21.6,0,0,1,.478,4.507V54.363h-7.177V40.427a14.269,14.269,0,1,0-28.538,0V54.363H66.145V40.427A21.442,21.442,0,0,1,104.386,27.1a2.563,2.563,0,0,0,4.013-3.19A26.569,26.569,0,0,0,61.018,40.427V54.366a7.2,7.2,0,0,0-7.13,7.186V76.688H47.3a9.329,9.329,0,0,0-8.953-6.751H33.214a9.329,9.329,0,0,0-8.953,6.751h-8.28a9.329,9.329,0,0,0-8.953-6.751h-1.9V51.811A11.422,11.422,0,0,1,16.536,40.4H51.371a2.563,2.563,0,1,0,0-5.127H16.536A16.554,16.554,0,0,0,0,51.811v77.633a16.555,16.555,0,0,0,16.536,16.536H64.15v18.06l-8.394,10.4H52.145a2.563,2.563,0,0,0,0,5.127h70.6a2.563,2.563,0,0,0,0-5.127h-3.318l-8.394-10.4V145.98h47.5A16.568,16.568,0,0,0,175.073,129.5L175.135,86h0l.019-13.5a.015.015,0,0,1,0,0ZM167.8,75.063h2.227l-.012,8.376H167.8a4.188,4.188,0,1,1,0-8.376Zm-31.322,0h5.136a4.188,4.188,0,0,1,0,8.376h-5.136a4.188,4.188,0,0,1,0-8.376ZM78.449,40.427a9.142,9.142,0,0,1,18.285,0V54.363H78.449ZM33.214,75.063H38.35a4.188,4.188,0,1,1,0,8.376H33.214a4.188,4.188,0,0,1,0-8.376Zm-26.186,0a4.188,4.188,0,0,1,0,8.376h-1.9V75.063Zm98.878,87.318H96.841a2.563,2.563,0,1,0,0,5.127h10.4l5.595,6.933H62.344l5.595-6.933H85.3a2.563,2.563,0,1,0,0-5.127H69.277v-16.4h36.63Zm52.63-21.528h-142A11.422,11.422,0,0,1,5.127,129.444v-5.185H145.645a2.563,2.563,0,1,0,0-5.127H5.127V88.566h1.9a9.329,9.329,0,0,0,8.953-6.751h8.28a9.329,9.329,0,0,0,8.953,6.751H38.35A9.329,9.329,0,0,0,47.3,81.814h6.585V98.469a11.518,11.518,0,0,0,11.5,11.5H66.4a2.563,2.563,0,0,0,0-5.127H65.392a6.385,6.385,0,0,1-6.378-6.378V61.552a2.065,2.065,0,0,1,2.062-2.063h52.736a2.065,2.065,0,0,1,2.062,2.063V98.469a6.385,6.385,0,0,1-6.378,6.378H77.329a2.563,2.563,0,0,0,0,5.127H109.5a11.517,11.517,0,0,0,11.5-11.5V81.814h6.519a9.329,9.329,0,0,0,8.953,6.751h5.136a9.329,9.329,0,0,0,8.953-6.751h8.28a9.329,9.329,0,0,0,8.953,6.751H170l-.044,30.566H156.569a2.563,2.563,0,1,0,0,5.127h13.384l-.008,5.226a11.43,11.43,0,0,1-11.408,11.368Z" transform="translate(0 -13.854)" fill="#f8ff35"/>
  </g>
</svg>
