<svg xmlns="http://www.w3.org/2000/svg" width="117" height="111.435" viewBox="0 0 117 111.435">
  <g id="salary" transform="translate(0 -11.67)">
    <g id="Group_347" data-name="Group 347" transform="translate(0 36.174)">
      <g id="Group_346" data-name="Group 346" transform="translate(0 0)">
        <path id="Path_1635" data-name="Path 1635" d="M111.776,122.516,101.444,115a2.542,2.542,0,0,0-2.991,4.11l10.332,7.513a7.766,7.766,0,0,1,3.128,6.292v55.728a7.428,7.428,0,0,1-7.188,7.63H12.275a7.428,7.428,0,0,1-7.188-7.63V132.919a7.783,7.783,0,0,1,3.128-6.3l10.438-7.59a2.542,2.542,0,0,0-2.991-4.11l-10.438,7.59A12.879,12.879,0,0,0,0,132.919v55.728a12.516,12.516,0,0,0,12.275,12.717h92.45A12.52,12.52,0,0,0,117,188.646V132.919A12.846,12.846,0,0,0,111.776,122.516Z" transform="translate(0 -114.433)" fill="#f8ff35"/>
      </g>
    </g>
    <g id="Group_349" data-name="Group 349" transform="translate(34.986 11.67)">
      <g id="Group_348" data-name="Group 348">
        <path id="Path_1636" data-name="Path 1636" d="M192.618,21.778l-6.995-5.087a26.091,26.091,0,0,0-30.776,0l-7.076,5.148a2.544,2.544,0,1,0,2.991,4.115l7.076-5.153a21.023,21.023,0,0,1,24.794,0l6.994,5.087a2.542,2.542,0,1,0,2.991-4.11Z" transform="translate(-146.721 -11.67)" fill="#f8ff35"/>
      </g>
    </g>
    <g id="Group_351" data-name="Group 351" transform="translate(10.169 56.973)">
      <g id="Group_350" data-name="Group 350">
        <path id="Path_1637" data-name="Path 1637" d="M138.872,202.8a2.536,2.536,0,0,0-3.525-.707l-32.918,21.94a20.6,20.6,0,0,1-22.912,0L46.6,202.088a2.542,2.542,0,0,0-2.818,4.232L76.7,228.261a25.648,25.648,0,0,0,28.548,0l32.918-21.94A2.541,2.541,0,0,0,138.872,202.8Z" transform="translate(-42.647 -201.66)" fill="#f8ff35"/>
      </g>
    </g>
    <g id="Group_353" data-name="Group 353" transform="translate(15.261 21.365)">
      <g id="Group_352" data-name="Group 352">
        <path id="Path_1638" data-name="Path 1638" d="M147.935,52.331H66.544A2.544,2.544,0,0,0,64,54.874V93.027a2.544,2.544,0,0,0,5.087,0V57.418h76.3V93.027a2.544,2.544,0,1,0,5.087,0V54.874A2.545,2.545,0,0,0,147.935,52.331Z" transform="translate(-64 -52.331)" fill="#f8ff35"/>
      </g>
    </g>
    <g id="Group_355" data-name="Group 355" transform="translate(45.782 36.626)">
      <g id="Group_354" data-name="Group 354">
        <path id="Path_1639" data-name="Path 1639" d="M205.066,126.525c-.01,0-.524-.066-.534-.066-7.361-.9-7.447-2.483-7.447-2.5,0-.636,2.706-2.544,7.635-2.544,4.756,0,7.549,1.8,7.641,2.538a2.546,2.546,0,0,0,5.051-.636c-.514-4.049-5.85-6.989-12.692-6.989-7.254,0-12.723,3.281-12.723,7.63,0,6.089,8.658,7.147,12.382,7.6l.539.071c7.34.905,7.427,2.488,7.427,2.5,0,.5-2.452,2.544-7.635,2.544-4.756,0-7.549-1.8-7.641-2.538a2.546,2.546,0,0,0-5.051.636c.514,4.049,5.85,6.989,12.692,6.989,7.254,0,12.723-3.281,12.723-7.63C217.433,128.046,208.79,126.988,205.066,126.525Z" transform="translate(-191.997 -116.331)" fill="#f8ff35"/>
      </g>
    </g>
    <g id="Group_357" data-name="Group 357" transform="translate(55.956 31.539)">
      <g id="Group_356" data-name="Group 356" transform="translate(0 0)">
        <path id="Path_1640" data-name="Path 1640" d="M237.21,95a2.545,2.545,0,0,0-2.544,2.544v30.522a2.544,2.544,0,0,0,5.087,0V97.541A2.545,2.545,0,0,0,237.21,95Z" transform="translate(-234.666 -94.997)" fill="#f8ff35"/>
      </g>
    </g>
    <g id="Group_359" data-name="Group 359" transform="translate(33.065 72.235)">
      <g id="Group_358" data-name="Group 358">
        <path id="Path_1641" data-name="Path 1641" d="M184.449,265.664H141.21a2.544,2.544,0,1,0,0,5.087h43.239a2.544,2.544,0,0,0,0-5.087Z" transform="translate(-138.666 -265.664)" fill="#f8ff35"/>
      </g>
    </g>
    <g id="Group_361" data-name="Group 361" transform="translate(76.304 31.539)">
      <g id="Group_360" data-name="Group 360" transform="translate(0 0)">
        <path id="Path_1642" data-name="Path 1642" d="M332.717,95H322.543a2.544,2.544,0,0,0,0,5.087h10.174a2.544,2.544,0,0,0,0-5.087Z" transform="translate(-319.999 -94.997)" fill="#f8ff35"/>
      </g>
    </g>
    <g id="Group_363" data-name="Group 363" transform="translate(25.435 62.061)">
      <g id="Group_362" data-name="Group 362">
        <path id="Path_1643" data-name="Path 1643" d="M119.384,223H109.21a2.544,2.544,0,1,0,0,5.087h10.174a2.544,2.544,0,1,0,0-5.087Z" transform="translate(-106.666 -222.997)" fill="#f8ff35"/>
      </g>
    </g>
  </g>
</svg>
