<svg xmlns="http://www.w3.org/2000/svg" width="112.279" height="111.435" viewBox="0 0 112.279 111.435">
  <g id="XMLID_1_" transform="translate(0 -0.181)">
    <path id="Path_1644" data-name="Path 1644" d="M15.839,9.09l41.216,8.187a6.912,6.912,0,0,1,5.567,6.83V71.826A7.008,7.008,0,0,1,55.6,78.844H13.5A2.316,2.316,0,0,0,15.839,76.5V74.165H55.6a2.346,2.346,0,0,0,2.339-2.339V24.107a2.35,2.35,0,0,0-1.825-2.292l-40.28-7.953Z" transform="translate(49.657 32.772)" fill="#f8ff35"/>
    <path id="Path_1645" data-name="Path 1645" d="M28.7,14a2.339,2.339,0,0,1,0,4.678H19.339a2.339,2.339,0,0,1,0-4.678Z" transform="translate(62.531 50.832)" fill="#f8ff35"/>
    <path id="Path_1646" data-name="Path 1646" d="M28.7,17a2.339,2.339,0,1,1,0,4.678H19.339a2.339,2.339,0,1,1,0-4.678Z" transform="translate(62.531 61.867)" fill="#f8ff35"/>
    <path id="Path_1647" data-name="Path 1647" d="M28.7,20a2.339,2.339,0,0,1,0,4.678H19.339a2.339,2.339,0,0,1,0-4.678Z" transform="translate(62.531 72.902)" fill="#f8ff35"/>
    <path id="Path_1648" data-name="Path 1648" d="M17.678,76.835a2.339,2.339,0,1,1-4.678,0v-65.5a2.487,2.487,0,0,1,.842-1.825,2.459,2.459,0,0,1,1.965-.468l1.871.374V76.835Z" transform="translate(47.818 32.441)" fill="#f8ff35"/>
    <path id="Path_1649" data-name="Path 1649" d="M25.874,23v2.339a2.316,2.316,0,0,0,2.339,2.339H9.5a2.316,2.316,0,0,0,2.339-2.339V23Z" transform="translate(34.944 83.937)" fill="#f8ff35"/>
    <path id="Path_1650" data-name="Path 1650" d="M19.7,5a2.339,2.339,0,0,1,0,4.678H10.339a2.339,2.339,0,0,1,0-4.678Z" transform="translate(29.426 17.727)" fill="#f8ff35"/>
    <path id="Path_1651" data-name="Path 1651" d="M22.035,10.339A2.316,2.316,0,0,1,19.7,12.678H10.339a2.339,2.339,0,1,1,0-4.678H19.7A2.316,2.316,0,0,1,22.035,10.339Z" transform="translate(29.426 28.762)" fill="#f8ff35"/>
    <path id="Path_1652" data-name="Path 1652" d="M19.7,11a2.339,2.339,0,0,1,0,4.678H10.339a2.339,2.339,0,0,1,0-4.678Z" transform="translate(29.426 39.797)" fill="#f8ff35"/>
    <path id="Path_1653" data-name="Path 1653" d="M19.7,14a2.339,2.339,0,0,1,0,4.678H10.339a2.339,2.339,0,1,1,0-4.678Z" transform="translate(29.426 50.832)" fill="#f8ff35"/>
    <path id="Path_1654" data-name="Path 1654" d="M17.035,16.339A2.316,2.316,0,0,1,14.7,18.678H5.339a2.339,2.339,0,0,1,0-4.678H14.7A2.316,2.316,0,0,1,17.035,16.339Z" transform="translate(11.035 50.832)" fill="#f8ff35"/>
    <path id="Path_1655" data-name="Path 1655" d="M14.7,5a2.339,2.339,0,1,1,0,4.678H5.339A2.339,2.339,0,0,1,5.339,5Z" transform="translate(11.035 17.727)" fill="#f8ff35"/>
    <path id="Path_1656" data-name="Path 1656" d="M14.7,8a2.339,2.339,0,1,1,0,4.678H5.339A2.339,2.339,0,1,1,5.339,8Z" transform="translate(11.035 28.762)" fill="#f8ff35"/>
    <path id="Path_1657" data-name="Path 1657" d="M14.7,11a2.339,2.339,0,0,1,0,4.678H5.339a2.339,2.339,0,0,1,0-4.678Z" transform="translate(11.035 39.797)" fill="#f8ff35"/>
    <path id="Path_1658" data-name="Path 1658" d="M27.392,24.017a2.346,2.346,0,0,0-2.339-2.339H11.017a2.316,2.316,0,0,0-2.339,2.339V45.07H4V24.017A7.008,7.008,0,0,1,11.017,17H25.052a7.008,7.008,0,0,1,7.017,7.017V45.07H27.392Z" transform="translate(14.713 61.867)" fill="#f8ff35"/>
    <path id="Path_1659" data-name="Path 1659" d="M8.678,23H32.07v2.339a2.316,2.316,0,0,1-2.339,2.339H6.339A2.316,2.316,0,0,1,4,25.339V23Z" transform="translate(14.713 83.937)" fill="#f8ff35"/>
    <path id="Path_1660" data-name="Path 1660" d="M8.187.272,59.6,8.084A6.992,6.992,0,0,1,65.5,15.008V41.862l-1.871-.374a2.459,2.459,0,0,0-1.965.468,2.487,2.487,0,0,0-.842,1.825V15.008a2.365,2.365,0,0,0-1.965-2.339L7.439,4.9a1.3,1.3,0,0,0-.421-.047,2.207,2.207,0,0,0-1.5.561A2.237,2.237,0,0,0,4.678,7.2v97.4a2.346,2.346,0,0,0,2.339,2.339h11.7v2.339a2.316,2.316,0,0,0,2.339,2.339H7.017A7.008,7.008,0,0,1,0,104.6V7.2A6.889,6.889,0,0,1,2.48,1.862,7.022,7.022,0,0,1,8.187.272Z" transform="translate(0 0)" fill="#f8ff35"/>
  </g>
</svg>
