<svg xmlns="http://www.w3.org/2000/svg" width="123.624" height="107.141" viewBox="0 0 123.624 107.141">
  <g id="man" transform="translate(-371 -129.516)">
    <g id="Group_752" data-name="Group 752" transform="translate(367 57.516)">
      <g id="Group_751" data-name="Group 751" transform="translate(4 72)">
        <path id="Path_2375" data-name="Path 2375" d="M118.972,96.892a14.417,14.417,0,1,0-17.736,1.617,10.3,10.3,0,0,0-4.518,8.518V121.45H88.476v-10.3A14.436,14.436,0,0,0,75.764,96.836a14.423,14.423,0,1,0-19.9,0,14.436,14.436,0,0,0-12.713,14.312v10.3H34.906V107.027a10.3,10.3,0,0,0-4.518-8.518,14.43,14.43,0,1,0-17.736-1.617A10.292,10.292,0,0,0,4,107.027v30.906a10.321,10.321,0,0,0,8.242,10.094v31.114h4.121V148.235H34.906V177.08a2.061,2.061,0,0,0,2.06,2.06H49.329a2.061,2.061,0,0,0,2.06-2.06V144.114H63.752V175.02H55.51v4.121h20.6V175.02H67.872V144.114H80.235V177.08a2.061,2.061,0,0,0,2.06,2.06H94.658a2.061,2.061,0,0,0,2.06-2.06V148.235h18.544v30.906h4.121V148.027a10.32,10.32,0,0,0,8.242-10.094V107.027A10.292,10.292,0,0,0,118.972,96.892ZM98.778,86.423a10.3,10.3,0,1,1,10.3,10.3A10.314,10.314,0,0,1,98.778,86.423Zm-43.268,0a10.3,10.3,0,1,1,10.3,10.3A10.314,10.314,0,0,1,55.51,86.423Zm13.51,14.423L65.812,109.4,62.6,100.846Zm-21.752,10.3a10.314,10.314,0,0,1,10.3-10.3H58.2l5.681,15.146a2.061,2.061,0,0,0,3.859,0l5.678-15.146h.633a10.314,10.314,0,0,1,10.3,10.3v10.3H76.114a2.061,2.061,0,0,0-2.06,2.06v8.242H57.57V123.51a2.061,2.061,0,0,0-2.06-2.06H47.268ZM12.242,86.423a10.3,10.3,0,1,1,10.3,10.3A10.314,10.314,0,0,1,12.242,86.423Zm35.027,88.6H39.027V146.174a2.061,2.061,0,0,0-2.06-2.06H14.3a6.189,6.189,0,0,1-6.181-6.181V107.027a6.189,6.189,0,0,1,6.181-6.181H24.6a6.189,6.189,0,0,1,6.181,6.181V123.51a2.061,2.061,0,0,0,2.06,2.06h20.6v6.181H24.6V113.208H20.483v20.6a2.061,2.061,0,0,0,2.06,2.06H41.087a6.189,6.189,0,0,1,6.181,6.181Zm33.2-35.027H51.158a10.288,10.288,0,0,0-1.834-4.121H82.3A10.288,10.288,0,0,0,80.465,139.993Zm43.038-2.06a6.189,6.189,0,0,1-6.181,6.181H94.658a2.061,2.061,0,0,0-2.06,2.06V175.02H84.356V142.054a6.189,6.189,0,0,1,6.181-6.181H109.08a2.061,2.061,0,0,0,2.06-2.06v-20.6H107.02v18.544H78.174V125.57h20.6a2.061,2.061,0,0,0,2.06-2.06V107.027a6.189,6.189,0,0,1,6.181-6.181h10.3a6.189,6.189,0,0,1,6.181,6.181Z" transform="translate(-4 -72)" fill="#f8ff35"/>
      </g>
    </g>
  </g>
</svg>
