<svg xmlns="http://www.w3.org/2000/svg" width="100.237" height="115.173" viewBox="0 0 100.237 115.173">
  <g id="shield" transform="translate(-33.197 0)">
    <g id="Group_366" data-name="Group 366" transform="translate(33.197 0)">
      <g id="Group_365" data-name="Group 365" transform="translate(0 0)">
        <path id="Path_1676" data-name="Path 1676" d="M132.547,23.529a7.106,7.106,0,0,0-4.286-5.495L86.019.541a7.022,7.022,0,0,0-5.406,0L38.371,18.034a7.106,7.106,0,0,0-4.286,5.495,93.766,93.766,0,0,0,2.959,39.429A82.842,82.842,0,0,0,50.856,89.844a94.532,94.532,0,0,0,29.026,24.441,7.09,7.09,0,0,0,6.868,0,94.532,94.532,0,0,0,29.026-24.441,82.845,82.845,0,0,0,13.812-26.887,93.765,93.765,0,0,0,2.959-39.428Zm-6.185,38.455c-6.336,21-20.216,37.607-41.255,49.359a3.7,3.7,0,0,1-3.58,0C60.487,99.592,46.606,82.985,40.27,61.984a90.269,90.269,0,0,1-2.852-37.96,3.718,3.718,0,0,1,2.242-2.876L81.9,3.655a3.669,3.669,0,0,1,2.827,0l42.242,17.493a3.717,3.717,0,0,1,2.241,2.876,90.267,90.267,0,0,1-2.851,37.96Z" transform="translate(-33.197 0)" fill="#f8ff35"/>
        <path id="Path_1677" data-name="Path 1677" d="M152.382,66.113l-16.51-6.738A1.685,1.685,0,0,0,134.6,62.5l16.51,6.738a2.6,2.6,0,0,1,1.592,2,70.059,70.059,0,0,1-2.278,29.882c-5.061,16.531-16.155,29.607-32.972,38.864a2.689,2.689,0,0,1-2.571,0c-16.818-9.257-27.911-22.333-32.972-38.864a70.054,70.054,0,0,1-2.279-29.882,2.6,2.6,0,0,1,1.592-2l33.928-13.846a2.71,2.71,0,0,1,2.033,0l10.19,4.159a1.685,1.685,0,0,0,1.273-3.121l-10.19-4.159a6.029,6.029,0,0,0-4.58,0L79.947,66.113A5.988,5.988,0,0,0,76.3,70.735a73.558,73.558,0,0,0,2.388,31.371,65.583,65.583,0,0,0,11.154,21.4,75.993,75.993,0,0,0,23.416,19.433,6.085,6.085,0,0,0,5.821,0A75.985,75.985,0,0,0,142.491,123.5a65.589,65.589,0,0,0,11.154-21.4,73.554,73.554,0,0,0,2.388-31.371,5.987,5.987,0,0,0-3.651-4.622Z" transform="translate(-66.045 -40.16)" fill="#f8ff35"/>
        <path id="Path_1678" data-name="Path 1678" d="M181.733,206.051h6.718a4.356,4.356,0,0,0,4.361-4.341v-7.449a.982.982,0,0,1,.991-.97h7.508a4.356,4.356,0,0,0,4.361-4.34v-6.665a4.356,4.356,0,0,0-4.361-4.341H193.8a.981.981,0,0,1-.991-.97v-7.45a4.356,4.356,0,0,0-4.361-4.34h-6.718a4.356,4.356,0,0,0-4.361,4.34v7.45a.982.982,0,0,1-.991.97h-7.508a4.356,4.356,0,0,0-4.361,4.341v6.665a4.357,4.357,0,0,0,3.792,4.3,1.685,1.685,0,1,0,.435-3.342.978.978,0,0,1-.857-.961v-6.665a.982.982,0,0,1,.991-.97h7.508a4.356,4.356,0,0,0,4.361-4.34v-7.45a.982.982,0,0,1,.991-.97h6.718a.981.981,0,0,1,.991.97v7.45a4.356,4.356,0,0,0,4.361,4.34h7.508a.982.982,0,0,1,.991.97v6.665a.982.982,0,0,1-.991.97H193.8a4.356,4.356,0,0,0-4.361,4.341v7.449a.982.982,0,0,1-.991.97h-6.718a.982.982,0,0,1-.991-.97v-7.449a4.356,4.356,0,0,0-4.361-4.341,1.685,1.685,0,1,0,0,3.371.982.982,0,0,1,.991.97v7.449a4.356,4.356,0,0,0,4.361,4.34Z" transform="translate(-134.973 -128.027)" fill="#f8ff35"/>
      </g>
    </g>
  </g>
</svg>
