<svg xmlns="http://www.w3.org/2000/svg" width="115.601" height="115.601" viewBox="0 0 115.601 115.601">
  <g id="compensation" transform="translate(-1 -1)">
    <path id="Path_1674" data-name="Path 1674" d="M32.729,33.1v4h3.729v-4a5.3,5.3,0,0,0,.787-9.811l-3.634-1.818a1.592,1.592,0,0,1,.71-3.017h.543a1.6,1.6,0,0,1,1.594,1.592v.272h3.729V20.05A5.312,5.312,0,0,0,36.458,15V11H32.729v4a5.3,5.3,0,0,0-.787,9.811l3.634,1.818a1.592,1.592,0,0,1-.71,3.017h-.543a1.6,1.6,0,0,1-1.594-1.592v-.272H29v.272A5.312,5.312,0,0,0,32.729,33.1Z" transform="translate(24.207 8.645)" fill="#f8ff35"/>
    <path id="Path_1675" data-name="Path 1675" d="M116.6,34.562V1H1V34.562H12.187V68.123H28.968v6.837a20.633,20.633,0,0,0,2.081,8.955L15.454,99.509a9.345,9.345,0,1,0,2.638,2.636L33.031,87.209c.015.019.026.039.039.058l5.9,7.874a5.581,5.581,0,0,0-2.549,4.68V116.6H84.9V99.82a5.573,5.573,0,0,0-2.929-4.887l1.732-3.464,5.431,3.848a7.386,7.386,0,0,0-.505,2.638,7.458,7.458,0,1,0,10.919-6.567l2.856-12.136c.377.034.755.058,1.141.058a13.044,13.044,0,0,0,1.865-25.954V34.562ZM10.323,112.872a5.594,5.594,0,1,1,5.594-5.594A5.6,5.6,0,0,1,10.323,112.872ZM4.729,30.833V4.729H112.872v26.1h-7.458V15.916h3.729V12.187H8.458v3.729h3.729V30.833Zm96.956,18.645h-7.27a9.352,9.352,0,0,1,7.27-7.27Zm-57.8,14.916V60.665h57.8v3.729ZM28.968,49.478H26.954A13.061,13.061,0,0,0,15.916,38.44V26.954A13.061,13.061,0,0,0,26.954,15.916h20.09a20.461,20.461,0,0,0,0,33.562H43.094a9.328,9.328,0,0,0-8.532-5.594A5.6,5.6,0,0,0,28.968,49.478ZM23.186,15.916a9.352,9.352,0,0,1-7.27,7.27v-7.27Zm-7.27,26.292a9.352,9.352,0,0,1,7.27,7.27h-7.27Zm0,11H28.968v3.729H15.916ZM58.8,15.916A16.781,16.781,0,1,1,42.02,32.7,16.8,16.8,0,0,1,58.8,15.916Zm42.884,41.02h-57.8V53.207h57.8Zm0-18.5A13.061,13.061,0,0,0,90.647,49.478H70.557a20.461,20.461,0,0,0,0-33.562h20.09a13.061,13.061,0,0,0,11.038,11.038Zm0-15.254a9.352,9.352,0,0,1-7.27-7.27h7.27ZM15.916,64.394V60.665H28.968v3.729ZM32.7,74.961V49.478a1.866,1.866,0,0,1,1.865-1.865,5.6,5.6,0,0,1,5.594,5.594V67.256l3.1,2.068a5.582,5.582,0,0,1,2.491,4.656v3.466h3.729V73.98a9.286,9.286,0,0,0-2.088-5.857H84.9v8.65a16.855,16.855,0,0,1-1.771,7.5l-4.975,9.949H42.952l-6.9-9.2A16.889,16.889,0,0,1,32.7,74.961Zm48.478,37.912H40.155V99.82a1.866,1.866,0,0,1,1.865-1.865H79.311a1.866,1.866,0,0,1,1.865,1.865Zm14.916-11.187a3.729,3.729,0,1,1,3.729-3.729A3.733,3.733,0,0,1,96.091,101.685Zm-.166-11.17a7.383,7.383,0,0,0-4.618,1.768l-5.912-4.188,1.074-2.148a20.612,20.612,0,0,0,2.165-9.172V68.123h2.014A13.076,13.076,0,0,0,98.778,78.4Zm16.947-24.256a9.323,9.323,0,0,1-18.457,1.865h11v-11A9.34,9.34,0,0,1,112.872,66.259Z" transform="translate(0 0)" fill="#f8ff35"/>
  </g>
</svg>
