<svg xmlns="http://www.w3.org/2000/svg" width="116.999" height="117.12" viewBox="0 0 116.999 117.12">
  <g id="globe-grid" transform="translate(-0.267)">
    <path id="Path_2041" data-name="Path 2041" d="M114.538,57.773l-4.06-.573c.027-.7.043-1.4.043-2.073A55.135,55.135,0,0,0,4.629,33.6a1.715,1.715,0,1,0,3.158,1.34q.725-1.707,1.56-3.34A58.1,58.1,0,0,1,19.7,25.518,88.357,88.357,0,0,0,16.05,40.947,85.616,85.616,0,0,0,4.886,44.073q.238-1.091.521-2.17a1.715,1.715,0,1,0-3.317-.875,55.159,55.159,0,0,0,69.695,66.744,36.564,36.564,0,0,0,10.124,6.588l6.007,2.619a1.715,1.715,0,0,0,1.371,0l6.007-2.619a36.625,36.625,0,0,0,8.157-4.908,1.715,1.715,0,1,0-2.136-2.684,33.191,33.191,0,0,1-7.392,4.447l-5.321,2.32-5.321-2.32a33.127,33.127,0,0,1-9.855-6.614l-.042-.04A33.159,33.159,0,0,1,63.367,80.809V61.138l4.672-.66a39.5,39.5,0,0,0,18.467-7.745l1.668-1.279a.7.7,0,0,1,.853,0L90.7,52.733a39.495,39.495,0,0,0,18.467,7.745l4.672.66V80.809a33.258,33.258,0,0,1-7.565,21.085,1.715,1.715,0,0,0,2.649,2.18,36.7,36.7,0,0,0,8.347-23.265v-19.9a3.186,3.186,0,0,0-2.728-3.14ZM95.191,44.579A73.048,73.048,0,0,1,106.6,48.018a52.46,52.46,0,0,1,.486,7.109c0,.487-.009.985-.024,1.491A36.1,36.1,0,0,1,95.7,52.027q-.116-3.763-.513-7.448ZM70.285,19.355a82.5,82.5,0,0,1,16.5,4.349,82.952,82.952,0,0,1,4.365,16.528A174.566,174.566,0,0,0,72.618,37.9a174.446,174.446,0,0,0-2.333-18.548Zm-1.14,18.314c-4.45-.262-9.054-.4-13.752-.4s-9.3.136-13.752.4a170.627,170.627,0,0,1,2.467-18.812,96.343,96.343,0,0,1,22.57,0,170.7,170.7,0,0,1,2.466,18.812ZM78.9,9.059a57.851,57.851,0,0,1,6.084,10.365,88.349,88.349,0,0,0-15.415-3.642A85.683,85.683,0,0,0,66.445,4.611,51.064,51.064,0,0,1,78.9,9.059ZM91.074,25.51a58.079,58.079,0,0,1,10.388,6.108,51.083,51.083,0,0,1,4.449,12.459,85.627,85.627,0,0,0-11.178-3.129A88.744,88.744,0,0,0,91.074,25.51Zm6.234-.658a68.81,68.81,0,0,0-7.875-3.78,69,69,0,0,0-3.774-7.867A52.316,52.316,0,0,1,97.308,24.852ZM62.5,3.916a73.037,73.037,0,0,1,3.438,11.408,99.381,99.381,0,0,0-21.094,0A73.081,73.081,0,0,1,48.283,3.919a52.119,52.119,0,0,1,14.22,0Zm-18.161.7a85.638,85.638,0,0,0-3.125,11.163A88.334,88.334,0,0,0,25.785,19.43,58.091,58.091,0,0,1,31.877,9.071,51.561,51.561,0,0,1,44.342,4.619ZM13.464,24.86A51.6,51.6,0,0,1,25.131,13.191a68.776,68.776,0,0,0-3.787,7.884A68.695,68.695,0,0,0,13.464,24.86Zm10.515-1.148A82.462,82.462,0,0,1,40.5,19.355,174.506,174.506,0,0,0,38.169,37.9a174.462,174.462,0,0,0-18.548,2.333,82.458,82.458,0,0,1,4.357-16.523ZM61.645,91.851c-2.077.135-4.17.209-6.252.209A95.989,95.989,0,0,1,44.109,91.4a170.69,170.69,0,0,1-2.467-18.812c4.45.262,9.054.4,13.752.4,1.509,0,3.031-.015,4.543-.044v7.869A36.574,36.574,0,0,0,61.645,91.851ZM40.5,90.9a82.475,82.475,0,0,1-16.522-4.357A82.486,82.486,0,0,1,19.622,70.02a174.516,174.516,0,0,0,18.548,2.333A174.569,174.569,0,0,0,40.5,90.9Zm-8.616,10.3a58.064,58.064,0,0,1-6.1-10.368,88.372,88.372,0,0,0,15.43,3.647,85.586,85.586,0,0,0,3.128,11.171A51.073,51.073,0,0,1,31.885,101.194ZM4.877,66.176A85.651,85.651,0,0,0,16.05,69.3,88.329,88.329,0,0,0,19.7,84.735a58.06,58.06,0,0,1-10.37-6.1A51.07,51.07,0,0,1,4.877,66.176Zm14.247.236a96.342,96.342,0,0,1,0-22.57,170.641,170.641,0,0,1,18.812-2.467c-.262,4.45-.4,9.054-.4,13.752s.137,9.3.4,13.752a170.694,170.694,0,0,1-18.813-2.467ZM15.591,44.58a99.381,99.381,0,0,0,0,21.094A73.068,73.068,0,0,1,4.183,62.236a52.119,52.119,0,0,1,0-14.22,73.073,73.073,0,0,1,11.4-3.436ZM13.481,85.4a68.765,68.765,0,0,0,7.863,3.775,68.774,68.774,0,0,0,3.775,7.862A52.34,52.34,0,0,1,13.481,85.4Zm34.8,20.934a73.062,73.062,0,0,1-3.438-11.409,99.31,99.31,0,0,0,10.547.562c2.5,0,5.01-.1,7.493-.286a36.6,36.6,0,0,0,2,3.972,63.557,63.557,0,0,1-2.381,7.159,52.22,52.22,0,0,1-14.219,0Zm19.078-3.428q.811,1.071,1.7,2.083-1.3.356-2.619.644.472-1.3.919-2.726Zm.2-45.828-4.9.691a3.186,3.186,0,0,0-2.728,3.14v8.6c-1.512.029-3.033.044-4.543.044-4.759,0-9.453-.148-14-.431-.283-4.542-.431-9.236-.431-14s.148-9.453.431-14c4.542-.283,9.236-.431,14-.431s9.453.148,14,.431c.283,4.542.431,9.236.431,14,0,.5,0,1.012-.006,1.562q-1.119.232-2.254.393Zm18.528-8.35-1.668,1.279A36.053,36.053,0,0,1,73.249,55.8q0-.341,0-.671c0-4.7-.136-9.3-.4-13.752a170.715,170.715,0,0,1,18.8,2.465q.335,2.815.5,5.692l-1.043-.8a4.139,4.139,0,0,0-5.027,0Z" transform="translate(0)" fill="#3b6aff"/>
    <path id="Path_2042" data-name="Path 2042" d="M330.815,275.738a1.715,1.715,0,0,0-.126-2.422,20.6,20.6,0,1,0,4.788,6.374,1.715,1.715,0,0,0-3.089,1.492,17.053,17.053,0,0,1,1.705,7.48,17.224,17.224,0,1,1-5.7-12.8A1.715,1.715,0,0,0,330.815,275.738Z" transform="translate(-228.271 -206.718)" fill="#3b6aff"/>
    <path id="Path_2043" data-name="Path 2043" d="M366.376,319.3l-9.909,13.1-2.343-1.874a1.715,1.715,0,1,0-2.143,2.679l3.72,2.976a1.716,1.716,0,0,0,1.071.376,1.735,1.735,0,0,0,.212-.013,1.715,1.715,0,0,0,1.155-.667l10.973-14.506a1.715,1.715,0,1,0-2.735-2.069Z" transform="translate(-270.781 -245.752)" fill="#3b6aff"/>
  </g>
</svg>
