<svg id="security_1_" data-name="security (1)" xmlns="http://www.w3.org/2000/svg" width="111.99" height="111.99" viewBox="0 0 111.99 111.99">
  <g id="Group_723" data-name="Group 723">
    <g id="Group_722" data-name="Group 722">
      <path id="Path_2129" data-name="Path 2129" d="M102.959,59.555V34.32a21.593,21.593,0,0,0-26.8-21.038A14.426,14.426,0,0,1,70.445,1.806V0H16.257V1.806a14.467,14.467,0,0,1-14.45,14.45H0V45.573a57.4,57.4,0,0,0,42.9,55.52l.455.121.455-.119A57.538,57.538,0,0,0,54.9,96.913a30.682,30.682,0,1,0,48.06-37.358Zm-21.676-43.3A18.083,18.083,0,0,1,99.346,34.32V56.506a30.8,30.8,0,0,0-3.613-2.3V34.32a14.45,14.45,0,1,0-28.9,0V54.2a30.8,30.8,0,0,0-3.613,2.3V34.32A18.083,18.083,0,0,1,81.283,16.257ZM92.121,34.32V52.588a30.192,30.192,0,0,0-21.676,0V34.32a10.838,10.838,0,1,1,21.676,0ZM50.654,82.813a42.756,42.756,0,0,1-7.3,3.333,42.841,42.841,0,0,1-28.9-40.573V27.792A28.9,28.9,0,0,0,27.792,14.45H58.91a28.819,28.819,0,0,0,4.913,7.079,21.529,21.529,0,0,0-4.216,12.79V59.555a30.608,30.608,0,0,0-9.031,21.728C50.576,81.8,50.629,82.3,50.654,82.813Zm-7.3,14.663a53.78,53.78,0,0,1-39.738-51.9V19.779A18.094,18.094,0,0,0,19.779,3.613H66.923A18.027,18.027,0,0,0,72.23,14.651,21.767,21.767,0,0,0,66.2,18.782a25.194,25.194,0,0,1-4.483-6.864l-.473-1.08H25.456l-.473,1.082A25.309,25.309,0,0,1,11.92,24.983l-1.082.473V45.573A46.445,46.445,0,0,0,42.786,89.766l.565.188.565-.186a46.661,46.661,0,0,0,7.169-3.053,30.466,30.466,0,0,0,2.142,7A53.815,53.815,0,0,1,43.351,97.477Zm37.932,10.9a27.094,27.094,0,1,1,27.094-27.094A27.125,27.125,0,0,1,81.283,108.378Z" fill="#3b6aff"/>
    </g>
  </g>
  <g id="Group_725" data-name="Group 725" transform="translate(57.801 57.801)">
    <g id="Group_724" data-name="Group 724">
      <path id="Path_2130" data-name="Path 2130" d="M279.482,256a23.482,23.482,0,1,0,23.482,23.482A23.509,23.509,0,0,0,279.482,256Zm0,43.351a19.869,19.869,0,1,1,19.869-19.869A19.893,19.893,0,0,1,279.482,299.351Z" transform="translate(-256 -256)" fill="#3b6aff"/>
    </g>
  </g>
  <g id="Group_727" data-name="Group 727" transform="translate(72.252 65.027)">
    <g id="Group_726" data-name="Group 726">
      <path id="Path_2131" data-name="Path 2131" d="M335.612,304.257a7.186,7.186,0,0,0-1.161-11.64V288h-3.613v3.613h-3.613V288h-3.613v3.613H320V316.9h3.613v3.613h3.613V316.9h3.613v3.613h3.613V315.9a7.186,7.186,0,0,0,1.161-11.64Zm-4.774,9.031h-7.225v-7.225h7.225a3.613,3.613,0,1,1,0,7.225Zm0-10.838h-7.225v-7.225h7.225a3.613,3.613,0,1,1,0,7.225Z" transform="translate(-320 -288)" fill="#3b6aff"/>
    </g>
  </g>
  <g id="Group_729" data-name="Group 729" transform="translate(93.891 79.185)">
    <g id="Group_728" data-name="Group 728">
      <rect id="Rectangle_1006" data-name="Rectangle 1006" width="3" height="4" transform="translate(0.109 -0.185)" fill="#3b6aff"/>
    </g>
  </g>
  <g id="Group_731" data-name="Group 731" transform="translate(64.479 79.185)">
    <g id="Group_730" data-name="Group 730" transform="translate(0)">
      <rect id="Rectangle_1007" data-name="Rectangle 1007" width="5" height="4" transform="translate(-0.479 -0.185)" fill="#3b6aff"/>
    </g>
  </g>
</svg>
