<svg xmlns="http://www.w3.org/2000/svg" width="118.04" height="118.041" viewBox="0 0 118.04 118.041">
  <g id="cloud-server-shield-protect-database" transform="translate(-2 -2)">
    <path id="Path_2044" data-name="Path 2044" d="M18.9,40a5.9,5.9,0,1,0,5.9,5.9A5.9,5.9,0,0,0,18.9,40Zm0,7.869A1.967,1.967,0,1,1,20.869,45.9,1.967,1.967,0,0,1,18.9,47.869Z" transform="translate(10.641 36.759)" fill="#3b6aff"/>
    <path id="Path_2045" data-name="Path 2045" d="M100.417,68.89H74.8a26.9,26.9,0,0,0,2.715-3.935h9.128A21.623,21.623,0,0,0,93.118,22.7,17.688,17.688,0,0,0,70.3,13.076,25.534,25.534,0,0,0,24.34,21.929a21.641,21.641,0,0,0,3.285,43.026h9.128a26.9,26.9,0,0,0,2.715,3.935H13.854a1.967,1.967,0,0,0-1.967,1.967v47.216a1.967,1.967,0,0,0,1.967,1.967h86.563a1.967,1.967,0,0,0,1.967-1.967V70.857A1.967,1.967,0,0,0,100.417,68.89ZM35,61.02H27.626A17.706,17.706,0,0,1,26.15,25.687a1.985,1.985,0,0,0,1.79-1.653,21.605,21.605,0,0,1,39.937-7.456,1.967,1.967,0,0,0,2.6.748,13.748,13.748,0,0,1,19.319,7.633,1.979,1.979,0,0,0,1.357,1.259,17.69,17.69,0,0,1-4.505,34.8H79.268a25.7,25.7,0,0,0,1.476-8.479v-17.1a1.952,1.952,0,0,0-1.3-1.849L57.8,25.726a1.954,1.954,0,0,0-1.338,0L34.826,33.6a1.952,1.952,0,0,0-1.3,1.849v17.1A25.7,25.7,0,0,0,35,61.02Zm2.459-8.479V36.822l19.673-7.161,19.673,7.161V52.541a21.68,21.68,0,0,1-7.082,16.014L57.136,80.005,44.545,68.555a21.68,21.68,0,0,1-7.082-16.014ZM98.45,116.106H15.822V96.432H98.45Zm0-23.608H15.822V72.824H43.384L55.818,84.117a1.954,1.954,0,0,0,2.636,0L70.887,72.824H98.45Z" transform="translate(3.885 0)" fill="#3b6aff"/>
    <path id="Path_2046" data-name="Path 2046" d="M49,40h3.935v3.935H49Z" transform="translate(45.465 36.759)" fill="#3b6aff"/>
    <path id="Path_2047" data-name="Path 2047" d="M49,44h3.935v3.935H49Z" transform="translate(45.465 40.628)" fill="#3b6aff"/>
    <path id="Path_2048" data-name="Path 2048" d="M18.9,63.8A5.9,5.9,0,1,0,13,57.9,5.9,5.9,0,0,0,18.9,63.8Zm0-7.869A1.967,1.967,0,1,1,16.935,57.9,1.967,1.967,0,0,1,18.9,55.935Z" transform="translate(10.641 48.367)" fill="#3b6aff"/>
    <path id="Path_2049" data-name="Path 2049" d="M26.9,63.8A5.9,5.9,0,1,0,21,57.9,5.9,5.9,0,0,0,26.9,63.8Zm0-7.869A1.967,1.967,0,1,1,24.935,57.9,1.967,1.967,0,0,1,26.9,55.935Z" transform="translate(18.379 48.367)" fill="#3b6aff"/>
    <path id="Path_2050" data-name="Path 2050" d="M26.9,40a5.9,5.9,0,1,0,5.9,5.9A5.9,5.9,0,0,0,26.9,40Zm0,7.869A1.967,1.967,0,1,1,28.869,45.9,1.967,1.967,0,0,1,26.9,47.869Z" transform="translate(18.379 36.759)" fill="#3b6aff"/>
    <path id="Path_2051" data-name="Path 2051" d="M34.9,63.8A5.9,5.9,0,1,0,29,57.9,5.9,5.9,0,0,0,34.9,63.8Zm0-7.869A1.967,1.967,0,1,1,32.935,57.9,1.967,1.967,0,0,1,34.9,55.935Z" transform="translate(26.118 48.367)" fill="#3b6aff"/>
    <path id="Path_2052" data-name="Path 2052" d="M49,52h3.935v3.935H49Z" transform="translate(45.465 48.367)" fill="#3b6aff"/>
    <path id="Path_2053" data-name="Path 2053" d="M49,56h3.935v3.935H49Z" transform="translate(45.465 52.236)" fill="#3b6aff"/>
    <path id="Path_2054" data-name="Path 2054" d="M43,52h3.935v3.935H43Z" transform="translate(39.661 48.367)" fill="#3b6aff"/>
    <path id="Path_2055" data-name="Path 2055" d="M43,56h3.935v3.935H43Z" transform="translate(39.661 52.236)" fill="#3b6aff"/>
    <path id="Path_2056" data-name="Path 2056" d="M37,52h3.935v3.935H37Z" transform="translate(33.857 48.367)" fill="#3b6aff"/>
    <path id="Path_2057" data-name="Path 2057" d="M37,56h3.935v3.935H37Z" transform="translate(33.857 52.236)" fill="#3b6aff"/>
    <path id="Path_2058" data-name="Path 2058" d="M43,40h3.935v3.935H43Z" transform="translate(39.661 36.759)" fill="#3b6aff"/>
    <path id="Path_2059" data-name="Path 2059" d="M43,44h3.935v3.935H43Z" transform="translate(39.661 40.628)" fill="#3b6aff"/>
    <path id="Path_2060" data-name="Path 2060" d="M37,44h3.935v3.935H37Z" transform="translate(33.857 40.628)" fill="#3b6aff"/>
    <path id="Path_2061" data-name="Path 2061" d="M2,42.967V68.543A1.967,1.967,0,0,0,3.967,70.51h7.869V66.575h-5.9V44.935h5.9V41H3.967A1.967,1.967,0,0,0,2,42.967Z" transform="translate(0 37.726)" fill="#3b6aff"/>
    <path id="Path_2062" data-name="Path 2062" d="M64.869,41H57v3.935h5.9V66.575H57V70.51h7.869a1.967,1.967,0,0,0,1.967-1.967V42.967A1.967,1.967,0,0,0,64.869,41Z" transform="translate(53.204 37.726)" fill="#3b6aff"/>
    <path id="Path_2063" data-name="Path 2063" d="M29.075,30.2l-2.782,2.782,7.869,7.869a1.967,1.967,0,0,0,2.782,0L50.716,27.075l-2.782-2.782-12.38,12.38Z" transform="translate(23.5 21.565)" fill="#3b6aff"/>
  </g>
</svg>
