<svg xmlns="http://www.w3.org/2000/svg" width="112" height="114.342" viewBox="0 0 112 114.342">
  <g id="security-protech-lock-computer-laptop" transform="translate(-2.614 -1.999)">
    <path id="Path_2064" data-name="Path 2064" d="M114.412,109.119,104.35,72.263V19.152a5.734,5.734,0,0,0-5.717-5.717H74.755a17.109,17.109,0,0,0-32.282,0H18.595a5.734,5.734,0,0,0-5.717,5.717V72.263L2.816,109.119a5.717,5.717,0,0,0,5.526,7.223H108.886a5.717,5.717,0,0,0,5.526-7.223ZM45.274,19.152A13.34,13.34,0,0,1,71.8,17.246H67.952a9.528,9.528,0,0,0-18.866,1.906v5.717H45.274Zm26.679,1.906v3.811H68.143V21.058Zm-7.623-1.906v5.717H52.9V19.152a5.717,5.717,0,1,1,11.434,0ZM75.765,28.68a1.906,1.906,0,0,1,1.906,1.906V53.454a1.906,1.906,0,0,1-1.906,1.906h-34.3a1.906,1.906,0,0,1-1.906-1.906V30.586a1.906,1.906,0,0,1,1.906-1.906ZM16.689,19.152a1.906,1.906,0,0,1,1.906-1.906H41.577a15.745,15.745,0,0,0-.114,1.906v5.717a5.734,5.734,0,0,0-5.717,5.717V53.454a5.734,5.734,0,0,0,5.717,5.717h34.3a5.734,5.734,0,0,0,5.717-5.717V30.586a5.734,5.734,0,0,0-5.717-5.717V19.152a15.745,15.745,0,0,0-.114-1.906H98.633a1.906,1.906,0,0,1,1.906,1.906V70.605H16.689Zm93.721,92.635a1.887,1.887,0,0,1-1.525.743H8.342a1.887,1.887,0,0,1-1.525-.743,1.906,1.906,0,0,1-.324-1.658l9.738-35.712H101l9.738,35.712A1.906,1.906,0,0,1,110.41,111.787Z" fill="#3b6aff"/>
    <path id="Path_2065" data-name="Path 2065" d="M58.151,53.443A1.906,1.906,0,0,0,56.3,52H25.811a1.906,1.906,0,0,0-1.848,1.443l-1.906,7.623a1.906,1.906,0,0,0,1.849,2.369h34.3a1.906,1.906,0,0,0,1.849-2.369Zm-31.8,6.18.953-3.811H54.814l.953,3.811Z" transform="translate(17.557 45.285)" fill="#3b6aff"/>
    <path id="Path_2066" data-name="Path 2066" d="M27,34H46.057v3.811H27Z" transform="translate(22.086 28.982)" fill="#3b6aff"/>
    <path id="Path_2067" data-name="Path 2067" d="M12,42h7.623v3.811H12Z" transform="translate(8.501 36.228)" fill="#3b6aff"/>
    <path id="Path_2068" data-name="Path 2068" d="M18,42h7.623v3.811H18Z" transform="translate(13.935 36.228)" fill="#3b6aff"/>
    <path id="Path_2069" data-name="Path 2069" d="M24,42h7.623v3.811H24Z" transform="translate(19.369 36.228)" fill="#3b6aff"/>
    <path id="Path_2070" data-name="Path 2070" d="M36,42h7.623v3.811H36Z" transform="translate(30.237 36.228)" fill="#3b6aff"/>
    <path id="Path_2071" data-name="Path 2071" d="M42,42h7.623v3.811H42Z" transform="translate(35.671 36.228)" fill="#3b6aff"/>
    <path id="Path_2072" data-name="Path 2072" d="M48,42h7.623v3.811H48Z" transform="translate(41.105 36.228)" fill="#3b6aff"/>
    <path id="Path_2073" data-name="Path 2073" d="M30,42h7.623v3.811H30Z" transform="translate(24.803 36.228)" fill="#3b6aff"/>
    <path id="Path_2074" data-name="Path 2074" d="M12,46h7.623v3.811H12Z" transform="translate(8.501 39.851)" fill="#3b6aff"/>
    <path id="Path_2075" data-name="Path 2075" d="M18,46h7.623v3.811H18Z" transform="translate(13.935 39.851)" fill="#3b6aff"/>
    <path id="Path_2076" data-name="Path 2076" d="M24,46h7.623v3.811H24Z" transform="translate(19.369 39.851)" fill="#3b6aff"/>
    <path id="Path_2077" data-name="Path 2077" d="M36,46h7.623v3.811H36Z" transform="translate(30.237 39.851)" fill="#3b6aff"/>
    <path id="Path_2078" data-name="Path 2078" d="M42,46h7.623v3.811H42Z" transform="translate(35.671 39.851)" fill="#3b6aff"/>
    <path id="Path_2079" data-name="Path 2079" d="M48,46h7.623v3.811H48Z" transform="translate(41.105 39.851)" fill="#3b6aff"/>
    <path id="Path_2080" data-name="Path 2080" d="M30,46h7.623v3.811H30Z" transform="translate(24.803 39.851)" fill="#3b6aff"/>
    <path id="Path_2081" data-name="Path 2081" d="M35.263,34.886a1.905,1.905,0,0,0,1.347-.558l13.34-13.34-2.695-2.695L35.263,30.285,28.988,24.01,26.293,26.7l7.623,7.623a1.906,1.906,0,0,0,1.347.558Z" transform="translate(21.445 14.757)" fill="#3b6aff"/>
  </g>
</svg>
