<svg xmlns="http://www.w3.org/2000/svg" width="132.472" height="132.669" viewBox="0 0 132.472 132.669">
  <g id="Processor_security" data-name="Processor security" transform="translate(-2 -2)">
    <path id="Path_2082" data-name="Path 2082" d="M27,11h4.416v4.416H27Z" transform="translate(30.197 10.871)" fill="#3b6aff"/>
    <path id="Path_2083" data-name="Path 2083" d="M53,35h4.416v4.416H53Z" transform="translate(61.601 39.86)" fill="#3b6aff"/>
    <path id="Path_2084" data-name="Path 2084" d="M35,51h4.416v4.416H35Z" transform="translate(39.86 59.186)" fill="#3b6aff"/>
    <path id="Path_2085" data-name="Path 2085" d="M27,54h4.416v4.416H27Z" transform="translate(30.197 62.809)" fill="#3b6aff"/>
    <path id="Path_2086" data-name="Path 2086" d="M11,31h4.416v4.416H11Z" transform="translate(10.871 35.028)" fill="#3b6aff"/>
    <path id="Path_2087" data-name="Path 2087" d="M35,11h4.416v4.416H35Z" transform="translate(39.86 10.871)" fill="#3b6aff"/>
    <path id="Path_2088" data-name="Path 2088" d="M51,27h4.416v4.416H51Z" transform="translate(59.186 30.197)" fill="#3b6aff"/>
    <path id="Path_2089" data-name="Path 2089" d="M46,17h4.416v4.416H46Z" transform="translate(53.146 18.118)" fill="#3b6aff"/>
    <path id="Path_2090" data-name="Path 2090" d="M16,17h4.416v4.416H16Z" transform="translate(16.91 18.118)" fill="#3b6aff"/>
    <path id="Path_2091" data-name="Path 2091" d="M46,45h4.416v4.416H46Z" transform="translate(53.146 51.938)" fill="#3b6aff"/>
    <path id="Path_2092" data-name="Path 2092" d="M16,45h4.416v4.416H16Z" transform="translate(16.91 51.938)" fill="#3b6aff"/>
    <path id="Path_2093" data-name="Path 2093" d="M35.382,31a6.61,6.61,0,0,0-1.947,12.854v4.809H37.85V43.842A6.608,6.608,0,0,0,35.382,31Zm2.468,6.537a2.21,2.21,0,1,1-2.3-2.122h.088a2.208,2.208,0,0,1,2.208,2.12Z" transform="translate(32.594 35.025)" fill="#3b6aff"/>
    <path id="Path_2094" data-name="Path 2094" d="M51.494,35.653V33.039a11.039,11.039,0,0,0-22.079,0v2.614A6.624,6.624,0,0,0,25,41.871V59.534a6.624,6.624,0,0,0,6.624,6.624H49.287a6.624,6.624,0,0,0,6.624-6.624V41.871a6.624,6.624,0,0,0-4.416-6.217ZM33.831,33.039a6.624,6.624,0,0,1,13.247,0v2.208H33.831ZM51.494,59.534a2.208,2.208,0,0,1-2.208,2.208H31.624a2.208,2.208,0,0,1-2.208-2.208V41.871a2.208,2.208,0,0,1,2.208-2.208H49.287a2.208,2.208,0,0,1,2.208,2.208Z" transform="translate(27.781 24.157)" fill="#3b6aff"/>
    <path id="Path_2095" data-name="Path 2095" d="M127.849,88.107a6.515,6.515,0,0,0-2.837.662l-5.078-5.078H99.146V79.275h11.039V74.86H99.146V70.444h11.56l12.556-6.279a6.61,6.61,0,1,0-2.038-4.76,6.4,6.4,0,0,0,.082.8l-11.642,5.822H99.146V61.613h6.624V57.2H99.146V52.781h9.746l7.286-7.286a6.515,6.515,0,0,0,2.839.662,6.624,6.624,0,1,0-6.624-6.624,6.515,6.515,0,0,0,.662,2.837l-5.992,5.994H99.146A11.053,11.053,0,0,0,88.107,37.326v-5.71L100.725,19a6.515,6.515,0,0,0,2.837.662,6.624,6.624,0,1,0-6.624-6.624,6.515,6.515,0,0,0,.662,2.837l-13.91,13.91v7.54H79.275V30.7H74.86v6.624H70.444V21.465a6.624,6.624,0,1,0-4.416,0V37.326H61.613V30.7H57.2v6.624H52.781V20.957l-9.494-9.494a6.515,6.515,0,0,0,.662-2.839,6.624,6.624,0,1,0-6.624,6.624,6.515,6.515,0,0,0,2.837-.662l8.2,8.2V37.326A11.053,11.053,0,0,0,37.326,48.365H29.409l-5.992-5.994a6.515,6.515,0,0,0,.662-2.837,6.624,6.624,0,1,0-6.624,6.624,6.515,6.515,0,0,0,2.837-.662l7.286,7.286h9.748V57.2H23.279L11.715,66.832a6.52,6.52,0,0,0-3.091-.8,6.626,6.626,0,1,0,6.1,4.045l10.154-8.461H37.326v4.416H30.7v4.416h6.624V74.86H17.455v4.416H37.326v4.416H25.105l-8.9,13.344a6.554,6.554,0,0,0-.96-.1,6.685,6.685,0,1,0,4.879,2.181l7.341-11.013h9.858A11.053,11.053,0,0,0,48.365,99.146v14.541l-8.2,8.2a6.515,6.515,0,0,0-2.837-.662,6.624,6.624,0,1,0,6.624,6.624,6.515,6.515,0,0,0-.662-2.837l9.494-9.494V99.146H57.2v13.247h4.416V99.146h4.416v18.886l13.411,8.39a6.721,6.721,0,1,0,2.36-3.734l-11.355-7.1V99.146H74.86v6.624h4.416V99.146h4.416v17.663H99.553a6.624,6.624,0,1,0,0-4.416H88.107V99.146A11.053,11.053,0,0,0,99.146,88.107H118.1l3.784,3.786a6.515,6.515,0,0,0-.662,2.837,6.624,6.624,0,1,0,6.624-6.624Zm0-30.91a2.208,2.208,0,1,1-2.208,2.208A2.208,2.208,0,0,1,127.849,57.2Zm-8.831-19.871a2.208,2.208,0,1,1-2.208,2.208A2.208,2.208,0,0,1,119.017,37.326ZM103.562,10.831a2.208,2.208,0,1,1-2.208,2.208A2.208,2.208,0,0,1,103.562,10.831ZM68.236,13.039a2.208,2.208,0,1,1-2.208,2.208A2.208,2.208,0,0,1,68.236,13.039ZM35.118,8.624a2.208,2.208,0,1,1,2.208,2.208A2.208,2.208,0,0,1,35.118,8.624ZM15.247,39.534a2.208,2.208,0,1,1,2.208,2.208A2.208,2.208,0,0,1,15.247,39.534ZM8.624,74.86a2.208,2.208,0,1,1,2.208-2.208A2.208,2.208,0,0,1,8.624,74.86Zm6.624,30.91a2.208,2.208,0,1,1,2.208-2.208A2.208,2.208,0,0,1,15.247,105.77Zm22.079,24.287a2.208,2.208,0,1,1,2.208-2.208A2.208,2.208,0,0,1,37.326,130.056ZM85.9,125.641a2.208,2.208,0,1,1-2.208,2.208A2.208,2.208,0,0,1,85.9,125.641Zm19.871-13.247a2.208,2.208,0,1,1-2.208,2.208A2.208,2.208,0,0,1,105.77,112.394ZM94.731,88.107a6.624,6.624,0,0,1-6.624,6.624H48.365a6.624,6.624,0,0,1-6.624-6.624V48.365a6.624,6.624,0,0,1,6.624-6.624H88.107a6.624,6.624,0,0,1,6.624,6.624Zm33.118,8.831a2.208,2.208,0,1,1,2.208-2.208A2.208,2.208,0,0,1,127.849,96.938Z" transform="translate(0 0)" fill="#3b6aff"/>
  </g>
</svg>
