<svg xmlns="http://www.w3.org/2000/svg" width="95.462" height="109.604" viewBox="0 0 95.462 109.604">
  <g id="protection" transform="translate(-40 -8.002)">
    <path id="Path_2096" data-name="Path 2096" d="M126.623,94.625h0a1.772,1.772,0,0,0,.789-.186l7.071-3.536a1.77,1.77,0,0,0,.977-1.582V84.239a1.768,1.768,0,1,0-3.536,0V88.23l-5.449,2.725a12.339,12.339,0,0,0-1.748-4.667l2.17-2.711a1.769,1.769,0,0,0-2.762-2.21l-1.746,2.183a12.494,12.494,0,0,0-3.074-1.978,36.9,36.9,0,0,0,2-12.023V20.377a1.769,1.769,0,0,0-1.3-1.706L81.124,8.064a1.787,1.787,0,0,0-.928,0L41.3,18.671A1.769,1.769,0,0,0,40,20.377V69.548A37.237,37.237,0,0,0,55.287,99.572l24.332,17.7a1.771,1.771,0,0,0,2.082,0L101.873,102.6v.868a12.679,12.679,0,0,0,.128,1.774,1.782,1.782,0,0,0-.919.179l-7.071,3.536a1.77,1.77,0,0,0-.977,1.582v5.3a1.768,1.768,0,1,0,3.536,0v-4.212l6.095-3.045a1.906,1.906,0,0,0,.25-.157,12.37,12.37,0,0,0,22.668,0,1.906,1.906,0,0,0,.25.157l6.095,3.045v4.212a1.768,1.768,0,1,0,3.536,0v-5.3a1.77,1.77,0,0,0-.976-1.582l-7.071-3.536a1.782,1.782,0,0,0-.919-.179,12.682,12.682,0,0,0,.128-1.774Zm-24.749,3.6L80.66,113.653,57.367,96.713A33.693,33.693,0,0,1,43.536,69.548V21.727L80.66,11.6l37.124,10.125V69.548A33.355,33.355,0,0,1,115.912,80.6a12.5,12.5,0,0,0-1.664-.115c-.062,0-.124,0-.188,0a31.922,31.922,0,0,0,1.956-10.938V24.427a1.769,1.769,0,0,0-1.3-1.706L81.124,13.562a1.787,1.787,0,0,0-.928,0L46.607,22.721a1.769,1.769,0,0,0-1.3,1.706V69.548a31.916,31.916,0,0,0,13.1,25.735L79.619,110.71a1.771,1.771,0,0,0,2.082,0l20.173-14.673ZM80.66,27.448a1.768,1.768,0,0,0-1.768,1.768V57.5H48.839V25.777L80.66,17.1l31.821,8.678V57.5H82.428V29.216A1.768,1.768,0,0,0,80.66,27.448Zm23.512,53.742a1.768,1.768,0,1,0-2.828,2.121l2.336,3.116a12.32,12.32,0,0,0-1.66,4.528L96.57,88.23V84.018a1.768,1.768,0,0,0-3.536,0v5.3a1.77,1.77,0,0,0,.977,1.582l5.282,2.639L80.66,107.095,60.487,92.424A28.371,28.371,0,0,1,48.839,69.548V61.036H78.892V101.7a1.768,1.768,0,0,0,3.536,0V61.036H112.48v8.512a28.454,28.454,0,0,1-2.552,11.714,12.4,12.4,0,0,0-3.922,2.373Zm8.309,30.937a8.854,8.854,0,0,1-7.071-8.662V96.393h7.071Zm10.607-8.662a8.854,8.854,0,0,1-7.071,8.662V96.393h7.071ZM105.409,92.857a8.839,8.839,0,0,1,17.678,0Z" fill="#3b6aff"/>
    <path id="Path_2097" data-name="Path 2097" d="M216,57.768V61.3a1.768,1.768,0,0,0,3.536,0V57.768a1.768,1.768,0,0,0-3.536,0Z" transform="translate(-137.108 -37.391)" fill="#3b6aff"/>
  </g>
</svg>
