<svg id="key" xmlns="http://www.w3.org/2000/svg" width="112.281" height="112.281" viewBox="0 0 112.281 112.281">
  <path id="Path_2098" data-name="Path 2098" d="M450,100h3.743v3.743H450Zm0,0" transform="translate(-365.79 -81.287)" fill="#3b6aff"/>
  <path id="Path_2099" data-name="Path 2099" d="M410,100h3.743v3.743H410Zm0,0" transform="translate(-333.275 -81.287)" fill="#3b6aff"/>
  <path id="Path_2100" data-name="Path 2100" d="M370,100h3.743v3.743H370Zm0,0" transform="translate(-300.76 -81.287)" fill="#3b6aff"/>
  <path id="Path_2101" data-name="Path 2101" d="M130,100h3.743v3.743H130Zm0,0" transform="translate(-105.673 -81.287)" fill="#3b6aff"/>
  <path id="Path_2102" data-name="Path 2102" d="M279.357,550h-7.485a1.871,1.871,0,1,0,0,3.743h7.485a1.871,1.871,0,1,0,0-3.743Zm0,0" transform="translate(-219.474 -447.076)" fill="#3b6aff"/>
  <path id="Path_2103" data-name="Path 2103" d="M179.825,56.14h-1.871v-13.1a9.368,9.368,0,0,0-9.357-9.357V9.357A9.368,9.368,0,0,0,159.24,0H99.357A9.368,9.368,0,0,0,90,9.357V41.17h3.743v-26.2h71.111V33.684h-3.743a9.307,9.307,0,0,0-6.737,2.889,31.813,31.813,0,1,0-10.105,47.637V91.7a1.871,1.871,0,0,0,1.871,1.871h18.713V97.31H93.743v-26.2H90v31.813a9.368,9.368,0,0,0,9.357,9.357H159.24a9.368,9.368,0,0,0,9.357-9.357V93.567h14.971a1.871,1.871,0,0,0,1.871-1.871V61.754a5.615,5.615,0,0,0-5.614-5.614ZM93.743,11.228V9.357a5.615,5.615,0,0,1,5.614-5.614H159.24a5.615,5.615,0,0,1,5.614,5.614v1.871Zm65.5,97.31H99.357a5.615,5.615,0,0,1-5.614-5.614v-1.871h71.111v1.871A5.615,5.615,0,0,1,159.24,108.538Zm1.871-71.111H168.6a5.615,5.615,0,0,1,5.614,5.614v13.1h-1.871v-13.1A3.742,3.742,0,0,0,168.6,39.3h-7.485a3.742,3.742,0,0,0-3.743,3.743v13.1H155.5v-13.1A5.615,5.615,0,0,1,161.111,37.427ZM168.6,56.14h-7.485v-13.1H168.6Zm-28.111-1.871a49.072,49.072,0,0,0-1.213-9.637,24.045,24.045,0,0,0,4.762-2.833,20.582,20.582,0,0,1,5.746,12.471Zm-18.633,0a45.878,45.878,0,0,1,1.039-8.344,24.337,24.337,0,0,0,12.814,0,45.877,45.877,0,0,1,1.039,8.344Zm14.892,3.743a45.877,45.877,0,0,1-1.039,8.344,24.337,24.337,0,0,0-12.814,0,45.878,45.878,0,0,1-1.039-8.344Zm1.464-16.994a23.552,23.552,0,0,0-1.973-4.251,20.416,20.416,0,0,1,4.887,2.532A20.158,20.158,0,0,1,138.208,41.018Zm-3.524,1.311a20.554,20.554,0,0,1-10.772,0c1.456-4.2,3.482-6.773,5.386-6.773s3.93,2.569,5.386,6.768Zm-14.3-1.311a20.156,20.156,0,0,1-2.914-1.719,20.337,20.337,0,0,1,4.887-2.532A23.552,23.552,0,0,0,120.388,41.018Zm-5.827.781a24.046,24.046,0,0,0,4.762,2.833,49.072,49.072,0,0,0-1.213,9.637h-9.3A20.582,20.582,0,0,1,114.561,41.8Zm3.55,16.213a49.071,49.071,0,0,0,1.213,9.637,24.046,24.046,0,0,0-4.762,2.833,20.582,20.582,0,0,1-5.746-12.471Zm2.277,13.251a23.552,23.552,0,0,0,1.973,4.251,20.415,20.415,0,0,1-4.887-2.532A20.157,20.157,0,0,1,120.388,71.263Zm3.524-1.311a20.554,20.554,0,0,1,10.772,0c-1.456,4.2-3.482,6.773-5.386,6.773s-3.93-2.569-5.386-6.768Zm14.3,1.311a20.157,20.157,0,0,1,2.914,1.719,20.336,20.336,0,0,1-4.887,2.532A23.552,23.552,0,0,0,138.208,71.263Zm6.061-9.509V70.23c-.079.083-.162.162-.243.244a24.245,24.245,0,0,0-4.754-2.825,49.072,49.072,0,0,0,1.213-9.637h5.239a5.578,5.578,0,0,0-1.455,3.743ZM129.3,84.211a28.07,28.07,0,1,1,22.993-44.164,9.213,9.213,0,0,0-.537,2.994V46.86A24.328,24.328,0,1,0,144.269,75.3V79.88a28.023,28.023,0,0,1-14.971,4.33Zm52.4,5.614H148.012V61.754a1.871,1.871,0,0,1,1.871-1.871h29.942a1.871,1.871,0,0,1,1.871,1.871Zm0,0" transform="translate(-73.158)" fill="#3b6aff"/>
  <path id="Path_2104" data-name="Path 2104" d="M471.223,345.531a5.614,5.614,0,1,0-8.023,5.053l-3.109,9.329a1.871,1.871,0,0,0,1.775,2.461h7.485a1.873,1.873,0,0,0,1.775-2.463l-3.109-9.327a5.614,5.614,0,0,0,3.205-5.053Zm-5.614-1.871a1.871,1.871,0,1,1-1.871,1.871A1.871,1.871,0,0,1,465.609,343.66Zm-1.145,14.971,1.145-3.439,1.145,3.439Zm0,0" transform="translate(-373.913 -276.291)" fill="#3b6aff"/>
  <path id="Path_2105" data-name="Path 2105" d="M0,250H3.743v3.743H0Zm0,0" transform="translate(0 -203.216)" fill="#3b6aff"/>
  <path id="Path_2106" data-name="Path 2106" d="M30,250H46.842v3.743H30Zm0,0" transform="translate(-24.386 -203.216)" fill="#3b6aff"/>
  <path id="Path_2107" data-name="Path 2107" d="M0,290H3.743v3.743H0Zm0,0" transform="translate(0 -235.731)" fill="#3b6aff"/>
  <path id="Path_2108" data-name="Path 2108" d="M30,290H46.842v3.743H30Zm0,0" transform="translate(-24.386 -235.731)" fill="#3b6aff"/>
  <path id="Path_2109" data-name="Path 2109" d="M0,330H3.743v3.743H0Zm0,0" transform="translate(0 -268.246)" fill="#3b6aff"/>
  <path id="Path_2110" data-name="Path 2110" d="M30,330H46.842v3.743H30Zm0,0" transform="translate(-24.386 -268.246)" fill="#3b6aff"/>
</svg>
