<svg xmlns="http://www.w3.org/2000/svg" width="113.581" height="113.55" viewBox="0 0 113.581 113.55">
  <g id="vulnerability" transform="translate(0 -0.067)">
    <path id="Path_2132" data-name="Path 2132" d="M455.3,329.867a1.893,1.893,0,0,0-1.891-1.8H448v3.786h3.612l.176,3.59a3.8,3.8,0,0,1-3.61,3.977q-.089,0-.178,0v3.786a7.584,7.584,0,0,0,7.578-7.589q0-.18-.009-.359Z" transform="translate(-341.997 -250.39)" fill="#3b6aff"/>
    <path id="Path_2133" data-name="Path 2133" d="M3.786,85.248V81.462h32.18V77.677H11.358V26.568a5.685,5.685,0,0,1,5.679-5.679v53h3.786V9.532A5.685,5.685,0,0,1,26.5,3.853H87.074a5.685,5.685,0,0,1,5.679,5.679V43.6h3.786V20.889a5.685,5.685,0,0,1,5.679,5.679V54.962H106V26.568A9.475,9.475,0,0,0,96.539,17.1V9.532A9.475,9.475,0,0,0,87.074.067H26.5a9.475,9.475,0,0,0-9.465,9.465V17.1a9.475,9.475,0,0,0-9.465,9.465V77.677H1.893A1.893,1.893,0,0,0,0,79.569v5.679A7.58,7.58,0,0,0,7.572,92.82H41.644V89.034H7.572A3.79,3.79,0,0,1,3.786,85.248Z" fill="#3b6aff"/>
    <path id="Path_2134" data-name="Path 2134" d="M224.614,200.067a24.608,24.608,0,1,0,24.537,26.5h.071v-1.893A24.636,24.636,0,0,0,224.614,200.067Zm0,45.43a20.822,20.822,0,1,1,20.822-20.822A20.822,20.822,0,0,1,224.614,245.5Z" transform="translate(-152.683 -152.677)" fill="#3b6aff"/>
    <path id="Path_2135" data-name="Path 2135" d="M104,32.067h3.786v3.786H104Z" transform="translate(-79.392 -24.428)" fill="#3b6aff"/>
    <path id="Path_2136" data-name="Path 2136" d="M136,32.067h3.786v3.786H136Z" transform="translate(-103.82 -24.428)" fill="#3b6aff"/>
    <path id="Path_2137" data-name="Path 2137" d="M168,32.067h3.786v3.786H168Z" transform="translate(-128.249 -24.428)" fill="#3b6aff"/>
    <path id="Path_2138" data-name="Path 2138" d="M104,64.067h64.359v3.786H104Z" transform="translate(-79.392 -48.857)" fill="#3b6aff"/>
    <path id="Path_2139" data-name="Path 2139" d="M227.466,217.285a32.207,32.207,0,1,0-10.249,10.249l12.235,12.235A7.247,7.247,0,0,0,239.7,229.52ZM200.18,228.64a28.394,28.394,0,1,1,28.394-28.394A28.394,28.394,0,0,1,200.18,228.64Zm34.4,9.465a3.438,3.438,0,0,1-2.447-1.014L220.344,225.3a32.457,32.457,0,0,0,4.893-4.893L237.023,232.2a3.461,3.461,0,0,1-2.446,5.908Z" transform="translate(-128.249 -128.249)" fill="#3b6aff"/>
    <path id="Path_2140" data-name="Path 2140" d="M276.822,259.416v-1.893a9.465,9.465,0,0,0-17.662-4.734l3.277,1.9a5.679,5.679,0,0,1,10.6,2.838v1.893H257.893A1.893,1.893,0,0,0,256,261.309v11.358a1.893,1.893,0,0,0,1.893,1.893h18.929a1.893,1.893,0,0,0,1.893-1.893V261.309A1.893,1.893,0,0,0,276.822,259.416Zm-1.893,11.358H259.786V263.2h15.143Z" transform="translate(-195.427 -189.311)" fill="#3b6aff"/>
    <path id="Path_2141" data-name="Path 2141" d="M115.357,113.532v-3.786a5.679,5.679,0,0,0-11.357,0v3.786a5.679,5.679,0,0,0,11.357,0Zm-7.572,0v-3.786a1.893,1.893,0,0,1,3.786,0v3.786a1.893,1.893,0,0,1-3.786,0Z" transform="translate(-79.392 -79.392)" fill="#3b6aff"/>
    <path id="Path_2142" data-name="Path 2142" d="M200,109.746v3.786a5.679,5.679,0,1,0,11.357,0v-3.786a5.679,5.679,0,1,0-11.357,0Zm7.572,0v3.786a1.893,1.893,0,0,1-3.786,0v-3.786a1.893,1.893,0,1,1,3.786,0Z" transform="translate(-152.677 -79.392)" fill="#3b6aff"/>
    <path id="Path_2143" data-name="Path 2143" d="M303.32,114.477l3.276,1.9a5.678,5.678,0,0,0,.761-2.842v-3.786a5.679,5.679,0,1,0-11.358,0v3.786a5.681,5.681,0,0,0,.761,2.842l3.277-1.9a1.862,1.862,0,0,1-.252-.946v-3.786a1.893,1.893,0,1,1,3.786,0v3.786A1.862,1.862,0,0,1,303.32,114.477Z" transform="translate(-225.962 -79.392)" fill="#3b6aff"/>
    <path id="Path_2144" data-name="Path 2144" d="M168,112.067h3.786v11.357H168Z" transform="translate(-128.249 -85.499)" fill="#3b6aff"/>
    <path id="Path_2145" data-name="Path 2145" d="M264,112.067h3.786v11.357H264Z" transform="translate(-201.534 -85.499)" fill="#3b6aff"/>
    <path id="Path_2146" data-name="Path 2146" d="M112,184.067h3.786v11.357H112Z" transform="translate(-85.499 -140.463)" fill="#3b6aff"/>
    <path id="Path_2147" data-name="Path 2147" d="M144,184.067h3.786v11.357H144Z" transform="translate(-109.927 -140.463)" fill="#3b6aff"/>
    <path id="Path_2148" data-name="Path 2148" d="M104,257.532a5.679,5.679,0,1,0,11.357,0v-3.786a5.679,5.679,0,0,0-11.357,0Zm3.786-3.786a1.893,1.893,0,0,1,3.786,0v3.786a1.893,1.893,0,0,1-3.786,0Z" transform="translate(-79.392 -189.32)" fill="#3b6aff"/>
    <path id="Path_2149" data-name="Path 2149" d="M360,112.067h3.786v11.357H360Z" transform="translate(-274.819 -85.499)" fill="#3b6aff"/>
  </g>
</svg>
