<svg xmlns="http://www.w3.org/2000/svg" width="120.582" height="115.947" viewBox="0 0 120.582 115.947">
  <g id="cloud" transform="translate(0 -9.838)">
    <path id="Path_2111" data-name="Path 2111" d="M101.937,43.239A20.342,20.342,0,0,0,81.564,23.887a20.614,20.614,0,0,0-8.058,1.642,30.19,30.19,0,0,0-46.071-8.472,1.766,1.766,0,1,0,2.288,2.691,26.651,26.651,0,0,1,41.388,8.869,1.767,1.767,0,0,0,2.434.806,17.014,17.014,0,0,1,8.018-2.005A16.8,16.8,0,0,1,98.423,44.111c0,.211-.006.441-.019.744a1.766,1.766,0,0,0,1.765,1.844h.039a16.8,16.8,0,0,1,16.841,16.691q0,.293-.01.583a13.929,13.929,0,0,1-4.475,9.735,14.814,14.814,0,0,1-10.158,4H92.727V64.5a1.766,1.766,0,0,0-1.743-1.766A9.764,9.764,0,0,1,81.4,53.1a1.766,1.766,0,0,0-1.766-1.753H47.9A1.766,1.766,0,0,0,46.136,53.1a9.74,9.74,0,0,1-9.695,9.642h-.033a1.766,1.766,0,0,0-1.766,1.766V77.7H18.175a14.815,14.815,0,0,1-10.158-4,13.927,13.927,0,0,1-4.475-9.734q-.01-.291-.01-.584A16.793,16.793,0,0,1,19.257,46.74a1.766,1.766,0,0,0,1.619-2.1,26.316,26.316,0,0,1-.47-5.09A25.855,25.855,0,0,1,25.3,24.547a1.766,1.766,0,1,0-2.87-2.06,29.368,29.368,0,0,0-5.558,17.049,29.869,29.869,0,0,0,.235,3.9A20.325,20.325,0,0,0,0,63.389q0,.354.012.706A17.439,17.439,0,0,0,5.6,76.288a18.336,18.336,0,0,0,12.57,4.948H34.641v1.87a1.766,1.766,0,1,0,3.533,0V66.158A13.3,13.3,0,0,0,49.539,54.88H78a13.255,13.255,0,0,0,11.2,11.254V89.991c0,8.4-2.539,15.774-14.932,24.458l-10.578,7.413-10.578-7.413c-8.963-6.281-14.932-12.844-14.932-24.458a1.766,1.766,0,0,0-3.533,0v.18c0,.017,0,.033,0,.05a27.934,27.934,0,0,0,4.443,15.607c2.6,3.971,6.3,7.522,11.993,11.514l11.592,8.124a1.767,1.767,0,0,0,2.028,0l11.592-8.124c5.7-3.992,9.395-7.543,11.993-11.514A28.015,28.015,0,0,0,92.727,89.99V81.235h9.679a18.336,18.336,0,0,0,12.57-4.948,17.438,17.438,0,0,0,5.593-12.193q.012-.351.012-.705A20.32,20.32,0,0,0,101.937,43.239Z" transform="translate(0 0)" fill="#3b6aff"/>
    <path id="Path_2112" data-name="Path 2112" d="M227.806,242.1a9.609,9.609,0,0,0-9.6,9.6V259a5.983,5.983,0,0,0-3.629,5.494v11.2a5.981,5.981,0,0,0,5.975,5.975H234.9a5.981,5.981,0,0,0,5.975-5.975V264.5a5.982,5.982,0,0,0-3.472-5.423V251.7A9.609,9.609,0,0,0,227.806,242.1Zm0,3.533a6.073,6.073,0,0,1,6.066,6.066v6.826H221.74V251.7A6.072,6.072,0,0,1,227.806,245.631Zm9.538,30.071a2.445,2.445,0,0,1-2.442,2.442H220.554a2.445,2.445,0,0,1-2.442-2.442V264.5a2.445,2.445,0,0,1,2.442-2.442H234.9a2.445,2.445,0,0,1,2.442,2.442Z" transform="translate(-164.044 -177.56)" fill="#3b6aff"/>
    <path id="Path_2113" data-name="Path 2113" d="M265.008,344.555a1.766,1.766,0,0,0-1.766,1.766v3.762a1.766,1.766,0,1,0,3.533,0v-3.762A1.766,1.766,0,0,0,265.008,344.555Z" transform="translate(-201.246 -255.887)" fill="#3b6aff"/>
  </g>
</svg>
