<svg xmlns="http://www.w3.org/2000/svg" width="99.751" height="99.751" viewBox="0 0 99.751 99.751">
  <g id="server-computer-cloud-smartphone-laptop" transform="translate(-2 -2)">
    <path id="Path_2114" data-name="Path 2114" d="M50.263,31.3V29.638a11.638,11.638,0,0,0-23.275,0V31.3A5,5,0,0,0,22,36.288v19.95a5,5,0,0,0,4.988,4.988H50.263a5,5,0,0,0,4.988-4.988V36.288A5,5,0,0,0,50.263,31.3Zm-19.95-1.663a8.313,8.313,0,0,1,16.625,0V31.3H43.613V29.638a4.988,4.988,0,1,0-9.975,0V31.3H30.313Zm9.975,0V31.3H36.963V29.638a1.663,1.663,0,0,1,3.325,0Zm11.638,26.6A1.663,1.663,0,0,1,50.263,57.9H26.988a1.663,1.663,0,0,1-1.663-1.663V47.925h26.6Zm0-11.638h-26.6V36.288a1.663,1.663,0,0,1,1.663-1.663H50.263a1.663,1.663,0,0,1,1.663,1.663Z" transform="translate(13.25 10.6)" fill="#3b6aff"/>
    <path id="Path_2115" data-name="Path 2115" d="M30.263,44H6.988A5,5,0,0,0,2,48.988v13.3a5,5,0,0,0,4.988,4.988h6.65V70.6H10.313v3.325H26.938V70.6H23.613V67.275h6.65a5,5,0,0,0,4.988-4.988v-13.3A5,5,0,0,0,30.263,44ZM20.288,70.6H16.963V67.275h3.325Zm11.638-8.313a1.663,1.663,0,0,1-1.663,1.663H6.988a1.663,1.663,0,0,1-1.663-1.663V60.625h26.6Zm0-4.988H5.325V48.988a1.663,1.663,0,0,1,1.663-1.663H30.263a1.663,1.663,0,0,1,1.663,1.663Z" transform="translate(0 27.826)" fill="#3b6aff"/>
    <path id="Path_2116" data-name="Path 2116" d="M73.588,62.625V50.988A5,5,0,0,0,68.6,46H48.65a5,5,0,0,0-4.988,4.988V62.625A1.663,1.663,0,0,0,42,64.288v3.325A5,5,0,0,0,46.988,72.6H70.263a5,5,0,0,0,4.988-4.988V64.288A1.663,1.663,0,0,0,73.588,62.625Zm-26.6-11.638a1.663,1.663,0,0,1,1.663-1.663H68.6a1.663,1.663,0,0,1,1.663,1.663V62.625H46.988ZM71.925,67.613a1.663,1.663,0,0,1-1.663,1.663H46.988a1.663,1.663,0,0,1-1.663-1.663V65.95h26.6Z" transform="translate(26.501 29.151)" fill="#3b6aff"/>
    <path id="Path_2117" data-name="Path 2117" d="M68.938,8.65H67.275V6.988A5,5,0,0,0,62.288,2h-13.3A5,5,0,0,0,44,6.988v19.95a5,5,0,0,0,4.988,4.988h19.95a5,5,0,0,0,4.988-4.988v-13.3A5,5,0,0,0,68.938,8.65ZM57.6,28.6H48.988a1.663,1.663,0,0,1-1.663-1.663V6.988a1.663,1.663,0,0,1,1.663-1.663h13.3A1.663,1.663,0,0,1,63.95,6.988V8.65H62.288A5,5,0,0,0,57.3,13.638v13.3A4.988,4.988,0,0,0,57.6,28.6Zm13-1.663A1.663,1.663,0,0,1,68.938,28.6h-6.65a1.663,1.663,0,0,1-1.663-1.663v-13.3a1.663,1.663,0,0,1,1.663-1.663h6.65A1.663,1.663,0,0,1,70.6,13.638Z" transform="translate(27.826 0)" fill="#3b6aff"/>
    <path id="Path_2118" data-name="Path 2118" d="M38.428,12.108A8.288,8.288,0,0,0,27.955,5.658,9.835,9.835,0,0,0,20.274,2a10,10,0,0,0-9.427,6.717A9.975,9.975,0,0,0,11.961,28.6H36.9a8.313,8.313,0,0,0,1.53-16.492ZM36.9,25.275H11.961a6.65,6.65,0,1,1-.083-13.3,1.343,1.343,0,0,0,.249.017,1.663,1.663,0,0,0,1.629-1.33A6.633,6.633,0,0,1,25.943,8.534a1.631,1.631,0,0,0,2.145.632,4.949,4.949,0,0,1,7.149,4.472A1.663,1.663,0,0,0,36.9,15.3a4.988,4.988,0,1,1,0,9.975Z" transform="translate(0.014 0)" fill="#3b6aff"/>
    <path id="Path_2119" data-name="Path 2119" d="M26,30h3.325v3.325H26Z" transform="translate(15.901 18.551)" fill="#3b6aff"/>
    <path id="Path_2120" data-name="Path 2120" d="M31,30h3.325v3.325H31Z" transform="translate(19.213 18.551)" fill="#3b6aff"/>
    <path id="Path_2121" data-name="Path 2121" d="M36,30h3.325v3.325H36Z" transform="translate(22.526 18.551)" fill="#3b6aff"/>
    <path id="Path_2122" data-name="Path 2122" d="M26,38h3.325v3.325H26Z" transform="translate(15.901 23.851)" fill="#3b6aff"/>
    <path id="Path_2123" data-name="Path 2123" d="M31,38h3.325v3.325H31Z" transform="translate(19.213 23.851)" fill="#3b6aff"/>
    <path id="Path_2124" data-name="Path 2124" d="M36,38h3.325v3.325H36Z" transform="translate(22.526 23.851)" fill="#3b6aff"/>
    <path id="Path_2125" data-name="Path 2125" d="M58.963,33.638V22H55.638v9.975H44V35.3H57.3A1.663,1.663,0,0,0,58.963,33.638Z" transform="translate(27.826 13.25)" fill="#3b6aff"/>
    <path id="Path_2126" data-name="Path 2126" d="M55.638,50.625h3.325V35.663A1.663,1.663,0,0,0,57.3,34H44v3.325H55.638Z" transform="translate(27.826 21.201)" fill="#3b6aff"/>
    <path id="Path_2127" data-name="Path 2127" d="M25.963,33.3H14.325V20H11V34.963a1.663,1.663,0,0,0,1.663,1.663h13.3Z" transform="translate(5.963 11.925)" fill="#3b6aff"/>
    <path id="Path_2128" data-name="Path 2128" d="M11,35.663V47.3h3.325V37.325H25.963V34h-13.3A1.663,1.663,0,0,0,11,35.663Z" transform="translate(5.963 21.201)" fill="#3b6aff"/>
  </g>
</svg>
