<svg xmlns="http://www.w3.org/2000/svg" width="120.262" height="121.065" viewBox="0 0 120.262 121.065">
  <path id="antivirus" d="M92.167,44.063a5.819,5.819,0,1,0,5.819,5.819A5.826,5.826,0,0,0,92.167,44.063Zm0,7.759a1.94,1.94,0,1,1,1.94-1.94A1.942,1.942,0,0,1,92.167,51.822Zm0-38.794a5.826,5.826,0,0,0-5.819,5.819V34.364a5.819,5.819,0,1,0,11.638,0V18.846A5.826,5.826,0,0,0,92.167,13.027Zm1.94,21.337a1.94,1.94,0,0,1-3.879,0V18.846a1.94,1.94,0,0,1,3.879,0ZM112.962,9.148H110.9a24.385,24.385,0,0,1-17.36-7.191L92.167.586,90.8,1.957a24.381,24.381,0,0,1-17.36,7.191H71.371l-.442,1.327c-.175.522-2.475,7.46-4.541,15.277a40.634,40.634,0,0,0-44.179,60.31L3.979,104.291A10.17,10.17,0,0,0,18.36,118.674l18.231-18.231A40.65,40.65,0,0,0,97.986,65.4c0-.989-.06-2.029-.147-3.1,9.239-3.321,23.424-9.788,23.424-18.233,0-9.9-7.538-32.626-7.858-33.588ZM86.117,62.16a27.389,27.389,0,0,1,.231,3.239A29.2,29.2,0,1,1,63.822,37.076a42.623,42.623,0,0,0-.751,6.987L61.335,43.2l-2.456,4.911a8.114,8.114,0,0,0-3.255,0L53.169,43.2,49.7,44.932l2.293,4.585A9.678,9.678,0,0,0,47.72,56.01a5.8,5.8,0,0,0-4.046,5.511H38.892l-3.3-4.956-3.228,2.151L36.817,65.4h7.107a34.362,34.362,0,0,0,.677,3.879H36.815l-4.456,6.682,3.228,2.151,3.305-4.954h6.836a34.066,34.066,0,0,0,1.722,3.879H40.7L36.241,83.72l3.228,2.151,3.3-4.954h6.964c.576.832,1.187,1.643,1.839,2.425l1,1.2a6.08,6.08,0,0,0,9.344,0l1.007-1.207c.652-.782,1.263-1.592,1.839-2.425h6.964l3.3,4.956,3.228-2.151-4.456-6.684H67.053a34.411,34.411,0,0,0,1.722-3.879h6.836l3.3,4.956,3.228-2.151-4.456-6.684H69.9a33.934,33.934,0,0,0,.677-3.879h7.107l3.462-5.195C82.879,60.938,84.561,61.594,86.117,62.16Zm-38.563-.64a1.942,1.942,0,0,1,1.94-1.94h.8a38.891,38.891,0,0,1,5.02,19.069v3.115l-.758-.91A30.256,30.256,0,0,1,47.553,61.52Zm7.138-1.94h5.121A42.58,42.58,0,0,0,57.252,66,42.58,42.58,0,0,0,54.691,59.581Zm4.5,19.069a38.891,38.891,0,0,1,5.02-19.069h.8a1.942,1.942,0,0,1,1.94,1.94,30.265,30.265,0,0,1-7,19.337l-.758.91ZM51.79,55.7a5.785,5.785,0,0,1,10.924,0ZM75.611,61.52H70.83a5.806,5.806,0,0,0-4.044-5.513,9.7,9.7,0,0,0-4.271-6.492l1.195-2.39c1.885,4.615,7.753,8.51,13.859,11.46ZM15.618,115.929a6.289,6.289,0,1,1-8.9-8.894L24.389,89.369a40.986,40.986,0,0,0,8.9,8.9Zm41.634-13.675a36.855,36.855,0,0,1,0-73.709,36.515,36.515,0,0,1,8.18.964c-.306,1.259-.6,2.518-.863,3.757A32.964,32.964,0,1,0,90.227,65.4c0-.685-.035-1.385-.089-2.108a11.812,11.812,0,0,0,3.9.014c.045.724.07,1.42.07,2.095A36.9,36.9,0,0,1,57.252,102.254Zm38.2-43.225a10.117,10.117,0,0,1-6.572,0c-10.118-3.519-21.93-9.547-21.93-14.967,0-7.98,5.617-26.023,7.231-31.045A28.194,28.194,0,0,0,92.167,5.986a28.194,28.194,0,0,0,17.985,7.031c1.614,5.022,7.231,23.065,7.231,31.045C117.383,49.482,105.57,55.511,95.453,59.03Z" transform="translate(-1 -0.586)" fill="#F8FF35"/>
</svg>
