<svg xmlns="http://www.w3.org/2000/svg" width="140" height="139.999" viewBox="0 0 140 139.999">
  <path id="penetration" d="M1,75.516V73.258H25.839v2.258a40.692,40.692,0,0,0,40.645,40.645h2.258V141H66.484A65.559,65.559,0,0,1,1,75.516Zm4.557,2.258a61.039,61.039,0,0,0,58.669,58.667v-15.82A45.222,45.222,0,0,1,21.379,77.774Zm70.28,62.551-2.579.368V115.624l1.786-.382A40.635,40.635,0,0,0,106.21,84.074l.382-1.784h25.071l-.37,2.579A65.72,65.72,0,0,1,75.837,140.325ZM126.4,86.806H110.2a45.171,45.171,0,0,1-32.428,32.428v16.193A61.232,61.232,0,0,0,126.4,86.806ZM26.376,68.742H1.307l.37-2.579A65.725,65.725,0,0,1,57.133,10.7l2.576-.366V35.41l-1.786.382A40.638,40.638,0,0,0,26.758,66.96Zm-3.613-4.516A45.17,45.17,0,0,1,55.194,31.8V15.6A61.232,61.232,0,0,0,6.573,64.225ZM97.474,117.2l2.7,3.617c1.26-.939,2.486-1.935,3.647-2.96l-2.985-3.387C99.768,115.409,98.637,116.328,97.474,117.2Zm-15.332,7.854,1.364,4.3c1.49-.472,2.976-1.012,4.417-1.6l-1.714-4.177c-1.325.542-2.694,1.039-4.067,1.477Zm8-3.288L92.2,125.78c1.382-.707,2.759-1.488,4.092-2.317L93.9,119.632C92.675,120.395,91.411,121.111,90.137,121.763ZM50.479,26.093l-1.384-4.3c-1.475.476-2.96,1.025-4.415,1.637l1.745,4.164C47.76,27.033,49.124,26.529,50.479,26.093Zm-18,4.358c-1.249.946-2.468,1.949-3.629,2.987L31.861,36.8c1.068-.955,2.193-1.881,3.342-2.75ZM42.51,29.433l-2.093-4c-1.386.725-2.757,1.515-4.074,2.348l2.414,3.814C39.97,30.826,41.232,30.1,42.51,29.433ZM14.95,82.01l-4.48.56c.2,1.574.463,3.157.79,4.7l4.417-.935c-.3-1.423-.546-2.879-.727-4.329ZM29.824,112.3A52.088,52.088,0,0,1,16.793,90.665l-4.32,1.314A56.57,56.57,0,0,0,26.638,115.5ZM132.018,9.221a29.354,29.354,0,0,1-20.372,50.488L94.671,61.258A31.707,31.707,0,1,1,84.625,49.665l2.782-2.782A28.981,28.981,0,0,1,82.29,30.336,29.6,29.6,0,0,1,110.55,1.02a29.14,29.14,0,0,1,21.467,8.2ZM83.889,80.28l8.4,3.48a26.931,26.931,0,0,0,1.176-5.986H84.39A17.713,17.713,0,0,1,83.889,80.28Zm-3.152,6.3L87.157,93a27.124,27.124,0,0,0,3.389-5.069l-8.382-3.473A18.538,18.538,0,0,1,80.737,86.576Zm-5.315,4.618,3.473,8.382a27.16,27.16,0,0,0,5.069-3.389l-6.42-6.42A17.97,17.97,0,0,1,75.421,91.193Zm4.611-15.678A13.548,13.548,0,1,0,66.484,89.064,13.562,13.562,0,0,0,80.032,75.516ZM64.226,57.607V48.532A26.965,26.965,0,0,0,49,54.843l6.42,6.42A17.967,17.967,0,0,1,64.226,57.607ZM39.387,75.516A26.969,26.969,0,0,0,45.811,93l6.42-6.42a17.952,17.952,0,0,1,0-22.12l-6.42-6.42a26.969,26.969,0,0,0-6.424,17.48Zm27.1,27.1a26.978,26.978,0,0,0,8.244-1.292l-3.48-8.4a17.83,17.83,0,0,1-15.822-3.152l-6.42,6.42A26.959,26.959,0,0,0,66.484,102.613ZM89.771,61.705l-2.615.239c-.163.016-.33.023-.495.023H85.483a5.428,5.428,0,0,1-4.069-9.046,26.666,26.666,0,0,0-12.672-4.41v9.1A18.081,18.081,0,0,1,84.393,73.258h9.086a26.966,26.966,0,0,0-3.708-11.552Zm46.713-31.351A24.84,24.84,0,0,0,110.715,5.531,25.049,25.049,0,0,0,86.807,30.341a24.584,24.584,0,0,0,5.343,15.371l1.242,1.576-8.569,8.567a.936.936,0,0,0,.662,1.6h1.179l24.78-2.249A24.926,24.926,0,0,0,136.484,30.354Z" transform="translate(-1 -1)" fill="#F8FF35"/>
</svg>
