<svg xmlns="http://www.w3.org/2000/svg" width="120.45" height="94.208" viewBox="0 0 120.45 94.208">
  <g id="password" transform="translate(0 -55.772)">
    <path id="Path_1931" data-name="Path 1931" d="M116.326,55.772H4.124A4.129,4.129,0,0,0,0,59.9v76.146a4.129,4.129,0,0,0,4.124,4.124H21.879a1.767,1.767,0,0,0,0-3.535H4.124a.59.59,0,0,1-.589-.589V82.637H65.026a1.767,1.767,0,1,0,0-3.535H3.535V59.9a.59.59,0,0,1,.589-.589h112.2a.59.59,0,0,1,.589.589V79.1H73.959a1.767,1.767,0,1,0,0,3.535h42.956v53.406a.59.59,0,0,1-.589.589h-4.108V115.949a5.308,5.308,0,0,0-4.886-5.284V103.63A14.916,14.916,0,0,0,92.605,88.565H84.9a14.929,14.929,0,0,0-14.685,13.914,2.714,2.714,0,0,0,2.7,2.919h5.209a2.718,2.718,0,0,0,2.688-2.376A4.26,4.26,0,0,1,84.9,99.169h7.7a4.306,4.306,0,0,1,4.123,4.461v7.016H71.954a5.309,5.309,0,0,0-5.3,5.3v20.683H30.687a1.767,1.767,0,1,0,0,3.535H66.652v4.512a5.309,5.309,0,0,0,5.3,5.3h34.962a5.309,5.309,0,0,0,5.3-5.3v-4.512h4.108a4.129,4.129,0,0,0,4.124-4.124V59.9a4.129,4.129,0,0,0-4.124-4.124ZM92.605,95.635H84.9a7.763,7.763,0,0,0-7.469,6.228H73.842A11.356,11.356,0,0,1,84.9,92.1h7.7A11.378,11.378,0,0,1,103.8,103.63v7.016h-3.535V103.63A7.841,7.841,0,0,0,92.605,95.635Zm16.078,49.043a1.769,1.769,0,0,1-1.767,1.767H71.954a1.769,1.769,0,0,1-1.767-1.767V115.949a1.769,1.769,0,0,1,1.767-1.767h34.962a1.769,1.769,0,0,1,1.767,1.767Z" transform="translate(0 0)" fill="#F8FF35"/>
    <circle id="Ellipse_7538" data-name="Ellipse 7538" cx="3.446" cy="3.446" r="3.446" transform="translate(9.618 65.692)" fill="#F8FF35"/>
    <circle id="Ellipse_7539" data-name="Ellipse 7539" cx="3.446" cy="3.446" r="3.446" transform="translate(20.099 65.692)" fill="#F8FF35"/>
    <circle id="Ellipse_7540" data-name="Ellipse 7540" cx="3.446" cy="3.446" r="3.446" transform="translate(30.58 65.692)" fill="#F8FF35"/>
    <path id="Path_1932" data-name="Path 1932" d="M71.561,236.539a1.767,1.767,0,0,0,1.767-3.061L66.088,229.3l7.241-4.181a1.767,1.767,0,1,0-1.767-3.061l-7.241,4.18v-8.361a1.767,1.767,0,1,0-3.535,0v8.361l-7.241-4.18a1.767,1.767,0,1,0-1.767,3.061l7.241,4.181-7.241,4.181a1.767,1.767,0,1,0,1.767,3.061l7.241-4.18v8.361a1.767,1.767,0,1,0,3.535,0v-8.361Z" transform="translate(-38.92 -122.616)" fill="#F8FF35"/>
    <path id="Path_1933" data-name="Path 1933" d="M170.11,235.892a1.769,1.769,0,0,0,2.414.647l7.241-4.181v8.361a1.767,1.767,0,0,0,3.535,0v-8.361l7.241,4.18a1.767,1.767,0,1,0,1.767-3.061l-7.241-4.181,7.241-4.181a1.767,1.767,0,0,0-1.767-3.061l-7.241,4.18v-8.361a1.767,1.767,0,0,0-3.535,0v8.361l-7.241-4.181a1.767,1.767,0,1,0-1.767,3.061L178,229.3l-7.241,4.181a1.768,1.768,0,0,0-.647,2.415Z" transform="translate(-129.91 -122.615)" fill="#F8FF35"/>
    <path id="Path_1934" data-name="Path 1934" d="M359.22,326.326a8.006,8.006,0,1,0-10.582,12.007v4.151a2.949,2.949,0,0,0,2.946,2.946h4.308a2.949,2.949,0,0,0,2.946-2.946v-4.152a8,8,0,0,0,.383-12.007Zm-2.821,9.428a2.719,2.719,0,0,0-1.1,2.175V341.9h-3.13v-3.966a2.729,2.729,0,0,0-1.1-2.178,4.47,4.47,0,0,1-1.8-3.877,4.523,4.523,0,0,1,4.174-4.176,4.472,4.472,0,0,1,2.951,8.055Z" transform="translate(-264.397 -205.244)" fill="#F8FF35"/>
  </g>
</svg>
