<svg xmlns="http://www.w3.org/2000/svg" width="90.631" height="122.114" viewBox="0 0 90.631 122.114">
  <g id="smartphone" transform="translate(-66.001)">
    <g id="Group_584" data-name="Group 584" transform="translate(74.361 28.62)">
      <g id="Group_583" data-name="Group 583">
        <path id="Path_1921" data-name="Path 1921" d="M153.5,120H103.44a2.385,2.385,0,1,0,0,4.77H153.5a2.385,2.385,0,0,0,0-4.77Z" transform="translate(-101.055 -119.999)" fill="#F8FF35"/>
      </g>
    </g>
    <g id="Group_586" data-name="Group 586" transform="translate(74.361 57.24)">
      <g id="Group_585" data-name="Group 585">
        <path id="Path_1922" data-name="Path 1922" d="M130.965,240H103.44a2.385,2.385,0,1,0,0,4.77h27.525a2.385,2.385,0,0,0,0-4.77Z" transform="translate(-101.055 -239.999)" fill="#F8FF35"/>
      </g>
    </g>
    <g id="Group_588" data-name="Group 588" transform="translate(74.361 66.781)">
      <g id="Group_587" data-name="Group 587">
        <path id="Path_1923" data-name="Path 1923" d="M130.965,280H103.44a2.385,2.385,0,1,0,0,4.77h27.525a2.385,2.385,0,1,0,0-4.77Z" transform="translate(-101.055 -279.999)" fill="#F8FF35"/>
      </g>
    </g>
    <g id="Group_590" data-name="Group 590" transform="translate(74.361 76.321)">
      <g id="Group_589" data-name="Group 589">
        <path id="Path_1924" data-name="Path 1924" d="M138.224,320H103.44a2.385,2.385,0,0,0,0,4.77h34.784a2.385,2.385,0,0,0,0-4.77Z" transform="translate(-101.055 -319.999)" fill="#F8FF35"/>
      </g>
    </g>
    <g id="Group_592" data-name="Group 592" transform="translate(98.26 106.611)">
      <g id="Group_591" data-name="Group 591">
        <path id="Path_1925" data-name="Path 1925" d="M204.836,447a3.578,3.578,0,1,0,3.578,3.578A3.585,3.585,0,0,0,204.836,447Z" transform="translate(-201.258 -447.001)" fill="#F8FF35"/>
      </g>
    </g>
    <g id="Group_594" data-name="Group 594" transform="translate(91.181 85.861)">
      <g id="Group_593" data-name="Group 593">
        <path id="Path_1926" data-name="Path 1926" d="M174.076,360h-.113a2.385,2.385,0,1,0,0,4.77h.113a2.385,2.385,0,1,0,0-4.77Z" transform="translate(-171.578 -359.999)" fill="#F8FF35"/>
      </g>
    </g>
    <g id="Group_596" data-name="Group 596" transform="translate(74.362 85.861)">
      <g id="Group_595" data-name="Group 595">
        <path id="Path_1927" data-name="Path 1927" d="M113.324,360h-9.883a2.385,2.385,0,1,0,0,4.77h9.883a2.385,2.385,0,1,0,0-4.77Z" transform="translate(-101.056 -359.999)" fill="#F8FF35"/>
      </g>
    </g>
    <g id="Group_598" data-name="Group 598" transform="translate(66.001)">
      <g id="Group_597" data-name="Group 597">
        <path id="Path_1928" data-name="Path 1928" d="M154.247,44.995c-3.162,0-7.527-2.573-8.416-5.891a2.385,2.385,0,0,0-2.3-1.768h-5.976V10.231A10.243,10.243,0,0,0,127.321,0H76.232A10.243,10.243,0,0,0,66,10.231V111.883a10.243,10.243,0,0,0,10.231,10.231h51.088a10.243,10.243,0,0,0,10.231-10.231V84.288a29.6,29.6,0,0,0,9.776-6.13,28.318,28.318,0,0,0,9.3-21.2V47.38A2.385,2.385,0,0,0,154.247,44.995ZM76.232,4.77h51.088a5.469,5.469,0,0,1,5.416,4.77H70.816A5.469,5.469,0,0,1,76.232,4.77Zm-5.461,9.54h62.011v4.77H70.771Zm62.011,97.573a5.468,5.468,0,0,1-5.461,5.461H76.232a5.467,5.467,0,0,1-5.461-5.461v-8.849h62.011Zm0-13.619H70.771V23.85h62.011V37.336h-5.976a2.385,2.385,0,0,0-2.3,1.768c-.889,3.318-5.254,5.891-8.416,5.891A2.385,2.385,0,0,0,113.7,47.38v9.574a28.319,28.319,0,0,0,9.3,21.2,29.6,29.6,0,0,0,9.776,6.13Zm19.08-41.309c0,16.45-14.844,22.8-16.7,23.049-1.851-.251-16.7-6.6-16.7-23.049V49.509a14.647,14.647,0,0,0,9.98-7.4h13.43a14.648,14.648,0,0,0,9.98,7.4Z" transform="translate(-66.001)" fill="#F8FF35"/>
      </g>
    </g>
    <g id="Group_600" data-name="Group 600" transform="translate(74.361 38.16)">
      <g id="Group_599" data-name="Group 599">
        <path id="Path_1929" data-name="Path 1929" d="M113.323,160H103.44a2.385,2.385,0,1,0,0,4.77h9.883a2.385,2.385,0,0,0,0-4.77Z" transform="translate(-101.055 -159.999)" fill="#F8FF35"/>
      </g>
    </g>
    <g id="Group_602" data-name="Group 602" transform="translate(91.181 38.16)">
      <g id="Group_601" data-name="Group 601">
        <path id="Path_1930" data-name="Path 1930" d="M174.076,160h-.113a2.385,2.385,0,1,0,0,4.77h.113a2.385,2.385,0,0,0,0-4.77Z" transform="translate(-171.578 -159.999)" fill="#F8FF35"/>
      </g>
    </g>
  </g>
</svg>
