<svg xmlns="http://www.w3.org/2000/svg" width="126.68" height="141" viewBox="0 0 126.68 141">
  <g id="internet" transform="translate(-25.999)">
    <g id="Group_568" data-name="Group 568" transform="translate(25.999)">
      <g id="Group_567" data-name="Group 567">
        <path id="Path_1913" data-name="Path 1913" d="M135.665,83.484a57.761,57.761,0,0,0,4.764-13.793,2.744,2.744,0,0,0,.118-.559,57.721,57.721,0,0,0-6.462-39.9,2.739,2.739,0,0,0-.36-.617A57.861,57.861,0,0,0,83.832,0h0A57.86,57.86,0,0,0,33.938,28.62a2.745,2.745,0,0,0-.359.616,57.547,57.547,0,0,0-4.836,10.989,2.718,2.718,0,0,0-.146.452,57.813,57.813,0,0,0,4.981,45.751,2.756,2.756,0,0,0,.361.618,57.86,57.86,0,0,0,49.892,28.618h0a58.408,58.408,0,0,0,8.571-.634,30.293,30.293,0,1,0,43.262-31.547Zm-.17-17.39h-8.989a2.754,2.754,0,1,0,0,5.508h7.807a52.118,52.118,0,0,1-3.815,9.912c-.158-.044-.317-.082-.475-.123l-.137-.036c-.213-.054-.425-.107-.639-.156l-.151-.034q-.555-.126-1.115-.23c-.1-.018-.192-.037-.289-.054-.166-.029-.332-.056-.5-.083-.138-.022-.277-.043-.416-.064s-.3-.044-.45-.063c-.21-.028-.421-.052-.633-.075q-.207-.023-.415-.042-.35-.033-.7-.059l-.328-.021q-.32-.019-.642-.032l-.3-.011c-.308-.009-.617-.015-.927-.015q-.387,0-.771.01l-.253.009c-.172.006-.343.011-.514.02-.1.005-.2.013-.3.019-.153.009-.306.018-.458.029-.109.008-.217.019-.325.028-.144.012-.289.024-.432.039-.11.011-.221.025-.331.037-.14.016-.281.031-.421.048-.112.014-.223.03-.334.046-.137.019-.275.037-.411.058-.113.017-.224.036-.337.055-.135.022-.27.044-.4.067-.113.02-.225.042-.338.063-.132.025-.264.049-.4.076-.113.023-.225.048-.338.072-.13.028-.261.056-.391.085-.112.026-.223.053-.335.08-.129.031-.258.062-.387.094-.111.028-.221.058-.332.088-.128.034-.256.068-.383.1-.11.031-.22.064-.33.1-.126.037-.252.074-.377.112l-.328.1c-.124.04-.248.08-.372.121l-.326.112c-.123.043-.245.085-.367.129l-.323.12c-.121.045-.242.091-.362.138l-.318.127-.044.018h-6.59a139.859,139.859,0,0,0,2.07-22.031H136.08A52.446,52.446,0,0,1,135.495,66.094Zm.589-11.016H106.527a139.8,139.8,0,0,0-2.07-22.031H129.9A51.949,51.949,0,0,1,136.083,55.079ZM126.473,27.54H103.326a84.445,84.445,0,0,0-2.8-9.561,44.157,44.157,0,0,0-5.8-11.326A52.448,52.448,0,0,1,126.473,27.54ZM66.645,55.079A132.943,132.943,0,0,1,68.8,33.047H98.861a132.974,132.974,0,0,1,2.158,22.031Zm34.373,5.508a132.974,132.974,0,0,1-2.158,22.031H68.8a132.943,132.943,0,0,1-2.158-22.031h34.373ZM83.831,5.508h0c3.955,0,8.261,5.364,11.517,14.348a77.321,77.321,0,0,1,2.313,7.684H70a77.488,77.488,0,0,1,2.313-7.684C75.571,10.872,79.877,5.508,83.831,5.508Zm-10.9,1.145a44.164,44.164,0,0,0-5.8,11.326,84.5,84.5,0,0,0-2.8,9.561H41.19A52.445,52.445,0,0,1,72.933,6.653ZM33.35,44.063h9.226a2.754,2.754,0,1,0,0-5.508H35.187a52.022,52.022,0,0,1,2.573-5.508H63.207a139.861,139.861,0,0,0-2.07,22.031H31.58A52.048,52.048,0,0,1,33.35,44.063ZM31.58,60.586H61.137a139.8,139.8,0,0,0,2.07,22.031H37.76A51.954,51.954,0,0,1,31.58,60.586ZM41.19,88.125H64.338a84.571,84.571,0,0,0,2.8,9.561,44.166,44.166,0,0,0,5.8,11.326A52.445,52.445,0,0,1,41.19,88.125Zm42.642,22.031h0c-3.955,0-8.261-5.364-11.517-14.348A77.41,77.41,0,0,1,70,88.125H97.663a77.484,77.484,0,0,1-2.313,7.684C92.093,104.793,87.787,110.157,83.832,110.157Zm38.554,25.335a24.814,24.814,0,0,1-24.764-23.8c-.007-.172-.012-.33-.015-.48,0-.169-.006-.338-.006-.507a24.813,24.813,0,0,1,24.785-24.785c.328,0,.655.009.981.021l.181.007c.3.014.6.034.9.059l.251.023q.429.04.857.093c.1.012.192.027.288.04q.315.044.629.1.248.041.494.087.272.051.544.108c.151.032.3.064.453.1q.312.072.622.152.269.07.536.145l.167.049q.508.148,1.007.316l.056.019a24.786,24.786,0,0,1-7.971,48.255Z" transform="translate(-25.999)" fill="#F8FF35"/>
      </g>
    </g>
    <g id="Group_570" data-name="Group 570" transform="translate(115.502 99.003)">
      <g id="Group_569" data-name="Group 569" transform="translate(0)">
        <path id="Path_1914" data-name="Path 1914" d="M357.887,359.5a6.883,6.883,0,0,0-2.754,13.192v7.461a2.754,2.754,0,1,0,5.508,0v-7.461a6.883,6.883,0,0,0-2.754-13.193Z" transform="translate(-351.003 -359.502)" fill="#F8FF35"/>
      </g>
    </g>
    <g id="Group_572" data-name="Group 572" transform="translate(47.734 38.555)">
      <g id="Group_571" data-name="Group 571">
        <path id="Path_1915" data-name="Path 1915" d="M107.742,140h-.065a2.754,2.754,0,1,0,0,5.508h.065a2.754,2.754,0,1,0,0-5.508Z" transform="translate(-104.923 -140.001)" fill="#F8FF35"/>
      </g>
    </g>
    <g id="Group_574" data-name="Group 574" transform="translate(115.776 66.094)">
      <g id="Group_573" data-name="Group 573" transform="translate(0)">
        <path id="Path_1916" data-name="Path 1916" d="M354.816,240h-.065a2.754,2.754,0,0,0,0,5.508h.065a2.754,2.754,0,0,0,0-5.508Z" transform="translate(-351.997 -240.001)" fill="#F8FF35"/>
      </g>
    </g>
  </g>
</svg>
