<svg xmlns="http://www.w3.org/2000/svg" width="112.281" height="128.358" viewBox="0 0 112.281 128.358">
  <g id="brain" transform="translate(-32.065)">
    <g id="Group_576" data-name="Group 576" transform="translate(86.326 86.415)">
      <g id="Group_575" data-name="Group 575">
        <path id="Path_1917" data-name="Path 1917" d="M250.381,344.694a1.88,1.88,0,0,0-1.88,1.88v2.009a1.88,1.88,0,1,0,3.76,0v-2.009A1.88,1.88,0,0,0,250.381,344.694Z" transform="translate(-248.501 -344.694)" fill="#F8FF35"/>
      </g>
    </g>
    <g id="Group_578" data-name="Group 578" transform="translate(32.065)">
      <g id="Group_577" data-name="Group 577">
        <path id="Path_1918" data-name="Path 1918" d="M144.3,71.163a11.62,11.62,0,0,0-3.75-7.524,51.081,51.081,0,0,0,.924-22.163c-1.61-8.247-5.342-13.668-10.51-15.267a13.3,13.3,0,0,0-2.784-.555A15.94,15.94,0,0,0,109.609,8.272a11.923,11.923,0,0,0-21.4-2.76A11.923,11.923,0,0,0,66.8,8.271a16.168,16.168,0,0,0-2.713-.232A15.966,15.966,0,0,0,48.142,23.986a16.13,16.13,0,0,0,.087,1.662,13.519,13.519,0,0,0-2.781.561c-5.168,1.6-8.9,7.02-10.51,15.267a51.091,51.091,0,0,0,.893,22.056,11.92,11.92,0,0,0,1.65,18.683,13.935,13.935,0,0,0,8.666,19.465c-.009.227-.014.455-.014.682a17.935,17.935,0,0,0,22.359,17.4,10.919,10.919,0,0,0,19.714,3.79,10.919,10.919,0,0,0,19.714-3.789,17.935,17.935,0,0,0,22.359-17.4c0-.225-.006-.451-.014-.677a13.931,13.931,0,0,0,8.665-19.47A11.929,11.929,0,0,0,144.3,71.163Zm-8.7,8.581a1.88,1.88,0,0,0-.817,2.8,10.177,10.177,0,0,1-12.665,14.994,11.886,11.886,0,0,0,.961-2.837,1.88,1.88,0,1,0-3.685-.749,8.17,8.17,0,0,1-13.779,4.14,1.88,1.88,0,0,0-2.659,2.659,11.942,11.942,0,0,0,16.87,0c.035-.035.068-.07.1-.106a13.99,13.99,0,0,0,6.487,1.587l.1,0c0,.044,0,.089,0,.133a14.2,14.2,0,0,1-24.846,9.389,1.88,1.88,0,1,0-2.82,2.488,17.963,17.963,0,0,0,5.487,4.2,7.163,7.163,0,0,1-14.254-1.007V98.343a1.88,1.88,0,1,0-3.761,0v2.549a13.9,13.9,0,0,0-10.178-4.429c-.043,0-.086,0-.129,0V94.324a11.93,11.93,0,0,0-7.168-10.94,1.88,1.88,0,0,0-1.5,3.448,8.171,8.171,0,0,1,4.909,7.492v2.7a13.92,13.92,0,0,0-7.725,5.673,1.88,1.88,0,0,0,3.132,2.082A10.179,10.179,0,0,1,86.325,110.4v7.034a7.163,7.163,0,0,1-14.254,1.007,17.96,17.96,0,0,0,5.487-4.2,1.88,1.88,0,0,0-2.82-2.488,14.2,14.2,0,0,1-24.846-9.389c0-.044,0-.088,0-.133.042,0,.083,0,.125,0a13.877,13.877,0,0,0,7.707-2.323,1.88,1.88,0,0,0-2.082-3.132A10.176,10.176,0,0,1,41.631,82.541a1.88,1.88,0,0,0-.817-2.8A8.17,8.17,0,0,1,43.993,64.05a1.88,1.88,0,1,0,0-3.76,11.858,11.858,0,0,0-4.843,1.031A47.086,47.086,0,0,1,38.628,42.2c1.312-6.724,4.2-11.242,7.931-12.395a6.762,6.762,0,0,1,6.017.552c3.436,2.26,4.868,7.7,5.379,10.381a15.862,15.862,0,0,0-7.035,4.014,1.88,1.88,0,1,0,2.632,2.686,12.18,12.18,0,0,1,17.98,1.019,5.869,5.869,0,0,0-1.283,3.667v.129H64.09a1.88,1.88,0,0,0,0,3.761h6.158V62.3H61.642a5.9,5.9,0,1,0,0,3.76h8.606v6.288H64.09a1.88,1.88,0,1,0,0,3.76h6.158v.129a5.906,5.906,0,0,0,5.9,5.9h24.116a5.906,5.906,0,0,0,5.9-5.9v-.129h6.158a1.88,1.88,0,0,0,0-3.76h-6.158V66.059h8.606a5.9,5.9,0,1,0,0-3.76h-8.606V56.011h6.158a1.88,1.88,0,1,0,0-3.76h-6.158v-.129a5.906,5.906,0,0,0-5.9-5.9H76.148a5.9,5.9,0,0,0-1.44.178,15.935,15.935,0,0,0-12.628-6.207c-.132,0-.264.006-.4.01-.584-3.152-2.345-9.894-7.034-12.985a9.754,9.754,0,0,0-2.528-1.2,8.851,8.851,0,0,1-.221-2.036A12.187,12.187,0,0,1,72.8,15.46a1.88,1.88,0,1,0,2.687-2.631,15.927,15.927,0,0,0-5.075-3.493,8.17,8.17,0,0,1,15.916,2.592v7.034a9.174,9.174,0,0,1-16.678,5.275A1.88,1.88,0,1,0,66.573,26.4,12.924,12.924,0,0,0,86.326,28.07V40.064a1.88,1.88,0,1,0,3.76,0V11.929A8.17,8.17,0,0,1,106,9.34a15.93,15.93,0,0,0-4.843,3.254,1.88,1.88,0,1,0,2.632,2.686,12.187,12.187,0,0,1,20.716,8.706,12.307,12.307,0,0,1-.17,2.035,10,10,0,0,0-3.847,2.177A1.88,1.88,0,0,0,123,31c1.852-1.659,4.093-2.05,6.852-1.2,3.727,1.153,6.618,5.671,7.931,12.395a47.1,47.1,0,0,1-.551,19.237,12.659,12.659,0,0,0-5.261-1.144,1.88,1.88,0,1,0,0,3.761,8.462,8.462,0,0,1,8.582,7.437A8.173,8.173,0,0,1,135.6,79.744ZM58.19,64.179a2.139,2.139,0,1,1-2.139-2.139A2.141,2.141,0,0,1,58.19,64.179ZM74.009,76.237V52.122a2.141,2.141,0,0,1,2.139-2.139h24.116a2.141,2.141,0,0,1,2.139,2.139V76.237a2.141,2.141,0,0,1-2.139,2.139H76.148A2.141,2.141,0,0,1,74.009,76.237Zm44.212-12.058a2.139,2.139,0,1,1,2.139,2.139A2.141,2.141,0,0,1,118.221,64.179Z" transform="translate(-32.065)" fill="#F8FF35"/>
      </g>
    </g>
    <g id="Group_580" data-name="Group 580" transform="translate(96.374 18.085)">
      <g id="Group_579" data-name="Group 579">
        <path id="Path_1919" data-name="Path 1919" d="M291.58,72.218a1.881,1.881,0,0,0-2.339,1.266,15.967,15.967,0,0,0-.661,4.557,1.88,1.88,0,0,0,3.76,0,12.2,12.2,0,0,1,.5-3.484A1.88,1.88,0,0,0,291.58,72.218Z" transform="translate(-288.581 -72.14)" fill="#F8FF35"/>
      </g>
    </g>
    <g id="Group_582" data-name="Group 582" transform="translate(78.287 54.261)">
      <g id="Group_581" data-name="Group 581">
        <path id="Path_1920" data-name="Path 1920" d="M234.393,216.436H218.316a1.88,1.88,0,0,0-1.88,1.88v16.077a1.88,1.88,0,0,0,1.88,1.88h16.077a1.88,1.88,0,0,0,1.88-1.88V218.316A1.88,1.88,0,0,0,234.393,216.436Zm-1.88,16.077H220.2V220.2h12.317Z" transform="translate(-216.436 -216.436)" fill="#F8FF35"/>
      </g>
    </g>
  </g>
</svg>
