<svg id="Group_778" data-name="Group 778" xmlns="http://www.w3.org/2000/svg" width="54.736" height="151.168" viewBox="0 0 54.736 151.168">
  <path id="Path_2347" data-name="Path 2347" d="M55.051,233.07c5.511,0,9.978-3.84,9.978-3.84s-4.48-3.84-9.978-3.84-9.971,3.84-9.971,3.84S49.541,233.07,55.051,233.07Z" transform="translate(-16.229 -81.902)" fill="#fdfdfd"/>
  <path id="Path_2348" data-name="Path 2348" d="M80.04,208.078c0,5.511-3.84,9.971-3.84,9.971s-3.84-4.48-3.84-9.971S76.2,198.1,76.2,198.1,80.04,202.567,80.04,208.078Z" transform="translate(-25.304 -71.241)" fill="#fdfdfd"/>
  <path id="Path_2349" data-name="Path 2349" d="M41.973,217.059c5.479.576,10.317-2.758,10.317-2.758s-4.045-4.262-9.523-4.838-10.317,2.752-10.317,2.752S36.495,216.483,41.973,217.059Z" transform="translate(-11.682 -76.145)" fill="#fdfdfd"/>
  <path id="Path_2350" data-name="Path 2350" d="M69.069,194.467c-.576,5.479-4.839,9.523-4.839,9.523s-3.334-4.845-2.758-10.323,4.839-9.517,4.839-9.517S69.645,188.989,69.069,194.467Z" transform="translate(-22.105 -67.057)" fill="#fdfdfd"/>
  <path id="Path_2351" data-name="Path 2351" d="M30.7,199.646c5.389,1.146,10.554-1.658,10.554-1.658s-3.578-4.666-8.96-5.811-10.554,1.709-10.554,1.709S25.311,198.52,30.7,199.646Z" transform="translate(-7.826 -69.849)" fill="#fdfdfd"/>
  <path id="Path_2352" data-name="Path 2352" d="M59.495,179.844c-1.146,5.383-5.8,8.96-5.8,8.96s-2.81-5.165-1.664-10.554,5.811-8.96,5.811-8.96S60.64,174.455,59.495,179.844Z" transform="translate(-18.63 -61.568)" fill="#fdfdfd"/>
  <path id="Path_2353" data-name="Path 2353" d="M21.32,181.141c5.242,1.7,10.669-.544,10.669-.544s-3.072-5.018-8.32-6.714S13,174.427,13,174.427,16.1,179.438,21.32,181.141Z" transform="translate(-4.68 -62.959)" fill="#fdfdfd"/>
  <path id="Path_2354" data-name="Path 2354" d="M51.456,164.363c-1.7,5.242-6.714,8.32-6.714,8.32s-2.253-5.427-.55-10.663,6.688-8.32,6.688-8.32S53.159,159.127,51.456,164.363Z" transform="translate(-15.68 -55.896)" fill="#fdfdfd"/>
  <path id="Path_2355" data-name="Path 2355" d="M14.049,161.639c5.031,2.24,10.663.57,10.663.57s-2.534-5.306-7.559-7.546-10.663-.57-10.663-.57S9.018,159.4,14.049,161.639Z" transform="translate(-2.337 -55.783)" fill="#fdfdfd"/>
  <path id="Path_2356" data-name="Path 2356" d="M45.017,148.2c-2.246,5.031-7.546,7.546-7.546,7.546s-1.677-5.632.563-10.669,7.546-7.559,7.546-7.559S47.257,143.165,45.017,148.2Z" transform="translate(-13.272 -50.009)" fill="#fdfdfd"/>
  <path id="Path_2357" data-name="Path 2357" d="M8.853,141.368c4.768,2.752,10.547,1.677,10.547,1.677s-1.958-5.543-6.733-8.32S2.12,133.073,2.12,133.073,4.078,138.609,8.853,141.368Z" transform="translate(-0.764 -48.282)" fill="#fdfdfd"/>
  <path id="Path_2358" data-name="Path 2358" d="M40.2,131.547c-2.758,4.768-8.32,6.727-8.32,6.727s-1.075-5.76,1.677-10.547S41.881,121,41.881,121,42.969,126.76,40.2,131.547Z" transform="translate(-11.403 -43.998)" fill="#fdfdfd"/>
  <path id="Path_2359" data-name="Path 2359" d="M5.824,120.56c4.48,3.238,10.317,2.771,10.317,2.771s-1.37-5.715-5.824-8.96S0,111.606,0,111.606,1.37,117.321,5.824,120.56Z" transform="translate(0 -40.558)" fill="#fdfdfd"/>
  <path id="Path_2360" data-name="Path 2360" d="M37.157,114.561c-3.238,4.48-8.96,5.831-8.96,5.831s-.461-5.863,2.778-10.317,8.96-5.824,8.96-5.824S40.4,110.106,37.157,114.561Z" transform="translate(-10.143 -37.904)" fill="#fdfdfd"/>
  <path id="Path_2361" data-name="Path 2361" d="M5,99.451c4.1,3.686,9.971,3.84,9.971,3.84s-.762-5.824-4.858-9.511S.14,89.94.14,89.94.908,95.739,5,99.451Z" transform="translate(-0.051 -32.695)" fill="#fdfdfd"/>
  <path id="Path_2362" data-name="Path 2362" d="M35.861,97.441c-3.686,4.1-9.511,4.858-9.511,4.858s.147-5.875,3.84-9.971,9.517-4.858,9.517-4.858S39.566,93.345,35.861,97.441Z" transform="translate(-9.485 -31.801)" fill="#fdfdfd"/>
  <path id="Path_2363" data-name="Path 2363" d="M6.39,78.384c3.686,4.1,9.511,4.858,9.511,4.858s-.147-5.875-3.84-9.965S2.55,68.4,2.55,68.4,2.7,74.269,6.39,78.384Z" transform="translate(-0.918 -24.867)" fill="#fdfdfd"/>
  <path id="Path_2364" data-name="Path 2364" d="M36.391,80.371c-4.1,3.686-9.971,3.84-9.971,3.84s.762-5.824,4.858-9.511,9.971-3.84,9.971-3.84S40.5,76.71,36.391,80.371Z" transform="translate(-9.511 -25.759)" fill="#fdfdfd"/>
  <path id="Path_2365" data-name="Path 2365" d="M9.968,57.537c3.238,4.48,8.96,5.824,8.96,5.824s.467-5.856-2.771-10.317S7.2,47.22,7.2,47.22,6.73,53.076,9.968,57.537Z" transform="translate(-2.583 -17.169)" fill="#fdfdfd"/>
  <path id="Path_2366" data-name="Path 2366" d="M38.847,63.523c-4.48,3.238-10.317,2.771-10.317,2.771s1.37-5.709,5.824-8.96,10.317-2.778,10.317-2.778S43.3,60.285,38.847,63.523Z" transform="translate(-10.271 -19.821)" fill="#fdfdfd"/>
  <path id="Path_2367" data-name="Path 2367" d="M16.5,39.005c2.56,4.41,7.68,6.215,7.68,6.215s.966-5.331-1.594-9.715S14.9,29.29,14.9,29.29,13.956,34.6,16.5,39.005Z" transform="translate(-5.303 -10.544)" fill="#fdfdfd"/>
  <path id="Path_2368" data-name="Path 2368" d="M41.921,48.059c-4.41,2.56-9.741,1.549-9.741,1.549s1.8-5.12,6.215-7.68,9.741-1.549,9.741-1.549S46.324,45.512,41.921,48.059Z" transform="translate(-11.585 -14.604)" fill="#fdfdfd"/>
  <path id="Path_2369" data-name="Path 2369" d="M24.438,22.711a14.6,14.6,0,0,0,6.4,6.4,14.626,14.626,0,0,0-.48-9.011,14.6,14.6,0,0,0-6.4-6.4A14.366,14.366,0,0,0,24.438,22.711Z" transform="translate(-8.438 -4.932)" fill="#fdfdfd"/>
  <path id="Path_2370" data-name="Path 2370" d="M46.325,34.047a14.345,14.345,0,0,1-9.005.48,14.683,14.683,0,0,1,6.4-6.4,14.122,14.122,0,0,1,8.992-.435A14.64,14.64,0,0,1,46.325,34.047Z" transform="translate(-13.435 -9.771)" fill="#fdfdfd"/>
  <path id="Path_2371" data-name="Path 2371" d="M34.774,11.249a10.836,10.836,0,0,0,4.2,5.191,10.8,10.8,0,0,0,.346-6.669,10.76,10.76,0,0,0-4.2-5.191A10.662,10.662,0,0,0,34.774,11.249Z" transform="translate(-12.373 -1.648)" fill="#fdfdfd"/>
  <path id="Path_2372" data-name="Path 2372" d="M49.9,21.694a10.785,10.785,0,0,1-6.663-.346,10.8,10.8,0,0,1,5.191-4.192A10.832,10.832,0,0,1,55.1,17.5,10.794,10.794,0,0,1,49.9,21.694Z" transform="translate(-15.566 -6.033)" fill="#fdfdfd"/>
  <path id="Path_2373" data-name="Path 2373" d="M47.856,3.77a11.313,11.313,0,0,0-1.862,6.72,11.391,11.391,0,0,0,5.875-3.77A11.29,11.29,0,0,0,53.719,0,11.258,11.258,0,0,0,47.856,3.77Z" transform="translate(-16.554)" fill="#fdfdfd"/>
  <path id="Path_2374" data-name="Path 2374" d="M41.084,8.17A115.016,115.016,0,0,0,59.261,149.388a.953.953,0,0,1-.34,1.7.963.963,0,0,1-.979-.341h0A116.341,116.341,0,0,1,26.761,43.8,115.152,115.152,0,0,1,41.084,8.17Z" transform="translate(-8.661 -2.941)" fill="#fdfdfd"/>
</svg>
