<svg xmlns="http://www.w3.org/2000/svg" width="54.744" height="151.193" viewBox="0 0 54.744 151.193">
  <g id="Group_779" data-name="Group 779" transform="translate(-248.737)">
    <path id="Path_2319" data-name="Path 2319" d="M351.588,233.11c-5.511,0-9.978-3.84-9.978-3.84s4.48-3.84,9.978-3.84,9.971,3.84,9.971,3.84S357.092,233.11,351.588,233.11Z" transform="translate(-86.93 -81.917)" fill="#fdfdfd"/>
    <path id="Path_2320" data-name="Path 2320" d="M333.49,208.111c0,5.511,3.84,9.978,3.84,9.978s3.84-4.48,3.84-9.978-3.84-9.971-3.84-9.971S333.49,202.6,333.49,208.111Z" transform="translate(-84.753 -69.581)" fill="#fdfdfd"/>
    <path id="Path_2321" data-name="Path 2321" d="M364.727,217.089c-5.479.576-10.317-2.758-10.317-2.758s4.039-4.262,9.517-4.839,10.323,2.758,10.323,2.758S370.206,216.513,364.727,217.089Z" transform="translate(-91.537 -76.155)" fill="#fdfdfd"/>
    <path id="Path_2322" data-name="Path 2322" d="M344.442,194.5c.576,5.479,4.839,9.523,4.839,9.523s3.334-4.839,2.758-10.317-4.845-9.523-4.845-9.523S343.866,189.019,344.442,194.5Z" transform="translate(-87.925 -67.067)" fill="#fdfdfd"/>
    <path id="Path_2323" data-name="Path 2323" d="M376.184,199.711c-5.389,1.146-10.554-1.664-10.554-1.664s3.578-4.666,8.96-5.811,10.547,1.664,10.547,1.664S381.573,198.565,376.184,199.711Z" transform="translate(-95.576 -69.868)" fill="#fdfdfd"/>
    <path id="Path_2324" data-name="Path 2324" d="M353.846,179.877c1.146,5.389,5.811,8.96,5.811,8.96s2.8-5.158,1.658-10.547-5.8-8.96-5.8-8.96S352.7,174.489,353.846,179.877Z" transform="translate(-91.235 -61.582)" fill="#fdfdfd"/>
    <path id="Path_2325" data-name="Path 2325" d="M385.829,181.176c-5.242,1.7-10.669-.55-10.669-.55s3.066-5.011,8.32-6.714,10.669.55,10.669.55S391.058,179.5,385.829,181.176Z" transform="translate(-99.007 -62.969)" fill="#fdfdfd"/>
    <path id="Path_2326" data-name="Path 2326" d="M361.636,164.4c1.7,5.235,6.714,8.32,6.714,8.32s2.253-5.427.55-10.669-6.714-8.32-6.714-8.32S359.908,159.157,361.636,164.4Z" transform="translate(-93.905 -55.907)" fill="#fdfdfd"/>
    <path id="Path_2327" data-name="Path 2327" d="M393.559,161.669c-5.037,2.24-10.669.57-10.669.57s2.528-5.306,7.559-7.546,10.669-.57,10.669-.57S398.59,159.429,393.559,161.669Z" transform="translate(-101.79 -55.794)" fill="#fdfdfd"/>
    <path id="Path_2328" data-name="Path 2328" d="M367.6,148.243c2.24,5.031,7.546,7.559,7.546,7.559s1.67-5.632-.57-10.663-7.546-7.559-7.546-7.559S365.363,143.212,367.6,148.243Z" transform="translate(-95.866 -50.03)" fill="#fdfdfd"/>
    <path id="Path_2329" data-name="Path 2329" d="M399.287,141.388c-4.768,2.752-10.547,1.677-10.547,1.677s1.958-5.536,6.727-8.32,10.547-1.677,10.547-1.677S404.056,138.63,399.287,141.388Z" transform="translate(-103.896 -48.284)" fill="#fdfdfd"/>
    <path id="Path_2330" data-name="Path 2330" d="M371.778,131.577c2.752,4.775,8.32,6.733,8.32,6.733s1.075-5.76-1.683-10.547-8.32-6.733-8.32-6.733S369.026,126.809,371.778,131.577Z" transform="translate(-97.11 -44.009)" fill="#fdfdfd"/>
    <path id="Path_2331" data-name="Path 2331" d="M402.951,120.583c-4.48,3.238-10.311,2.771-10.311,2.771s1.37-5.709,5.824-8.96,10.317-2.778,10.317-2.778S407.412,117.345,402.951,120.583Z" transform="translate(-105.3 -40.562)" fill="#fdfdfd"/>
    <path id="Path_2332" data-name="Path 2332" d="M374.069,114.6c3.238,4.48,8.96,5.824,8.96,5.824s.467-5.856-2.771-10.317-8.96-5.824-8.96-5.824S370.836,110.136,374.069,114.6Z" transform="translate(-97.608 -37.915)" fill="#fdfdfd"/>
    <path id="Path_2333" data-name="Path 2333" d="M404.515,99.491c-4.09,3.686-9.965,3.84-9.965,3.84s.762-5.824,4.858-9.511,9.965-3.84,9.965-3.84S408.611,95.8,404.515,99.491Z" transform="translate(-105.987 -32.709)" fill="#fdfdfd"/>
    <path id="Path_2334" data-name="Path 2334" d="M374.49,97.475c3.686,4.1,9.511,4.858,9.511,4.858s-.154-5.875-3.84-9.965-9.511-4.858-9.511-4.858S370.8,93.385,374.49,97.475Z" transform="translate(-97.384 -31.814)" fill="#fdfdfd"/>
    <path id="Path_2335" data-name="Path 2335" d="M403.957,78.4c-3.686,4.1-9.517,4.858-9.517,4.858s.154-5.869,3.84-9.965,9.511-4.858,9.511-4.858S407.644,74.305,403.957,78.4Z" transform="translate(-105.947 -24.878)" fill="#fdfdfd"/>
    <path id="Path_2336" data-name="Path 2336" d="M373.1,80.411c4.1,3.686,9.971,3.84,9.971,3.84s-.768-5.824-4.858-9.511-9.971-3.84-9.971-3.84S369,76.724,373.1,80.411Z" transform="translate(-96.516 -25.773)" fill="#fdfdfd"/>
    <path id="Path_2337" data-name="Path 2337" d="M401.268,57.567c-3.238,4.48-8.96,5.824-8.96,5.824s-.461-5.856,2.778-10.311,8.96-5.831,8.96-5.831S404.506,53.113,401.268,57.567Z" transform="translate(-105.172 -17.18)" fill="#fdfdfd"/>
    <path id="Path_2338" data-name="Path 2338" d="M369.934,63.56c4.48,3.238,10.317,2.778,10.317,2.778s-1.37-5.715-5.831-8.96-10.311-2.771-10.311-2.771S365.48,60.322,369.934,63.56Z" transform="translate(-95.029 -19.84)" fill="#fdfdfd"/>
    <path id="Path_2339" data-name="Path 2339" d="M395.933,39.031c-2.56,4.4-7.68,6.215-7.68,6.215s-.992-5.338,1.555-9.741,7.68-6.215,7.68-6.215S398.48,34.621,395.933,39.031Z" transform="translate(-103.651 -10.544)" fill="#fdfdfd"/>
    <path id="Path_2340" data-name="Path 2340" d="M366.965,48.087c4.4,2.56,9.741,1.549,9.741,1.549s-1.811-5.12-6.215-7.68S360.75,40.4,360.75,40.4,362.555,45.54,366.965,48.087Z" transform="translate(-93.819 -14.612)" fill="#fdfdfd"/>
    <path id="Path_2341" data-name="Path 2341" d="M389.015,22.755a14.81,14.81,0,0,1-6.4,6.4,14.554,14.554,0,0,1,.48-9,14.675,14.675,0,0,1,6.4-6.4A14.551,14.551,0,0,1,389.015,22.755Z" transform="translate(-101.508 -4.95)" fill="#fdfdfd"/>
    <path id="Path_2342" data-name="Path 2342" d="M362.867,34.111a14.391,14.391,0,0,0,9.011.486,14.725,14.725,0,0,0-6.4-6.4,14.342,14.342,0,0,0-9-.486A14.742,14.742,0,0,0,362.867,34.111Z" transform="translate(-92.282 -9.79)" fill="#fdfdfd"/>
    <path id="Path_2343" data-name="Path 2343" d="M380.094,11.249a10.76,10.76,0,0,1-4.2,5.191,10.823,10.823,0,0,1-.339-6.669,10.76,10.76,0,0,1,4.2-5.191A10.815,10.815,0,0,1,380.094,11.249Z" transform="translate(-99.007 -1.648)" fill="#fdfdfd"/>
    <path id="Path_2344" data-name="Path 2344" d="M361.281,21.724a10.824,10.824,0,0,0,6.669-.339,10.8,10.8,0,0,0-5.19-4.2,10.833,10.833,0,0,0-6.669.339A10.76,10.76,0,0,0,361.281,21.724Z" transform="translate(-92.142 -6.044)" fill="#fdfdfd"/>
    <path id="Path_2345" data-name="Path 2345" d="M365.636,3.789a11.254,11.254,0,0,1,1.85,6.72,11.258,11.258,0,0,1-5.863-3.77A11.309,11.309,0,0,1,359.773,0,11.333,11.333,0,0,1,365.636,3.789Z" transform="translate(-93.464)" fill="#fdfdfd"/>
    <path id="Path_2346" data-name="Path 2346" d="M356.827,8.2a116.048,116.048,0,0,1-16.82,142.561.964.964,0,0,1-1.335-.01.951.951,0,0,1-.035-1.327h0A115.242,115.242,0,0,0,356.827,8.2Z" transform="translate(-85.769 -2.952)" fill="#fdfdfd"/>
  </g>
</svg>
