<svg id="team_1_" data-name="team (1)" xmlns="http://www.w3.org/2000/svg" width="271.591" height="199.379" viewBox="0 0 271.591 199.379">
  <g id="Group_615" data-name="Group 615" transform="translate(208.335 85.075)">
    <g id="Group_614" data-name="Group 614">
      <path id="Path_1954" data-name="Path 1954" d="M424.031,233.123c-9.242-4.62-26.569-4.674-27.3-4.674a3.978,3.978,0,0,0,0,7.957c4.471,0,17.453.689,23.744,3.834a3.978,3.978,0,0,0,3.558-7.117Z" transform="translate(-392.751 -228.449)" fill="#f8ff35"/>
    </g>
  </g>
  <g id="Group_617" data-name="Group 617" transform="translate(0 0)">
    <g id="Group_616" data-name="Group 616">
      <path id="Path_1955" data-name="Path 1955" d="M259.45,214.457l-16.431-4.695a1.668,1.668,0,0,1-1.2-1.6v-5.484a29.9,29.9,0,0,0,3.8-3.12,29.267,29.267,0,0,0,8.958-21.173v-7.568l1.589-3.177a25.38,25.38,0,0,0,2.665-11.291v-20.5a3.978,3.978,0,0,0-3.978-3.978H216.567A25.276,25.276,0,0,0,191.32,157.12v.237a21.1,21.1,0,0,0,2.216,9.388l2.037,4.075v6.5a31.042,31.042,0,0,0,12.762,25.1v5.748c0,.886,0,1.253-3.285,2.192l-8.017,2.29-23.192-8.433a3.974,3.974,0,0,0-1.084-3.046l-7.411-7.786v-13.07c.783-.646,1.556-1.309,2.3-2.01a46.693,46.693,0,0,0,14.711-33.944V133.92a45.987,45.987,0,0,0,4.254-19.339V72.044a3.978,3.978,0,0,0-3.978-3.978H123.084a38.052,38.052,0,0,0-38.008,38.008v8.508a45.987,45.987,0,0,0,4.254,19.339V142.9A48.612,48.612,0,0,0,106.345,180v13.378l-7.411,7.786a3.974,3.974,0,0,0-1.084,3.046l-24.478,8.9a20.862,20.862,0,0,0-4.918,2.577L64.61,213.77c11.442-4.98,15.066-11.985,15.24-12.333a3.977,3.977,0,0,0,0-3.558c-2.868-5.736-3.216-16.25-3.495-24.7-.093-2.812-.181-5.469-.349-7.835-1.356-19.082-15.863-33.473-33.745-33.473S9.873,146.262,8.517,165.345c-.168,2.366-.256,5.023-.349,7.836-.279,8.447-.627,18.96-3.495,24.7a3.977,3.977,0,0,0,0,3.558c.174.348,3.791,7.338,15.256,12.325L9.253,219.1A16.653,16.653,0,0,0,0,234.073v29.392a3.978,3.978,0,1,0,7.957,0V234.073a8.736,8.736,0,0,1,4.855-7.856l13.295-6.647,4.624,4.395a16.731,16.731,0,0,0,23.063,0l4.624-4.394,4.335,2.167a20.95,20.95,0,0,0-3.2,11.108v30.62a3.978,3.978,0,1,0,7.957,0v-30.62a13.077,13.077,0,0,1,8.582-12.252l25.808-9.384,10.743,16.116a8.2,8.2,0,0,0,6.038,3.626q.412.041.821.04a8.2,8.2,0,0,0,5.812-2.411l6.554-6.554v41.441a3.978,3.978,0,0,0,7.957,0V222.025l6.554,6.554a8.2,8.2,0,0,0,5.812,2.412q.408,0,.82-.04a8.2,8.2,0,0,0,6.039-3.626l10.744-16.115,25.807,9.384a13.077,13.077,0,0,1,8.582,12.252v30.62a3.978,3.978,0,0,0,7.957,0v-30.62a21.031,21.031,0,0,0-5.884-14.556l.983-.281a21.818,21.818,0,0,0,3.7-1.337L221.1,226.831v36.636a3.978,3.978,0,0,0,7.957,0V226.831l10.087-10.087a9.464,9.464,0,0,0,1.693.672l16.431,4.695a8.821,8.821,0,0,1,6.37,8.445v32.911a3.978,3.978,0,0,0,7.957,0V230.555A16.813,16.813,0,0,0,259.45,214.457ZM25.523,207.43c-7.442-2.678-11.174-6.248-12.768-8.2a43.853,43.853,0,0,0,2.268-9.526,29.667,29.667,0,0,0,10.5,12.955ZM48.313,218.2a8.779,8.779,0,0,1-12.1,0l-3.7-3.516a8.232,8.232,0,0,0,.968-3.885v-4.24a29.584,29.584,0,0,0,17.566,0V210.8a8.232,8.232,0,0,0,.968,3.887Zm-6.049-18.263A21.568,21.568,0,0,1,20.72,178.39a3.954,3.954,0,0,0-4.631-3.92c.012-.342.023-.685.034-1.024.089-2.736.174-5.319.332-7.536A29.536,29.536,0,0,1,24.5,147.362a24.719,24.719,0,0,1,35.531,0,29.536,29.536,0,0,1,8.043,18.549c.157,2.216.243,4.8.333,7.534.008.235.016.473.024.71C64.1,167.485,57.415,162.571,48.778,159.8a49.931,49.931,0,0,0-15.132-2.4,3.979,3.979,0,0,0-2.754,1.215l-7.178,7.444a3.978,3.978,0,0,0,5.728,5.523l5.973-6.194c5.144.251,21.692,2.176,28.128,16.348A21.492,21.492,0,0,1,42.264,199.934ZM59,207.444V202.7a29.428,29.428,0,0,0,10.5-12.969,43.8,43.8,0,0,0,2.265,9.5C70.186,201.165,66.436,204.767,59,207.444ZM97.286,142.9v-9.871a3.979,3.979,0,0,0-.4-1.73,38.161,38.161,0,0,1-3.858-16.719v-8.507a30.086,30.086,0,0,1,30.052-30.052h55.575v38.56A38.161,38.161,0,0,1,174.8,131.3a3.979,3.979,0,0,0-.4,1.73v11.328a38.194,38.194,0,0,1-12.2,28.139,39.578,39.578,0,0,1-3.054,2.586c-.023.016-.046.033-.068.05a38.253,38.253,0,0,1-25.815,7.7C113.093,181.529,97.286,163.988,97.286,142.9Zm22.4,80.051a.25.25,0,0,1-.222.079.253.253,0,0,1-.2-.121L106.89,204.351l3.982-4.184L129.642,213ZM135.846,207.6,114.3,192.873v-7.426a44.8,44.8,0,0,0,18.455,5.328q1.573.1,3.13.1a46.083,46.083,0,0,0,21.5-5.27v7.267Zm16.583,15.311a.253.253,0,0,1-.2.121.245.245,0,0,1-.222-.079L142.05,213l18.77-12.831,3.982,4.184Zm72.646-3.357-9.028-9.028a10.917,10.917,0,0,0,.246-2.363v-1.679a27.9,27.9,0,0,0,7.878,1.392c.307.01.611.014.916.014a29.552,29.552,0,0,0,8.772-1.327v1.6a9.511,9.511,0,0,0,.287,2.319Zm15-25.7a21.382,21.382,0,0,1-15.668,6.072c-11.513-.345-20.879-10.486-20.879-22.6v-7.437a3.974,3.974,0,0,0-.42-1.779l-2.458-4.915a13.105,13.105,0,0,1-1.376-5.83v-.237a17.31,17.31,0,0,1,17.291-17.291h34.306v16.524a17.383,17.383,0,0,1-1.825,7.733L247.04,168.1a3.976,3.976,0,0,0-.42,1.779v8.507A21.374,21.374,0,0,1,240.077,193.852Z" transform="translate(0 -68.066)" fill="#f8ff35"/>
    </g>
  </g>
  <g id="Group_619" data-name="Group 619" transform="translate(246.619 165.898)">
    <g id="Group_618" data-name="Group 618">
      <path id="Path_1956" data-name="Path 1956" d="M468.9,380.814a3.978,3.978,0,0,0-3.978,3.978v25.523a3.978,3.978,0,1,0,7.957,0V384.792A3.979,3.979,0,0,0,468.9,380.814Z" transform="translate(-464.923 -380.814)" fill="#f8ff35"/>
    </g>
  </g>
  <g id="Group_621" data-name="Group 621" transform="translate(17.015 171.156)">
    <g id="Group_620" data-name="Group 620">
      <path id="Path_1957" data-name="Path 1957" d="M36.055,390.728a3.979,3.979,0,0,0-3.978,3.978V414.97a3.978,3.978,0,1,0,7.957,0V394.706A3.979,3.979,0,0,0,36.055,390.728Z" transform="translate(-32.077 -390.728)" fill="#f8ff35"/>
    </g>
  </g>
  <g id="Group_623" data-name="Group 623" transform="translate(102.091 36.143)">
    <g id="Group_622" data-name="Group 622">
      <path id="Path_1958" data-name="Path 1958" d="M258.8,148.017c-15.047-15.047-46.529-12.17-59.367-10.235a8.168,8.168,0,0,0-6.978,8.137v9.165a3.978,3.978,0,0,0,7.957,0v-9.166a.263.263,0,0,1,.208-.269,125.689,125.689,0,0,1,25.846-1.262c12.406.826,21.392,3.94,26.708,9.256a3.978,3.978,0,0,0,5.626-5.626Z" transform="translate(-192.46 -136.203)" fill="#f8ff35"/>
    </g>
  </g>
  <g id="Group_625" data-name="Group 625" transform="translate(85.076 174.405)">
    <g id="Group_624" data-name="Group 624">
      <path id="Path_1959" data-name="Path 1959" d="M164.362,396.853a3.979,3.979,0,0,0-3.978,3.978v17.015a3.978,3.978,0,1,0,7.957,0V400.831A3.979,3.979,0,0,0,164.362,396.853Z" transform="translate(-160.384 -396.853)" fill="#f8ff35"/>
    </g>
  </g>
  <g id="Group_627" data-name="Group 627" transform="translate(178.659 174.405)">
    <g id="Group_626" data-name="Group 626">
      <path id="Path_1960" data-name="Path 1960" d="M340.784,396.853a3.979,3.979,0,0,0-3.978,3.978v17.015a3.978,3.978,0,1,0,7.957,0V400.831A3.979,3.979,0,0,0,340.784,396.853Z" transform="translate(-336.806 -396.853)" fill="#f8ff35"/>
    </g>
  </g>
</svg>
