<?xml version="1.0" encoding="UTF-8" standalone="no"?>
<!DOCTYPE svg PUBLIC "-//W3C//DTD SVG 1.1//EN" "http://www.w3.org/Graphics/SVG/1.1/DTD/svg11.dtd">
<svg width="100%" height="100%" viewBox="0 0 64 80" version="1.1" xmlns="http://www.w3.org/2000/svg" xmlns:xlink="http://www.w3.org/1999/xlink" xml:space="preserve" xmlns:serif="http://www.serif.com/" style="fill-rule:evenodd;clip-rule:evenodd;stroke-linecap:round;stroke-linejoin:round;">
    <g transform="matrix(1,0,0,1,-3,-1)">
        <path d="M34.918,79.3C34.918,79.3 65.837,63.837 65.837,40.648L65.837,13.594L34.918,2L4,13.594L4,40.648C4,63.837 34.918,79.3 34.918,79.3Z" style="fill:none;fill-rule:nonzero;stroke:rgb(248,255,53);stroke-width:2px;"/>
    </g>
    <g transform="matrix(0.0577514,0,0,0.0577514,17.1341,24.8642)">
        <path d="M504.502,75.496C494.505,65.498 478.297,65.498 468.298,75.496L161.594,382.203L43.702,264.311C33.705,254.313 17.497,254.314 7.498,264.311C-2.5,274.308 -2.5,290.516 7.498,300.514L143.492,436.506C153.486,446.503 169.706,446.496 179.696,436.506L504.502,111.7C514.5,101.703 514.499,85.494 504.502,75.496Z" style="fill:rgb(248,255,53);fill-rule:nonzero;"/>
    </g>
</svg>
