<svg xmlns="http://www.w3.org/2000/svg" width="35.506" height="34.026" viewBox="0 0 35.506 34.026">
  <g id="message" transform="translate(0.001)">
    <path id="Path_1607" data-name="Path 1607" d="M32.177,31.437H3.329A3.333,3.333,0,0,1,0,28.108v-17.9A3.327,3.327,0,0,1,1.752,7.279L5.025,5.53A1.11,1.11,0,1,1,6.071,7.487L2.8,9.233a1.123,1.123,0,0,0-.583.975v17.9a1.111,1.111,0,0,0,1.11,1.11H32.177a1.111,1.111,0,0,0,1.11-1.11v-17.9a1.124,1.124,0,0,0-.586-.976L29.435,7.489a1.11,1.11,0,0,1,1.046-1.957l3.269,1.746a3.328,3.328,0,0,1,1.755,2.931v17.9A3.333,3.333,0,0,1,32.177,31.437Z" transform="translate(0 2.589)" fill="#f8ff35"/>
    <path id="Path_1608" data-name="Path 1608" d="M17.751,20.406a4.1,4.1,0,0,1-1.883-.457L.595,11.972a1.11,1.11,0,1,1,1.03-1.966L16.892,17.98a1.882,1.882,0,0,0,1.726,0l15.263-7.971a1.11,1.11,0,1,1,1.03,1.966L19.644,19.946a4.11,4.11,0,0,1-1.892.46Z" transform="translate(0 4.736)" fill="#f8ff35"/>
    <path id="Path_1609" data-name="Path 1609" d="M28.519,19.158a1.11,1.11,0,0,1-1.11-1.11V4.068a1.852,1.852,0,0,0-1.849-1.849H7.068A1.852,1.852,0,0,0,5.219,4.068v13.98a1.11,1.11,0,1,1-2.219,0V4.068A4.073,4.073,0,0,1,7.068,0H25.561a4.073,4.073,0,0,1,4.068,4.068v13.98A1.11,1.11,0,0,1,28.519,19.158Z" transform="translate(1.438)" fill="#f8ff35"/>
    <path id="Path_1610" data-name="Path 1610" d="M11.11,14.355a1.108,1.108,0,0,1-1.01-1.568l3.7-8.137a1.109,1.109,0,1,1,2.019.919l-3.7,8.137A1.108,1.108,0,0,1,11.11,14.355Z" transform="translate(4.794 1.918)" fill="#f8ff35"/>
    <path id="Path_1611" data-name="Path 1611" d="M10.479,6.959a1.479,1.479,0,1,1,1.479-1.479A1.481,1.481,0,0,1,10.479,6.959Z" transform="translate(4.315 1.918)" fill="#f8ff35"/>
    <path id="Path_1612" data-name="Path 1612" d="M14.479,11.959a1.479,1.479,0,1,1,1.479-1.479A1.481,1.481,0,0,1,14.479,11.959Z" transform="translate(6.232 4.314)" fill="#f8ff35"/>
  </g>
</svg>
