<svg xmlns="http://www.w3.org/2000/svg" width="34.308" height="34.308" viewBox="0 0 34.308 34.308">
  <g id="technology" transform="translate(0)">
    <path id="Path_1613" data-name="Path 1613" d="M30.623,15.434H30.31V13.156A13.156,13.156,0,1,0,4,13.156v2.278H3.685A3.69,3.69,0,0,0,0,19.12v5.763a3.689,3.689,0,0,0,3.685,3.685L4,28.591v5.718H21.733v-1.72a4.578,4.578,0,0,0-9.147-.29H6.009v-3.73H7.885V17.444h2.144V13.156a7.125,7.125,0,0,1,14.25,0v4.289h2.144V28.568h4.2a3.689,3.689,0,0,0,3.685-3.685V19.12a3.69,3.69,0,0,0-3.685-3.685ZM17.154,30.02A2.572,2.572,0,0,1,19.707,32.3H14.6A2.572,2.572,0,0,1,17.154,30.02ZM5.875,26.558H3.685A1.677,1.677,0,0,1,2.01,24.882V19.12a1.678,1.678,0,0,1,1.675-1.675H5.875ZM28.3,15.434H26.29V13.156a9.135,9.135,0,0,0-18.271,0v2.278H6.009V13.156a11.146,11.146,0,0,1,22.291,0Zm4,9.448a1.677,1.677,0,0,1-1.675,1.675H28.434V17.444h2.189A1.677,1.677,0,0,1,32.3,19.12Z" transform="translate(0)" fill="#f8ff35"/>
  </g>
</svg>
