<svg xmlns="http://www.w3.org/2000/svg" width="40.171" height="31.125" viewBox="0 0 40.171 31.125">
  <g id="XMLID_1321_" transform="translate(0 -57.647)">
    <g id="XMLID_396_" transform="translate(0 57.647)">
      <path id="XMLID_429_" d="M39.919,68.226l-1.046-1.812a.785.785,0,1,0-1.359.785L38.56,69.01a.306.306,0,0,1-.112.418l-2.767,1.6a.307.307,0,0,1-.418-.112L29.7,61.273a.307.307,0,0,1,.112-.418l2.767-1.6a.307.307,0,0,1,.418.112l.989,1.714a.785.785,0,0,0,1.359-.785l-.989-1.714A1.877,1.877,0,0,0,31.79,57.9l-2.767,1.6a1.869,1.869,0,0,0-.848,1.054H20.331a4.1,4.1,0,0,0-2.916,1.208l-.8.8a9.282,9.282,0,0,0-2.153-.254H12.024a1.87,1.87,0,0,0-.877-1.154l-2.767-1.6a1.875,1.875,0,0,0-2.562.686L.252,69.883a1.875,1.875,0,0,0,.686,2.562l2.767,1.6a1.864,1.864,0,0,0,.934.251,1.888,1.888,0,0,0,.344-.032l2.265,2.265a2.854,2.854,0,0,0-.053.546,2.819,2.819,0,0,0,2.666,2.816,2.866,2.866,0,0,0-.016.3,2.823,2.823,0,0,0,2.822,2.822l.061,0c0,.02,0,.041,0,.061a2.822,2.822,0,0,0,2.822,2.822h.061c0,.02,0,.041,0,.061a2.822,2.822,0,0,0,4.818,2l1.116-1.116a2.8,2.8,0,0,0,.689-1.129A2.825,2.825,0,0,0,26.6,84.267a2.824,2.824,0,0,0,4.3-1.8A2.823,2.823,0,0,0,33.8,77.8l-1.831-1.831,3.342-3.342a1.894,1.894,0,0,0,.224.014,1.864,1.864,0,0,0,.934-.251l2.767-1.6a1.875,1.875,0,0,0,.687-2.562Zm-38.2,2.86a.306.306,0,0,1-.112-.418l5.566-9.641a.3.3,0,0,1,.186-.143.314.314,0,0,1,.08-.01.3.3,0,0,1,.152.041l2.767,1.6a.307.307,0,0,1,.112.418L4.908,72.571a.307.307,0,0,1-.418.112Zm7.043,5.986a1.245,1.245,0,0,1,.367-.886l.677-.677a1.253,1.253,0,1,1,1.773,1.772l-.677.677a1.253,1.253,0,0,1-2.14-.886Zm3.9,4.368a1.253,1.253,0,0,1-.886-2.14L12.9,78.183a1.253,1.253,0,1,1,1.773,1.772l-1.116,1.116A1.245,1.245,0,0,1,12.669,81.439Zm2.882,2.882a1.253,1.253,0,0,1-.886-2.14l1.116-1.116a1.253,1.253,0,1,1,1.773,1.773l-1.116,1.116A1.245,1.245,0,0,1,15.551,84.321Zm4.884,1.4-1.116,1.116a1.253,1.253,0,1,1-1.772-1.773l1.116-1.116a1.253,1.253,0,1,1,1.773,1.772Zm12.251-5.042a1.253,1.253,0,0,1-1.773,0l-7.489-7.489a.785.785,0,0,0-1.11,1.11l6.716,6.716a1.253,1.253,0,1,1-1.772,1.773l-8.07-8.07a.785.785,0,0,0-1.11,1.11l6.716,6.716a1.253,1.253,0,1,1-1.773,1.772l-1.477-1.477-.006-.006a2.814,2.814,0,0,0-2.051-.818c0-.021,0-.042,0-.062a2.819,2.819,0,0,0-2.884-2.82c0-.021,0-.042,0-.062a2.821,2.821,0,0,0-3.092-2.808A2.822,2.822,0,0,0,8.7,74.4l-.677.677,0,0L6.278,73.336l5.462-9.46h2.719a7.7,7.7,0,0,1,.8.042l-.9.9a2.823,2.823,0,0,0,3.992,3.992l2.118-2.118L32.686,78.905a1.255,1.255,0,0,1,0,1.772Zm-7.538-11.53a4.452,4.452,0,0,0,1.842-3.608.785.785,0,0,0-1.569,0,2.883,2.883,0,0,1-1.405,2.476l-2.988-2.988a.784.784,0,0,0-1.109-.008L17.241,67.7a1.253,1.253,0,1,1-1.773-1.773l3.057-3.057a2.537,2.537,0,0,1,1.806-.748h8.041L33.9,71.7c.013.023.027.044.041.066l-3.09,3.09Z" transform="translate(0 -57.647)" fill="#f8ff35"/>
      <path id="XMLID_436_" d="M454.893,126.585a.586.586,0,1,0-.414-.172A.591.591,0,0,0,454.893,126.585Z" transform="translate(-417.516 -120.026)" fill="#f8ff35"/>
    </g>
  </g>
</svg>
