<svg xmlns="http://www.w3.org/2000/svg" width="28.809" height="36.915" viewBox="0 0 28.809 36.915">
  <g id="card" transform="translate(-56.215)">
    <g id="Group_307" data-name="Group 307" transform="translate(60.268 28.288)">
      <g id="Group_306" data-name="Group 306">
        <path id="Path_1614" data-name="Path 1614" d="M114.263,392.353h-1.105a.724.724,0,0,0-.724.724v4.58a.724.724,0,1,0,1.448,0v-1.646h.381a1.829,1.829,0,1,0,0-3.658Zm0,2.21h-.381V393.8h.381a.381.381,0,1,1,0,.763Z" transform="translate(-112.434 -392.353)" fill="#f8ff35"/>
      </g>
    </g>
    <g id="Group_309" data-name="Group 309" transform="translate(64.529 28.288)">
      <g id="Group_308" data-name="Group 308">
        <path id="Path_1615" data-name="Path 1615" d="M173.86,395.942a1.829,1.829,0,0,0-.5-3.589h-1.105a.724.724,0,0,0-.724.724v4.58a.724.724,0,1,0,1.448,0v-.533l.957,1.026a.724.724,0,0,0,1.059-.988Zm-.5-1.379h-.381V393.8h.381a.381.381,0,1,1,0,.763Z" transform="translate(-171.535 -392.353)" fill="#f8ff35"/>
      </g>
    </g>
    <g id="Group_311" data-name="Group 311" transform="translate(68.791 28.288)">
      <g id="Group_310" data-name="Group 310">
        <path id="Path_1616" data-name="Path 1616" d="M233.57,396.091a.724.724,0,0,0,0-1.448h-1.487V393.8h1.487a.724.724,0,1,0,0-1.448H231.36a.724.724,0,0,0-.724.724v4.58a.724.724,0,0,0,.724.724h2.211a.724.724,0,0,0,0-1.448h-1.487v-.843Z" transform="translate(-230.636 -392.353)" fill="#f8ff35"/>
      </g>
    </g>
    <g id="Group_313" data-name="Group 313" transform="translate(73.052 28.337)">
      <g id="Group_312" data-name="Group 312">
        <path id="Path_1617" data-name="Path 1617" d="M291.566,395.246a.381.381,0,1,1,.351-.529.724.724,0,1,0,1.333-.564,1.829,1.829,0,1,0-1.684,2.541.381.381,0,1,1-.362.5.724.724,0,0,0-1.373.458,1.829,1.829,0,1,0,1.736-2.408Z" transform="translate(-289.737 -393.036)" fill="#f8ff35"/>
      </g>
    </g>
    <g id="Group_315" data-name="Group 315" transform="translate(77.313 28.337)">
      <g id="Group_314" data-name="Group 314">
        <path id="Path_1618" data-name="Path 1618" d="M350.666,395.247a.381.381,0,1,1,.352-.529.724.724,0,1,0,1.333-.564,1.829,1.829,0,1,0-1.685,2.541.381.381,0,1,1-.361.5.724.724,0,0,0-1.373.458,1.829,1.829,0,1,0,1.735-2.408Z" transform="translate(-348.838 -393.037)" fill="#f8ff35"/>
      </g>
    </g>
    <g id="Group_317" data-name="Group 317" transform="translate(56.215)">
      <g id="Group_316" data-name="Group 316">
        <path id="Path_1619" data-name="Path 1619" d="M80.074,3.207H73.387V2.768a2.768,2.768,0,1,0-5.536,0v.439H61.164a4.955,4.955,0,0,0-4.949,4.949V31.965a4.955,4.955,0,0,0,4.949,4.949h18.91a4.955,4.955,0,0,0,4.949-4.949V8.156A4.955,4.955,0,0,0,80.074,3.207ZM69.3,2.768a1.32,1.32,0,1,1,2.641,0V5.722H69.3V2.768Zm-.724,4.4h5.911V8.493H66.753V7.17Zm15,24.8a3.506,3.506,0,0,1-3.5,3.5H61.164a3.506,3.506,0,0,1-3.5-3.5V8.156a3.506,3.506,0,0,1,3.5-3.5h6.687V5.722H66.029a.724.724,0,0,0-.724.724v2.77a.724.724,0,0,0,.724.724H75.21a.724.724,0,0,0,.724-.724V6.446a.724.724,0,0,0-.724-.724H73.387V4.654h6.687a3.506,3.506,0,0,1,3.5,3.5V31.965Z" transform="translate(-56.215 0)" fill="#f8ff35"/>
      </g>
    </g>
    <g id="Group_319" data-name="Group 319" transform="translate(65.39 13.641)">
      <g id="Group_318" data-name="Group 318">
        <path id="Path_1620" data-name="Path 1620" d="M190.924,194.409a3.081,3.081,0,1,0-4.445,0,5.236,5.236,0,0,0-3.007,4.732.724.724,0,0,0,.724.724h9.011a.724.724,0,0,0,.724-.724A5.236,5.236,0,0,0,190.924,194.409Zm-2.223-3.764a1.633,1.633,0,1,1-1.634,1.633A1.635,1.635,0,0,1,188.7,190.646Zm-3.712,7.772a3.782,3.782,0,0,1,7.425,0Z" transform="translate(-183.472 -189.198)" fill="#f8ff35"/>
      </g>
    </g>
    <g id="Group_321" data-name="Group 321" transform="translate(61.557 11.087)">
      <g id="Group_320" data-name="Group 320">
        <path id="Path_1621" data-name="Path 1621" d="M147.706,153.781H131.028a.724.724,0,0,0-.724.724V169.04a.724.724,0,0,0,.724.724h16.678a.724.724,0,0,0,.724-.724V154.5A.724.724,0,0,0,147.706,153.781Zm-.724,14.536H131.752V155.229h15.23v13.088Z" transform="translate(-130.304 -153.781)" fill="#f8ff35"/>
      </g>
    </g>
    <g id="Group_323" data-name="Group 323" transform="translate(80.97 13.439)">
      <g id="Group_322" data-name="Group 322">
        <path id="Path_1622" data-name="Path 1622" d="M400.29,186.4a.724.724,0,0,0-.724.724v4.439a.724.724,0,0,0,1.448,0v-4.439A.724.724,0,0,0,400.29,186.4Z" transform="translate(-399.566 -186.398)" fill="#f8ff35"/>
      </g>
    </g>
    <g id="Group_325" data-name="Group 325" transform="translate(80.995 11.352)">
      <g id="Group_324" data-name="Group 324">
        <path id="Path_1623" data-name="Path 1623" d="M400.607,157.455a.724.724,0,0,0,0,1.448A.724.724,0,0,0,400.607,157.455Z" transform="translate(-399.908 -157.455)" fill="#f8ff35"/>
      </g>
    </g>
  </g>
</svg>
