<svg xmlns="http://www.w3.org/2000/svg" width="36.203" height="32.526" viewBox="0 0 36.203 32.526">
  <g id="negotiating" transform="translate(0 0)">
    <path id="Path_1624" data-name="Path 1624" d="M246.533,100a.533.533,0,1,0,.533.533A.533.533,0,0,0,246.533,100Zm0,0" transform="translate(-228.431 -92.85)" fill="#f8ff35"/>
    <path id="Path_1625" data-name="Path 1625" d="M80.533,261.065a.533.533,0,1,0-.533-.533A.533.533,0,0,0,80.533,261.065Zm0,0" transform="translate(-75.739 -241.41)" fill="#f8ff35"/>
    <path id="Path_1626" data-name="Path 1626" d="M23.758,0c-6.366,0-11.59,4.389-11.994,9.917C5.7,10.221,0,14.592,0,20.505a9.88,9.88,0,0,0,2.758,6.762,4.3,4.3,0,0,1-1.136,4.051.707.707,0,0,0,.5,1.207,7.8,7.8,0,0,0,5.4-2.184,16.113,16.113,0,0,0,4.919.77c6.365,0,11.589-4.388,11.994-9.915a15.9,15.9,0,0,0,4.239-.754,7.8,7.8,0,0,0,5.4,2.184.707.707,0,0,0,.5-1.207,4.3,4.3,0,0,1-1.136-4.051A9.88,9.88,0,0,0,36.2,10.606C36.2,4.462,30.062,0,23.758,0ZM12.445,29.7A14.294,14.294,0,0,1,7.6,28.863a.707.707,0,0,0-.783.18,6.38,6.38,0,0,1-3.173,1.883,5.718,5.718,0,0,0,.431-4.209.706.706,0,0,0-.173-.3,8.5,8.5,0,0,1-2.488-5.913c0-4.983,5.051-9.192,11.03-9.192,5.646,0,10.606,3.926,10.606,9.192,0,5.069-4.758,9.192-10.606,9.192ZM32.3,16.519a.709.709,0,0,0-.173.3,5.718,5.718,0,0,0,.431,4.209,6.378,6.378,0,0,1-3.173-1.883.708.708,0,0,0-.783-.18,13.929,13.929,0,0,1-4.166.817,10.121,10.121,0,0,0-3.821-7.053h9.223a.707.707,0,0,0,0-1.414h-11.4a13.187,13.187,0,0,0-5.262-1.393c.406-4.749,4.995-8.506,10.577-8.506,5.979,0,11.03,4.209,11.03,9.192A8.5,8.5,0,0,1,32.3,16.519Zm0,0" transform="translate(0 0)" fill="#f8ff35"/>
    <path id="Path_1627" data-name="Path 1627" d="M127.243,260h-6.711a.533.533,0,1,0,0,1.065h6.711a.533.533,0,1,0,0-1.065Zm0,0" transform="translate(-110.68 -241.41)" fill="#f8ff35"/>
    <path id="Path_1628" data-name="Path 1628" d="M89.374,320H80.533a.533.533,0,1,0,0,1.065h8.841a.533.533,0,1,0,0-1.065Zm0,0" transform="translate(-73.547 -297.12)" fill="#f8ff35"/>
    <path id="Path_1629" data-name="Path 1629" d="M293.243,100h-6.711a.533.533,0,0,0,0,1.065h6.711a.533.533,0,0,0,0-1.065Zm0,0" transform="translate(-263.787 -92.85)" fill="#f8ff35"/>
  </g>
</svg>
