<svg xmlns="http://www.w3.org/2000/svg" width="34.399" height="31.057" viewBox="0 0 34.399 31.057">
  <g id="files-and-folders" transform="translate(0.001)">
    <path id="Path_1630" data-name="Path 1630" d="M30.771,0H8.527a3.488,3.488,0,0,0-3.5,3.462L4.883,23.049H.542a.565.565,0,0,0-.543.58v2.7a4.723,4.723,0,0,0,4.457,4.7v.032H23.188v-.036c.139.006.224.036.319.036h.013A4.709,4.709,0,0,0,28.2,26.324V9.192h5.655a.571.571,0,0,0,.543-.586V3.66A3.654,3.654,0,0,0,30.771,0ZM4.7,29.943h0a3.61,3.61,0,0,1-3.582-3.619V24.163H18.8v2.151a4.715,4.715,0,0,0,1.376,3.346,2,2,0,0,1,.293.283Zm22.387-3.62a3.6,3.6,0,0,1-3.568,3.62h-.011a3.619,3.619,0,0,1-3.593-3.628V23.629a.577.577,0,0,0-.557-.58H6L6.141,3.466A2.373,2.373,0,0,1,8.527,1.114H28.141a3.8,3.8,0,0,0-1.054,2.561Zm6.2-22.653V8.078H28.2v-4.4a2.58,2.58,0,0,1,2.554-2.56h.016a2.539,2.539,0,0,1,2.514,2.551Zm0,0" transform="translate(0)" fill="#f8ff35"/>
    <path id="Path_1631" data-name="Path 1631" d="M164.727,63.556l2.872,1.964a.548.548,0,0,0,.623,0l2.863-1.963a4.327,4.327,0,0,0,1.729-3.3V56.283a.544.544,0,0,0-.3-.5l-4.373-2.151a.547.547,0,0,0-.487,0l-4.365,2.145a.544.544,0,0,0-.3.5v3.979A4.327,4.327,0,0,0,164.727,63.556Zm-.617-6.931,3.8-1.873,3.8,1.878v3.626a3.21,3.21,0,0,1-1.244,2.38L167.9,64.384l-2.548-1.749a3.209,3.209,0,0,1-1.241-2.38Zm0,0" transform="translate(-151.646 -49.844)" fill="#f8ff35"/>
    <path id="Path_1632" data-name="Path 1632" d="M202.824,119.3a.556.556,0,0,0,.394.167h0a.558.558,0,0,0,.394-.165l2.216-2.217a.557.557,0,0,0-.788-.789l-1.82,1.82-.728-.735a.557.557,0,1,0-.792.785Zm0,0" transform="translate(-187.508 -108.043)" fill="#f8ff35"/>
    <path id="Path_1633" data-name="Path 1633" d="M146.927,248h-13.37a.557.557,0,1,0,0,1.114h13.37a.557.557,0,1,0,0-1.114Zm0,0" transform="translate(-123.739 -230.731)" fill="#f8ff35"/>
    <path id="Path_1634" data-name="Path 1634" d="M146.927,285h-13.37a.557.557,0,0,0,0,1.114h13.37a.557.557,0,0,0,0-1.114Zm0,0" transform="translate(-123.739 -265.154)" fill="#f8ff35"/>
  </g>
</svg>
