<svg xmlns="http://www.w3.org/2000/svg" width="128.553" height="22.45" viewBox="0 0 128.553 22.45"><defs><style>.a{isolation:isolate;}.b{fill:#fff;}</style></defs><g class="a" transform="translate(-131.354 -11.432)"><path class="b" d="M250.058,21.541l-1.126-.6c-1.325-.705-2.353-1.262-2.353-2.453,0-1.337,1.268-1.908,2.684-1.908a9.929,9.929,0,0,1,3.659.742V14.5a12.741,12.741,0,0,0-3.947-.507c-3.692,0-5.679,2.18-5.679,4.665s2.014,3.757,3.69,4.649l1.213.645c1.388.74,2.408,1.321,2.408,2.6,0,1.461-1.412,2.151-2.821,2.151a8.157,8.157,0,0,1-4.116-1.015l-.815,2.5a10.82,10.82,0,0,0,4.986,1.123c3.461,0,6.048-2.027,6.048-5.027,0-2.129-1.449-3.477-3.831-4.745m-16.771.469h-2.01V16.724h2.01c2.653,0,3.118,1.719,3.118,2.618,0,1.052-.533,2.669-3.118,2.669M236.4,24.1v-.107a4.846,4.846,0,0,0,3.088-4.633c0-2.256-1.455-5.151-6.119-5.151h-5.089V31.1h3v-6.58h1.078c1.556,0,1.95.566,2.921,2.31l2.413,4.27h3.459l-2.794-4.928c-.919-1.646-1.626-1.981-1.956-2.077m-69.761-2.089h-2.009V16.724h2.009c2.655,0,3.117,1.719,3.117,2.618,0,1.052-.532,2.669-3.117,2.669m3.111,2.089v-.107a4.844,4.844,0,0,0,3.088-4.633c0-2.256-1.456-5.151-6.12-5.151h-5.091V31.1h3v-6.58h1.079c1.553,0,1.947.566,2.918,2.31l2.414,4.27H174.5L171.7,26.176c-.917-1.646-1.624-1.981-1.955-2.077m33.277.328H205.6v3.786a5.317,5.317,0,0,1-2.453.512c-3.572,0-5.345-2.386-5.345-6.031,0-3.593,1.8-6.108,5.452-6.108a7.322,7.322,0,0,1,3.827,1.14l.845-2.591a10.882,10.882,0,0,0-4.9-1.141c-5.159,0-8.443,3.773-8.443,8.907,0,4.849,2.9,8.415,8.337,8.415a12.425,12.425,0,0,0,5.722-1.359V21.986h-4.821l-.8,2.441Zm13.565-.682h6.477V21.233h-6.477V16.721h6.5l.821-2.513h-10.4V31.1h10.426V28.592h-7.349V23.746Zm-32.861,4.98c-3.068,0-4.668-2.233-4.668-6.056,0-3.85,1.6-6.082,4.668-6.082,3.143,0,4.667,2.335,4.667,6.082,0,3.824-1.623,6.056-4.667,6.056m0-14.731c-4.905,0-7.887,3.542-7.887,8.675,0,5.184,3.009,8.649,7.887,8.649,4.829,0,7.886-3.465,7.886-8.649,0-5.107-2.981-8.675-7.886-8.675M259.5,29.228l-.554,1.441h-.008l-.56-1.441h-.409V31.1h.254V29.535h.007l.617,1.569h.172l.618-1.569h.007V31.1h.262V29.228H259.5Zm-3.3.231h.6V31.1h.26V29.459h.6v-.231H256.2ZM149.427,21.882a7.114,7.114,0,0,0,1.286-4.117c0-3.277-3.067-6.333-8.149-6.333a11.146,11.146,0,0,0-7.272,2.685,11.05,11.05,0,0,1,3.445-.539c3.9,0,8.473,3.077,10.689,8.3m-13.7,1.551a7.11,7.11,0,0,0-1.286,4.116c0,3.277,3.067,6.333,8.149,6.333a11.147,11.147,0,0,0,7.27-2.684,11.04,11.04,0,0,1-3.444.538c-3.9,0-8.473-3.075-10.689-8.3m6.072-7.623a7.1,7.1,0,0,0-4.116-1.288c-3.276,0-6.333,3.067-6.333,8.15a11.143,11.143,0,0,0,2.684,7.269A11.033,11.033,0,0,1,133.5,26.5c0-3.9,3.075-8.472,8.3-10.687m9.855,3.007c0,3.9-3.075,8.473-8.3,10.689a7.115,7.115,0,0,0,4.117,1.288c3.277,0,6.333-3.067,6.333-8.149a11.154,11.154,0,0,0-2.684-7.272,11.07,11.07,0,0,1,.538,3.444"/></g></svg>