<svg xmlns="http://www.w3.org/2000/svg" width="110.19" height="29.434" viewBox="0 0 110.19 29.434"><defs><style>.a{isolation:isolate;}.b,.c{fill:#fff;}.c{fill-rule:evenodd;}</style></defs><g class="a" transform="translate(-67.633 -22.504)"><path class="b" d="M14.616,286.732H28.77v4.307H24.71v10.352h-5.9V291.039h-4.2Z" transform="translate(104.414 -256.814)"/><path class="b" d="M114.279,292.655l-2.98,8.736h-5.664l5.555-14.659h6.151l5.689,14.659H117.3Z" transform="translate(26.073 -256.814)"/><path class="b" d="M220.8,286.732h14.154v4.307H230.9v10.352H225V291.039h-4.2Z" transform="translate(-73.055 -256.814)"/><path class="b" d="M320.475,292.655l-2.981,8.736H311.83l5.557-14.659h6.149l5.687,14.659h-5.732Z" transform="translate(-151.401 -256.814)"/><path class="c" d="M117.853,32.384a13.123,13.123,0,0,0-2.09-2.969,20.523,20.523,0,0,0-7.94-5.053,32.373,32.373,0,0,0-21.615,0,20.522,20.522,0,0,0-7.942,5.053,13.139,13.139,0,0,0-2.092,2.971A91.986,91.986,0,0,1,94.356,29.87a1.6,1.6,0,0,1,1.388.566,6.718,6.718,0,0,1,.322,2.793l-.191,18.689c.378.013.758.021,1.139.021s.766-.006,1.144-.019l-.191-18.691c-.01-.723-.038-2.339.321-2.793a1.6,1.6,0,0,1,1.387-.566,91.941,91.941,0,0,1,18.177,2.514" transform="translate(-7.351)"/><path class="c" d="M271.925,99.111a78.2,78.2,0,0,0-14.4-1.885c-3.556-.2-3.6,1.072-3.247,3.5.023.148.052.335.086.548,1.193,7.064,2.678,13.143,2.933,14.174,8.668-1.981,14.919-7.475,14.919-13.928a10.307,10.307,0,0,0-.288-2.407" transform="translate(-160.521 -64.297)"/><path class="c" d="M85.575,100.724c.355-2.426.31-3.7-3.245-3.5a78.184,78.184,0,0,0-14.408,1.885,10.307,10.307,0,0,0-.289,2.406,11.452,11.452,0,0,0,3.282,7.807,20.529,20.529,0,0,0,7.942,5.054,28.654,28.654,0,0,0,3.7,1.078c.24-.967,1.759-7.172,2.965-14.362.022-.138.043-.265.057-.37" transform="translate(0 -64.297)"/></g></svg>