<svg xmlns="http://www.w3.org/2000/svg" width="107.264" height="19" viewBox="0 0 107.264 19"><defs><style>.a{isolation:isolate;}.b{fill:#fff;fill-rule:evenodd;}</style></defs><g class="a"><path class="b" d="M614.258,14.5h4.075V0h-4.075V14.5Z" transform="translate(-517.061)"/><path class="b" d="M656.2,0V14.5H652.13V0Z" transform="translate(-548.941)"/><path class="b" d="M8.689,5.633h-3.3V0H0V14.5H5.393V7.311h3.3V14.5h5.393V0H8.689V5.633Z"/><path class="b" d="M189.569,27.36l-.33-.959H184.8V36.469h4.435V30.416h0c0-1.319.839-2.037,1.558-2.037.6,0,1.378.12,1.378,1.438h0v6.652h4.435V29.937h0c0-3.656-4.1-5.093-7.041-2.577Z" transform="translate(-155.562 -21.967)"/><path class="b" d="M367.406,33.867l-2.067-5.843h-3.026l-2.068,6.082-2.157-6.082h-5.932l-2.128,5.123-3-5.123h-5.064l5.962,10.187-.779,1.917h0c-.27.6-.916.629-1.042.06a1.865,1.865,0,0,0-3.729,0c.007,1.079,1.086,2.487,3.213,2.4a3.821,3.821,0,0,0,3.326-2.606h0l4.928-11.916L357.4,38.092h3.236l1.977-5.783,2.038,5.783h3.056l3.446-10.068h-1.767l-1.978,5.843Z" transform="translate(-287.857 -23.59)"/><path class="b" d="M104.6,24.79a5.905,5.905,0,0,0-6.143,5.635,6.167,6.167,0,0,0,12.288,0A5.906,5.906,0,0,0,104.6,24.79Zm1.529,8.271a1.528,1.528,0,1,1-3.056,0h0V27.789h0a1.528,1.528,0,0,1,3.056,0h0v5.273Z" transform="translate(-82.875 -20.867)"/><path class="b" d="M279.971,31.234a6.672,6.672,0,0,0,.049-.809,6.167,6.167,0,0,0-12.288,0,5.906,5.906,0,0,0,6.144,5.636,6.243,6.243,0,0,0,5.4-2.947h0l-1.357-.5h0a4.807,4.807,0,0,1-4.044,2.093,1.631,1.631,0,0,1-1.529-1.643h0V31.235Zm-7.623-3.445a1.528,1.528,0,0,1,3.056,0h0V29.8h-3.056V27.789Z" transform="translate(-225.368 -20.867)"/><path class="b" d="M539.384,31.234a6.55,6.55,0,0,0,.05-.809,6.167,6.167,0,0,0-12.288,0,5.906,5.906,0,0,0,6.144,5.636,6.243,6.243,0,0,0,5.4-2.947h0l-1.357-.5h0A4.808,4.808,0,0,1,533.29,34.7a1.631,1.631,0,0,1-1.528-1.643h0V31.235Zm-7.622-3.445a1.528,1.528,0,0,1,3.057,0h0V29.8h-3.057V27.789Z" transform="translate(-443.733 -20.867)"/></g></svg>