<svg xmlns="http://www.w3.org/2000/svg" width="92.614" height="32.888" viewBox="0 0 92.614 32.888"><defs><style>.a{isolation:isolate;}.b{fill:#fff;fill-rule:evenodd;}</style></defs><g class="a" transform="translate(-13.13 -13.078)"><g transform="translate(13.131 13.078)"><path class="b" d="M1569.289,460.983c-.038-.018-1.223-.392-1.521-.9,0,0,1.045-1.242,1.605.9.009.019-.047.019-.084,0Zm-.134-2.8c-1-.205-1.923,1.342-1.923,1.342s-.146-.1-.177-.09-.729.884-.835,1.027c-1.071,1.449-2.143,1.277-2.149,1.283a2.9,2.9,0,0,1-2.684-1.813c-.446-.965-.513-.9-.63-.965-.156-.092-.747-.031-1.6.7a8.089,8.089,0,0,0-1.562,2.739c-1.05,3.439-1.541,3.354-1.927,3.342s-.7-.46-1.026-1.077a8.511,8.511,0,0,1-.488-2.853c.006-.648.062-.9,0-.889s-.2.247-.236.421a8.888,8.888,0,0,0-.027,2.2c.063,1.139.8,3.268,1.815,3.274s1.435-1.5,1.527-1.747a27.451,27.451,0,0,1,1.121-3.205,2.011,2.011,0,0,1,1.918-1.265c.112.037,1.24,2.641,3.177,2.754a2.794,2.794,0,0,0,2.753-1.763,1.152,1.152,0,0,1,.368-.411c.043-.044.162.069.162.062.324.592,2.6,1.863,3.071,1.427a3.25,3.25,0,0,0,.785-1.539c.013-.211-.43-2.741-1.433-2.947Z" transform="translate(-1508.076 -444.942)"/><path class="b" d="M1202.087,284.709l-.031-.1.573-.006.252-.01a.6.6,0,0,0-.252-.308c-.113-.06-1.67-1.009-2.05-1.134-.012.006-.3,1.744-.3,1.744s.386.025.48.162a16.479,16.479,0,0,0,1.14,1.489,11.63,11.63,0,0,0,4.011,2.541,1.907,1.907,0,0,1,1.221.837s-1.035.838-1.906,1.425a68.013,68.013,0,0,1-6.024,3.526c-.056.025-1.672.764-2.077.08-.347-.585-.413-1.189.272-2.97,0,.006.2-.5.2-.5l.133-.532a6.572,6.572,0,0,0-.963,2.093c-.3.748-.7,2.716.033,3.388s1.462.432,2.791-.167c1.543-.7,6.863-3.925,7.645-4.968a2.48,2.48,0,0,0,.413-1.239c.016-.135.146-1.364-.413-1.9a4.206,4.206,0,0,0-1.344-.879A12.818,12.818,0,0,1,1202.38,285c-.007,0-.293-.287-.293-.287h0Z" transform="translate(-1161.247 -275.131)"/><path class="b" d="M1315.11,441.2l.766-1.515,1.576,1.116-.772,1.569Z" transform="translate(-1276.444 -427.014)"/><path class="b" d="M819.043,738.1l.766-1.514,1.577,1.116-.773,1.569Z" transform="translate(-795.109 -715.102)"/><path class="b" d="M903.855,727.04l.767-1.514,1.576,1.115-.772,1.57Z" transform="translate(-877.403 -704.368)"/><path class="b" d="M1578.79,361.916l.767-1.514,1.576,1.115-.772,1.57Z" transform="translate(-1532.294 -350.087)"/><path class="b" d="M1663.64,350.853l.765-1.514,1.576,1.116-.772,1.569Z" transform="translate(-1614.624 -339.353)"/><path class="b" d="M305.621,151.21l-.033-.135.836.033a.427.427,0,0,0-.132-.313c-.111-.128-1.726-1.607-1.726-1.607l-.517,1.738s.361.206.393.3a11.9,11.9,0,0,0,.542,1.377c.174.293,1.152,2.031,1.339,2.3a1.345,1.345,0,0,1,.206.7.3.3,0,0,1-.062.112,5.964,5.964,0,0,1-2.342.829l-.76.018-.714,1.383s.82.3.889.361a12.855,12.855,0,0,0,1.769.685,12.32,12.32,0,0,1,1.663.5.637.637,0,0,1,.38.474s-2.343,1.829-7.575,2.983c-.474.075-7.426,1.521-13.605-.772a18.64,18.64,0,0,1-5.108-2.741c-.2-.2-1.844-1.67-1.844-1.67l-.856-.922.4.9s2.5,3.688,2.625,3.812,2.342,2.043,7.8,3.289a31.38,31.38,0,0,0,9.294-.05c2.168-.374,7.426-1.8,9.07-3.713a6.778,6.778,0,0,0,.872-2.093,1.051,1.051,0,0,0-.7-1.046c-.3-.075-1.744-.474-1.894-.524a2.648,2.648,0,0,0,1.42-2.342,2.714,2.714,0,0,0-.324-1.719c-.075-.175-1.222-1.961-1.222-1.961l-.085-.191h0Z" transform="translate(-270.487 -145.145)"/><path class="b" d="M854.76,331.078l-.863,1.43v.044a24.026,24.026,0,0,1,2.406.114c.22.076-.006.223-.006.223s-1.777.754-2.313.951a.267.267,0,0,0-.142.142,13.9,13.9,0,0,0,2.489-.36,7.171,7.171,0,0,0,1.43-1.823c.055-.142.055-.207.011-.24s-.306-.5-1.551-.524a7.27,7.27,0,0,0-1.463.044Z" transform="translate(-828.876 -321.587)"/><path class="b" d="M549.924,27.808s-7.562,2.505-11.691,3.882-10.151,3.838-10.151,3.838l-.868,1.5s10.315-3.809,10.794-3.988,11.238-3.912,11.238-3.912l.677-1.315Z" transform="translate(-511.948 -27.37)"/><path class="b" d="M1263.816,15.028s-.669-.585-.767-.648a.345.345,0,0,1-.159-.27c.648-.443.915-.162,1,.033A1.312,1.312,0,0,1,1263.816,15.028Zm.314.187c.713-1.61.153-1.962.01-2.056a.471.471,0,0,0-.265-.08,1.622,1.622,0,0,0-.87.437,1.272,1.272,0,0,0-.594,1.221c.06.477.869.991,1,1.07l.017.011.022.012a16.058,16.058,0,0,1-3.139,2.714c-.892.59-3.3,2.244-3.3,2.244s.545-.2.621-.256c.335-.156,1.887-1.03,3.194-1.787A13.252,13.252,0,0,0,1263.664,16s.076.054.087.043c.27.118.562.7.562.7s0,.065.087-.054a3.393,3.393,0,0,0,.162-.962c0-.173-.432-.516-.432-.516h0Z" transform="translate(-1220.068 -13.078)"/><path class="b" d="M1574.85,29.487s-.669-.585-.767-.649a.345.345,0,0,1-.159-.27c.648-.443.914-.162,1,.033a1.314,1.314,0,0,1-.075.886Zm.313.187c.713-1.61.153-1.962.01-2.056-.334-.222-.754.057-1.135.356a1.272,1.272,0,0,0-.594,1.221c.06.477.869.991,1,1.07l.017.011.021.013A16.085,16.085,0,0,1,1571.343,33c-.892.59-3.3,2.244-3.3,2.244s.545-.2.62-.256c.335-.156,1.887-1.031,3.195-1.787a13.245,13.245,0,0,0,2.841-2.744s.075.054.087.043c.27.119.562.7.562.7s0,.065.086-.054a3.356,3.356,0,0,0,.162-.961c0-.173-.432-.516-.432-.516Z" transform="translate(-1521.865 -27.108)"/><path class="b" d="M2529.7,172.606s-.535-.468-.614-.519a.276.276,0,0,1-.127-.216c.519-.354.732-.13.8.026A1.051,1.051,0,0,1,2529.7,172.606Zm.251.15c.571-1.288.122-1.57.008-1.645-.267-.178-.6.046-.908.285a1.019,1.019,0,0,0-.476.977c.048.382.7.793.8.856l.014.008.018.01a12.862,12.862,0,0,1-2.511,2.171c-.715.472-2.641,1.795-2.641,1.795s.436-.161.5-.2c.268-.125,1.51-.825,2.555-1.43a10.591,10.591,0,0,0,2.273-2.195s.06.043.07.034c.216.1.45.562.45.562s0,.052.069-.044a2.706,2.706,0,0,0,.129-.769c0-.138-.345-.412-.345-.412Z" transform="translate(-2449.679 -166.356)"/><path class="b" d="M1922.049,97.866v.2a2.267,2.267,0,0,0-.665-.345c-.008,0-.092-.039-.092-.057a4.3,4.3,0,0,1,.127-.753.536.536,0,0,1,.236-.131c.044,0,.848.319,1.218,1.8,0,0,.167.681.167.681l.049-.392s.173-1.632.206-1.786c.044-.209.2-.575.462-.579s.716.43.716.43l-.227.6s-.365-.328-.509-.338c-.3-.02-.359.482-.438,1.34a4.138,4.138,0,0,1-.188,1.182,1.725,1.725,0,0,1-.118.228,4.391,4.391,0,0,0-.929-2.092l-.013.017h0Z" transform="translate(-1864.623 -94.026)"/><path class="b" d="M2372.289,230.939v.2a2.264,2.264,0,0,0-.665-.345c-.009,0-.092-.039-.092-.057a4.271,4.271,0,0,1,.127-.753.543.543,0,0,1,.236-.132c.044,0,.848.319,1.218,1.8,0,0,.167.68.167.68l.048-.392s.174-1.633.206-1.786c.044-.209.2-.575.461-.579s.717.43.717.43l-.227.6s-.365-.328-.509-.338c-.3-.02-.359.482-.438,1.34a4.135,4.135,0,0,1-.188,1.182,1.722,1.722,0,0,1-.119.228,4.385,4.385,0,0,0-.929-2.092Z" transform="translate(-2301.493 -223.145)"/><path class="b" d="M1927.323,356.995a.591.591,0,0,0-.213.138,4.817,4.817,0,0,0-.8,1.777c-.276,1.126.351,1.327.351,1.327s.4.188.762-.71a1.482,1.482,0,0,0,.127-.451s-.005-.122-.1-.035c-.182.16-.149.365-.215.439-.121.139-.127.122-.167.133s-.627-.007-.442-.9a8.267,8.267,0,0,1,.513-1.3C1927.136,357.4,1927.323,356.995,1927.323,356.995Z" transform="translate(-1869.425 -346.781)"/><path class="b" d="M998.1,449.275a.591.591,0,0,0-.213.138,4.8,4.8,0,0,0-.8,1.777c-.276,1.126.351,1.327.351,1.327s.4.188.763-.709a1.5,1.5,0,0,0,.127-.451s-.006-.122-.1-.035c-.182.16-.149.365-.214.44-.121.139-.127.122-.168.133s-.627-.007-.442-.9a8.289,8.289,0,0,1,.513-1.3c0-.012.188-.413.188-.413Z" transform="translate(-967.794 -436.321)"/><path class="b" d="M1792.072,205.245s-3.824,1.336-5.529,1.935-4.9,1.981-4.9,1.981l-.307.829s9.369-3.671,10.122-3.809C1791.443,206.166,1792.072,205.245,1792.072,205.245Z" transform="translate(-1728.824 -199.538)"/><path class="b" d="M1976.26,60.3a28.069,28.069,0,0,1-3.107.845s-.69-2.214-.655-2.381a1.424,1.424,0,0,1,.8-.81,3.374,3.374,0,0,1,2.417.286c.959.479,2.491,1.143,2.63,1.178s.226.06.226.06-2.078.738-2.309.822Zm-13.547.656c-.015-.013-.057-.106-.022-.143a.731.731,0,0,1,.823-.4,1.833,1.833,0,0,1,.944.763S1963.137,61.306,1962.713,60.958Zm19.15-2.236a15.972,15.972,0,0,1-4.675-1.6c-2.111-1.093-3.214-.8-3.243-.792-2.055.519-2.092,2.809-2.074,3.111s.387,1.669.387,1.669-.175-.049-.2-.049a6.437,6.437,0,0,1-2.641-2.516,36.932,36.932,0,0,0-4.186-5.183c-.249-.274-2.542-2.417-2.542-2.417l1.371-.723a47.6,47.6,0,0,1,10.39-3.239c1.463-.2,1.271.8,1.2.9s-.764,1.3-.864,1.445-.989,1.942-1.18,2.492c-.3.864-.183,1.08-.183,1.08s.283-.557.283-.581a37.308,37.308,0,0,1,1.893-3.564,5.2,5.2,0,0,0,1.022-2.591c.06-1.2-3.165-.5-3.214-.474a51.637,51.637,0,0,0-11.039,3.937l-.5.922-.348,1.122s1.4,1.694,1.42,1.694a66.5,66.5,0,0,1,4.486,6.429c.049.183.166.365.066.481a6.939,6.939,0,0,1-1.611.681l-.125-.216c-2.118-3.838-3.788-.623-3.838-.424-.64,1.271.026,1.83.026,1.854.855,1.153,3.092.388,3.166.488a2.279,2.279,0,0,1,.2.5,12.23,12.23,0,0,1-6.573,4.009c-3.092.221-2.914-2.37-2.814-3.271a21,21,0,0,1,.714-2.716l-.288.276s-.038.08-.137.254a9.235,9.235,0,0,0-.864,3.338c-.051,4.518,3.589,4.445,6.458,2.466,2.952-2.036,3.374-2.759,3.743-3.317a6.307,6.307,0,0,0,.443-1.822l1.131-.5a2.563,2.563,0,0,0,.83-1.687,3.189,3.189,0,0,0-.207-1.772l.018-.17a30.253,30.253,0,0,0,2.121,3.035,3.44,3.44,0,0,0,2.8,1.546l.1,1.084.122-.037s.047-.01.161-.273a3.449,3.449,0,0,0,.136-.868s.373-.093.382-.084c1.412-.232,5.112-2.132,6.562-2.392a5.71,5.71,0,0,1,1.528.016l.72-1.509a2.08,2.08,0,0,1-.533-.037h0Zm.537.028,0,.009C1982.407,58.754,1982.4,58.749,1982.4,58.749Z" transform="translate(-1897.666 -44.494)"/><path class="b" d="M17.333,931.674a1.88,1.88,0,0,0-2.282.4,2.357,2.357,0,0,0-.454.769,3.09,3.09,0,0,0-.173,1.085,2.834,2.834,0,0,0,.13.877,2.107,2.107,0,0,0,.374.7,1.712,1.712,0,0,0,.6.461,1.892,1.892,0,0,0,.811.165c.069,0,.147,0,.233-.011s.17-.017.252-.028a1.6,1.6,0,0,0,.225-.044.5.5,0,0,0,.149-.059,2.141,2.141,0,0,0,.018-.238c0-.094,0-.2,0-.316q0-.64-.022-.944t-.029-.416q.08.016.209.028c.086.007.211.011.375.011.189,0,.331,0,.422-.011a2.092,2.092,0,0,0,.217-.028,1.494,1.494,0,0,0-.027.206c-.008.094-.014.2-.019.327s-.009.255-.013.4,0,.272,0,.4v.261c0,.131,0,.254,0,.367a1.668,1.668,0,0,0,.017.241,8.885,8.885,0,0,1-1.052.237,6.538,6.538,0,0,1-1.052.087,4.188,4.188,0,0,1-1.25-.178,2.832,2.832,0,0,1-.986-.521,2.414,2.414,0,0,1-.646-.829,2.508,2.508,0,0,1-.232-1.094,3.236,3.236,0,0,1,.248-1.314,2.588,2.588,0,0,1,.686-.939,2.928,2.928,0,0,1,1.038-.565,4.278,4.278,0,0,1,1.294-.19,3.855,3.855,0,0,1,1.037.123,4.207,4.207,0,0,1,.864.354c-.042.136-.083.27-.121.4a4.038,4.038,0,0,0-.1.4h-.111a1.964,1.964,0,0,0-.632-.572h0Z" transform="translate(-13.131 -903.705)"/><path class="b" d="M221.262,932.709a2.1,2.1,0,0,0-.351-.691,1.548,1.548,0,0,0-.545-.438,1.583,1.583,0,0,0-.7-.154,1.377,1.377,0,0,0-.722.193,1.716,1.716,0,0,0-.54.526,2.485,2.485,0,0,0-.334.777,3.82,3.82,0,0,0-.115.951,3.613,3.613,0,0,0,.135,1.066,1.912,1.912,0,0,0,.362.7,1.352,1.352,0,0,0,.528.382,1.7,1.7,0,0,0,.632.118,1.582,1.582,0,0,0,.678-.15,1.537,1.537,0,0,0,.564-.458,2.421,2.421,0,0,0,.386-.782,3.8,3.8,0,0,0,.146-1.121A3.114,3.114,0,0,0,221.262,932.709Zm-4.382-.006a2.736,2.736,0,0,1,.611-.9,2.836,2.836,0,0,1,.955-.608,3.383,3.383,0,0,1,1.247-.221,3.862,3.862,0,0,1,1.175.174,2.671,2.671,0,0,1,.947.522,2.421,2.421,0,0,1,.635.88,3.1,3.1,0,0,1,.232,1.244,2.713,2.713,0,0,1-.224,1.1,2.78,2.78,0,0,1-.623.9,2.832,2.832,0,0,1-.951.6,3.332,3.332,0,0,1-1.215.213,4.326,4.326,0,0,1-1.171-.153,2.525,2.525,0,0,1-.955-.5,2.411,2.411,0,0,1-.643-.877,3.125,3.125,0,0,1-.237-1.275,2.789,2.789,0,0,1,.217-1.1Z" transform="translate(-210.619 -903.715)"/><path class="b" d="M427.944,936.385q.387-1.015.695-1.946a1.508,1.508,0,0,0,.694,0q-.2.465-.474,1.12t-.576,1.389q-.3.735-.591,1.493c-.195.5-.368.979-.521,1.421a2.912,2.912,0,0,0-.694,0l-.288-.766q-.171-.45-.363-.955t-.407-1.035q-.213-.528-.41-1.022t-.371-.92c-.115-.284-.215-.527-.3-.726.121.01.24.02.359.028s.234.012.351.012.231,0,.347-.012.231-.018.347-.028q.134.441.3.932t.351,1q.182.51.375,1.022t.375,1.011q.41-1,.8-2.017Z" transform="translate(-412.128 -907.077)"/><path class="b" d="M614.976,935.488q-.015-.51-.047-1.023.356.008.7.024c.233.011.467.016.7.016q.583,0,1.037-.012c.3-.008.506-.018.612-.028a1.434,1.434,0,0,0-.031.332,1.792,1.792,0,0,0,.008.2c0,.048.012.1.023.159-.153-.011-.32-.021-.5-.031l-.529-.032c-.17-.01-.324-.018-.461-.024s-.234-.008-.292-.008q-.033.433-.037.859c0,.284,0,.57,0,.859.342-.006.651-.013.927-.023s.564-.023.864-.039c-.016.089-.026.158-.032.205a1.345,1.345,0,0,0-.008.149.766.766,0,0,0,.012.131c.008.044.017.108.028.193q-.9-.071-1.791-.072c0,.168,0,.335,0,.5s-.005.336-.005.5q0,.512.02.984.45,0,.9-.022t.908-.073c-.01.058-.019.11-.024.158a2.56,2.56,0,0,0,0,.4.6.6,0,0,0,.024.118c-.141-.007-.317-.012-.525-.016s-.493-.005-.855-.005H615.35c-.118,0-.208,0-.267.005s-.111.009-.154.016q.031-.489.047-1t.016-1.165v-1.074q0-.656-.016-1.163h0Z" transform="translate(-597.057 -907.103)"/><path class="b" d="M752.585,935.375a.63.63,0,0,0-.217-.311.82.82,0,0,0-.379-.138,4.12,4.12,0,0,0-.556-.032q-.021,1.072-.021,2.146l.091.012c.029,0,.056,0,.083,0a1.067,1.067,0,0,0,.794-.279,1.168,1.168,0,0,0,.276-.848A1.749,1.749,0,0,0,752.585,935.375Zm-1.172,2.006v.323q0,.655.016,1.163c.01.34.025.672.046,1a1.912,1.912,0,0,0-.292-.021h-.711a1.9,1.9,0,0,0-.291.021q.031-.489.046-1t.016-1.165v-1.074q0-.656-.016-1.163t-.046-1.023c.09.01.186.02.292.028s.224.012.355.012.3-.006.486-.02.406-.02.675-.02c.2,0,.371.005.513.016a3.064,3.064,0,0,1,.367.047,1.331,1.331,0,0,1,.269.083,1.415,1.415,0,0,1,.217.122,1.284,1.284,0,0,1,.375.431,1.263,1.263,0,0,1,.138.611,1.379,1.379,0,0,1-.315.939,1.717,1.717,0,0,1-.908.513c.252.448.523.893.812,1.339s.579.886.868,1.322a3.1,3.1,0,0,0-.355-.021h-.713a3.152,3.152,0,0,0-.36.021l-1.412-2.485Z" transform="translate(-728.292 -907.08)"/><path class="b" d="M911.809,935.1q-.016-.371-.024-.655a1.577,1.577,0,0,0,.71,0q.861.955,1.7,1.878t1.726,1.88V936.75c0-.258,0-.512,0-.762s0-.48-.007-.69-.008-.392-.016-.545a2.511,2.511,0,0,0-.027-.307,1.586,1.586,0,0,0,.711,0q-.043.718-.066,1.3c-.017.387-.031.752-.042,1.094s-.018.68-.02,1.015,0,.691,0,1.07v.947a2.446,2.446,0,0,0-.323-.021,2,2,0,0,0-.308.021q-1.625-1.895-3.447-3.813c-.006.153-.012.305-.015.457s-.006.309-.006.467v.915q0,.473,0,.805c0,.222.007.408.013.561s.011.277.017.375.012.175.017.233a.868.868,0,0,0-.189-.021h-.182a3.128,3.128,0,0,0-.362.021,4.417,4.417,0,0,0,.039-.45q.024-.386.051-.943t.048-1.209q.018-.651.019-1.25c0-.364-.006-.668-.017-.917Z" transform="translate(-884.984 -907.082)"/><path class="b" d="M1107.854,938.1c-.042.588-.085,1.179-.126,1.768a.878.878,0,0,0-.189-.021h-.367a.852.852,0,0,0-.185.021q.251-1.358.45-2.7t.362-2.724l.162.028a1.009,1.009,0,0,0,.161.012.954.954,0,0,0,.15-.012c.053-.008.108-.018.166-.028q.213.473.446.963t.465.975q.233.487.465.952t.445.884q.474-.884.943-1.851t.9-1.922a1.713,1.713,0,0,0,.339.04,1.689,1.689,0,0,0,.332-.04q.079.679.17,1.46t.178,1.528q.086.746.173,1.393t.158,1.042a2.425,2.425,0,0,0-.319-.021h-.644a2.641,2.641,0,0,0-.332.021q-.04-.813-.129-1.761t-.186-1.879h-.016q-.45.931-.883,1.831t-.86,1.808c-.027-.007-.052-.012-.075-.016a.516.516,0,0,0-.075-.005.508.508,0,0,0-.075.005.756.756,0,0,0-.075.016q-.426-.884-.848-1.768t-.872-1.792h-.016C1107.959,936.908,1107.9,937.505,1107.854,938.1Z" transform="translate(-1074.502 -907.078)"/><path class="b" d="M1352.884,935.488q-.016-.51-.046-1.023c.236.005.472.013.7.024s.467.016.7.016q.583,0,1.037-.012c.3-.008.507-.018.612-.028a1.394,1.394,0,0,0-.032.332,1.905,1.905,0,0,0,.008.2c.006.048.013.1.024.159q-.229-.016-.5-.031l-.528-.032c-.172-.01-.325-.018-.462-.024s-.234-.008-.292-.008c-.022.289-.033.575-.037.859s0,.57,0,.859c.341-.006.65-.013.927-.023s.565-.023.864-.039q-.024.134-.032.205a1.212,1.212,0,0,0-.008.149.776.776,0,0,0,.011.131c.008.044.017.108.028.193q-.9-.071-1.791-.072c0,.168,0,.335-.005.5s-.005.336-.005.5q0,.512.021.984.449,0,.9-.022t.908-.073c-.01.058-.019.11-.024.158a2.54,2.54,0,0,0,0,.4.628.628,0,0,0,.024.118q-.213-.01-.525-.016c-.207,0-.493-.005-.856-.005h-1.248c-.119,0-.208,0-.267.005s-.112.009-.153.016q.03-.489.046-1t.016-1.165v-1.074q0-.656-.016-1.163Z" transform="translate(-1313.052 -907.103)"/><path class="b" d="M1487.4,935.1q-.017-.371-.024-.655a1.578,1.578,0,0,0,.711,0q.86.955,1.7,1.878t1.726,1.88V936.75c0-.258,0-.512,0-.762s-.005-.48-.008-.69-.006-.392-.015-.545a2.809,2.809,0,0,0-.027-.307,1.58,1.58,0,0,0,.71,0q-.04.718-.066,1.3c-.017.387-.031.752-.041,1.094s-.019.68-.022,1.015,0,.691,0,1.07v.947a2.455,2.455,0,0,0-.324-.021,2.008,2.008,0,0,0-.308.021q-1.624-1.895-3.447-3.813c-.007.153-.012.305-.016.457s0,.309,0,.467v.915c0,.316,0,.584,0,.805s.007.408.013.561.012.277.017.375.012.175.017.233a.861.861,0,0,0-.189-.021h-.181a3.135,3.135,0,0,0-.362.021,4.424,4.424,0,0,0,.039-.45q.024-.386.052-.943c.017-.372.034-.774.047-1.209s.02-.851.02-1.25c0-.364-.006-.668-.017-.917Z" transform="translate(-1443.479 -907.082)"/><path class="b" d="M1680.334,935.33a1.92,1.92,0,0,0-.019-.276c-.079,0-.176,0-.292.009s-.239.011-.37.018-.266.019-.4.031-.263.027-.378.042c.011-.058.02-.116.027-.174a1.259,1.259,0,0,0,.012-.173,1.242,1.242,0,0,0-.012-.174q-.012-.087-.027-.173l.486.016c.144.006.291.01.441.013l.49.008c.177,0,.389,0,.635,0s.461,0,.637,0l.486-.008c.147,0,.291-.006.43-.013l.453-.016c-.01.058-.02.116-.028.173a1.41,1.41,0,0,0-.011.174,1.385,1.385,0,0,0,.011.173c.008.059.018.117.028.174-.105-.016-.223-.029-.355-.042s-.261-.023-.39-.031-.251-.014-.367-.018-.213-.009-.292-.009a.853.853,0,0,0-.011.111c0,.047,0,.1,0,.166v2.39q0,.655.016,1.163t.046,1a1.878,1.878,0,0,0-.292-.021h-.71a1.9,1.9,0,0,0-.292.021q.031-.489.047-1t.015-1.163v-1.972c0-.153,0-.292,0-.418Z" transform="translate(-1629.402 -907.096)"/><path class="b" d="M1908.725,932.709a2.093,2.093,0,0,0-.352-.691,1.537,1.537,0,0,0-.543-.438,1.591,1.591,0,0,0-.7-.154,1.378,1.378,0,0,0-.722.193,1.714,1.714,0,0,0-.539.526,2.471,2.471,0,0,0-.336.777,3.843,3.843,0,0,0-.115.951,3.633,3.633,0,0,0,.135,1.066,1.934,1.934,0,0,0,.362.7,1.358,1.358,0,0,0,.53.382,1.685,1.685,0,0,0,.63.118,1.585,1.585,0,0,0,.678-.15,1.54,1.54,0,0,0,.564-.458,2.4,2.4,0,0,0,.386-.782,3.8,3.8,0,0,0,.146-1.121A3.1,3.1,0,0,0,1908.725,932.709Zm-4.382-.006a2.752,2.752,0,0,1,.612-.9,2.827,2.827,0,0,1,.955-.608,3.376,3.376,0,0,1,1.246-.221,3.865,3.865,0,0,1,1.175.174,2.668,2.668,0,0,1,.947.522,2.438,2.438,0,0,1,.635.88,3.09,3.09,0,0,1,.232,1.244,2.7,2.7,0,0,1-.225,1.1,2.781,2.781,0,0,1-.622.9,2.845,2.845,0,0,1-.95.6,3.345,3.345,0,0,1-1.216.213,4.321,4.321,0,0,1-1.171-.153,2.516,2.516,0,0,1-.956-.5,2.419,2.419,0,0,1-.642-.877,3.125,3.125,0,0,1-.237-1.275,2.79,2.79,0,0,1,.217-1.1Z" transform="translate(-1847.969 -903.715)"/><path class="b" d="M2135.134,935.488q-.015-.51-.046-1.023c.237.005.473.013.7.024s.466.016.7.016q.584,0,1.037-.012c.3-.008.507-.018.612-.028a1.389,1.389,0,0,0-.032.332,1.844,1.844,0,0,0,.008.2c.005.048.013.1.024.159q-.229-.016-.5-.031l-.529-.032c-.171-.01-.325-.018-.462-.024s-.234-.008-.292-.008c-.02.289-.033.575-.036.859s0,.57,0,.859c.343-.006.652-.013.928-.023s.563-.023.864-.039c-.015.089-.026.158-.032.205s-.007.1-.007.149a.72.72,0,0,0,.012.131c.007.044.016.108.027.193q-.9-.071-1.792-.072v.4q0,.656.016,1.166t.045,1a1.878,1.878,0,0,0-.292-.021h-.71a1.888,1.888,0,0,0-.292.021q.031-.489.046-1t.015-1.165v-1.074q0-.656-.015-1.163Z" transform="translate(-2072.071 -907.103)"/><path class="b" d="M2345.385,938.279v.474c0,.153,0,.293.006.419s0,.208,0,.245c.08.005.174.009.285.013s.247.007.411.007a1.761,1.761,0,0,0,1.412-.608,2.772,2.772,0,0,0,.521-1.84,2.74,2.74,0,0,0-.129-.876,1.934,1.934,0,0,0-.367-.66,1.6,1.6,0,0,0-.569-.418,1.824,1.824,0,0,0-.743-.147c-.189,0-.343,0-.462.012s-.238.017-.36.027c0,.037,0,.119,0,.245s0,.269,0,.427v2.679Zm-1.186-2.821q-.016-.51-.046-1.023c.09.01.187.02.292.028s.224.012.356.012c.173,0,.367-.006.583-.02s.5-.02.845-.02a5.735,5.735,0,0,1,1.236.123,2.533,2.533,0,0,1,.958.414,1.911,1.911,0,0,1,.624.786,3.04,3.04,0,0,1,.221,1.243,3.084,3.084,0,0,1-.218,1.184,2.7,2.7,0,0,1-.592.9,2.537,2.537,0,0,1-.868.572,2.812,2.812,0,0,1-1.054.2q-.592,0-1.011-.01t-.725-.01h-.356a1.911,1.911,0,0,0-.292.021q.031-.489.046-1t.015-1.165v-1.074q0-.656-.016-1.163Z" transform="translate(-2274.927 -907.073)"/><path class="b" d="M2554.316,939.871a2,2,0,0,1-.76-.355,1.7,1.7,0,0,1-.507-.639,2.211,2.211,0,0,1-.185-.952c0-.21,0-.4,0-.565s.005-.32.005-.462,0-.279.006-.41.006-.268.006-.411c0-.426,0-.77-.009-1.034s-.012-.461-.023-.592c.1.01.214.02.323.028s.218.012.323.012.213,0,.323-.012.218-.018.323-.028c-.053.51-.083.985-.094,1.424s-.016.885-.016,1.337a5.337,5.337,0,0,0,.1,1.16,1.625,1.625,0,0,0,.3.682.955.955,0,0,0,.492.32,2.619,2.619,0,0,0,.676.078,1.075,1.075,0,0,0,.739-.236,1.467,1.467,0,0,0,.4-.631,3.371,3.371,0,0,0,.169-.9c.021-.339.031-.693.031-1.061s0-.724-.015-1.084-.025-.722-.046-1.085c.075.01.146.02.215.028a1.593,1.593,0,0,0,.191.012,1.536,1.536,0,0,0,.2-.012c.063-.008.129-.018.2-.028-.012.116-.023.271-.034.465s-.024.42-.036.675-.021.537-.03.845-.013.632-.013.975a2.727,2.727,0,0,1-.59,1.969,2.329,2.329,0,0,1-1.731.6,3.907,3.907,0,0,1-.941-.107Z" transform="translate(-2477.43 -907.09)"/><path class="b" d="M2759.727,937.564a.923.923,0,0,0-.719-.273c-.074,0-.137,0-.189,0s-.1.006-.149.006c0,.111,0,.224-.005.344s-.006.258-.006.421c0,.126,0,.256.006.387s.005.259.005.387,0,.242,0,.347.006.192.006.26c.073.006.141.011.2.015s.139.005.227.005a.781.781,0,0,0,.6-.281,1.074,1.074,0,0,0,.188-.336,1.362,1.362,0,0,0,.071-.46,1.2,1.2,0,0,0-.247-.828Zm.152-2.083a.726.726,0,0,0-.146-.291.776.776,0,0,0-.261-.2.928.928,0,0,0-.395-.075c-.116,0-.2,0-.241,0a1.285,1.285,0,0,0-.146.02c-.011.195-.018.392-.024.591s-.008.368-.008.5,0,.277.006.405.005.261.005.4h.355a.874.874,0,0,0,.326-.063.835.835,0,0,0,.287-.185.9.9,0,0,0,.206-.312,1.131,1.131,0,0,0,.079-.44,1.4,1.4,0,0,0-.044-.358Zm-2.4.008c-.012-.34-.029-.681-.054-1.023.09.01.187.02.293.028s.224.012.356.012c.227,0,.463-.006.712-.02s.484-.02.711-.02a2.751,2.751,0,0,1,.647.071,1.506,1.506,0,0,1,.506.217.969.969,0,0,1,.328.378,1.248,1.248,0,0,1,.115.556,1.088,1.088,0,0,1-.135.556,1.338,1.338,0,0,1-.33.386,1.572,1.572,0,0,1-.421.24,2.12,2.12,0,0,1-.409.119V937a1.744,1.744,0,0,1,.426.083,1.628,1.628,0,0,1,.464.233,1.389,1.389,0,0,1,.375.407,1.129,1.129,0,0,1,.154.605,1.571,1.571,0,0,1-.154.727,1.382,1.382,0,0,1-.41.491,1.552,1.552,0,0,1-.586.264,3.075,3.075,0,0,1-.686.076q-.315,0-.586-.01t-.572-.01h-.437a2.452,2.452,0,0,0-.359.021c.025-.326.042-.659.054-1s.018-.727.018-1.165v-1.074q0-.656-.018-1.163Z" transform="translate(-2675.927 -907.104)"/><path class="b" d="M2894.454,934.564q-.2.473-.386.934t-.355.942h1.444q-.175-.48-.344-.942c-.113-.308-.233-.619-.359-.934Zm2.792,3.94a3.271,3.271,0,0,0-.359-.021h-.671a2.682,2.682,0,0,0-.335.021c-.084-.259-.17-.523-.26-.793s-.184-.539-.285-.81c-.168-.007-.335-.012-.5-.015s-.337-.005-.5-.005c-.137,0-.273,0-.412.005s-.273.008-.409.015q-.157.406-.292.81c-.089.27-.171.534-.244.793a.862.862,0,0,0-.186-.021h-.374a1.108,1.108,0,0,0-.205.021q.093-.205.252-.569t.347-.821l.406-.983q.216-.524.433-1.061t.427-1.059q.209-.521.382-.971c.053.011.1.021.151.029a.869.869,0,0,0,.3,0c.048-.008.1-.018.15-.029l.54,1.437q.287.766.58,1.5t.568,1.4q.276.663.5,1.121Z" transform="translate(-2806.704 -905.719)"/><path class="b" d="M3088.18,935.488q-.015-.51-.046-1.023c.088.01.187.02.292.028s.223.012.354.012.25,0,.355-.012.2-.018.292-.028q-.031.512-.046,1.023t-.014,1.163v1.073q0,.657.014,1.165t.046,1a1.91,1.91,0,0,0-.292-.021h-.709a1.892,1.892,0,0,0-.292.021q.031-.489.046-1t.016-1.165v-1.074Q3088.2,936,3088.18,935.488Z" transform="translate(-2996.814 -907.103)"/></g></g></svg>