<svg xmlns="http://www.w3.org/2000/svg" width="38" height="36.118" viewBox="0 0 38 36.118">
  <g id="sydney-opera-house" transform="translate(0 -12.676)">
    <g id="Group_765" data-name="Group 765" transform="translate(0 12.676)">
      <path id="Path_2415" data-name="Path 2415" d="M37.362,28.722,34.152,25.8V16.1a1.118,1.118,0,0,0-1.118-1.118H25.307A1.118,1.118,0,0,0,24.189,16.1v.622l-3.877-3.533a1.94,1.94,0,0,0-2.625,0L.638,28.722a1.949,1.949,0,0,0,1.313,3.389H4.674V47.676a1.118,1.118,0,0,0,1.118,1.118h9.345a1.118,1.118,0,0,0,1.118-1.118V38.226h5.492v9.451a1.118,1.118,0,0,0,1.118,1.118h9.345a1.117,1.117,0,0,0,1.117-1.118V32.111h2.724a1.949,1.949,0,0,0,1.312-3.389Zm-5.153,1.154a1.118,1.118,0,0,0-1.118,1.118V46.559h-7.11V37.108a1.118,1.118,0,0,0-1.118-1.118H15.136a1.118,1.118,0,0,0-1.118,1.118v9.451H6.909V30.994a1.118,1.118,0,0,0-1.118-1.118H2.69L19,15.015l5.554,5.061a1.117,1.117,0,0,0,1.87-.826V17.216h5.492v9.075a1.117,1.117,0,0,0,.365.826l3.028,2.759Z" transform="translate(0 -12.676)"/>
    </g>
  </g>
</svg>
