<svg xmlns="http://www.w3.org/2000/svg" width="35.998" height="41.173" viewBox="0 0 35.998 41.173">
  <g id="Group_766" data-name="Group 766" transform="translate(-224.982 -247.363)">
    <path id="Path_1" data-name="Path 1" d="M241.154,248.258v3.51c-2.519.784-5.021,1.481-7.46,2.352a28.911,28.911,0,0,0-4.125,1.994,1.517,1.517,0,0,0-.708,1.118c.242,5.033.4,10.078.89,15.089.393,4.032,2.849,6.916,6.139,9.1q2.08,1.384,4.257,2.62a1.8,1.8,0,0,1,1.1,1.922c-.093.97-.021,1.955-.021,3.211-5.8-3.46-11.864-6.309-14.356-12.944a29.132,29.132,0,0,1-1.485-7.916c-.328-4.218-.361-8.462-.4-12.7a2.638,2.638,0,0,1,.964-1.991,45.086,45.086,0,0,1,14.483-5.368A4.187,4.187,0,0,1,241.154,248.258Z" transform="translate(0 -0.642)"/>
    <path id="Path_2" data-name="Path 2" d="M298.019,288.516c0-1.445-.067-2.651.038-3.842a1.8,1.8,0,0,1,.806-1.076c1.94-1.309,4.015-2.435,5.859-3.862a12.276,12.276,0,0,0,4.96-9.37c.242-4.4.456-8.812.748-13.213a1.819,1.819,0,0,0-1.186-1.98,32.867,32.867,0,0,0-10.665-3.687,2.355,2.355,0,0,1-.5-.189v-3.934c2.456.666,4.843,1.132,7.091,1.969a86.425,86.425,0,0,1,7.992,3.59,2.207,2.207,0,0,1,1.079,1.637c-.257,6.024-.535,12.051-1.008,18.062a13.034,13.034,0,0,1-3.6,7.569C306.444,283.787,302.309,286.055,298.019,288.516Z" transform="translate(-53.259)"/>
    <path id="Path_3" data-name="Path 3" d="M264.042,276.754v3.9c-1.062.386-2.166.732-3.215,1.2a1.3,1.3,0,0,0-.688.94c.062,2.2.219,4.393.355,6.744h3.735v3.785h-3.155v4.706l-.371.294a12.91,12.91,0,0,1-1.948-1.745,12.5,12.5,0,0,1-2.206-6.708c-.239-3.134-.231-6.289-.273-9.436a1.324,1.324,0,0,1,.554-1.047C259.155,278.479,261.513,277.662,264.042,276.754Z" transform="translate(-22.826 -21.438)"/>
    <path id="Path_4" data-name="Path 4" d="M297.6,289.548c.993,0,1.848-.037,2.7.011.787.044,1.149-.222,1.172-1.054.05-1.8.131-3.6.28-5.4a1.161,1.161,0,0,0-.913-1.4c-.983-.317-1.953-.672-3.032-1.047v-3.926c2.51.912,4.893,1.758,7.253,2.665a1.063,1.063,0,0,1,.484.828c-.032,4.314.349,8.663-.873,12.892-.556,1.925-1.273,3.771-3.128,4.871a4.462,4.462,0,0,1-.67.232v-4.9H297.6Z" transform="translate(-52.972 -21.427)"/>
  </g>
</svg>
