<svg xmlns="http://www.w3.org/2000/svg" width="37" height="37" viewBox="0 0 37 37">
  <g id="Safe" transform="translate(-2 -2)">
    <path id="Path_2427" data-name="Path 2427" d="M35.682,46.1a2.106,2.106,0,0,0-1.875-.339L25.347,48.25H20.66L17.33,46.4h6.253a.617.617,0,0,0,.617-.617v-1.85a.637.637,0,0,0-.179-.438l-1.233-1.233a.625.625,0,0,0-.314-.166l-9.25-1.85a.836.836,0,0,0-.123-.012H9.4a.578.578,0,0,0-.228.043l-2.238.894v-.937a.617.617,0,0,0-.518-.611l-3.7-.617a.641.641,0,0,0-.5.142A.623.623,0,0,0,2,39.617V51.95a.617.617,0,0,0,.617.617.53.53,0,0,0,.1-.006l3.7-.617a.617.617,0,0,0,.518-.61v-.617H8.685l7.3,2.436a.731.731,0,0,0,.2.031h9.25a.567.567,0,0,0,.2-.037L35.115,49.8a2.127,2.127,0,0,0,1.418-2,2.1,2.1,0,0,0-.851-1.7ZM5.7,50.809l-2.467.413V40.344l2.467.413Zm29.008-2.171L25.329,51.95H16.282l-7.3-2.436a.731.731,0,0,0-.2-.031H6.933V42.5l2.584-1.036h3.521l9.01,1.8.919.919v.981H14.95a.617.617,0,0,0-.3,1.153L20.2,49.4a.584.584,0,0,0,.3.08h4.933a.532.532,0,0,0,.173-.025l8.553-2.516a.871.871,0,0,1,.783.142.892.892,0,0,1-.234,1.554Z" transform="translate(0 -14.183)"/>
    <path id="Path_2428" data-name="Path 2428" d="M25.867,25.433c5.44,0,9.867-5.81,9.867-12.95v-7.4a.617.617,0,0,0-.457-.6l-9.25-2.467a.617.617,0,0,0-.318,0l-9.25,2.467a.617.617,0,0,0-.458.6v7.4C16,19.624,20.426,25.433,25.867,25.433ZM17.233,5.558l8.633-2.3,8.633,2.3v6.926c0,6.461-3.873,11.717-8.633,11.717s-8.633-5.256-8.633-11.717Z" transform="translate(-5.367 0)"/>
    <path id="Path_2430" data-name="Path 2430" d="M51.233,5.7h1.233V4.467H53.7V3.233H52.467V2H51.233V3.233H50V4.467h1.233Z" transform="translate(-18.4)"/>
    <path id="Path_2431" data-name="Path 2431" d="M59.7,9.233H58.467V8H57.233V9.233H56v1.233h1.233V11.7h1.233V10.467H59.7Z" transform="translate(-20.7 -2.3)"/>
    <path id="Path_2432" data-name="Path 2432" d="M47.233,33v1.233H46v1.233h1.233V36.7h1.233V35.467H49.7V34.233H48.467V33Z" transform="translate(-16.867 -11.883)"/>
    <path id="Path_2433" data-name="Path 2433" d="M54.467,27H53.233v1.233H52v1.233h1.233V30.7h1.233V29.467H55.7V28.233H54.467Z" transform="translate(-19.167 -9.583)"/>
    <path id="Path_2434" data-name="Path 2434" d="M9.233,5.7h1.233V4.467H11.7V3.233H10.467V2H9.233V3.233H8V4.467H9.233Z" transform="translate(-2.3)"/>
    <path id="Path_2435" data-name="Path 2435" d="M3.233,11.7H4.467V10.467H5.7V9.233H4.467V8H3.233V9.233H2v1.233H3.233Z" transform="translate(0 -2.3)"/>
    <path id="Path_2436" data-name="Path 2436" d="M13.233,33v1.233H12v1.233h1.233V36.7h1.233V35.467H15.7V34.233H14.467V33Z" transform="translate(-3.833 -11.883)"/>
    <path id="Path_2437" data-name="Path 2437" d="M8.467,30.7V29.467H9.7V28.233H8.467V27H7.233v1.233H6v1.233H7.233V30.7Z" transform="translate(-1.533 -9.583)"/>
    <path id="Path_2438" data-name="Path 2438" d="M18.75,21.25a.352.352,0,0,1-.041,0,.744.744,0,0,1-.545-.281l-3-3.75a.75.75,0,1,1,1.172-.937l2.475,3.095,4.658-4.656a.75.75,0,0,1,1.061,1.06l-5.25,5.25a.747.747,0,0,1-.53.221Z" transform="translate(0.5 -4.25)"/>
  </g>
</svg>
