<svg xmlns="http://www.w3.org/2000/svg" width="47.35" height="38.639" viewBox="0 0 47.35 38.639">
  <g id="customer" transform="translate(-5 -51.174)">
    <path id="Path_2439" data-name="Path 2439" d="M199.1,57.992l-.547,3.142a.566.566,0,0,0,.82.6l2.826-1.477,2.819,1.491a.566.566,0,0,0,.823-.594l-.532-3.145,2.289-2.221a.566.566,0,0,0-.311-.966l-3.155-.467-1.4-2.863a.566.566,0,0,0-.507-.317h0a.566.566,0,0,0-.507.314l-1.418,2.856-3.157.451a.566.566,0,0,0-.316.965Zm1.649-2.569a.566.566,0,0,0,.427-.309l1.041-2.1,1.03,2.1a.566.566,0,0,0,.425.311l2.315.342L204.3,57.4a.566.566,0,0,0-.164.5l.39,2.307-2.069-1.094a.566.566,0,0,0-.527,0L199.862,60.2l.4-2.305a.566.566,0,0,0-.162-.5l-1.672-1.637Z" transform="translate(-173.572 0)"/>
    <path id="Path_2440" data-name="Path 2440" d="M357.644,86.447l-.48,2.76a.566.566,0,0,0,.82.6l2.483-1.3,2.477,1.31a.566.566,0,0,0,.823-.594l-.467-2.762,2.011-1.951a.566.566,0,0,0-.311-.966l-2.772-.41-1.234-2.516a.566.566,0,0,0-.507-.317h0a.566.566,0,0,0-.507.314l-1.246,2.509-2.774.4a.566.566,0,0,0-.316.964Zm1.543-2.243a.566.566,0,0,0,.427-.309l.868-1.749.86,1.753a.566.566,0,0,0,.425.311l1.932.285-1.4,1.36a.566.566,0,0,0-.164.5l.325,1.925-1.726-.913a.565.565,0,0,0-.527,0l-1.73.9.335-1.924a.566.566,0,0,0-.162-.5l-1.395-1.366Z" transform="translate(-317.415 -26.381)"/>
    <path id="Path_2441" data-name="Path 2441" d="M51.766,86.447l-.48,2.76a.566.566,0,0,0,.82.6l2.483-1.3,2.477,1.31a.566.566,0,0,0,.823-.594l-.467-2.763,2.011-1.951a.566.566,0,0,0-.311-.966l-2.772-.41-1.234-2.515a.566.566,0,0,0-.507-.317h0a.566.566,0,0,0-.507.314l-1.246,2.509-2.774.4a.566.566,0,0,0-.316.964ZM53.308,84.2a.566.566,0,0,0,.427-.309l.868-1.749.86,1.753a.566.566,0,0,0,.425.311l1.932.285-1.4,1.36a.566.566,0,0,0-.164.5l.325,1.925-1.726-.913a.565.565,0,0,0-.527,0l-1.731.9.335-1.924a.566.566,0,0,0-.161-.5L51.375,84.48Z" transform="translate(-40.388 -26.381)"/>
    <path id="Path_2442" data-name="Path 2442" d="M212.429,187.146a4.543,4.543,0,0,0-4.538,4.538v2.648a4.538,4.538,0,0,0,9.076,0v-2.648A4.543,4.543,0,0,0,212.429,187.146Zm3.406,7.186a3.406,3.406,0,1,1-6.812,0v-2.648a3.406,3.406,0,1,1,6.812,0Z" transform="translate(-183.754 -123.147)"/>
    <path id="Path_2443" data-name="Path 2443" d="M365.2,210.936a4.181,4.181,0,0,0-4.177,4.177v2.407a4.177,4.177,0,1,0,8.353,0v-2.407A4.181,4.181,0,0,0,365.2,210.936Zm3.045,6.584a3.045,3.045,0,0,1-6.09,0v-2.407a3.045,3.045,0,1,1,6.09,0Z" transform="translate(-322.439 -144.693)"/>
    <path id="Path_2444" data-name="Path 2444" d="M47.571,312.029H46.049a.515.515,0,0,1-.514-.514.566.566,0,0,0-1.1-.191l-.605,1.686A1.133,1.133,0,0,1,41.693,313l-.579-1.679a.566.566,0,0,0-.935-.216l-.014.014a.566.566,0,0,0-.166.4.515.515,0,0,1-.514.514H37.942a4.818,4.818,0,0,0-.729.056,5.174,5.174,0,0,0-3.243-1.139H32.3a.623.623,0,0,1-.623-.622.566.566,0,0,0-1.1-.191l-.665,1.855a1.3,1.3,0,0,1-2.459-.016l-.637-1.847a.566.566,0,0,0-.936-.215l-.015.015a.566.566,0,0,0-.165.4.623.623,0,0,1-.623.623h-1.7a5.173,5.173,0,0,0-3.243,1.139,4.813,4.813,0,0,0-.729-.056H17.886a.515.515,0,0,1-.514-.514.566.566,0,0,0-1.1-.191l-.6,1.686A1.133,1.133,0,0,1,13.53,313l-.579-1.679a.566.566,0,0,0-.935-.216l-.014.014a.566.566,0,0,0-.166.4.515.515,0,0,1-.514.514H9.779A4.784,4.784,0,0,0,5,316.807v6.62a.566.566,0,0,0,.566.566H51.784a.566.566,0,0,0,.566-.566v-6.62a4.784,4.784,0,0,0-4.778-4.779Zm-29.392,4.117v6.716H6.132v-6.054a3.651,3.651,0,0,1,3.647-3.647h1.544a1.637,1.637,0,0,0,.96-.31l.177.514a2.265,2.265,0,0,0,4.273.027l.194-.54a1.638,1.638,0,0,0,.905.308h1.293A5.17,5.17,0,0,0,18.179,316.145Zm19.859,6.716H19.311v-6.716a4.072,4.072,0,0,1,4.068-4.068h1.7a1.746,1.746,0,0,0,1.085-.376l.22.639a2.435,2.435,0,0,0,4.594.029l.239-.666a1.745,1.745,0,0,0,1.026.374h1.73a4.072,4.072,0,0,1,4.068,4.068Zm13.179,0H39.17v-6.716a5.17,5.17,0,0,0-.946-2.985h1.261a1.637,1.637,0,0,0,.96-.31l.177.514a2.265,2.265,0,0,0,4.273.027l.194-.54a1.638,1.638,0,0,0,.905.308h1.575a3.651,3.651,0,0,1,3.647,3.646Z" transform="translate(0 -234.18)"/>
    <path id="Path_2445" data-name="Path 2445" d="M62.422,215.113v2.407a4.177,4.177,0,1,0,8.353,0v-2.407a4.177,4.177,0,1,0-8.353,0Zm7.221,0v2.407a3.045,3.045,0,0,1-6.09,0v-2.407a3.045,3.045,0,0,1,6.09,0Z" transform="translate(-52.006 -144.693)"/>
  </g>
</svg>
