<svg xmlns="http://www.w3.org/2000/svg" width="42.64" height="42.616" viewBox="0 0 42.64 42.616">
  <g id="work" transform="translate(0 -0.146)">
    <g id="Group_767" data-name="Group 767" transform="translate(0 0.146)">
      <path id="Path_2446" data-name="Path 2446" d="M178.288,50.854H165.314a.625.625,0,0,0,0,1.249h12.975a.625.625,0,1,0,0-1.249Z" transform="translate(-150.974 -46.631)"/>
      <path id="Path_2447" data-name="Path 2447" d="M178.288,94.756H165.314a.625.625,0,0,0,0,1.249h12.975a.625.625,0,1,0,0-1.249Z" transform="translate(-150.974 -86.877)"/>
      <path id="Path_2448" data-name="Path 2448" d="M183.731,194.309h-3.708v-1.744a4.173,4.173,0,0,0-4.168-4.168h-7.022a4.173,4.173,0,0,0-4.168,4.168v1.744h-3.708a3.371,3.371,0,0,0-3.371,3.371v14.285a3.375,3.375,0,0,0,3.371,3.371h22.774a3.375,3.375,0,0,0,3.371-3.371v-2.707a.625.625,0,1,0-1.249,0v2.707a2.124,2.124,0,0,1-2.122,2.122H160.957a2.124,2.124,0,0,1-2.122-2.122v-8.853a5.594,5.594,0,0,0,4.13,2.074v.954a2.283,2.283,0,1,0,4.565,0v-.949h9.627v.949a2.283,2.283,0,1,0,4.565,0v-.954a5.594,5.594,0,0,0,4.13-2.074v3.226a.625.625,0,0,0,1.249,0v-8.658a3.37,3.37,0,0,0-3.371-3.371Zm-17.817-1.744a2.922,2.922,0,0,1,2.919-2.919h7.022a2.922,2.922,0,0,1,2.919,2.919v1.744h-1.3v-1.744a1.62,1.62,0,0,0-1.618-1.618h-7.022a1.62,1.62,0,0,0-1.618,1.618v1.744h-1.3Zm2.55,1.744v-1.744a.369.369,0,0,1,.369-.369h7.022a.369.369,0,0,1,.369.369v1.744Zm-2.183,11.831a1.033,1.033,0,0,1-2.067,0v-2.233a1.033,1.033,0,1,1,2.067,0Zm14.192,0a1.033,1.033,0,0,1-2.067,0v-1.568s0,0,0-.006,0,0,0-.006v-.652a1.033,1.033,0,0,1,2.067,0Zm1.249-2.2v-.029a2.283,2.283,0,0,0-4.565,0v.034h-9.627v-.034a2.283,2.283,0,0,0-4.565,0v.029a4.357,4.357,0,0,1-4.13-4.346v-1.91a2.121,2.121,0,0,1,2.122-2.122h22.774a2.121,2.121,0,0,1,2.122,2.122v1.91A4.357,4.357,0,0,1,181.723,203.935Z" transform="translate(-144.462 -172.719)"/>
      <path id="Path_2449" data-name="Path 2449" d="M12.319,41.512H3.089a1.842,1.842,0,0,1-1.84-1.84v-30a1.852,1.852,0,0,1,.043-.4H6.976A2.155,2.155,0,0,0,9.129,7.122V1.438a1.857,1.857,0,0,1,.4-.043H30.7a1.842,1.842,0,0,1,1.84,1.84V13.952a.625.625,0,0,0,1.249,0V3.235A3.092,3.092,0,0,0,30.7.146H9.525a3.069,3.069,0,0,0-2.184.9L.9,7.486A3.069,3.069,0,0,0,0,9.671v30a3.092,3.092,0,0,0,3.089,3.089h9.23a.625.625,0,1,0,0-1.249ZM7.879,2.279V7.122a.9.9,0,0,1-.9.9H2.133Z" transform="translate(0 -0.146)"/>
    </g>
  </g>
</svg>
