<svg xmlns="http://www.w3.org/2000/svg" width="42.641" height="42.641" viewBox="0 0 42.641 42.641">
  <g id="newspaper" transform="translate(0 0)">
    <g id="Group_768" data-name="Group 768" transform="translate(0 0)">
      <path id="Path_2450" data-name="Path 2450" d="M229.081,269.713h-14.3a.625.625,0,1,0,0,1.249h14.3a.625.625,0,1,0,0-1.249Z" transform="translate(-196.319 -247.251)"/>
      <path id="Path_2451" data-name="Path 2451" d="M229.081,302.039h-14.3a.625.625,0,1,0,0,1.249h14.3a.625.625,0,1,0,0-1.249Z" transform="translate(-196.319 -276.884)"/>
      <path id="Path_2452" data-name="Path 2452" d="M229.081,334.364h-14.3a.625.625,0,1,0,0,1.249h14.3a.625.625,0,1,0,0-1.249Z" transform="translate(-196.319 -306.517)"/>
      <path id="Path_2453" data-name="Path 2453" d="M229.081,366.689h-14.3a.625.625,0,1,0,0,1.249h14.3a.625.625,0,1,0,0-1.249Z" transform="translate(-196.319 -336.15)"/>
      <path id="Path_2454" data-name="Path 2454" d="M229.081,399.014h-14.3a.625.625,0,1,0,0,1.249h14.3a.625.625,0,1,0,0-1.249Z" transform="translate(-196.319 -365.783)"/>
      <path id="Path_2455" data-name="Path 2455" d="M229.081,431.339h-14.3a.625.625,0,1,0,0,1.249h14.3a.625.625,0,0,0,0-1.249Z" transform="translate(-196.319 -395.416)"/>
      <path id="Path_2456" data-name="Path 2456" d="M32.95,464.914H62.395a.625.625,0,1,0,0-1.249H32.95a.625.625,0,1,0,0,1.249Z" transform="translate(-29.633 -425.05)"/>
      <path id="Path_2457" data-name="Path 2457" d="M32.325,283.8a.625.625,0,0,0,.625.625H44.728a.625.625,0,0,0,.625-.625V270.338a.625.625,0,0,0-.625-.625H32.95a.625.625,0,0,0-.625.625Zm1.249-12.836H44.1v12.211H33.574Z" transform="translate(-29.633 -247.251)"/>
      <path id="Path_2458" data-name="Path 2458" d="M63.019,94.57a.625.625,0,0,0-.625-.625H32.95a.625.625,0,0,0-.625.625v11.273a.625.625,0,0,0,.625.625H62.395a.625.625,0,0,0,.625-.625ZM61.77,105.218h-28.2V95.194h28.2Z" transform="translate(-29.633 -86.121)"/>
      <path id="Path_2459" data-name="Path 2459" d="M62.549,133.408a.625.625,0,0,0,.625-.625v-3.874l2.836,4.107a.7.7,0,0,0,.794.3.734.734,0,0,0,.5-.732l-.055-5.691a.625.625,0,0,0-.624-.619h-.006A.625.625,0,0,0,66,126.9l.038,3.953-2.971-4.3a.625.625,0,0,0-1.139.355v5.878A.625.625,0,0,0,62.549,133.408Z" transform="translate(-56.767 -115.754)"/>
      <path id="Path_2460" data-name="Path 2460" d="M143.812,133.409h2.481a.625.625,0,1,0,0-1.249h-1.857v-1.7h1.674a.625.625,0,0,0,0-1.249h-1.674v-1.7h1.857a.625.625,0,1,0,0-1.249h-2.481a.625.625,0,0,0-.625.625v5.889A.625.625,0,0,0,143.812,133.409Z" transform="translate(-131.262 -115.755)"/>
      <path id="Path_2461" data-name="Path 2461" d="M313.04,133.408a2.318,2.318,0,0,0,2.368-1.791,2.113,2.113,0,0,0-1.641-2.318c-.741-.273-1.43-.572-1.622-.656a.517.517,0,0,1-.2-.5.7.7,0,0,1,.547-.563,2.074,2.074,0,0,1,1.723.4.625.625,0,0,0,.8-.958,3.314,3.314,0,0,0-2.885-.633,1.961,1.961,0,0,0-1.423,1.581,1.761,1.761,0,0,0,.785,1.744.616.616,0,0,0,.087.047c.034.015.842.375,1.752.71.6.222.909.559.843.926a1.1,1.1,0,0,1-1.138.762,2.163,2.163,0,0,1-1.589-.668.625.625,0,0,0-.926.839A3.431,3.431,0,0,0,313.04,133.408Z" transform="translate(-284.515 -115.754)"/>
      <path id="Path_2462" data-name="Path 2462" d="M206.465,132.815a.616.616,0,0,0,.024.088.758.758,0,0,0,.714.5h.005a.758.758,0,0,0,.712-.514l.005-.016,1.2-3.861,1.19,3.862.008.025a.758.758,0,0,0,.714.5h.005a.758.758,0,0,0,.712-.514.619.619,0,0,0,.021-.079l1.152-5.788a.625.625,0,1,0-1.225-.244l-.768,3.861-1.212-3.934h0a.624.624,0,0,0-1.19.009l-1.215,3.925-.766-3.872a.625.625,0,0,0-1.225.242Z" transform="translate(-188.208 -115.753)"/>
      <path id="Path_2463" data-name="Path 2463" d="M40.458,0H28.865a.625.625,0,1,0,0,1.249h9.486a2.252,2.252,0,0,0-.241,1.016V16.448a.625.625,0,0,0,1.249,0V2.265a1.032,1.032,0,0,1,1.035-1.017,1.06,1.06,0,0,1,1,1.056V38.86a2.6,2.6,0,0,1-2.656,2.532h0a2.6,2.6,0,0,1-2.656-2.532V34.143h.974a2.31,2.31,0,0,0,2.307-2.307V19.363a.625.625,0,1,0-1.249,0V31.836a1.059,1.059,0,0,1-1.058,1.058h-.974V7.523a2.31,2.31,0,0,0-2.308-2.307H4.7V2.265A1.017,1.017,0,0,1,5.714,1.249H25.95A.625.625,0,0,0,25.95,0H5.714A2.267,2.267,0,0,0,3.449,2.265V5.216H2.307A2.31,2.31,0,0,0,0,7.523V25.94a.625.625,0,0,0,1.249,0V7.523A1.059,1.059,0,0,1,2.307,6.465H33.771A1.059,1.059,0,0,1,34.83,7.523V38.86a3.7,3.7,0,0,0,1.007,2.532H3.906A2.6,2.6,0,0,1,1.249,38.86v-10a.625.625,0,1,0-1.249,0v10a3.849,3.849,0,0,0,3.906,3.781H38.735a3.849,3.849,0,0,0,3.906-3.781V2.3A2.277,2.277,0,0,0,40.458,0Z" transform="translate(0 0)"/>
    </g>
  </g>
</svg>
