<svg xmlns="http://www.w3.org/2000/svg" width="42.641" height="47.461" viewBox="0 0 42.641 47.461">
  <g id="support_1_" data-name="support (1)" transform="translate(-26)">
    <g id="Group_770" data-name="Group 770" transform="translate(56.59 36.708)">
      <g id="Group_769" data-name="Group 769">
        <path id="Path_2464" data-name="Path 2464" d="M356.927,396a.927.927,0,1,0,.927.927A.927.927,0,0,0,356.927,396Z" transform="translate(-356 -396)"/>
      </g>
    </g>
    <g id="Group_772" data-name="Group 772" transform="translate(26)">
      <g id="Group_771" data-name="Group 771">
        <path id="Path_2465" data-name="Path 2465" d="M59.8,33.71l-4.406-1.468-1.582-3.163a10.153,10.153,0,0,0,2.748-5.371l.2-1.182h1.687a2.784,2.784,0,0,0,2.781-2.781V13.9a13.9,13.9,0,0,0-27.809,0v5.84a2.785,2.785,0,0,0,1.854,2.621v1.086a2.784,2.784,0,0,0,2.781,2.781h.814a10.056,10.056,0,0,0,1.555,2.408c.131.151.268.3.408.439l-1.581,3.162-4.406,1.468C29.718,35.419,26,40.812,26,46.534a.927.927,0,0,0,.927.927H67.714a.927.927,0,0,0,.927-.927C68.641,40.812,64.922,35.419,59.8,33.71Zm-.428-13.966a.928.928,0,0,1-.927.927H57.029c.236-1.825.393-3.767.456-5.68,0-.054,0-.106.005-.159h1.881ZM36.2,20.671a.928.928,0,0,1-.927-.927V14.832h1.882q0,.145.01.292v.01h0c.065,1.861.22,3.752.45,5.537H36.2Zm1.854,3.708a.928.928,0,0,1-.927-.927v-.927h.76l.2,1.183c.038.225.084.449.137.671Zm-.925-11.4H35.3a12.051,12.051,0,0,1,24.031,0h-1.82a9.389,9.389,0,0,0-9.365-9.27H46.491A9.389,9.389,0,0,0,37.125,12.978Zm9.365-7.416H48.15a7.538,7.538,0,0,1,7.513,7.546c0,.292,0,.546-.007.777,0,0,0,.006,0,.009L54.5,13.729a14.9,14.9,0,0,1-8.374-4.187.927.927,0,0,0-.655-.272,8.386,8.386,0,0,0-6.448,3.05A7.535,7.535,0,0,1,46.491,5.562ZM40.14,24.379a52.984,52.984,0,0,1-1.112-9l1.248-1.664A6.525,6.525,0,0,1,45.1,11.134a16.767,16.767,0,0,0,9.134,4.43l1.365.2c-.091,1.936-.278,3.879-.545,5.665v0c-.085.574-.152.944-.323,1.977a7.874,7.874,0,0,1-5.588,6.332,7.293,7.293,0,0,1-8.187-3.5h1.89a2.785,2.785,0,0,0,2.621,1.854H47.32a2.781,2.781,0,0,0,0-5.562H45.466a2.782,2.782,0,0,0-2.623,1.854Zm5.248,7.232a9.3,9.3,0,0,0,3.448.078L47.2,33.421Zm.535,3.158-2.94,3.109a35.319,35.319,0,0,1-2.075-4.813l1.1-2.208Zm6.547-4.226,1.261,2.522a35.308,35.308,0,0,1-2.076,4.814L48.51,34.732Zm-7.932-5.237a.927.927,0,0,1,.927-.927H47.32a.927.927,0,1,1,0,1.854H45.466A.928.928,0,0,1,44.539,25.306Zm-16.648,20.3a11.715,11.715,0,0,1,7.536-10.138l3.9-1.3a37.159,37.159,0,0,0,2.638,5.723l.005.009h0a37.169,37.169,0,0,0,2.537,3.875l1.14,1.831Zm19.429-.826-1.257-2.018q-.021-.034-.045-.066a35.344,35.344,0,0,1-2.089-3.12l3.306-3.5,3.483,3.483a35.3,35.3,0,0,1-2.1,3.133C48.577,42.757,48.642,42.661,47.32,44.781Zm1.669.826,1.14-1.831a37.155,37.155,0,0,0,2.555-3.906l.014-.025,0,0a37.129,37.129,0,0,0,2.611-5.674l3.9,1.3A11.715,11.715,0,0,1,66.75,45.607H48.99Z" transform="translate(-26 0)"/>
      </g>
    </g>
    <g id="Group_774" data-name="Group 774" transform="translate(59.847 38.477)">
      <g id="Group_773" data-name="Group 773">
        <path id="Path_2466" data-name="Path 2466" d="M395.256,418.467a9.267,9.267,0,0,0-2.624-3.186.927.927,0,1,0-1.13,1.469,7.4,7.4,0,0,1,2.1,2.545.927.927,0,0,0,1.659-.829Z" transform="translate(-391.139 -415.088)"/>
      </g>
    </g>
  </g>
</svg>
