<svg id="technology" xmlns="http://www.w3.org/2000/svg" width="21" height="21" viewBox="0 0 21 21">
  <path id="Path_1613" data-name="Path 1613" d="M18.744,9.447h-.192V8.053a8.053,8.053,0,1,0-16.105,0V9.447H2.256A2.259,2.259,0,0,0,0,11.7V15.23a2.258,2.258,0,0,0,2.256,2.256l.192.014V21H13.3V19.947a2.8,2.8,0,0,0-5.6-.178H3.678V17.486H4.826V10.678H6.139V8.053a4.361,4.361,0,0,1,8.722,0v2.625h1.313v6.809h2.57A2.258,2.258,0,0,0,21,15.23V11.7a2.259,2.259,0,0,0-2.256-2.256ZM10.5,18.375a1.574,1.574,0,0,1,1.562,1.395H8.938A1.574,1.574,0,0,1,10.5,18.375ZM3.6,16.256H2.256A1.027,1.027,0,0,1,1.23,15.23V11.7a1.027,1.027,0,0,1,1.025-1.025H3.6ZM17.322,9.447h-1.23V8.053a5.592,5.592,0,0,0-11.183,0V9.447H3.678V8.053a6.822,6.822,0,0,1,13.644,0ZM19.77,15.23a1.026,1.026,0,0,1-1.025,1.025H17.4V10.678h1.34A1.027,1.027,0,0,1,19.77,11.7Z" fill="#0910b1"/>
</svg>
