<svg id="XMLID_396_" xmlns="http://www.w3.org/2000/svg" width="29.975" height="23.226" viewBox="0 0 29.975 23.226">
  <path id="XMLID_429_" d="M29.787,65.541l-.781-1.352a.585.585,0,0,0-1.014.585l.781,1.352a.228.228,0,0,1-.084.312l-2.065,1.192a.229.229,0,0,1-.312-.084l-4.154-7.194a.229.229,0,0,1,.084-.312l2.065-1.192a.229.229,0,0,1,.312.084l.738,1.279a.585.585,0,0,0,1.014-.585l-.738-1.279a1.4,1.4,0,0,0-1.912-.512l-2.065,1.192a1.394,1.394,0,0,0-.633.787H15.171a3.057,3.057,0,0,0-2.176.9l-.6.6a6.926,6.926,0,0,0-1.606-.19H8.972a1.4,1.4,0,0,0-.654-.861L6.253,59.071a1.4,1.4,0,0,0-1.912.512L.188,66.777A1.4,1.4,0,0,0,.7,68.689l2.065,1.192a1.391,1.391,0,0,0,.7.187,1.408,1.408,0,0,0,.257-.024l1.69,1.69a2.129,2.129,0,0,0-.039.407,2.1,2.1,0,0,0,1.989,2.1,2.139,2.139,0,0,0-.012.222,2.106,2.106,0,0,0,2.106,2.106H9.5c0,.015,0,.03,0,.046A2.106,2.106,0,0,0,11.6,78.722h.046c0,.015,0,.03,0,.046a2.106,2.106,0,0,0,3.6,1.489l.833-.833a2.093,2.093,0,0,0,.514-.842,2.108,2.108,0,0,0,3.261-1.07,2.107,2.107,0,0,0,3.212-1.34,2.107,2.107,0,0,0,2.153-3.489l-1.366-1.366,2.494-2.494a1.411,1.411,0,0,0,.167.01,1.391,1.391,0,0,0,.7-.187l2.065-1.192a1.4,1.4,0,0,0,.512-1.912Zm-28.5,2.134a.228.228,0,0,1-.084-.312l4.154-7.194a.227.227,0,0,1,.139-.106.235.235,0,0,1,.06-.008.225.225,0,0,1,.114.031l2.065,1.192a.229.229,0,0,1,.084.312L3.662,68.783a.229.229,0,0,1-.312.084Zm5.255,4.467a.929.929,0,0,1,.274-.661l.505-.505A.935.935,0,1,1,8.643,72.3l-.505.505a.935.935,0,0,1-1.6-.661ZM9.453,75.4a.935.935,0,0,1-.661-1.6l.833-.833a.935.935,0,1,1,1.323,1.323l-.833.833A.929.929,0,0,1,9.453,75.4ZM11.6,77.551a.935.935,0,0,1-.661-1.6l.833-.833A.935.935,0,1,1,13.1,76.445l-.833.833A.929.929,0,0,1,11.6,77.551ZM15.249,78.6l-.833.833a.935.935,0,1,1-1.323-1.323l.833-.833A.935.935,0,1,1,15.249,78.6Zm9.141-3.763a.935.935,0,0,1-1.323,0l-5.588-5.588a.585.585,0,1,0-.828.828l5.011,5.011a.935.935,0,1,1-1.323,1.323l-6.022-6.022a.585.585,0,0,0-.828.828L18.5,76.224a.935.935,0,1,1-1.323,1.323l-1.1-1.1,0,0a2.1,2.1,0,0,0-1.53-.61c0-.016,0-.031,0-.047a2.1,2.1,0,0,0-2.152-2.1c0-.016,0-.031,0-.047a2.1,2.1,0,0,0-2.307-2.1,2.106,2.106,0,0,0-3.593-1.39l-.505.505,0,0-1.3-1.3L8.76,62.3h2.029a5.748,5.748,0,0,1,.594.031L10.715,63a2.106,2.106,0,0,0,2.979,2.979l1.58-1.58L24.39,73.51a.936.936,0,0,1,0,1.323Zm-5.625-8.6a3.322,3.322,0,0,0,1.374-2.693.585.585,0,0,0-1.171,0,2.151,2.151,0,0,1-1.048,1.847l-2.23-2.23a.585.585,0,0,0-.827-.006l-2,2a.935.935,0,1,1-1.323-1.323l2.281-2.281a1.893,1.893,0,0,1,1.348-.558h6L25.3,68.132c.01.017.02.033.031.049l-2.306,2.306Z" transform="translate(0 -57.647)" fill="#0910b1"/>
  <path id="XMLID_436_" d="M454.893,126.585a.586.586,0,1,0-.414-.172A.591.591,0,0,0,454.893,126.585Z" transform="translate(-427.711 -121.447)" fill="#0910b1"/>
</svg>
