<svg xmlns="http://www.w3.org/2000/svg" width="19.12" height="24.5" viewBox="0 0 19.12 24.5">
  <g id="card" transform="translate(-56.215)">
    <g id="Group_307" data-name="Group 307" transform="translate(58.905 18.775)">
      <g id="Group_306" data-name="Group 306">
        <path id="Path_1614" data-name="Path 1614" d="M113.648,392.353h-.734a.48.48,0,0,0-.48.48v3.04a.48.48,0,0,0,.961,0v-1.092h.253a1.214,1.214,0,1,0,0-2.428Zm0,1.467h-.253v-.506h.253a.253.253,0,1,1,0,.506Z" transform="translate(-112.434 -392.353)" fill="#0910b1"/>
      </g>
    </g>
    <g id="Group_309" data-name="Group 309" transform="translate(61.733 18.775)">
      <g id="Group_308" data-name="Group 308">
        <path id="Path_1615" data-name="Path 1615" d="M173.078,394.735a1.214,1.214,0,0,0-.329-2.382h-.734a.48.48,0,0,0-.48.48v3.04a.48.48,0,1,0,.961,0v-.354l.635.681a.48.48,0,0,0,.7-.655Zm-.329-.915H172.5v-.506h.253a.253.253,0,1,1,0,.506Z" transform="translate(-171.535 -392.353)" fill="#0910b1"/>
      </g>
    </g>
    <g id="Group_311" data-name="Group 311" transform="translate(64.561 18.775)">
      <g id="Group_310" data-name="Group 310">
        <path id="Path_1616" data-name="Path 1616" d="M232.584,394.834a.48.48,0,0,0,0-.961H231.6v-.559h.987a.48.48,0,1,0,0-.961h-1.467a.48.48,0,0,0-.48.48v3.04a.48.48,0,0,0,.48.48h1.467a.48.48,0,0,0,0-.961H231.6v-.559Z" transform="translate(-230.636 -392.353)" fill="#0910b1"/>
      </g>
    </g>
    <g id="Group_313" data-name="Group 313" transform="translate(67.389 18.807)">
      <g id="Group_312" data-name="Group 312">
        <path id="Path_1617" data-name="Path 1617" d="M290.951,394.5a.253.253,0,1,1,.233-.351.48.48,0,1,0,.885-.374,1.214,1.214,0,1,0-1.118,1.687.253.253,0,1,1-.24.333.48.48,0,1,0-.912.3,1.214,1.214,0,1,0,1.152-1.6Z" transform="translate(-289.737 -393.036)" fill="#0910b1"/>
      </g>
    </g>
    <g id="Group_315" data-name="Group 315" transform="translate(70.217 18.807)">
      <g id="Group_314" data-name="Group 314">
        <path id="Path_1618" data-name="Path 1618" d="M350.051,394.5a.253.253,0,1,1,.234-.351.48.48,0,1,0,.885-.374,1.214,1.214,0,1,0-1.118,1.687.253.253,0,1,1-.24.333.48.48,0,1,0-.912.3,1.214,1.214,0,1,0,1.151-1.6Z" transform="translate(-348.838 -393.037)" fill="#0910b1"/>
      </g>
    </g>
    <g id="Group_317" data-name="Group 317" transform="translate(56.215)">
      <g id="Group_316" data-name="Group 316">
        <path id="Path_1619" data-name="Path 1619" d="M72.05,2.128H67.612V1.837a1.837,1.837,0,1,0-3.674,0v.291H59.5a3.289,3.289,0,0,0-3.285,3.285v15.8A3.289,3.289,0,0,0,59.5,24.5H72.05a3.289,3.289,0,0,0,3.285-3.285V5.413A3.289,3.289,0,0,0,72.05,2.128ZM64.9,1.837a.876.876,0,1,1,1.753,0V3.8H64.9V1.837Zm-.48,2.922h3.923v.878H63.209V4.759Zm9.956,16.456a2.327,2.327,0,0,1-2.324,2.324H59.5a2.327,2.327,0,0,1-2.324-2.324V5.413A2.327,2.327,0,0,1,59.5,3.089h4.438V3.8h-1.21a.48.48,0,0,0-.48.48V6.117a.48.48,0,0,0,.48.48h6.093a.48.48,0,0,0,.48-.48V4.278a.48.48,0,0,0-.48-.48h-1.21V3.089H72.05a2.327,2.327,0,0,1,2.324,2.324v15.8Z" transform="translate(-56.215 0)" fill="#0910b1"/>
      </g>
    </g>
    <g id="Group_319" data-name="Group 319" transform="translate(62.304 9.053)">
      <g id="Group_318" data-name="Group 318">
        <path id="Path_1620" data-name="Path 1620" d="M188.418,192.657a2.045,2.045,0,1,0-2.95,0,3.475,3.475,0,0,0-2,3.141.48.48,0,0,0,.48.48h5.981a.48.48,0,0,0,.48-.48A3.475,3.475,0,0,0,188.418,192.657Zm-1.475-2.5a1.084,1.084,0,1,1-1.084,1.084A1.085,1.085,0,0,1,186.943,190.159Zm-2.464,5.158a2.51,2.51,0,0,1,4.928,0Z" transform="translate(-183.472 -189.198)" fill="#0910b1"/>
      </g>
    </g>
    <g id="Group_321" data-name="Group 321" transform="translate(59.76 7.359)">
      <g id="Group_320" data-name="Group 320">
        <path id="Path_1621" data-name="Path 1621" d="M141.854,153.781H130.784a.48.48,0,0,0-.48.48v9.647a.48.48,0,0,0,.48.48h11.069a.48.48,0,0,0,.48-.48v-9.647A.48.48,0,0,0,141.854,153.781Zm-.48,9.647H131.265v-8.686h10.108v8.686Z" transform="translate(-130.304 -153.781)" fill="#0910b1"/>
      </g>
    </g>
    <g id="Group_323" data-name="Group 323" transform="translate(72.645 8.919)">
      <g id="Group_322" data-name="Group 322">
        <path id="Path_1622" data-name="Path 1622" d="M400.046,186.4a.48.48,0,0,0-.48.48v2.946a.48.48,0,0,0,.961,0v-2.946A.48.48,0,0,0,400.046,186.4Z" transform="translate(-399.566 -186.398)" fill="#0910b1"/>
      </g>
    </g>
    <g id="Group_325" data-name="Group 325" transform="translate(72.661 7.534)">
      <g id="Group_324" data-name="Group 324">
        <path id="Path_1623" data-name="Path 1623" d="M400.372,157.455a.481.481,0,0,0,0,.961A.481.481,0,0,0,400.372,157.455Z" transform="translate(-399.908 -157.455)" fill="#0910b1"/>
      </g>
    </g>
  </g>
</svg>
