<svg xmlns="http://www.w3.org/2000/svg" width="27.27" height="24.5" viewBox="0 0 27.27 24.5">
  <g id="negotiating" transform="translate(0 0)">
    <path id="Path_1624" data-name="Path 1624" d="M246.533,100a.533.533,0,1,0,.533.533A.533.533,0,0,0,246.533,100Zm0,0" transform="translate(-232.898 -94.674)" fill="#0910b1"/>
    <path id="Path_1625" data-name="Path 1625" d="M80.533,261.065a.533.533,0,1,0-.533-.533A.533.533,0,0,0,80.533,261.065Zm0,0" transform="translate(-75.739 -246.153)" fill="#0910b1"/>
    <path id="Path_1626" data-name="Path 1626" d="M17.9,0C13.1,0,9.165,3.306,8.861,7.47,4.294,7.7,0,10.992,0,15.445a7.442,7.442,0,0,0,2.077,5.093,3.239,3.239,0,0,1-.856,3.052A.533.533,0,0,0,1.6,24.5a5.875,5.875,0,0,0,4.071-1.645,12.137,12.137,0,0,0,3.706.58c4.794,0,8.729-3.305,9.035-7.468A11.976,11.976,0,0,0,21.6,15.4a5.875,5.875,0,0,0,4.07,1.645.533.533,0,0,0,.377-.909,3.239,3.239,0,0,1-.856-3.052A7.442,7.442,0,0,0,27.27,7.989C27.27,3.361,22.644,0,17.9,0ZM9.374,22.369a10.767,10.767,0,0,1-3.649-.629.533.533,0,0,0-.59.135,4.806,4.806,0,0,1-2.39,1.418,4.307,4.307,0,0,0,.325-3.17.532.532,0,0,0-.13-.225,6.4,6.4,0,0,1-1.874-4.454c0-3.753,3.8-6.924,8.309-6.924,4.253,0,7.989,2.957,7.989,6.924,0,3.818-3.584,6.924-7.989,6.924ZM24.33,12.443a.534.534,0,0,0-.13.225,4.307,4.307,0,0,0,.325,3.17,4.8,4.8,0,0,1-2.39-1.418.533.533,0,0,0-.59-.135,10.492,10.492,0,0,1-3.138.615,7.624,7.624,0,0,0-2.878-5.313h6.947a.533.533,0,0,0,0-1.065H13.893a9.933,9.933,0,0,0-3.964-1.05c.306-3.577,3.762-6.407,7.967-6.407,4.5,0,8.309,3.171,8.309,6.924a6.4,6.4,0,0,1-1.874,4.454Zm0,0" transform="translate(0 0)" fill="#0910b1"/>
    <path id="Path_1627" data-name="Path 1627" d="M127.243,260h-6.711a.533.533,0,1,0,0,1.065h6.711a.533.533,0,1,0,0-1.065Zm0,0" transform="translate(-113.609 -246.153)" fill="#0910b1"/>
    <path id="Path_1628" data-name="Path 1628" d="M89.374,320H80.533a.533.533,0,1,0,0,1.065h8.841a.533.533,0,1,0,0-1.065Zm0,0" transform="translate(-75.739 -302.957)" fill="#0910b1"/>
    <path id="Path_1629" data-name="Path 1629" d="M293.243,100h-6.711a.533.533,0,0,0,0,1.065h6.711a.533.533,0,0,0,0-1.065Zm0,0" transform="translate(-270.767 -94.674)" fill="#0910b1"/>
  </g>
</svg>
