<svg xmlns="http://www.w3.org/2000/svg" width="27.031" height="24.405" viewBox="0 0 27.031 24.405">
  <g id="files-and-folders" transform="translate(0.001)">
    <path id="Path_1630" data-name="Path 1630" d="M24.18,0H6.7A2.74,2.74,0,0,0,3.95,2.721L3.837,18.112H.426A.444.444,0,0,0,0,18.567v2.118a3.711,3.711,0,0,0,3.5,3.694V24.4H18.221v-.029c.109,0,.176.029.251.029h.01a3.7,3.7,0,0,0,3.678-3.719V7.223H26.6a.448.448,0,0,0,.426-.46V2.876A2.871,2.871,0,0,0,24.18,0ZM3.693,23.529h0A2.837,2.837,0,0,1,.875,20.685v-1.7h13.9v1.691a3.7,3.7,0,0,0,1.082,2.629,1.572,1.572,0,0,1,.23.222Zm17.592-2.844a2.827,2.827,0,0,1-2.8,2.844h-.009a2.844,2.844,0,0,1-2.824-2.851V18.567a.453.453,0,0,0-.438-.455H4.712L4.825,2.724A1.865,1.865,0,0,1,6.7.875H22.113a2.987,2.987,0,0,0-.828,2.012Zm4.87-17.8V6.347H22.16V2.887A2.027,2.027,0,0,1,24.167.876h.012a2,2,0,0,1,1.976,2Zm0,0" fill="#0910b1"/>
    <path id="Path_1631" data-name="Path 1631" d="M164.356,61.418l2.257,1.543a.431.431,0,0,0,.489,0l2.25-1.543a3.4,3.4,0,0,0,1.359-2.594V55.7a.428.428,0,0,0-.233-.393l-3.436-1.69a.43.43,0,0,0-.383,0l-3.43,1.686A.427.427,0,0,0,163,55.7v3.127A3.4,3.4,0,0,0,164.356,61.418Zm-.485-5.447,2.982-1.471,2.982,1.475v2.849a2.523,2.523,0,0,1-.977,1.87l-2.01,1.375-2-1.374a2.521,2.521,0,0,1-.975-1.87Zm0,0" transform="translate(-154.078 -50.643)" fill="#0910b1"/>
    <path id="Path_1632" data-name="Path 1632" d="M202.55,118.618a.437.437,0,0,0,.31.131h0a.438.438,0,0,0,.309-.13l1.741-1.742a.438.438,0,0,0-.619-.62l-1.43,1.43-.572-.577a.438.438,0,1,0-.622.617Zm0,0" transform="translate(-190.514 -109.775)" fill="#0910b1"/>
    <path id="Path_1633" data-name="Path 1633" d="M143.944,248H133.438a.438.438,0,0,0,0,.875h10.506a.438.438,0,0,0,0-.875Zm0,0" transform="translate(-125.723 -234.43)" fill="#0910b1"/>
    <path id="Path_1634" data-name="Path 1634" d="M143.944,285H133.438a.438.438,0,0,0,0,.876h10.506a.438.438,0,0,0,0-.876Zm0,0" transform="translate(-125.723 -269.405)" fill="#0910b1"/>
  </g>
</svg>
