<svg xmlns="http://www.w3.org/2000/svg" width="97.281" height="97.285" viewBox="0 0 97.281 97.285">
  <g id="fingerprint_pass" data-name="fingerprint pass" transform="translate(-2 -2)">
    <path id="Path_2210" data-name="Path 2210" d="M28.3,62.676a35.567,35.567,0,0,1-15.728-7.961,1.665,1.665,0,0,0-2.286.162,1.561,1.561,0,0,0-.405,1.167,1.644,1.644,0,0,0,.551,1.119A38.914,38.914,0,0,0,27.6,65.838a1.234,1.234,0,0,0,.34.049,1.631,1.631,0,0,0,1.589-1.281,2.432,2.432,0,0,0,.032-.357A1.621,1.621,0,0,0,28.3,62.676Z" transform="translate(4.895 32.523)" fill="#fff"/>
    <path id="Path_2211" data-name="Path 2211" d="M5.609,42.607a1.647,1.647,0,0,0-1.9-1.3,1.621,1.621,0,0,0-1.281,1.9,39.063,39.063,0,0,0,8.138,17.43,1.673,1.673,0,0,0,1.266.584,1.586,1.586,0,0,0,1.021-.373,1.621,1.621,0,0,0,.6-1.249,1.555,1.555,0,0,0-.373-1.021A35.713,35.713,0,0,1,5.609,42.607Z" transform="translate(0.25 24.412)" fill="#fff"/>
    <path id="Path_2212" data-name="Path 2212" d="M42.814,57.887a.016.016,0,0,1-.016.016l-.049.016a35.269,35.269,0,0,1-15.387,3.486q-.9,0-1.85-.049a1.6,1.6,0,0,0-1.7,1.54,1.621,1.621,0,0,0,1.54,1.7c.7.032,1.377.049,2.011.049a38.428,38.428,0,0,0,16.847-3.827,1.621,1.621,0,0,0,.924-1.459,1.8,1.8,0,0,0-.162-.713,1.651,1.651,0,0,0-2.156-.762Z" transform="translate(13.552 34.637)" fill="#fff"/>
    <path id="Path_2213" data-name="Path 2213" d="M24.128,5.486a35.851,35.851,0,0,1,17.48,2.335,1.574,1.574,0,0,0,.6.113,1.621,1.621,0,0,0,.616-3.113A38.4,38.4,0,0,0,28.281,2a37.6,37.6,0,0,0-4.508.259A1.639,1.639,0,0,0,22.33,3.848a.924.924,0,0,0,.016.211,1.621,1.621,0,0,0,1.782,1.427Z" transform="translate(12.633)" fill="#fff"/>
    <path id="Path_2214" data-name="Path 2214" d="M10.411,15.508a1.605,1.605,0,0,0,1.151-.47,35.812,35.812,0,0,1,15.175-8.95,1.667,1.667,0,0,0,.973-.778,1.568,1.568,0,0,0,.13-1.232,1.633,1.633,0,0,0-2.011-1.1A38.951,38.951,0,0,0,9.276,12.735a1.625,1.625,0,0,0-.016,2.3,1.605,1.605,0,0,0,1.151.47Z" transform="translate(4.219 0.566)" fill="#fff"/>
    <path id="Path_2215" data-name="Path 2215" d="M3.6,31.979h.195a1.621,1.621,0,0,0,1.621-1.411,35.624,35.624,0,0,1,6.4-16.425,1.621,1.621,0,0,0-.373-2.254,1.659,1.659,0,0,0-2.254.373,38.867,38.867,0,0,0-7,17.9.924.924,0,0,0-.016.211A1.621,1.621,0,0,0,3.6,31.979Z" transform="translate(0.105 5.968)" fill="#fff"/>
    <path id="Path_2216" data-name="Path 2216" d="M3.654,47.857a1.631,1.631,0,0,0,1.605-1.605.06.06,0,0,0-.016-.049V27.621a1.621,1.621,0,0,0-3.243,0V46.268a1.641,1.641,0,0,0,1.621,1.589Z" transform="translate(0 14.914)" fill="#fff"/>
    <path id="Path_2217" data-name="Path 2217" d="M37.788,8.388a35.1,35.1,0,0,1,6.583,5.2,35.653,35.653,0,0,1,5.706,7.426A1.621,1.621,0,0,0,52.9,19.43c0-.016,0-.016-.016-.016a38.8,38.8,0,0,0-13.409-13.8,1.655,1.655,0,0,0-2.221.535,1.589,1.589,0,0,0-.243.843,1.642,1.642,0,0,0,.778,1.394Z" transform="translate(21.756 2.108)" fill="#fff"/>
    <path id="Path_2218" data-name="Path 2218" d="M46.674,19.172a35.567,35.567,0,0,1,2.221,12.42v5.367a1.621,1.621,0,0,0,3.243,0V31.592a38.462,38.462,0,0,0-2.432-13.539A1.636,1.636,0,0,0,47.63,17.1a1.607,1.607,0,0,0-1.07,1.524A2.02,2.02,0,0,0,46.674,19.172Z" transform="translate(27.69 9.322)" fill="#fff"/>
    <path id="Path_2219" data-name="Path 2219" d="M15.524,11.924A32.1,32.1,0,0,0,6.282,29.711a1.56,1.56,0,0,0,1.33,1.865,1.394,1.394,0,0,0,.259.016,1.608,1.608,0,0,0,1.605-1.346,28.968,28.968,0,0,1,8.318-16.02,1.557,1.557,0,0,0,.486-1.135,1.612,1.612,0,0,0-.47-1.151,1.644,1.644,0,0,0-2.286-.016Z" transform="translate(2.641 5.885)" fill="#fff"/>
    <path id="Path_2220" data-name="Path 2220" d="M46.864,38.639a1.621,1.621,0,0,0,1.621-1.621V31.894a32.034,32.034,0,0,0-3.4-14.463,1.621,1.621,0,0,0-3.081.7,1.706,1.706,0,0,0,.177.746,28.955,28.955,0,0,1,3.066,13.02v5.124A1.621,1.621,0,0,0,46.864,38.639Z" transform="translate(24.857 9.02)" fill="#fff"/>
    <path id="Path_2221" data-name="Path 2221" d="M44.1,17.376A24.214,24.214,0,0,1,46.3,19.84a1.605,1.605,0,0,0,1.263.6,1.651,1.651,0,0,0,1.023-.34,1.621,1.621,0,0,0,.6-1.086,1.652,1.652,0,0,0-.34-1.2L48.83,17.8a32.863,32.863,0,0,0-2.448-2.724,32.3,32.3,0,0,0-14.155-8.3c-.031-.016-.065-.016-.1-.032H32.1a1.621,1.621,0,0,0-1.962,1.135,1.412,1.412,0,0,0-.065.438,1.621,1.621,0,0,0,1.185,1.557A29.155,29.155,0,0,1,44.1,17.376Z" transform="translate(17.443 2.914)" fill="#fff"/>
    <path id="Path_2222" data-name="Path 2222" d="M6.653,43.772a32.428,32.428,0,0,0,8.478,14.836c.715.713,1.459,1.378,2.207,2.011.015.016.049.032.065.049a.016.016,0,0,0,.016.016,1.664,1.664,0,0,0,1.02.357,1.612,1.612,0,0,0,1.25-.584,1.594,1.594,0,0,0,.371-1.021,1.641,1.641,0,0,0-.582-1.265c-.713-.584-1.394-1.216-2.043-1.865a28.92,28.92,0,0,1-7.653-13.36,1.631,1.631,0,0,0-1.962-1.167,1.68,1.68,0,0,0-1.007.746,1.724,1.724,0,0,0-.177,1.232.016.016,0,0,1,.016.016Z" transform="translate(2.854 24.69)" fill="#fff"/>
    <path id="Path_2223" data-name="Path 2223" d="M6,45.55c0,.5.016.94.032,1.362a1.621,1.621,0,0,0,1.621,1.557.123.123,0,0,0,.065-.016,1.621,1.621,0,0,0,1.557-1.589v-.081c-.032-.422-.032-.827-.032-1.232V27.471a1.621,1.621,0,0,0-3.243,0Z" transform="translate(2.486 14.821)" fill="#fff"/>
    <path id="Path_2224" data-name="Path 2224" d="M34.74,9.291a1.647,1.647,0,0,0,1.717-1.524A1.7,1.7,0,0,0,36.051,6.6a1.565,1.565,0,0,0-1.117-.535C34.3,6.016,33.67,6,32.956,6a32.344,32.344,0,0,0-17.43,5.091,1.6,1.6,0,0,0-.746,1.362,1.55,1.55,0,0,0,.258.876,1.583,1.583,0,0,0,1.364.746,1.531,1.531,0,0,0,.874-.259,29.121,29.121,0,0,1,15.7-4.572c.6,0,1.182.016,1.767.049Z" transform="translate(7.942 2.486)" fill="#fff"/>
    <path id="Path_2225" data-name="Path 2225" d="M16.389,54.707a1.641,1.641,0,0,0-.112,1.232,1.621,1.621,0,0,0,.794.957,32.419,32.419,0,0,0,15.014,3.681,30.967,30.967,0,0,0,4.765-.357,1.605,1.605,0,0,0,1.38-1.589,1.227,1.227,0,0,0-.016-.243,1.649,1.649,0,0,0-1.834-1.378,29.442,29.442,0,0,1-17.8-2.983,1.665,1.665,0,0,0-2.191.681Z" transform="translate(8.828 32.223)" fill="#fff"/>
    <path id="Path_2226" data-name="Path 2226" d="M11.7,24.411a1.607,1.607,0,0,0-1.686,1.557C10,26.34,10,26.681,10,26.989V46.576a1.621,1.621,0,1,0,3.243-.016V26.989c0-.276,0-.567.016-.892a1.621,1.621,0,0,0-.438-1.167,1.581,1.581,0,0,0-1.119-.519Z" transform="translate(4.971 13.925)" fill="#fff"/>
    <path id="Path_2227" data-name="Path 2227" d="M43.094,39.955a1.621,1.621,0,0,0,1.621-1.621v-6.7a25.85,25.85,0,0,0-4.037-13.9c-.016-.032-.032-.049-.05-.081l-.015-.016a1.665,1.665,0,0,0-2.238-.47,1.6,1.6,0,0,0-.746,1.362,1.659,1.659,0,0,0,.259.876,22.593,22.593,0,0,1,3.583,12.225v6.7a1.621,1.621,0,0,0,1.621,1.621Z" transform="translate(22.141 9.277)" fill="#fff"/>
    <path id="Path_2228" data-name="Path 2228" d="M10.841,27a1.921,1.921,0,0,0-.081.519,1.636,1.636,0,0,0,1.119,1.54,1.808,1.808,0,0,0,.5.081,1.639,1.639,0,0,0,1.54-1.119A22.748,22.748,0,0,1,26.5,14.317a1.6,1.6,0,0,0,.876-.876,1.743,1.743,0,0,0-.016-1.248,1.672,1.672,0,0,0-2.126-.859s0,.016-.015.016A26.071,26.071,0,0,0,10.841,27Z" transform="translate(5.444 5.729)" fill="#fff"/>
    <path id="Path_2229" data-name="Path 2229" d="M25.9,56.528a22.784,22.784,0,0,1-6.374-4.508,22.523,22.523,0,0,1-5.74-9.615,1.668,1.668,0,0,0-2.027-1.1,1.621,1.621,0,0,0-.957.778,1.56,1.56,0,0,0-.13,1.232A26.064,26.064,0,0,0,24.523,59.462a1.61,1.61,0,0,0,.681.146,1.634,1.634,0,0,0,1.477-.924,1.754,1.754,0,0,0,.144-.713,1.612,1.612,0,0,0-.923-1.443Z" transform="translate(5.347 24.387)" fill="#fff"/>
    <path id="Path_2230" data-name="Path 2230" d="M43.813,19.292a1.621,1.621,0,0,0,1.07-2.837,25.905,25.905,0,0,0-20.3-6.259h-.032A1.621,1.621,0,0,0,23.14,11.8a1.106,1.106,0,0,0,.015.211,1.664,1.664,0,0,0,1.8,1.411h.032a22.518,22.518,0,0,1,17.738,5.464A1.67,1.67,0,0,0,43.813,19.292Z" transform="translate(13.137 4.97)" fill="#fff"/>
    <path id="Path_2231" data-name="Path 2231" d="M15.621,29.65A1.621,1.621,0,0,0,14,31.271V43.189a19.5,19.5,0,0,0,1.443,7.394,1.625,1.625,0,0,0,3.128-.6,2.165,2.165,0,0,0-.112-.632h-.016l-.018-.049a16.436,16.436,0,0,1-1.182-6.113V31.271A1.621,1.621,0,0,0,15.621,29.65Z" transform="translate(7.457 17.182)" fill="#fff"/>
    <path id="Path_2232" data-name="Path 2232" d="M38.137,42.733a1.621,1.621,0,0,0,1.621-1.621V29.227A19.643,19.643,0,0,0,38.3,21.805a1.647,1.647,0,0,0-2.126-.88A1.621,1.621,0,0,0,35.17,22.4a1.568,1.568,0,0,0,.113.616.016.016,0,0,0,.016.016.123.123,0,0,0,.032.081,16.405,16.405,0,0,1,1.184,6.113V41.112a1.621,1.621,0,0,0,1.621,1.621Z" transform="translate(20.612 11.687)" fill="#fff"/>
    <path id="Path_2233" data-name="Path 2233" d="M24.523,18.785a1.621,1.621,0,0,0,.7-1.021,1.722,1.722,0,0,0-.227-1.232,1.672,1.672,0,0,0-2.254-.454A19.433,19.433,0,0,0,14,32.324v1.281a1.621,1.621,0,1,0,3.243-.032V32.324a16.2,16.2,0,0,1,7.28-13.539Z" transform="translate(7.457 8.59)" fill="#fff"/>
    <path id="Path_2234" data-name="Path 2234" d="M42.408,22.561a1.621,1.621,0,0,0,.1-2.286c-.211-.227-.389-.405-.551-.584A19.579,19.579,0,0,0,23.745,14.5a1.631,1.631,0,0,0-1.266,1.589,1.474,1.474,0,0,0,.05.373,1.636,1.636,0,0,0,1.946,1.2,16.813,16.813,0,0,1,3.713-.422A16.052,16.052,0,0,1,39.65,21.994c.148.146.31.308.47.486a1.672,1.672,0,0,0,1.2.519,1.519,1.519,0,0,0,1.086-.438Z" transform="translate(12.726 7.457)" fill="#fff"/>
    <path id="Path_2235" data-name="Path 2235" d="M36.072,52.948a1.61,1.61,0,0,0,1.248-1.573A3.216,3.216,0,0,0,37.288,51a1.651,1.651,0,0,0-1.946-1.216,16.539,16.539,0,0,1-3.681.422A16.1,16.1,0,0,1,20.2,45.457a4.7,4.7,0,0,1-.486-.5,1.683,1.683,0,0,0-2.3-.1,1.545,1.545,0,0,0-.519,1.119,1.631,1.631,0,0,0,.42,1.167l.018.016c.195.211.388.422.567.6A19.381,19.381,0,0,0,31.662,53.45a19.167,19.167,0,0,0,4.41-.5Z" transform="translate(9.252 26.378)" fill="#fff"/>
    <path id="Path_2236" data-name="Path 2236" d="M21.144,20.989A12.955,12.955,0,0,0,18,29.452V42.034a1.621,1.621,0,0,0,3.243,0V29.452A9.868,9.868,0,0,1,23.594,23.1a1.578,1.578,0,0,0,.388-1.054,1.621,1.621,0,0,0-.55-1.232A1.685,1.685,0,0,0,21.144,20.989Z" transform="translate(9.943 11.462)" fill="#fff"/>
    <path id="Path_2237" data-name="Path 2237" d="M30.971,51.593a12.734,12.734,0,0,0,3.324-.438,1.621,1.621,0,1,0-.827-3.129,9.728,9.728,0,0,1-12.225-9.291v-.114a1.621,1.621,0,0,0-3.243,0v.146A13.022,13.022,0,0,0,30.971,51.593Z" transform="translate(9.943 21.75)" fill="#fff"/>
    <path id="Path_2238" data-name="Path 2238" d="M37.442,30.939a1.631,1.631,0,0,0,1.621,1.589h.016a1.641,1.641,0,0,0,1.605-1.605v-.13A13.026,13.026,0,0,0,27.713,18a13.782,13.782,0,0,0-3.259.405,1.634,1.634,0,0,0-.989.746,1.715,1.715,0,0,0-.178,1.232,1.647,1.647,0,0,0,1.978,1.167,9.552,9.552,0,0,1,2.448-.308,9.767,9.767,0,0,1,9.728,9.566Z" transform="translate(13.201 9.943)" fill="#fff"/>
    <path id="Path_2239" data-name="Path 2239" d="M34.843,28.486A6.494,6.494,0,0,0,28.358,22a6.419,6.419,0,0,0-6.032,4.1,1.55,1.55,0,0,0,.016,1.232,1.621,1.621,0,0,0,.892.876,1.654,1.654,0,0,0,2.108-.908,3.215,3.215,0,0,1,3.016-2.059A3.253,3.253,0,0,1,31.6,28.486v3.908a1.621,1.621,0,0,0,1.621,1.621L33.27,34a1.621,1.621,0,0,0,1.573-1.605Z" transform="translate(12.556 12.428)" fill="#fff"/>
    <path id="Path_2240" data-name="Path 2240" d="M23.621,27.44A1.621,1.621,0,0,0,22,29.061v15.5a6.538,6.538,0,0,0,.47,2.416A1.6,1.6,0,0,0,23.962,48a1.974,1.974,0,0,0,.616-.113,1.621,1.621,0,0,0,.892-2.124,3.288,3.288,0,0,1-.227-1.2v-15.5a1.621,1.621,0,0,0-1.621-1.621Z" transform="translate(12.428 15.809)" fill="#fff"/>
    <path id="Path_2241" data-name="Path 2241" d="M33.107,32.591a1.621,1.621,0,0,0-3.243,0v9.777a3.257,3.257,0,0,1-3.21,3.243h-.032a1.7,1.7,0,0,0-1.151.47A1.667,1.667,0,0,0,25,47.233a1.605,1.605,0,0,0,1.621,1.621H26.7a6.51,6.51,0,0,0,6.4-6.486Z" transform="translate(14.293 18.002)" fill="#fff"/>
    <path id="Path_2252" data-name="Path 2252" d="M65.7,34.03a1.537,1.537,0,0,0-.311-.063c-.016,0-.029.008-.044.008a21.889,21.889,0,0,0-6.4,0c-.015,0-.028-.008-.044-.008a1.537,1.537,0,0,0-.311.063,24.094,24.094,0,0,0-6.688,2,1.46,1.46,0,0,0-.282.136,24.43,24.43,0,0,0-6.8,4.848c-.028.028-.05.057-.076.086a24.471,24.471,0,0,0-4.1,5.623,12.906,12.906,0,0,0,.423-3.257V30.821a1.621,1.621,0,1,0-3.243,0V43.468A9.73,9.73,0,0,1,35.5,49.777a1.578,1.578,0,0,0-.386,1.053,1.621,1.621,0,0,0,2.854,1.054,13.016,13.016,0,0,0,1.151-1.605,24.159,24.159,0,0,0-1.216,6.1c-.306.233-.61.454-.913.649a1.608,1.608,0,0,0-.7,1.021,1.737,1.737,0,0,0,.227,1.232,1.642,1.642,0,0,0,1.362.73h.034a24.048,24.048,0,0,0,.567,3.622A23.173,23.173,0,0,1,24.5,65.9a1.621,1.621,0,0,0-1.85,1.346A1.6,1.6,0,0,0,23.986,69.1H24a25.883,25.883,0,0,0,15.459-2.309A24.332,24.332,0,0,0,40.8,69.722a26.9,26.9,0,0,1-2.51,1.094,1.621,1.621,0,0,0,.567,3.146,1.67,1.67,0,0,0,.567-.1c1.072-.41,2.118-.9,3.146-1.412A24.3,24.3,0,1,0,65.692,34.042ZM62.143,79.14A21.078,21.078,0,1,1,83.221,58.061,21.078,21.078,0,0,1,62.143,79.14Z" transform="translate(12.821 16.903)" fill="#fff"/>
    <path id="Path_2253" data-name="Path 2253" d="M61.811,40.061a1.621,1.621,0,0,0-2.293,0l-9.532,9.531-3.047-3.045a1.621,1.621,0,0,0-2.293,0l-4.585,4.585a1.621,1.621,0,0,0,0,2.293l8.778,8.78a1.621,1.621,0,0,0,2.293,0L66.4,46.939a1.621,1.621,0,0,0,0-2.293Zm-11.825,18.7L43.5,52.28l2.293-2.294,3.047,3.045a1.621,1.621,0,0,0,2.293,0L60.664,43.5l2.293,2.293Z" transform="translate(23.357 23.357)" fill="#fff"/>
  </g>
</svg>
