<svg xmlns="http://www.w3.org/2000/svg" width="113.419" height="103.238" viewBox="0 0 113.419 103.238">
  <g id="padlock" transform="translate(0 -22.964)">
    <path id="Path_2254" data-name="Path 2254" d="M103.432,133.682h34.856a1.663,1.663,0,0,0,0-3.325H103.432a1.663,1.663,0,0,0,0,3.325Z" transform="translate(-79.21 -83.587)" fill="#fff"/>
    <path id="Path_2255" data-name="Path 2255" d="M1.663,185.019a1.663,1.663,0,0,0,1.663-1.663V148.19H53.5a1.663,1.663,0,1,0,0-3.325H3.325v-2.933a8.259,8.259,0,0,1,8.249-8.249h5.562a1.663,1.663,0,0,0,0-3.325H11.574A11.587,11.587,0,0,0,0,141.931v41.425a1.662,1.662,0,0,0,1.663,1.663Z" transform="translate(0 -83.587)" fill="#fff"/>
    <path id="Path_2256" data-name="Path 2256" d="M106.951,307.366a1.663,1.663,0,0,0-1.663,1.663v26.958a8.258,8.258,0,0,1-8.249,8.249H11.574a8.258,8.258,0,0,1-8.249-8.249v-7.774a1.663,1.663,0,1,0-3.325,0v7.774a11.587,11.587,0,0,0,11.574,11.574H97.04a11.587,11.587,0,0,0,11.574-11.574V309.028A1.662,1.662,0,0,0,106.951,307.366Z" transform="translate(0 -221.358)" fill="#fff"/>
    <path id="Path_2257" data-name="Path 2257" d="M272.081,63.8a26.631,26.631,0,0,0,26.173,26.1l.381,0a26.565,26.565,0,0,0,25.031-35.42,1.663,1.663,0,1,0-3.134,1.11,23.232,23.232,0,1,1-37.477-9.475.714.714,0,0,1,.481-.182h30.189a.715.715,0,0,1,.482.182,23.43,23.43,0,0,1,3.2,3.548,1.662,1.662,0,1,0,2.685-1.961,26.745,26.745,0,0,0-3.65-4.053,4.035,4.035,0,0,0-2.712-1.041h-.567V37.492a14.528,14.528,0,0,0-29.056,0V42.61h-.567a4.033,4.033,0,0,0-2.711,1.041A26.573,26.573,0,0,0,272.081,63.8Zm31.1-21.186h-9.105V37.492a4.553,4.553,0,0,1,9.105,0V42.61Zm-15.755-5.119a11.2,11.2,0,0,1,22.406,0V42.61h-3.325V37.492a7.878,7.878,0,0,0-15.755,0V42.61h-3.325Z" transform="translate(-211.766 0)" fill="#fff"/>
    <path id="Path_2258" data-name="Path 2258" d="M42.028,166.574a1.663,1.663,0,1,0,0,3.325h1.389a1.663,1.663,0,1,0,0-3.325Z" transform="translate(-31.417 -111.776)" fill="#fff"/>
    <path id="Path_2259" data-name="Path 2259" d="M79.523,168.237a1.663,1.663,0,0,0,1.663,1.663h1.389a1.663,1.663,0,1,0,0-3.325H81.186A1.663,1.663,0,0,0,79.523,168.237Z" transform="translate(-61.895 -111.776)" fill="#fff"/>
    <path id="Path_2260" data-name="Path 2260" d="M120.345,166.574a1.663,1.663,0,1,0,0,3.325h1.389a1.663,1.663,0,1,0,0-3.325Z" transform="translate(-92.374 -111.776)" fill="#fff"/>
    <path id="Path_2261" data-name="Path 2261" d="M159.5,166.574a1.663,1.663,0,0,0,0,3.325h16.853a1.663,1.663,0,0,0,0-3.325Z" transform="translate(-122.852 -111.776)" fill="#fff"/>
    <path id="Path_2262" data-name="Path 2262" d="M359.888,180.83a3.391,3.391,0,0,0,2.763,1.4h7.616a3.425,3.425,0,0,0,3.265-4.459l-1.477-4.664a7.189,7.189,0,1,0-11.193,0l-1.477,4.664a3.393,3.393,0,0,0,.5,3.058Zm2.668-2.054,1.506-4.757a3.159,3.159,0,0,0-.588-2.969,3.864,3.864,0,0,1,2.984-6.318q.125,0,.25.008a3.9,3.9,0,0,1,3.607,3.62,3.859,3.859,0,0,1-.874,2.693,3.151,3.151,0,0,0-.586,2.966l1.506,4.757a.1.1,0,0,1-.1.131h-7.616a.1.1,0,0,1-.1-.13Z" transform="translate(-279.594 -107.754)" fill="#fff"/>
    <path id="Path_2263" data-name="Path 2263" d="M64.37,260.876a1.663,1.663,0,1,0-3.325,0V270.2a1.663,1.663,0,1,0,3.325,0Z" transform="translate(-47.513 -183.88)" fill="#fff"/>
    <path id="Path_2264" data-name="Path 2264" d="M195.687,260.876a1.663,1.663,0,1,0-3.325,0V270.2a1.663,1.663,0,1,0,3.325,0Z" transform="translate(-149.721 -183.88)" fill="#fff"/>
    <path id="Path_2265" data-name="Path 2265" d="M121.011,264.466a5.253,5.253,0,0,0-10.507,0v2.141a5.253,5.253,0,0,0,10.507,0Zm-3.325,2.141a1.928,1.928,0,1,1-3.857,0v-2.141a1.928,1.928,0,0,1,3.857,0Z" transform="translate(-86.009 -183.88)" fill="#fff"/>
    <path id="Path_2266" data-name="Path 2266" d="M62.708,364.677a1.663,1.663,0,0,0-1.663,1.663v9.322a1.663,1.663,0,1,0,3.325,0V366.34A1.662,1.662,0,0,0,62.708,364.677Z" transform="translate(-47.513 -265.965)" fill="#fff"/>
    <path id="Path_2267" data-name="Path 2267" d="M194.025,364.677a1.663,1.663,0,0,0-1.663,1.663v9.322a1.663,1.663,0,1,0,3.325,0V366.34A1.662,1.662,0,0,0,194.025,364.677Z" transform="translate(-149.721 -265.965)" fill="#fff"/>
    <path id="Path_2268" data-name="Path 2268" d="M115.758,364.677a5.259,5.259,0,0,0-5.253,5.253v2.141a5.253,5.253,0,0,0,10.507,0V369.93A5.26,5.26,0,0,0,115.758,364.677Zm1.928,7.394a1.928,1.928,0,0,1-3.857,0V369.93a1.928,1.928,0,1,1,3.857,0Z" transform="translate(-86.009 -265.965)" fill="#fff"/>
    <path id="Path_2269" data-name="Path 2269" d="M319.347,366.34v9.322a1.663,1.663,0,1,0,3.325,0V366.34a1.663,1.663,0,1,0-3.325,0Z" transform="translate(-248.557 -265.965)" fill="#fff"/>
    <path id="Path_2270" data-name="Path 2270" d="M237.489,369.929v2.141a5.253,5.253,0,0,0,10.507,0v-2.141a5.253,5.253,0,1,0-10.507,0Zm7.182,0v2.141a1.928,1.928,0,0,1-3.857,0v-2.141a1.928,1.928,0,0,1,3.857,0Z" transform="translate(-184.845 -265.965)" fill="#fff"/>
    <path id="Path_2271" data-name="Path 2271" d="M368.807,369.929v2.141a5.253,5.253,0,0,0,10.507,0v-2.141a5.253,5.253,0,0,0-10.507,0Zm7.182,0v2.141a1.928,1.928,0,0,1-3.857,0v-2.141a1.928,1.928,0,0,1,3.857,0Z" transform="translate(-287.053 -265.965)" fill="#fff"/>
  </g>
</svg>
