<svg xmlns="http://www.w3.org/2000/svg" width="118.976" height="112.354" viewBox="0 0 118.976 112.354">
  <g id="cloud-computing_1_" data-name="cloud-computing (1)" transform="translate(0 -14.25)">
    <path id="Path_2272" data-name="Path 2272" d="M83.887,126.6a5.228,5.228,0,0,1-4.718-7.481l-5.741-5.74a1.743,1.743,0,0,1-.51-1.233v-4.014a54.323,54.323,0,0,1-11.688,6.437v1.873a5.228,5.228,0,1,1-3.486,0v-1.873a54.322,54.322,0,0,1-11.688-6.436v4.014a1.744,1.744,0,0,1-.51,1.233l-5.741,5.74a5.23,5.23,0,1,1-2.465-2.465l5.23-5.23V105.38a28.272,28.272,0,0,1-3.81-3.989h-13.4A25.365,25.365,0,0,1,12.077,54.42a33.1,33.1,0,0,1,4.91-25.668,1.743,1.743,0,0,1,2.884,1.958,29.617,29.617,0,0,0-4.11,24.121A1.743,1.743,0,0,1,14.91,56.8a21.88,21.88,0,0,0,10.452,41.1H36.682c-5.4-11.385-7.327-33.26-7.327-38.1a2.787,2.787,0,0,1,1.273-2.411c5.418-3.25,14.626-6.687,27.37-10.213a7.907,7.907,0,0,1,1.49-.322,7.89,7.89,0,0,1,1.489.322c1.941.537,6.486,1.795,11.577,3.5a1.743,1.743,0,1,1-1.107,3.305c-5-1.674-9.486-2.915-11.4-3.444l-.559-.155-.56.155C44.024,54.664,36.543,58,32.844,60.134c.092,4.987,2.116,27.473,7.624,37.529,3.169,5.787,13.9,12.113,19.02,13.829,5.117-1.718,15.851-8.043,19.02-13.829,5.507-10.056,7.532-32.542,7.624-37.529a62.164,62.164,0,0,0-8.229-3.82,1.743,1.743,0,0,1,1.273-3.245,63.024,63.024,0,0,1,9.172,4.324A2.787,2.787,0,0,1,89.621,59.8c0,5.053-2.1,28.664-8.056,39.533a23.536,23.536,0,0,1-5.161,6.042v6.048l5.23,5.23a5.228,5.228,0,1,1,2.253,9.946Zm0-6.971a1.743,1.743,0,1,0,1.743,1.743A1.745,1.745,0,0,0,83.887,119.632Zm-24.4,0a1.743,1.743,0,1,0,1.743,1.743A1.745,1.745,0,0,0,59.488,119.632Zm-24.4,0a1.743,1.743,0,1,0,1.743,1.743A1.745,1.745,0,0,0,35.089,119.632Zm24.4-12a1.741,1.741,0,0,1-.7-.145,51.1,51.1,0,0,1-10.587-6.481A1.743,1.743,0,0,1,50.39,98.29a49.815,49.815,0,0,0,7.355,4.812V81.664H42.536a53.5,53.5,0,0,0,3.688,11.96A1.743,1.743,0,0,1,43.1,95.167c-4.025-8.156-6.087-24.382-6.615-31.823a1.743,1.743,0,0,1,.989-1.7,141.3,141.3,0,0,1,21.546-7.514,1.748,1.748,0,0,1,.939,0A141.258,141.258,0,0,1,81.5,61.647a1.743,1.743,0,0,1,.989,1.7c-.558,7.863-2.748,24.806-7.042,32.645-2.276,4.157-10.329,9.349-15.266,11.5a1.743,1.743,0,0,1-.7.145Zm1.742-25.969v21.441c4.564-2.428,9.777-6.261,11.163-8.791,3.552-6.484,5.793-21.036,6.53-30.021a137.745,137.745,0,0,0-17.693-6.174V78.178H71.584a1.743,1.743,0,0,1,0,3.486ZM41.863,78.178H57.745V58.119a137.767,137.767,0,0,0-17.693,6.174C40.35,67.892,40.943,73.012,41.863,78.178Zm56.222,23.212H87.459a1.743,1.743,0,1,1,0-3.486H98.085a17.4,17.4,0,1,0,0-34.81,1.743,1.743,0,0,1-1.743-1.743A19.1,19.1,0,0,0,77.27,42.28a19.45,19.45,0,0,0-2.15.121,1.741,1.741,0,0,1-1.9-1.365,29.553,29.553,0,0,0-48.7-15.675,1.743,1.743,0,0,1-2.338-2.585,32.962,32.962,0,0,1,22.15-8.526c18.692,0,29.121,13.737,31.936,24.566q.5-.022,1-.022a22.588,22.588,0,0,1,22.5,20.883,20.891,20.891,0,0,1-1.681,41.714Z" fill="#fff"/>
  </g>
</svg>
