<svg id="firewall" xmlns="http://www.w3.org/2000/svg" width="106" height="106" viewBox="0 0 106 106">
  <g id="Group_734" data-name="Group 734">
    <g id="Group_733" data-name="Group 733">
      <path id="Path_2273" data-name="Path 2273" d="M3.533,19.433H26.5A3.538,3.538,0,0,0,30.033,15.9V3.533A3.538,3.538,0,0,0,26.5,0H3.533A3.538,3.538,0,0,0,0,3.533V15.9A3.538,3.538,0,0,0,3.533,19.433Zm0-15.9H26.5l0,12.367H3.533Z" fill="#fff"/>
      <path id="Path_2274" data-name="Path 2274" d="M39.434,34.133H35.9a1.767,1.767,0,0,0,0,3.533h3.533a1.767,1.767,0,1,0,0-3.533Z" transform="translate(-27.067 -27.066)" fill="#fff"/>
      <path id="Path_2275" data-name="Path 2275" d="M165.666,19.433h31.8A3.538,3.538,0,0,0,201,15.9V3.533A3.538,3.538,0,0,0,197.466,0h-31.8a3.538,3.538,0,0,0-3.533,3.533V15.9A3.538,3.538,0,0,0,165.666,19.433Zm0-15.9h31.8l0,12.367h-31.8Z" transform="translate(-128.566)" fill="#fff"/>
      <path id="Path_2276" data-name="Path 2276" d="M206.867,34.133h-8.833a1.767,1.767,0,0,0,0,3.533h8.833a1.767,1.767,0,1,0,0-3.533Z" transform="translate(-155.634 -27.066)" fill="#fff"/>
      <path id="Path_2277" data-name="Path 2277" d="M44.734,145.067H35.9a1.767,1.767,0,1,0,0,3.533h8.833a1.767,1.767,0,1,0,0-3.533Z" transform="translate(-27.067 -115.034)" fill="#fff"/>
      <path id="Path_2278" data-name="Path 2278" d="M102.466,110.933H3.533A3.538,3.538,0,0,0,0,114.466v12.367a3.538,3.538,0,0,0,3.533,3.533H33.567v10.6H30.033v-3.533A3.538,3.538,0,0,0,26.5,133.9H3.533A3.538,3.538,0,0,0,0,137.433V149.8a3.538,3.538,0,0,0,3.533,3.533H21.2v3.533H3.533A3.538,3.538,0,0,0,0,160.4v12.367A3.538,3.538,0,0,0,3.533,176.3H21.2v8.833a8.844,8.844,0,0,0,8.833,8.833H75.967a8.844,8.844,0,0,0,8.833-8.833V176.3h17.667A3.538,3.538,0,0,0,106,172.766V160.4a3.538,3.538,0,0,0-3.533-3.533H84.8v-3.533h17.667A3.538,3.538,0,0,0,106,149.8V137.433a3.538,3.538,0,0,0-3.533-3.533H79.5a3.538,3.538,0,0,0-3.533,3.533v3.533H72.433v-10.6h30.033A3.538,3.538,0,0,0,106,126.833V114.466A3.538,3.538,0,0,0,102.466,110.933ZM21.2,172.766H3.533V160.4H21.2Zm24.733-58.3H60.067A8.844,8.844,0,0,1,68.9,123.3v17.667H65.367V123.3a5.306,5.306,0,0,0-5.3-5.3H45.933a5.306,5.306,0,0,0-5.3,5.3v17.667H37.1V123.3A8.844,8.844,0,0,1,45.933,114.466Zm15.9,8.833v17.667H44.167V123.3a1.768,1.768,0,0,1,1.767-1.767H60.067A1.768,1.768,0,0,1,61.833,123.3Zm-58.3,3.533V114.466H37.3a12.324,12.324,0,0,0-3.729,8.833v3.533H3.533ZM21.2,149.8H3.533V137.433H26.5v4.279A8.806,8.806,0,0,0,21.2,149.8Zm81.266,10.6v12.367H84.8V160.4ZM79.5,137.433h22.967V149.8H84.8a8.807,8.807,0,0,0-5.3-8.091ZM75.966,144.5a4.813,4.813,0,0,1,1.33.174,5.279,5.279,0,0,1,3.97,5.126v35.333a5.306,5.306,0,0,1-5.3,5.3H30.033a5.306,5.306,0,0,1-5.3-5.3V149.8a5.291,5.291,0,0,1,4.011-5.136,4.7,4.7,0,0,1,1.289-.164Zm26.5-17.667H72.433V123.3a12.323,12.323,0,0,0-3.729-8.833h33.762Z" transform="translate(0 -87.966)" fill="#fff"/>
      <path id="Path_2279" data-name="Path 2279" d="M35.9,370.467h8.833a1.767,1.767,0,1,0,0-3.533H35.9a1.767,1.767,0,1,0,0,3.533Z" transform="translate(-27.067 -290.967)" fill="#fff"/>
      <path id="Path_2280" data-name="Path 2280" d="M393.433,0H370.466a3.538,3.538,0,0,0-3.533,3.533V15.9a3.538,3.538,0,0,0,3.533,3.533h22.967a3.538,3.538,0,0,0,3.533-3.533V3.533A3.538,3.538,0,0,0,393.433,0ZM370.466,15.9V3.533h22.967l0,12.367Z" transform="translate(-290.967)" fill="#fff"/>
      <path id="Path_2281" data-name="Path 2281" d="M455.8,34.133h-1.767a1.767,1.767,0,0,0,0,3.533H455.8a1.767,1.767,0,1,0,0-3.533Z" transform="translate(-358.634 -27.066)" fill="#fff"/>
      <path id="Path_2282" data-name="Path 2282" d="M39.434,256H35.9a1.767,1.767,0,0,0,0,3.533h3.533a1.767,1.767,0,1,0,0-3.533Z" transform="translate(-27.067 -203)" fill="#fff"/>
      <path id="Path_2283" data-name="Path 2283" d="M454.034,259.534H455.8a1.767,1.767,0,1,0,0-3.533h-1.767a1.767,1.767,0,0,0,0,3.533Z" transform="translate(-358.634 -203.001)" fill="#fff"/>
      <path id="Path_2284" data-name="Path 2284" d="M188.334,334a17.667,17.667,0,1,0-17.667-17.667A17.667,17.667,0,0,0,188.334,334Zm0-31.8A14.133,14.133,0,1,1,174.2,316.334,14.133,14.133,0,0,1,188.334,302.2Z" transform="translate(-135.334 -236.834)" fill="#fff"/>
      <path id="Path_2285" data-name="Path 2285" d="M227.165,355.215V359a1.767,1.767,0,0,0,3.533,0v-3.784a7.065,7.065,0,1,0-3.533,0Zm1.767-10.349A3.533,3.533,0,1,1,225.4,348.4,3.533,3.533,0,0,1,228.932,344.866Z" transform="translate(-175.932 -270.667)" fill="#fff"/>
    </g>
  </g>
</svg>
