<svg xmlns="http://www.w3.org/2000/svg" width="96.281" height="96.281" viewBox="0 0 96.281 96.281">
  <g id="security_2_" data-name="security (2)" transform="translate(-16 -16)">
    <path id="Path_2286" data-name="Path 2286" d="M227.4,35.256V22.419A6.426,6.426,0,0,0,220.978,16H166.419A6.426,6.426,0,0,0,160,22.419V35.256a6.43,6.43,0,0,0,4.814,6.216V46.7a6.428,6.428,0,0,0-4.448,4.071l3.026,1.07a3.215,3.215,0,0,1,3.027-2.139h54.559a3.213,3.213,0,0,1,3.209,3.209V65.745a3.213,3.213,0,0,1-3.209,3.209H174.442v3.209h35.3v4.814H179.256v3.209h41.722a3.213,3.213,0,0,1,3.209,3.209V96.234a3.213,3.213,0,0,1-3.209,3.209H179.256v3.209h30.489v8.023a1.6,1.6,0,0,0,1.6,1.6h9.628a1.6,1.6,0,0,0,1.6-1.6V102.45a6.43,6.43,0,0,0,4.814-6.216V83.4a6.43,6.43,0,0,0-4.814-6.216v-5.22a6.43,6.43,0,0,0,4.814-6.216V52.908a6.43,6.43,0,0,0-4.814-6.216v-5.22a6.43,6.43,0,0,0,4.814-6.216Zm-14.442,73.815v-6.419h6.419v6.419Zm0-36.908h6.419v4.814h-6.419ZM174.442,41.675v4.814h-6.419V41.675Zm3.209,0h32.094v4.814H177.651Zm35.3,0h6.419v4.814h-6.419Zm-49.745-6.419V22.419a3.213,3.213,0,0,1,3.209-3.209h54.559a3.213,3.213,0,0,1,3.209,3.209V35.256a3.213,3.213,0,0,1-3.209,3.209H166.419A3.213,3.213,0,0,1,163.209,35.256Z" transform="translate(-115.116)" fill="#fff"/>
    <path id="Path_2287" data-name="Path 2287" d="M193.628,60.814a4.814,4.814,0,1,0-4.814,4.814A4.814,4.814,0,0,0,193.628,60.814Zm-6.419,0a1.6,1.6,0,1,1,1.6,1.6A1.6,1.6,0,0,1,187.209,60.814Z" transform="translate(-134.302 -31.977)" fill="#fff"/>
    <path id="Path_2288" data-name="Path 2288" d="M244.814,65.628A4.814,4.814,0,1,0,240,60.814,4.814,4.814,0,0,0,244.814,65.628Zm0-6.419a1.6,1.6,0,1,1-1.6,1.6,1.6,1.6,0,0,1,1.6-1.6Z" transform="translate(-179.069 -31.977)" fill="#fff"/>
    <path id="Path_2289" data-name="Path 2289" d="M300.814,65.628A4.814,4.814,0,1,0,296,60.814,4.814,4.814,0,0,0,300.814,65.628Zm0-6.419a1.6,1.6,0,1,1-1.6,1.6,1.6,1.6,0,0,1,1.6-1.6Z" transform="translate(-223.836 -31.977)" fill="#fff"/>
    <path id="Path_2290" data-name="Path 2290" d="M384,48h14.442v3.209H384Z" transform="translate(-294.185 -25.581)" fill="#fff"/>
    <path id="Path_2291" data-name="Path 2291" d="M384,72h14.442v3.209H384Z" transform="translate(-294.185 -44.767)" fill="#fff"/>
    <path id="Path_2292" data-name="Path 2292" d="M384,96h14.442v3.209H384Z" transform="translate(-294.185 -63.953)" fill="#fff"/>
    <path id="Path_2293" data-name="Path 2293" d="M212.169,215.222A4.815,4.815,0,0,0,208,208v3.209a1.607,1.607,0,0,1,1.6,1.6,1.579,1.579,0,0,1-.214.8Z" transform="translate(-153.488 -153.488)" fill="#fff"/>
    <path id="Path_2294" data-name="Path 2294" d="M249.628,212.814a4.814,4.814,0,1,0-4.814,4.814,4.814,4.814,0,0,0,4.814-4.814Zm-6.419,0a1.6,1.6,0,1,1,1.6,1.6A1.6,1.6,0,0,1,243.209,212.814Z" transform="translate(-179.069 -153.488)" fill="#fff"/>
    <path id="Path_2295" data-name="Path 2295" d="M305.628,212.814a4.814,4.814,0,1,0-4.814,4.814A4.814,4.814,0,0,0,305.628,212.814Zm-6.419,0a1.6,1.6,0,1,1,1.6,1.6A1.6,1.6,0,0,1,299.209,212.814Z" transform="translate(-223.836 -153.488)" fill="#fff"/>
    <path id="Path_2296" data-name="Path 2296" d="M384,200h14.442v3.209H384Z" transform="translate(-294.185 -147.092)" fill="#fff"/>
    <path id="Path_2297" data-name="Path 2297" d="M384,224h14.442v3.209H384Z" transform="translate(-294.185 -166.278)" fill="#fff"/>
    <path id="Path_2298" data-name="Path 2298" d="M384,248h14.442v3.209H384Z" transform="translate(-294.185 -185.464)" fill="#fff"/>
    <path id="Path_2299" data-name="Path 2299" d="M254.4,366.418a1.581,1.581,0,0,1-.8-.214l-1.607,2.778a4.814,4.814,0,1,0,0-8.338l1.607,2.778a1.58,1.58,0,0,1,.8-.214,1.6,1.6,0,1,1,0,3.209Z" transform="translate(-188.658 -274.998)" fill="#fff"/>
    <path id="Path_2300" data-name="Path 2300" d="M305.628,364.814a4.814,4.814,0,1,0-4.814,4.814A4.814,4.814,0,0,0,305.628,364.814Zm-6.419,0a1.6,1.6,0,1,1,1.6,1.6A1.6,1.6,0,0,1,299.209,364.814Z" transform="translate(-223.836 -274.999)" fill="#fff"/>
    <path id="Path_2301" data-name="Path 2301" d="M384,352h14.442v3.209H384Z" transform="translate(-294.185 -268.603)" fill="#fff"/>
    <path id="Path_2302" data-name="Path 2302" d="M384,376h14.442v3.209H384Z" transform="translate(-294.185 -287.789)" fill="#fff"/>
    <path id="Path_2303" data-name="Path 2303" d="M384,400h14.442v3.209H384Z" transform="translate(-294.185 -306.975)" fill="#fff"/>
    <path id="Path_2304" data-name="Path 2304" d="M59.326,220.861H56.117v-3.209a17.651,17.651,0,0,0-35.3,0v3.209H17.6a1.6,1.6,0,0,0-1.6,1.6v35.3a1.6,1.6,0,0,0,1.6,1.6H59.326a1.6,1.6,0,0,0,1.6-1.6v-35.3a1.6,1.6,0,0,0-1.6-1.6Zm-35.3-3.209a14.442,14.442,0,0,1,28.884,0v3.209H48.094v-3.209a9.628,9.628,0,1,0-19.256,0v3.209H24.023Zm20.861,3.209H32.047v-3.209a6.419,6.419,0,0,1,12.837,0Zm12.837,35.3H19.209V224.07H57.722Z" transform="translate(0 -147.092)" fill="#fff"/>
    <path id="Path_2305" data-name="Path 2305" d="M97.6,369.646a1.6,1.6,0,0,0,1.6,1.6h6.419a1.6,1.6,0,0,0,1.6-1.6v-6.989a6.419,6.419,0,1,0-9.628,0Zm4.814-14.442a3.209,3.209,0,0,1,2.139,5.6,1.6,1.6,0,0,0-.534,1.2v6.041h-3.209V362a1.6,1.6,0,0,0-.534-1.2,3.209,3.209,0,0,1,2.139-5.6Z" transform="translate(-63.953 -268.598)" fill="#fff"/>
  </g>
</svg>
