<svg id="atom" xmlns="http://www.w3.org/2000/svg" width="105.403" height="105.403" viewBox="0 0 105.403 105.403">
  <g id="Group_736" data-name="Group 736" transform="translate(7.027)">
    <g id="Group_735" data-name="Group 735">
      <path id="Path_2306" data-name="Path 2306" d="M77.675,0C49.462,0,32,20.973,32,40.4c0,12.906,5.9,26.9,15.81,37.586V96.62a1.756,1.756,0,0,0,1.755,1.757h7.029v5.27a1.756,1.756,0,0,0,1.755,1.757H97a1.756,1.756,0,0,0,1.757-1.755V98.376h7.027a1.756,1.756,0,0,0,1.757-1.755V77.991C117.45,67.309,123.35,53.311,123.35,40.4,123.35,20.973,105.887,0,77.675,0ZM95.242,101.89H60.108V98.376H95.242Zm8.784-7.027h-52.7V91.35h52.7Zm0-7.027h-52.7V84.323h52.7Zm.482-11.75a1.761,1.761,0,0,0-.482,1.21v3.513h-52.7V77.3a1.761,1.761,0,0,0-.482-1.21C41.243,65.98,35.513,52.642,35.513,40.4c0-17.742,16.119-36.891,42.161-36.891S119.836,22.662,119.836,40.4C119.836,52.642,114.106,65.98,104.508,76.086Z" transform="translate(-32)" fill="#fff"/>
    </g>
  </g>
  <g id="Group_738" data-name="Group 738" transform="translate(17.567 7.027)">
    <g id="Group_737" data-name="Group 737">
      <path id="Path_2307" data-name="Path 2307" d="M148.873,61.47l-3.887-.813c-.19-.847-.42-1.7-.688-2.537l2.978-2.657a1.76,1.76,0,0,0,.446-2,35.276,35.276,0,0,0-4.34-7.4,1.744,1.744,0,0,0-1.945-.609l-3.757,1.228c-.6-.648-1.223-1.273-1.873-1.867l1.228-3.73a1.757,1.757,0,0,0-.612-1.956A35.451,35.451,0,0,0,129,34.808a1.759,1.759,0,0,0-1.992.443l-2.675,2.971q-1.269-.4-2.548-.684l-.825-4.126A1.756,1.756,0,0,0,119.234,32h-8.2a1.756,1.756,0,0,0-1.722,1.412l-.825,4.126q-1.276.283-2.548.684l-2.675-2.971a1.768,1.768,0,0,0-1.992-.443,35.509,35.509,0,0,0-7.427,4.322,1.757,1.757,0,0,0-.612,1.956l1.23,3.73c-.652.6-1.278,1.22-1.873,1.867l-3.755-1.23a1.761,1.761,0,0,0-1.947.607,35.223,35.223,0,0,0-4.342,7.4,1.758,1.758,0,0,0,.446,2l2.978,2.657c-.268.841-.5,1.688-.688,2.536L81.4,61.47A1.756,1.756,0,0,0,80,63.189v8.164a1.756,1.756,0,0,0,1.4,1.719l3.887.813c.19.847.42,1.7.688,2.537L82.995,79.08a1.76,1.76,0,0,0-.446,2,35.275,35.275,0,0,0,4.34,7.4,1.748,1.748,0,0,0,1.945.609l3.757-1.228c.6.648,1.223,1.273,1.873,1.867l-1.228,3.73a1.754,1.754,0,0,0,.612,1.954,35.387,35.387,0,0,0,7.427,4.323,1.759,1.759,0,0,0,1.992-.443l2.675-2.971c.849.268,1.705.5,2.56.688l.817,3.869a1.757,1.757,0,0,0,1.719,1.393h8.2a1.757,1.757,0,0,0,1.719-1.393l.817-3.869c.854-.19,1.71-.42,2.56-.688L127,99.291a1.757,1.757,0,0,0,1.992.443,35.4,35.4,0,0,0,7.427-4.323,1.754,1.754,0,0,0,.612-1.954l-1.228-3.728c.647-.592,1.273-1.216,1.872-1.867l3.757,1.228a1.749,1.749,0,0,0,1.945-.607,35.224,35.224,0,0,0,4.342-7.4,1.758,1.758,0,0,0-.446-2L144.3,76.422c.268-.841.5-1.688.688-2.536l3.887-.815a1.756,1.756,0,0,0,1.4-1.719V63.188A1.755,1.755,0,0,0,148.873,61.47Zm-2.117,8.456-3.621.76a1.757,1.757,0,0,0-1.369,1.4,26.449,26.449,0,0,1-1.156,4.272,1.756,1.756,0,0,0,.482,1.908l2.882,2.572a32.064,32.064,0,0,1-2.659,4.514l-3.64-1.191a1.756,1.756,0,0,0-1.882.528,27.364,27.364,0,0,1-3.152,3.139,1.757,1.757,0,0,0-.535,1.894l1.191,3.611a32.053,32.053,0,0,1-4.538,2.65l-2.589-2.877a1.753,1.753,0,0,0-1.9-.479,27.373,27.373,0,0,1-4.3,1.153,1.757,1.757,0,0,0-1.407,1.366l-.76,3.6h-5.349l-.76-3.6a1.757,1.757,0,0,0-1.407-1.366,27.321,27.321,0,0,1-4.3-1.153,1.744,1.744,0,0,0-1.9.479l-2.589,2.877a32.163,32.163,0,0,1-4.538-2.65l1.191-3.613a1.757,1.757,0,0,0-.535-1.894,27.087,27.087,0,0,1-3.152-3.138,1.758,1.758,0,0,0-1.884-.53l-3.639,1.191A31.8,31.8,0,0,1,86.3,80.842l2.88-2.572a1.756,1.756,0,0,0,.482-1.908A26.565,26.565,0,0,1,88.5,72.089a1.756,1.756,0,0,0-1.369-1.4l-3.622-.758v-5.31l3.621-.76a1.757,1.757,0,0,0,1.369-1.4,26.469,26.469,0,0,1,1.156-4.272,1.756,1.756,0,0,0-.482-1.908L86.3,53.7a31.938,31.938,0,0,1,2.659-4.512l3.639,1.191a1.761,1.761,0,0,0,1.885-.53,27.409,27.409,0,0,1,3.153-3.141,1.759,1.759,0,0,0,.532-1.892L96.974,41.2a32.017,32.017,0,0,1,4.539-2.65l2.587,2.877a1.74,1.74,0,0,0,1.9.479,27,27,0,0,1,4.3-1.151,1.758,1.758,0,0,0,1.412-1.385l.772-3.86h5.318l.772,3.86a1.756,1.756,0,0,0,1.412,1.385,27.072,27.072,0,0,1,4.3,1.151,1.75,1.75,0,0,0,1.9-.479l2.589-2.877A32.164,32.164,0,0,1,133.3,41.2l-1.191,3.613a1.757,1.757,0,0,0,.535,1.894,27.105,27.105,0,0,1,3.152,3.138,1.764,1.764,0,0,0,1.884.53l3.639-1.191a31.8,31.8,0,0,1,2.657,4.512l-2.88,2.572a1.756,1.756,0,0,0-.482,1.908,26.565,26.565,0,0,1,1.156,4.273,1.756,1.756,0,0,0,1.369,1.4l3.621.759Z" transform="translate(-80.001 -32)" fill="#fff"/>
    </g>
  </g>
  <g id="Group_740" data-name="Group 740" transform="translate(34.272 23.732)">
    <g id="Group_739" data-name="Group 739">
      <path id="Path_2308" data-name="Path 2308" d="M189.857,126.5a27.833,27.833,0,0,0,2.122-4.714c1.63-4.888,1.158-8.948-1.328-11.434s-6.541-2.956-11.434-1.328a27.832,27.832,0,0,0-4.714,2.122,27.834,27.834,0,0,0-4.714-2.122c-4.889-1.628-8.95-1.16-11.434,1.328s-2.958,6.547-1.328,11.434a27.835,27.835,0,0,0,2.122,4.714,27.818,27.818,0,0,0-2.122,4.714c-1.63,4.888-1.158,8.948,1.328,11.434a8.367,8.367,0,0,0,6.126,2.282,16.957,16.957,0,0,0,5.308-.954,27.817,27.817,0,0,0,4.714-2.122,27.817,27.817,0,0,0,4.714,2.122,16.956,16.956,0,0,0,5.308.954,8.368,8.368,0,0,0,6.126-2.282c2.486-2.486,2.958-6.547,1.328-11.434A27.834,27.834,0,0,0,189.857,126.5ZM160.838,112.84a5.038,5.038,0,0,1,3.665-1.246,13.417,13.417,0,0,1,4.174.767,22.7,22.7,0,0,1,2.394.975,42.75,42.75,0,0,0-9.736,9.736,22.641,22.641,0,0,1-.975-2.394C159.19,117.17,159.365,114.314,160.838,112.84Zm7.839,27.807c-3.508,1.172-6.365,1-7.838-.479s-1.649-4.33-.479-7.838a22.7,22.7,0,0,1,.975-2.394,42.75,42.75,0,0,0,9.736,9.736A22.563,22.563,0,0,1,168.677,140.647ZM163.239,126.5A39.175,39.175,0,0,1,174.5,115.241,39.175,39.175,0,0,1,185.766,126.5,39.175,39.175,0,0,1,174.5,137.768,39.171,39.171,0,0,1,163.239,126.5Zm24.928,13.664c-1.475,1.475-4.33,1.65-7.838.479a22.7,22.7,0,0,1-2.394-.975,42.75,42.75,0,0,0,9.736-9.736,22.609,22.609,0,0,1,.975,2.394h0C189.816,135.838,189.641,138.695,188.167,140.168Zm.478-19.49a22.7,22.7,0,0,1-.975,2.394,42.75,42.75,0,0,0-9.736-9.736,22.639,22.639,0,0,1,2.394-.975,13.417,13.417,0,0,1,4.174-.767,5.038,5.038,0,0,1,3.665,1.246C189.641,114.314,189.816,117.17,188.646,120.678Z" transform="translate(-156.073 -108.075)" fill="#fff"/>
    </g>
  </g>
  <g id="Group_742" data-name="Group 742" transform="translate(50.067 39.526)">
    <g id="Group_741" data-name="Group 741">
      <path id="Path_2309" data-name="Path 2309" d="M230.635,180a2.635,2.635,0,1,0,2.635,2.635A2.635,2.635,0,0,0,230.635,180Zm0,3.513a.878.878,0,1,1,.878-.878A.878.878,0,0,1,230.635,183.513Z" transform="translate(-228 -180)" fill="#fff"/>
    </g>
  </g>
  <g id="Group_744" data-name="Group 744">
    <g id="Group_743" data-name="Group 743">
      <path id="Path_2310" data-name="Path 2310" d="M7.027,3.513V0H3.513V3.513H0V7.027H3.513V10.54H7.027V7.027H10.54V3.513Z" fill="#fff"/>
    </g>
  </g>
  <g id="Group_746" data-name="Group 746" transform="translate(94.863)">
    <g id="Group_745" data-name="Group 745">
      <path id="Path_2311" data-name="Path 2311" d="M439.027,3.513V0h-3.513V3.513H432V7.027h3.513V10.54h3.513V7.027h3.513V3.513Z" transform="translate(-432)" fill="#fff"/>
    </g>
  </g>
  <g id="Group_748" data-name="Group 748" transform="translate(5.27 94.863)">
    <g id="Group_747" data-name="Group 747">
      <path id="Path_2312" data-name="Path 2312" d="M31.027,435.513V432H27.513v3.513H24v3.513h3.513v3.513h3.513v-3.513H34.54v-3.513Z" transform="translate(-24 -432)" fill="#fff"/>
    </g>
  </g>
  <g id="Group_750" data-name="Group 750" transform="translate(94.863 91.35)">
    <g id="Group_749" data-name="Group 749">
      <path id="Path_2313" data-name="Path 2313" d="M439.027,419.513V416h-3.513v3.513H432v3.513h3.513v3.513h3.513v-3.513h3.513v-3.513Z" transform="translate(-432 -416)" fill="#fff"/>
    </g>
  </g>
</svg>
