<svg xmlns="http://www.w3.org/2000/svg" width="106.552" height="114.669" viewBox="0 0 106.552 114.669">
  <g id="charging-status" transform="translate(-11.479)">
    <path id="Path_1935" data-name="Path 1935" d="M61.545,13.809H26.791V5.3h31.83V8.495a2.652,2.652,0,0,0,5.3,0V2.652A2.651,2.651,0,0,0,61.273,0H24.14a2.651,2.651,0,0,0-2.652,2.652V14.04A12.408,12.408,0,0,0,11.479,26.2V86.009a2.652,2.652,0,0,0,5.3,0V26.2a7.093,7.093,0,0,1,7.086-7.085H61.545A7.093,7.093,0,0,1,68.63,26.2V102.28a7.093,7.093,0,0,1-7.085,7.086H23.868a7.094,7.094,0,0,1-7.086-7.086,2.652,2.652,0,0,0-5.3,0,12.4,12.4,0,0,0,12.389,12.389H61.545A12.4,12.4,0,0,0,73.934,102.28V26.2A12.4,12.4,0,0,0,61.545,13.809Z" fill="#f8ff35"/>
    <path id="Path_1936" data-name="Path 1936" d="M45.511,87.135H80.473a2.652,2.652,0,1,0,0-5.3H45.511a2.652,2.652,0,0,0,0,5.3Z" transform="translate(-20.285 -52.9)" fill="#f8ff35"/>
    <path id="Path_1937" data-name="Path 1937" d="M45.511,117.922H80.473a2.652,2.652,0,1,0,0-5.3H45.511a2.652,2.652,0,1,0,0,5.3Z" transform="translate(-20.285 -72.802)" fill="#f8ff35"/>
    <path id="Path_1938" data-name="Path 1938" d="M45.511,148.709H80.473a2.652,2.652,0,1,0,0-5.3H45.511a2.652,2.652,0,1,0,0,5.3Z" transform="translate(-20.285 -92.704)" fill="#f8ff35"/>
    <path id="Path_1939" data-name="Path 1939" d="M45.511,179.5H80.473a2.652,2.652,0,1,0,0-5.3H45.511a2.652,2.652,0,1,0,0,5.3Z" transform="translate(-20.285 -112.606)" fill="#f8ff35"/>
    <path id="Path_1940" data-name="Path 1940" d="M45.511,210.283H80.473a2.652,2.652,0,1,0,0-5.3H45.511a2.652,2.652,0,1,0,0,5.3Z" transform="translate(-20.285 -132.508)" fill="#f8ff35"/>
    <path id="Path_1941" data-name="Path 1941" d="M45.511,241.071H80.473a2.652,2.652,0,1,0,0-5.3H45.511a2.652,2.652,0,0,0,0,5.3Z" transform="translate(-20.285 -152.41)" fill="#f8ff35"/>
    <path id="Path_1942" data-name="Path 1942" d="M45.511,271.858H80.473a2.652,2.652,0,1,0,0-5.3H45.511a2.652,2.652,0,1,0,0,5.3Z" transform="translate(-20.285 -172.312)" fill="#f8ff35"/>
    <path id="Path_1943" data-name="Path 1943" d="M251.119,92.786,237.1,78.768a2.652,2.652,0,0,0-3.75,0L219.335,92.786a2.652,2.652,0,0,0,3.75,3.75l9.491-9.491v60.266a2.652,2.652,0,1,0,5.3,0V87.045l9.491,9.491a2.652,2.652,0,1,0,3.75-3.751Z" transform="translate(-133.865 -50.417)" fill="#f8ff35"/>
  </g>
</svg>
