<svg xmlns="http://www.w3.org/2000/svg" width="96.526" height="105.512" viewBox="0 0 96.526 105.512">
  <g id="work-from-home" transform="translate(-21.802)">
    <path id="Path_1944" data-name="Path 1944" d="M116.565,38.95,108.5,31.9V8.807h.409A2.793,2.793,0,0,0,111.7,6.018V2.789A2.792,2.792,0,0,0,108.908,0H94.635a2.793,2.793,0,0,0-2.789,2.789V6.018a2.793,2.793,0,0,0,2.789,2.789h.409V20.141L73.456,1.273a5.17,5.17,0,0,0-6.781,0L23.565,38.95a5.152,5.152,0,0,0,6.781,7.758l1.286-1.124v56.836H28.747a1.546,1.546,0,1,0,0,3.091h82.637a1.546,1.546,0,0,0,0-3.091H108.5V45.585l1.286,1.124a5.152,5.152,0,0,0,6.781-7.758ZM94.937,5.716V3.091h13.67V5.716Zm10.471,3.091V29.2l-7.272-6.356V8.807Zm0,93.613H34.723V42.883L70.065,11.994l35.342,30.889Zm9.319-58.236a2.063,2.063,0,0,1-2.908.2l-3.848-3.363h0L71.653,9.276a2.421,2.421,0,0,0-3.175,0l-40.166,35.1a2.061,2.061,0,1,1-2.712-3.1L68.709,3.6a2.068,2.068,0,0,1,2.712,0l34.515,30.165,8.595,7.512a2.059,2.059,0,0,1,.2,2.908Z" fill="#f8ff35"/>
    <path id="Path_1945" data-name="Path 1945" d="M105.709,210.315v30.661a6.293,6.293,0,0,0,.9,3.242h-.945a3.5,3.5,0,0,0-3.491,3.491,7.193,7.193,0,0,0,7.184,7.184h20.91a1.546,1.546,0,1,0,0-3.091h-20.91a4.1,4.1,0,0,1-4.093-4.093.4.4,0,0,1,.4-.4h56.42a.4.4,0,0,1,.4.4,4.1,4.1,0,0,1-4.093,4.093h-20.91a1.546,1.546,0,0,0,0,3.091h20.911a7.193,7.193,0,0,0,7.184-7.184,3.5,3.5,0,0,0-3.491-3.491h-.945a6.293,6.293,0,0,0,.9-3.242V210.315a6.34,6.34,0,0,0-6.333-6.333H112.043a6.34,6.34,0,0,0-6.333,6.333Zm53.23,0v30.661a3.245,3.245,0,0,1-3.242,3.242H112.043a3.246,3.246,0,0,1-3.242-3.242V210.315a3.246,3.246,0,0,1,3.242-3.242H155.7A3.246,3.246,0,0,1,158.94,210.315Z" transform="translate(-63.805 -161.946)" fill="#f8ff35"/>
    <path id="Path_1946" data-name="Path 1946" d="M212.477,342.378h-26.34a1.546,1.546,0,1,0,0,3.091h26.34a1.546,1.546,0,0,0,0-3.091Z" transform="translate(-129.242 -271.821)" fill="#f8ff35"/>
    <path id="Path_1947" data-name="Path 1947" d="M212.477,315.2h-26.34a1.546,1.546,0,1,0,0,3.091h26.34a1.546,1.546,0,0,0,0-3.091Z" transform="translate(-129.242 -250.241)" fill="#f8ff35"/>
    <path id="Path_1948" data-name="Path 1948" d="M212.477,288.013h-26.34a1.546,1.546,0,1,0,0,3.091h26.34a1.546,1.546,0,0,0,0-3.091Z" transform="translate(-129.242 -228.66)" fill="#f8ff35"/>
    <path id="Path_1949" data-name="Path 1949" d="M186.138,263.922h13.17a1.546,1.546,0,1,0,0-3.091h-13.17a1.546,1.546,0,0,0,0,3.091Z" transform="translate(-129.243 -207.079)" fill="#f8ff35"/>
    <path id="Path_1950" data-name="Path 1950" d="M149.349,262.329a2.618,2.618,0,0,0,2.615,2.615H190.69a2.618,2.618,0,0,0,2.615-2.615v-8.815a1.546,1.546,0,1,0-3.091,0v8.339H152.44v-24.78h37.774V246.3a1.546,1.546,0,0,0,3.091,0v-9.7a2.618,2.618,0,0,0-2.615-2.615H151.964a2.618,2.618,0,0,0-2.615,2.615v25.732Z" transform="translate(-101.262 -185.763)" fill="#f8ff35"/>
  </g>
</svg>
