<svg xmlns="http://www.w3.org/2000/svg" width="131.005" height="119" viewBox="0 0 131.005 119">
  <g id="team" transform="translate(0 -23.462)">
    <g id="Group_609" data-name="Group 609" transform="translate(119.641 101.576)">
      <g id="Group_608" data-name="Group 608" transform="translate(0 0)">
        <path id="Path_1951" data-name="Path 1951" d="M478.194,335.688l-6.245-6.195a2.559,2.559,0,0,0-3.6,3.634l6.245,6.195a2.559,2.559,0,0,0,3.6-3.634Z" transform="translate(-467.587 -328.751)" fill="#f8ff35"/>
      </g>
    </g>
    <g id="Group_611" data-name="Group 611" transform="translate(113.267 95.231)">
      <g id="Group_610" data-name="Group 610">
        <path id="Path_1952" data-name="Path 1952" d="M447.047,304.7a2.559,2.559,0,0,0-3.619,0l0,0a2.559,2.559,0,1,0,3.624,0Z" transform="translate(-442.675 -303.952)" fill="#f8ff35"/>
      </g>
    </g>
    <g id="Group_613" data-name="Group 613" transform="translate(0 23.462)">
      <g id="Group_612" data-name="Group 612" transform="translate(0 0)">
        <path id="Path_1953" data-name="Path 1953" d="M95.821,107.781l24.826-24.826A9.637,9.637,0,0,0,116,66.743a9.647,9.647,0,0,0-7.109-13.568,9.628,9.628,0,0,0-7.511-12.517,9.649,9.649,0,0,0-13.764-11.5l-.247-.265A17.078,17.078,0,0,0,74.9,23.462h-20.1a2.56,2.56,0,0,0-2.559,2.559v3.356a11.626,11.626,0,0,0,.662,3.88A9.645,9.645,0,0,0,40.055,45.194a9.644,9.644,0,0,0-7.522,12.519,9.644,9.644,0,0,0-7.1,13.562,9.645,9.645,0,0,0-4.652,16.217L25.884,92.6.749,117.732a2.559,2.559,0,1,0,3.619,3.62L29.746,95.974a9.638,9.638,0,0,0,14.4-8.775c.13.005.259.009.389.009a9.636,9.636,0,0,0,9.644-9.639c0-.13,0-.26-.009-.389.128.005.256.009.385.009a9.636,9.636,0,0,0,9.644-9.639c0-.13,0-.26-.009-.389.128.005.256.009.385.009a9.639,9.639,0,0,0,7.459-15.752L89.016,34.43a4.525,4.525,0,1,1,6.4,6.4l-2.5,2.5-9.088,9.088a2.559,2.559,0,1,0,3.619,3.62l9.088-9.088a4.526,4.526,0,1,1,6.4,6.4l-2.5,2.5-6.583,6.583a2.559,2.559,0,1,0,3.619,3.62l6.583-6.583a4.525,4.525,0,1,1,6.4,6.4l-3.438,3.438-3.145,3.145a2.559,2.559,0,1,0,3.619,3.62l3.147-3.147a4.526,4.526,0,0,1,6.4,6.4L92.2,104.163a34.669,34.669,0,0,1-23.33,10.163,2.559,2.559,0,0,0-1.72.751L44.215,138.1a2.559,2.559,0,1,0,3.626,3.613l16.869-16.931A23.788,23.788,0,0,0,79.157,128.5l13.2,13.2a2.559,2.559,0,1,0,3.619-3.62L81.941,124.04a2.561,2.561,0,0,0-2.019-.741l-.811.067a18.681,18.681,0,0,1-10.679-2.325l1.645-1.651A39.765,39.765,0,0,0,95.821,107.781ZM37.712,90.789a4.525,4.525,0,0,1-6.4,0L24.4,83.874a4.526,4.526,0,1,1,6.4-6.4l6.915,6.915A4.531,4.531,0,0,1,37.712,90.789Zm10.02-10.02a4.531,4.531,0,0,1-6.4,0l-6.915-6.915-3.438-3.438a4.525,4.525,0,1,1,6.4-6.4L47.731,74.369h0a4.526,4.526,0,0,1,0,6.4ZM57.751,70.75a4.531,4.531,0,0,1-6.4,0L38.492,57.892a4.525,4.525,0,0,1,6.4-6.4l5.86,5.86,7,7h0a4.527,4.527,0,0,1,0,6.4ZM67.77,60.73a4.531,4.531,0,0,1-6.4,0L48.512,47.872l0,0-2.5-2.5a4.526,4.526,0,0,1,6.4-6.4L67.77,54.33a4.526,4.526,0,0,1,0,6.4Zm.673-12.965-7.029-7.029a11.71,11.71,0,0,0,2.451.26h.057l7.023-.033a2.559,2.559,0,0,0-.012-5.118H70.92l-7.023.033h-.032a6.5,6.5,0,0,1-6.5-6.5v-.8H74.9a11.944,11.944,0,0,1,8.715,3.795l.1.112Z" transform="translate(0 -23.462)" fill="#f8ff35"/>
      </g>
    </g>
  </g>
</svg>
